<svg width="163" height="93" viewBox="0 0 163 93" fill="none" xmlns="http://www.w3.org/2000/svg">
<g clip-path="url(#clip0_447_2418)">
<mask id="path-1-inside-1_447_2418" fill="white">
<path fill-rule="evenodd" clip-rule="evenodd" d="M80.2314 0.0416979C80.5721 -0.625213 81.5256 -0.625242 81.8662 0.0416979L88.0986 12.2438H151.861C157.689 12.244 162.413 16.9679 162.413 22.7956V81.9802C162.413 87.8079 157.689 92.5328 151.861 92.5329H10.5527C4.72487 92.5329 0 87.808 0 81.9802V22.7956C0.000126524 16.9679 4.72495 12.2438 10.5527 12.2438H73.999L80.2314 0.0416979Z"/>
</mask>
<path fill-rule="evenodd" clip-rule="evenodd" d="M80.2314 0.0416979C80.5721 -0.625213 81.5256 -0.625242 81.8662 0.0416979L88.0986 12.2438H151.861C157.689 12.244 162.413 16.9679 162.413 22.7956V81.9802C162.413 87.8079 157.689 92.5328 151.861 92.5329H10.5527C4.72487 92.5329 0 87.808 0 81.9802V22.7956C0.000126524 16.9679 4.72495 12.2438 10.5527 12.2438H73.999L80.2314 0.0416979Z" fill="white"/>
<path d="M80.2314 0.0416979L79.2509 -0.459199L79.2508 -0.459159L80.2314 0.0416979ZM81.8662 0.0416979L80.8856 0.542546L80.8856 0.542554L81.8662 0.0416979ZM88.0986 12.2438L87.118 12.7447L87.4246 13.345H88.0986V12.2438ZM151.861 12.2438L151.861 11.1427H151.861V12.2438ZM162.413 22.7956H163.514V22.7956L162.413 22.7956ZM151.861 92.5329V93.634H151.861L151.861 92.5329ZM0 22.7956L-1.10111 22.7956V22.7956H0ZM73.999 12.2438V13.345H74.673L74.9796 12.7447L73.999 12.2438ZM80.2314 0.0416979L81.212 0.542594C81.1439 0.675884 80.9538 0.676032 80.8856 0.542546L81.8662 0.0416979L82.8468 -0.459151C82.0974 -1.92652 80.0003 -1.92631 79.2509 -0.459199L80.2314 0.0416979ZM81.8662 0.0416979L80.8856 0.542554L87.118 12.7447L88.0986 12.2438L89.0792 11.743L82.8468 -0.459159L81.8662 0.0416979ZM88.0986 12.2438V13.345H151.861V12.2438V11.1427H88.0986V12.2438ZM151.861 12.2438L151.861 13.345C157.081 13.3451 161.312 17.5761 161.312 22.7956L162.413 22.7956L163.514 22.7956C163.514 16.3598 158.297 11.1429 151.861 11.1427L151.861 12.2438ZM162.413 22.7956H161.312V81.9802H162.413H163.514V22.7956H162.413ZM162.413 81.9802H161.312C161.312 87.1999 157.081 91.4317 151.861 91.4318L151.861 92.5329L151.861 93.634C158.297 93.6339 163.514 88.416 163.514 81.9802H162.413ZM151.861 92.5329V91.4318H10.5527V92.5329V93.634H151.861V92.5329ZM10.5527 92.5329V91.4318C5.333 91.4318 1.10111 87.1999 1.10111 81.9802H0H-1.10111C-1.10111 88.4162 4.11675 93.634 10.5527 93.634V92.5329ZM0 81.9802H1.10111V22.7956H0H-1.10111V81.9802H0ZM0 22.7956L1.10111 22.7956C1.10122 17.5761 5.33297 13.345 10.5527 13.345V12.2438V11.1427C4.11694 11.1427 -1.10097 16.3596 -1.10111 22.7956L0 22.7956ZM10.5527 12.2438V13.345H73.999V12.2438V11.1427H10.5527V12.2438ZM73.999 12.2438L74.9796 12.7447L81.212 0.542554L80.2314 0.0416979L79.2508 -0.459159L73.0184 11.743L73.999 12.2438Z" fill="#121212" mask="url(#path-1-inside-1_447_2418)"/>
<path d="M17.1575 42.5747L16.6372 41.0139H14.4818L13.9781 42.5747H13.0284L14.9938 36.8104H16.1665L18.132 42.5747H17.1575ZM15.5802 37.6693H15.5389L14.7048 40.2128H16.406L15.5802 37.6693ZM23.5118 41.8645H23.4787C23.4402 41.9691 23.3879 42.071 23.3218 42.1701C23.2613 42.2691 23.1814 42.3572 23.0823 42.4343C22.9887 42.5059 22.8731 42.5637 22.7355 42.6077C22.6033 42.6518 22.4492 42.6738 22.273 42.6738C21.8271 42.6738 21.4802 42.5307 21.2325 42.2444C20.9902 41.9581 20.8691 41.5479 20.8691 41.0139V38.2804H21.7693V40.8983C21.7693 41.5644 22.0445 41.8975 22.5951 41.8975C22.7107 41.8975 22.8236 41.8838 22.9337 41.8562C23.0438 41.8232 23.1401 41.7764 23.2227 41.7158C23.3108 41.6553 23.3796 41.5782 23.4292 41.4846C23.4842 41.391 23.5118 41.2809 23.5118 41.1543V38.2804H24.4119V42.5747H23.5118V41.8645ZM27.0635 42.6738C26.6561 42.6738 26.3147 42.6022 26.0394 42.4591C25.7642 42.3159 25.5247 42.1177 25.321 41.8645L25.8991 41.336C26.0587 41.5287 26.2349 41.6801 26.4276 41.7902C26.6258 41.8948 26.8543 41.9471 27.113 41.9471C27.3773 41.9471 27.5727 41.8975 27.6994 41.7984C27.8315 41.6938 27.8976 41.5507 27.8976 41.369C27.8976 41.2314 27.8508 41.1157 27.7572 41.0221C27.6691 40.923 27.5122 40.8597 27.2865 40.8322L26.8901 40.7827C26.4496 40.7276 26.1028 40.601 25.8495 40.4028C25.6018 40.1991 25.4779 39.899 25.4779 39.5026C25.4779 39.2934 25.5164 39.109 25.5935 38.9493C25.6706 38.7841 25.7779 38.6465 25.9156 38.5364C26.0587 38.4208 26.2266 38.3327 26.4193 38.2721C26.6175 38.2116 26.835 38.1813 27.0717 38.1813C27.4571 38.1813 27.7709 38.2419 28.0132 38.363C28.2609 38.4841 28.4812 38.652 28.6738 38.8667L28.1205 39.3953C28.0104 39.2631 27.8645 39.1503 27.6828 39.0567C27.5067 38.9576 27.303 38.908 27.0717 38.908C26.824 38.908 26.6396 38.9576 26.5184 39.0567C26.4028 39.1558 26.345 39.2851 26.345 39.4448C26.345 39.61 26.3973 39.7339 26.5019 39.8164C26.6065 39.899 26.7744 39.9596 27.0057 39.9981L27.4021 40.0477C27.8755 40.1192 28.2196 40.2596 28.4344 40.4688C28.6546 40.6725 28.7647 40.9478 28.7647 41.2947C28.7647 41.5039 28.7234 41.6938 28.6408 41.8645C28.5637 42.0297 28.4509 42.1728 28.3022 42.2939C28.1536 42.415 27.9746 42.5086 27.7654 42.5747C27.5562 42.6408 27.3222 42.6738 27.0635 42.6738ZM31.4663 42.6738C31.158 42.6738 30.8827 42.6215 30.6405 42.5169C30.3982 42.4123 30.1918 42.2636 30.0211 42.071C29.8504 41.8728 29.7183 41.636 29.6247 41.3607C29.5366 41.08 29.4926 40.7689 29.4926 40.4275C29.4926 40.0862 29.5366 39.7779 29.6247 39.5026C29.7183 39.2218 29.8504 38.9851 30.0211 38.7924C30.1918 38.5942 30.3982 38.4428 30.6405 38.3382C30.8827 38.2336 31.158 38.1813 31.4663 38.1813C31.7801 38.1813 32.0554 38.2363 32.2921 38.3465C32.5344 38.4566 32.7353 38.6107 32.895 38.8089C33.0547 39.0016 33.173 39.2273 33.2501 39.4861C33.3327 39.7449 33.374 40.0229 33.374 40.3202V40.6588H30.4258V40.7992C30.4258 41.1295 30.5221 41.402 30.7148 41.6167C30.913 41.826 31.1938 41.9306 31.5572 41.9306C31.8214 41.9306 32.0444 41.8728 32.2261 41.7571C32.4078 41.6415 32.5619 41.4846 32.6885 41.2864L33.2171 41.8067C33.0574 42.071 32.8262 42.2829 32.5234 42.4426C32.2206 42.5967 31.8682 42.6738 31.4663 42.6738ZM31.4663 38.8832C31.3122 38.8832 31.169 38.9108 31.0369 38.9658C30.9103 39.0209 30.8001 39.098 30.7065 39.1971C30.6185 39.2962 30.5496 39.4145 30.5001 39.5522C30.4505 39.6898 30.4258 39.8412 30.4258 40.0064V40.0642H32.4243V39.9816C32.4243 39.6513 32.3389 39.387 32.1683 39.1888C31.9976 38.9851 31.7636 38.8832 31.4663 38.8832ZM34.3705 42.5747V38.2804H35.2706V39.1062H35.3119C35.3725 38.886 35.4991 38.6933 35.6918 38.5281C35.8845 38.363 36.1515 38.2804 36.4928 38.2804H36.7323V39.1475H36.3772C36.0194 39.1475 35.7441 39.2053 35.5514 39.3209C35.3642 39.4366 35.2706 39.6072 35.2706 39.833V42.5747H34.3705ZM39.0541 38.2804H39.9295L40.3672 40.0807L40.7553 41.7076H40.7801L41.226 40.0807L41.7463 38.2804H42.5556L43.0841 40.0807L43.5383 41.7076H43.5631L43.943 40.0807L44.3889 38.2804H45.223L44.0669 42.5747H43.0511L42.4895 40.6175L42.1427 39.4118H42.1262L41.7876 40.6175L41.2178 42.5747H40.2268L39.0541 38.2804ZM46.0805 36.4636H46.9806V38.9906H47.0219C47.1155 38.7594 47.2559 38.5667 47.4431 38.4125C47.6358 38.2584 47.8973 38.1813 48.2276 38.1813C48.6681 38.1813 49.0094 38.3272 49.2517 38.619C49.4994 38.9053 49.6233 39.3154 49.6233 39.8495V42.5747H48.7231V39.9568C48.7231 39.2907 48.4534 38.9576 47.9138 38.9576C47.7982 38.9576 47.6826 38.9741 47.567 39.0071C47.4569 39.0346 47.3578 39.0787 47.2697 39.1393C47.1816 39.1998 47.11 39.2769 47.055 39.3705C47.0054 39.4641 46.9806 39.5714 46.9806 39.6926V42.5747H46.0805V36.4636ZM52.5556 42.6738C52.2583 42.6738 51.9858 42.6215 51.7381 42.5169C51.4958 42.4123 51.2894 42.2636 51.1187 42.071C50.948 41.8728 50.8159 41.636 50.7223 41.3607C50.6287 41.08 50.5819 40.7689 50.5819 40.4275C50.5819 40.0862 50.6287 39.7779 50.7223 39.5026C50.8159 39.2218 50.948 38.9851 51.1187 38.7924C51.2894 38.5942 51.4958 38.4428 51.7381 38.3382C51.9858 38.2336 52.2583 38.1813 52.5556 38.1813C52.8529 38.1813 53.1227 38.2336 53.3649 38.3382C53.6127 38.4428 53.8219 38.5942 53.9926 38.7924C54.1632 38.9851 54.2954 39.2218 54.389 39.5026C54.4826 39.7779 54.5294 40.0862 54.5294 40.4275C54.5294 40.7689 54.4826 41.08 54.389 41.3607C54.2954 41.636 54.1632 41.8728 53.9926 42.071C53.8219 42.2636 53.6127 42.4123 53.3649 42.5169C53.1227 42.6215 52.8529 42.6738 52.5556 42.6738ZM52.5556 41.9306C52.8639 41.9306 53.1117 41.837 53.2989 41.6498C53.4861 41.4571 53.5797 41.1708 53.5797 40.7909V40.0642C53.5797 39.6843 53.4861 39.4008 53.2989 39.2136C53.1117 39.0209 52.8639 38.9245 52.5556 38.9245C52.2473 38.9245 51.9996 39.0209 51.8124 39.2136C51.6252 39.4008 51.5316 39.6843 51.5316 40.0642V40.7909C51.5316 41.1708 51.6252 41.4571 51.8124 41.6498C51.9996 41.837 52.2473 41.9306 52.5556 41.9306ZM60.1845 41.8645H60.1432C60.0496 42.1177 59.8955 42.3159 59.6807 42.4591C59.4715 42.6022 59.2238 42.6738 58.9375 42.6738C58.3924 42.6738 57.9713 42.4784 57.674 42.0875C57.3767 41.6911 57.228 41.1378 57.228 40.4275C57.228 39.7173 57.3767 39.1668 57.674 38.7759C57.9713 38.3795 58.3924 38.1813 58.9375 38.1813C59.2238 38.1813 59.4715 38.2529 59.6807 38.396C59.8955 38.5336 60.0496 38.7318 60.1432 38.9906H60.1845V36.4636H61.0846V42.5747H60.1845V41.8645ZM59.21 41.8975C59.4853 41.8975 59.7165 41.8315 59.9037 41.6993C60.0909 41.5617 60.1845 41.3828 60.1845 41.1625V39.6926C60.1845 39.4723 60.0909 39.2962 59.9037 39.164C59.7165 39.0264 59.4853 38.9576 59.21 38.9576C58.8962 38.9576 58.6457 39.0594 58.4585 39.2631C58.2713 39.4613 58.1777 39.7256 58.1777 40.0559V40.7992C58.1777 41.1295 58.2713 41.3965 58.4585 41.6002C58.6457 41.7984 58.8962 41.8975 59.21 41.8975ZM64.056 42.6738C63.7587 42.6738 63.4861 42.6215 63.2384 42.5169C62.9961 42.4123 62.7897 42.2636 62.619 42.071C62.4483 41.8728 62.3162 41.636 62.2226 41.3607C62.129 41.08 62.0822 40.7689 62.0822 40.4275C62.0822 40.0862 62.129 39.7779 62.2226 39.5026C62.3162 39.2218 62.4483 38.9851 62.619 38.7924C62.7897 38.5942 62.9961 38.4428 63.2384 38.3382C63.4861 38.2336 63.7587 38.1813 64.056 38.1813C64.3533 38.1813 64.623 38.2336 64.8653 38.3382C65.113 38.4428 65.3222 38.5942 65.4929 38.7924C65.6636 38.9851 65.7957 39.2218 65.8893 39.5026C65.9829 39.7779 66.0297 40.0862 66.0297 40.4275C66.0297 40.7689 65.9829 41.08 65.8893 41.3607C65.7957 41.636 65.6636 41.8728 65.4929 42.071C65.3222 42.2636 65.113 42.4123 64.8653 42.5169C64.623 42.6215 64.3533 42.6738 64.056 42.6738ZM64.056 41.9306C64.3643 41.9306 64.612 41.837 64.7992 41.6498C64.9864 41.4571 65.08 41.1708 65.08 40.7909V40.0642C65.08 39.6843 64.9864 39.4008 64.7992 39.2136C64.612 39.0209 64.3643 38.9245 64.056 38.9245C63.7477 38.9245 63.4999 39.0209 63.3127 39.2136C63.1255 39.4008 63.0319 39.6843 63.0319 40.0642V40.7909C63.0319 41.1708 63.1255 41.4571 63.3127 41.6498C63.4999 41.837 63.7477 41.9306 64.056 41.9306ZM68.7174 42.6738C68.4091 42.6738 68.1338 42.6215 67.8916 42.5169C67.6493 42.4123 67.4429 42.2636 67.2722 42.071C67.1015 41.8728 66.9694 41.636 66.8758 41.3607C66.7877 41.08 66.7437 40.7689 66.7437 40.4275C66.7437 40.0862 66.7877 39.7779 66.8758 39.5026C66.9694 39.2218 67.1015 38.9851 67.2722 38.7924C67.4429 38.5942 67.6493 38.4428 67.8916 38.3382C68.1338 38.2336 68.4091 38.1813 68.7174 38.1813C69.0312 38.1813 69.3065 38.2363 69.5432 38.3465C69.7855 38.4566 69.9864 38.6107 70.1461 38.8089C70.3057 39.0016 70.4241 39.2273 70.5012 39.4861C70.5838 39.7449 70.6251 40.0229 70.6251 40.3202V40.6588H67.6768V40.7992C67.6768 41.1295 67.7732 41.402 67.9659 41.6167C68.1641 41.826 68.4449 41.9306 68.8082 41.9306C69.0725 41.9306 69.2955 41.8728 69.4772 41.7571C69.6588 41.6415 69.813 41.4846 69.9396 41.2864L70.4681 41.8067C70.3085 42.071 70.0773 42.2829 69.7745 42.4426C69.4716 42.5967 69.1193 42.6738 68.7174 42.6738ZM68.7174 38.8832C68.5632 38.8832 68.4201 38.9108 68.288 38.9658C68.1613 39.0209 68.0512 39.098 67.9576 39.1971C67.8695 39.2962 67.8007 39.4145 67.7512 39.5522C67.7016 39.6898 67.6768 39.8412 67.6768 40.0064V40.0642H69.6754V39.9816C69.6754 39.6513 69.59 39.387 69.4193 39.1888C69.2487 38.9851 69.0147 38.8832 68.7174 38.8832ZM72.9842 42.6738C72.5767 42.6738 72.2354 42.6022 71.9601 42.4591C71.6848 42.3159 71.4454 42.1177 71.2417 41.8645L71.8197 41.336C71.9794 41.5287 72.1556 41.6801 72.3483 41.7902C72.5465 41.8948 72.7749 41.9471 73.0337 41.9471C73.298 41.9471 73.4934 41.8975 73.62 41.7984C73.7522 41.6938 73.8182 41.5507 73.8182 41.369C73.8182 41.2314 73.7714 41.1157 73.6779 41.0221C73.5898 40.923 73.4329 40.8597 73.2071 40.8322L72.8107 40.7827C72.3703 40.7276 72.0234 40.601 71.7702 40.4028C71.5224 40.1991 71.3986 39.899 71.3986 39.5026C71.3986 39.2934 71.4371 39.109 71.5142 38.9493C71.5913 38.7841 71.6986 38.6465 71.8362 38.5364C71.9794 38.4208 72.1473 38.3327 72.34 38.2721C72.5382 38.2116 72.7557 38.1813 72.9924 38.1813C73.3778 38.1813 73.6916 38.2419 73.9339 38.363C74.1816 38.4841 74.4018 38.652 74.5945 38.8667L74.0412 39.3953C73.9311 39.2631 73.7852 39.1503 73.6035 39.0567C73.4273 38.9576 73.2236 38.908 72.9924 38.908C72.7447 38.908 72.5602 38.9576 72.4391 39.0567C72.3235 39.1558 72.2657 39.2851 72.2657 39.4448C72.2657 39.61 72.318 39.7339 72.4226 39.8164C72.5272 39.899 72.6951 39.9596 72.9263 39.9981L73.3227 40.0477C73.7962 40.1192 74.1403 40.2596 74.355 40.4688C74.5753 40.6725 74.6854 40.9478 74.6854 41.2947C74.6854 41.5039 74.6441 41.6938 74.5615 41.8645C74.4844 42.0297 74.3715 42.1728 74.2229 42.2939C74.0743 42.415 73.8953 42.5086 73.6861 42.5747C73.4769 42.6408 73.2429 42.6738 72.9842 42.6738ZM75.7023 42.5747V38.2804H76.6025V38.9906H76.6437C76.7373 38.7594 76.8777 38.5667 77.0649 38.4125C77.2576 38.2584 77.5191 38.1813 77.8495 38.1813C78.2899 38.1813 78.6312 38.3272 78.8735 38.619C79.1212 38.9053 79.2451 39.3154 79.2451 39.8495V42.5747H78.345V39.9651C78.345 39.2934 78.0752 38.9576 77.5356 38.9576C77.42 38.9576 77.3044 38.9741 77.1888 39.0071C77.0787 39.0346 76.9796 39.0787 76.8915 39.1393C76.8034 39.1998 76.7318 39.2769 76.6768 39.3705C76.6272 39.4641 76.6025 39.5742 76.6025 39.7008V42.5747H75.7023ZM80.9332 36.381C81.1424 36.381 81.2938 36.4305 81.3874 36.5296C81.481 36.6287 81.5278 36.7581 81.5278 36.9178V37.0582C81.5278 37.1903 81.5085 37.3279 81.4699 37.4711C81.4314 37.6087 81.3764 37.7464 81.3048 37.884C81.2332 38.0216 81.1479 38.1538 81.0488 38.2804C80.9497 38.407 80.8396 38.5199 80.7184 38.619H80.0743C80.2505 38.4483 80.3936 38.2804 80.5037 38.1152C80.6138 37.9501 80.6992 37.7711 80.7597 37.5784C80.6166 37.5509 80.5092 37.4903 80.4377 37.3968C80.3716 37.3032 80.3386 37.193 80.3386 37.0664V36.9178C80.3386 36.7581 80.3854 36.6287 80.4789 36.5296C80.5725 36.4305 80.7239 36.381 80.9332 36.381ZM83.8836 42.5747C83.5698 42.5747 83.3331 42.4949 83.1734 42.3352C83.0138 42.1701 82.9339 41.9388 82.9339 41.6415V39.0154H82.265V38.2804H82.6284C82.777 38.2804 82.8789 38.2474 82.9339 38.1813C82.9945 38.1152 83.0248 38.0079 83.0248 37.8592V37.1077H83.8341V38.2804H84.7342V39.0154H83.8341V41.8397H84.6682V42.5747H83.8836ZM87.6623 36.4636H88.5625V40.2128H88.6038L89.1984 39.4448L90.2307 38.2804H91.2795L89.7764 39.9403L91.4611 42.5747H90.3876L89.1571 40.5266L88.5625 41.1708V42.5747H87.6623V36.4636ZM92.1786 42.5747V38.2804H93.0787V38.9906H93.12C93.2136 38.7594 93.354 38.5667 93.5412 38.4125C93.7339 38.2584 93.9954 38.1813 94.3257 38.1813C94.7662 38.1813 95.1075 38.3272 95.3498 38.619C95.5975 38.9053 95.7214 39.3154 95.7214 39.8495V42.5747H94.8212V39.9651C94.8212 39.2934 94.5515 38.9576 94.0119 38.9576C93.8963 38.9576 93.7807 38.9741 93.6651 39.0071C93.555 39.0346 93.4559 39.0787 93.3678 39.1393C93.2797 39.1998 93.2081 39.2769 93.1531 39.3705C93.1035 39.4641 93.0787 39.5742 93.0787 39.7008V42.5747H92.1786ZM98.6537 42.6738C98.3564 42.6738 98.0839 42.6215 97.8362 42.5169C97.5939 42.4123 97.3875 42.2636 97.2168 42.071C97.0461 41.8728 96.914 41.636 96.8204 41.3607C96.7268 41.08 96.68 40.7689 96.68 40.4275C96.68 40.0862 96.7268 39.7779 96.8204 39.5026C96.914 39.2218 97.0461 38.9851 97.2168 38.7924C97.3875 38.5942 97.5939 38.4428 97.8362 38.3382C98.0839 38.2336 98.3564 38.1813 98.6537 38.1813C98.951 38.1813 99.2208 38.2336 99.463 38.3382C99.7108 38.4428 99.92 38.5942 100.091 38.7924C100.261 38.9851 100.393 39.2218 100.487 39.5026C100.581 39.7779 100.627 40.0862 100.627 40.4275C100.627 40.7689 100.581 41.08 100.487 41.3607C100.393 41.636 100.261 41.8728 100.091 42.071C99.92 42.2636 99.7108 42.4123 99.463 42.5169C99.2208 42.6215 98.951 42.6738 98.6537 42.6738ZM98.6537 41.9306C98.962 41.9306 99.2098 41.837 99.397 41.6498C99.5842 41.4571 99.6778 41.1708 99.6778 40.7909V40.0642C99.6778 39.6843 99.5842 39.4008 99.397 39.2136C99.2098 39.0209 98.962 38.9245 98.6537 38.9245C98.3454 38.9245 98.0977 39.0209 97.9105 39.2136C97.7233 39.4008 97.6297 39.6843 97.6297 40.0642V40.7909C97.6297 41.1708 97.7233 41.4571 97.9105 41.6498C98.0977 41.837 98.3454 41.9306 98.6537 41.9306ZM101.145 38.2804H102.02L102.458 40.0807L102.846 41.7076H102.871L103.317 40.0807L103.837 38.2804H104.646L105.175 40.0807L105.629 41.7076H105.654L106.033 40.0807L106.479 38.2804H107.314L106.157 42.5747H105.142L104.58 40.6175L104.233 39.4118H104.217L103.878 40.6175L103.308 42.5747H102.317L101.145 38.2804ZM110.123 36.4636H111.023V38.9906H111.064C111.158 38.7594 111.298 38.5667 111.485 38.4125C111.678 38.2584 111.939 38.1813 112.27 38.1813C112.71 38.1813 113.052 38.3272 113.294 38.619C113.542 38.9053 113.665 39.3154 113.665 39.8495V42.5747H112.765V39.9568C112.765 39.2907 112.496 38.9576 111.956 38.9576C111.84 38.9576 111.725 38.9741 111.609 39.0071C111.499 39.0346 111.4 39.0787 111.312 39.1393C111.224 39.1998 111.152 39.2769 111.097 39.3705C111.048 39.4641 111.023 39.5714 111.023 39.6926V42.5747H110.123V36.4636ZM116.598 42.6738C116.301 42.6738 116.028 42.6215 115.78 42.5169C115.538 42.4123 115.332 42.2636 115.161 42.071C114.99 41.8728 114.858 41.636 114.764 41.3607C114.671 41.08 114.624 40.7689 114.624 40.4275C114.624 40.0862 114.671 39.7779 114.764 39.5026C114.858 39.2218 114.99 38.9851 115.161 38.7924C115.332 38.5942 115.538 38.4428 115.78 38.3382C116.028 38.2336 116.301 38.1813 116.598 38.1813C116.895 38.1813 117.165 38.2336 117.407 38.3382C117.655 38.4428 117.864 38.5942 118.035 38.7924C118.205 38.9851 118.338 39.2218 118.431 39.5026C118.525 39.7779 118.572 40.0862 118.572 40.4275C118.572 40.7689 118.525 41.08 118.431 41.3607C118.338 41.636 118.205 41.8728 118.035 42.071C117.864 42.2636 117.655 42.4123 117.407 42.5169C117.165 42.6215 116.895 42.6738 116.598 42.6738ZM116.598 41.9306C116.906 41.9306 117.154 41.837 117.341 41.6498C117.528 41.4571 117.622 41.1708 117.622 40.7909V40.0642C117.622 39.6843 117.528 39.4008 117.341 39.2136C117.154 39.0209 116.906 38.9245 116.598 38.9245C116.289 38.9245 116.042 39.0209 115.855 39.2136C115.667 39.4008 115.574 39.6843 115.574 40.0642V40.7909C115.574 41.1708 115.667 41.4571 115.855 41.6498C116.042 41.837 116.289 41.9306 116.598 41.9306ZM119.089 38.2804H119.964L120.402 40.0807L120.79 41.7076H120.815L121.261 40.0807L121.781 38.2804H122.59L123.119 40.0807L123.573 41.7076H123.598L123.978 40.0807L124.424 38.2804H125.258L124.101 42.5747H123.086L122.524 40.6175L122.177 39.4118H122.161L121.822 40.6175L121.252 42.5747H120.261L119.089 38.2804ZM129.256 42.5747C128.942 42.5747 128.705 42.4949 128.546 42.3352C128.386 42.1701 128.306 41.9388 128.306 41.6415V39.0154H127.637V38.2804H128.001C128.149 38.2804 128.251 38.2474 128.306 38.1813C128.367 38.1152 128.397 38.0079 128.397 37.8592V37.1077H129.206V38.2804H130.107V39.0154H129.206V41.8397H130.04V42.5747H129.256ZM132.735 42.6738C132.438 42.6738 132.166 42.6215 131.918 42.5169C131.676 42.4123 131.469 42.2636 131.298 42.071C131.128 41.8728 130.996 41.636 130.902 41.3607C130.808 41.08 130.762 40.7689 130.762 40.4275C130.762 40.0862 130.808 39.7779 130.902 39.5026C130.996 39.2218 131.128 38.9851 131.298 38.7924C131.469 38.5942 131.676 38.4428 131.918 38.3382C132.166 38.2336 132.438 38.1813 132.735 38.1813C133.033 38.1813 133.302 38.2336 133.545 38.3382C133.792 38.4428 134.002 38.5942 134.172 38.7924C134.343 38.9851 134.475 39.2218 134.569 39.5026C134.662 39.7779 134.709 40.0862 134.709 40.4275C134.709 40.7689 134.662 41.08 134.569 41.3607C134.475 41.636 134.343 41.8728 134.172 42.071C134.002 42.2636 133.792 42.4123 133.545 42.5169C133.302 42.6215 133.033 42.6738 132.735 42.6738ZM132.735 41.9306C133.044 41.9306 133.291 41.837 133.479 41.6498C133.666 41.4571 133.759 41.1708 133.759 40.7909V40.0642C133.759 39.6843 133.666 39.4008 133.479 39.2136C133.291 39.0209 133.044 38.9245 132.735 38.9245C132.427 38.9245 132.179 39.0209 131.992 39.2136C131.805 39.4008 131.711 39.6843 131.711 40.0642V40.7909C131.711 41.1708 131.805 41.4571 131.992 41.6498C132.179 41.837 132.427 41.9306 132.735 41.9306ZM13.0614 51.2804H13.9368L14.3745 53.0807L14.7626 54.7076H14.7874L15.2333 53.0807L15.7536 51.2804H16.5629L17.0914 53.0807L17.5457 54.7076H17.5704L17.9503 53.0807L18.3963 51.2804H19.2303L18.0742 55.5747H17.0584L16.4968 53.6175L16.15 52.4118H16.1335L15.7949 53.6175L15.2251 55.5747H14.2341L13.0614 51.2804ZM20.0878 55.5747V51.2804H20.9879V52.1062H21.0292C21.0898 51.886 21.2164 51.6933 21.4091 51.5281C21.6018 51.363 21.8688 51.2804 22.2102 51.2804H22.4497V52.1475H22.0946C21.7367 52.1475 21.4614 52.2053 21.2687 52.3209C21.0815 52.4366 20.9879 52.6072 20.9879 52.833V55.5747H20.0878ZM23.7034 50.5124C23.5162 50.5124 23.3786 50.4683 23.2905 50.3802C23.2079 50.2921 23.1666 50.1793 23.1666 50.0416V49.9013C23.1666 49.7636 23.2079 49.6508 23.2905 49.5627C23.3786 49.4746 23.5162 49.4305 23.7034 49.4305C23.8906 49.4305 24.0255 49.4746 24.108 49.5627C24.1906 49.6508 24.2319 49.7636 24.2319 49.9013V50.0416C24.2319 50.1793 24.1906 50.2921 24.108 50.3802C24.0255 50.4683 23.8906 50.5124 23.7034 50.5124ZM23.2492 51.2804H24.1493V55.5747H23.2492V51.2804ZM26.6239 55.5747C26.3101 55.5747 26.0734 55.4949 25.9137 55.3352C25.754 55.1701 25.6742 54.9388 25.6742 54.6415V52.0154H25.0053V51.2804H25.3687C25.5173 51.2804 25.6192 51.2474 25.6742 51.1813C25.7348 51.1152 25.7651 51.0079 25.7651 50.8592V50.1077H26.5744V51.2804H27.4745V52.0154H26.5744V54.8397H27.4085V55.5747H26.6239ZM30.1034 55.6738C29.7951 55.6738 29.5198 55.6215 29.2775 55.5169C29.0353 55.4123 28.8288 55.2636 28.6582 55.071C28.4875 54.8728 28.3554 54.636 28.2618 54.3607C28.1737 54.08 28.1296 53.7689 28.1296 53.4275C28.1296 53.0862 28.1737 52.7779 28.2618 52.5026C28.3554 52.2218 28.4875 51.9851 28.6582 51.7924C28.8288 51.5942 29.0353 51.4428 29.2775 51.3382C29.5198 51.2336 29.7951 51.1813 30.1034 51.1813C30.4172 51.1813 30.6925 51.2363 30.9292 51.3465C31.1714 51.4566 31.3724 51.6107 31.5321 51.8089C31.6917 52.0016 31.8101 52.2273 31.8872 52.4861C31.9697 52.7449 32.011 53.0229 32.011 53.3202V53.6588H29.0628V53.7992C29.0628 54.1295 29.1592 54.402 29.3519 54.6167C29.5501 54.826 29.8308 54.9306 30.1942 54.9306C30.4585 54.9306 30.6815 54.8728 30.8631 54.7571C31.0448 54.6415 31.199 54.4846 31.3256 54.2864L31.8541 54.8067C31.6945 55.071 31.4632 55.2829 31.1604 55.4426C30.8576 55.5967 30.5053 55.6738 30.1034 55.6738ZM30.1034 51.8832C29.9492 51.8832 29.8061 51.9108 29.6739 51.9658C29.5473 52.0209 29.4372 52.098 29.3436 52.1971C29.2555 52.2962 29.1867 52.4145 29.1371 52.5522C29.0876 52.6898 29.0628 52.8412 29.0628 53.0064V53.0642H31.0613V52.9816C31.0613 52.6513 30.976 52.387 30.8053 52.1888C30.6347 51.9851 30.4007 51.8832 30.1034 51.8832ZM38.725 55.9794C38.725 56.4253 38.5543 56.7611 38.213 56.9869C37.8716 57.2126 37.3156 57.3255 36.5448 57.3255C36.1924 57.3255 35.8924 57.3007 35.6446 57.2511C35.4024 57.2071 35.2014 57.141 35.0418 57.0529C34.8876 56.9649 34.7748 56.8575 34.7032 56.7309C34.6316 56.6042 34.5958 56.4583 34.5958 56.2932C34.5958 56.0564 34.6591 55.872 34.7858 55.7399C34.9179 55.6077 35.0996 55.5169 35.3308 55.4673V55.3765C35.006 55.2719 34.8436 55.0517 34.8436 54.7158C34.8436 54.4956 34.9179 54.3277 35.0665 54.2121C35.2152 54.091 35.3941 54.0056 35.6033 53.9561V53.923C35.3501 53.8019 35.1546 53.634 35.017 53.4193C34.8849 53.1991 34.8188 52.9431 34.8188 52.6513C34.8188 52.2108 34.9647 51.8557 35.2565 51.5859C35.5538 51.3162 35.9777 51.1813 36.5283 51.1813C36.8311 51.1813 37.0898 51.2253 37.3045 51.3134V51.1978C37.3045 51.0051 37.3486 50.8565 37.4367 50.7519C37.5303 50.6417 37.6734 50.5867 37.8661 50.5867H38.5268V51.3134H37.6514V51.4868C37.8441 51.6135 37.9927 51.7786 38.0973 51.9823C38.2019 52.1805 38.2543 52.4035 38.2543 52.6513C38.2543 53.0862 38.1056 53.4386 37.8083 53.7083C37.511 53.9726 37.0871 54.1047 36.5365 54.1047C36.3273 54.1047 36.1401 54.0827 35.975 54.0387C35.8648 54.0772 35.7685 54.1323 35.6859 54.2038C35.6033 54.2699 35.562 54.358 35.562 54.4681C35.562 54.5837 35.6143 54.6663 35.719 54.7158C35.8236 54.7654 35.9722 54.7902 36.1649 54.7902H37.222C37.7505 54.7902 38.1331 54.8975 38.3699 55.1122C38.6066 55.3215 38.725 55.6105 38.725 55.9794ZM37.8826 56.0785C37.8826 55.9298 37.8248 55.8114 37.7092 55.7234C37.5991 55.6353 37.3954 55.5912 37.0981 55.5912H35.6446C35.4464 55.7068 35.3473 55.872 35.3473 56.0867C35.3473 56.2629 35.4161 56.4033 35.5538 56.5079C35.6969 56.618 35.9364 56.6731 36.2723 56.6731H36.8338C37.533 56.6731 37.8826 56.4749 37.8826 56.0785ZM36.5365 53.4523C36.8008 53.4523 37.0045 53.3945 37.1476 53.2789C37.2963 53.1578 37.3706 52.9733 37.3706 52.7256V52.5604C37.3706 52.3127 37.2963 52.131 37.1476 52.0154C37.0045 51.8943 36.8008 51.8337 36.5365 51.8337C36.2723 51.8337 36.0658 51.8943 35.9172 52.0154C35.774 52.131 35.7024 52.3127 35.7024 52.5604V52.7256C35.7024 52.9733 35.774 53.1578 35.9172 53.2789C36.0658 53.3945 36.2723 53.4523 36.5365 53.4523ZM41.0311 55.6738C40.7338 55.6738 40.4613 55.6215 40.2135 55.5169C39.9713 55.4123 39.7648 55.2636 39.5942 55.071C39.4235 54.8728 39.2914 54.636 39.1978 54.3607C39.1042 54.08 39.0574 53.7689 39.0574 53.4275C39.0574 53.0862 39.1042 52.7779 39.1978 52.5026C39.2914 52.2218 39.4235 51.9851 39.5942 51.7924C39.7648 51.5942 39.9713 51.4428 40.2135 51.3382C40.4613 51.2336 40.7338 51.1813 41.0311 51.1813C41.3284 51.1813 41.5982 51.2336 41.8404 51.3382C42.0882 51.4428 42.2974 51.5942 42.468 51.7924C42.6387 51.9851 42.7709 52.2218 42.8644 52.5026C42.958 52.7779 43.0048 53.0862 43.0048 53.4275C43.0048 53.7689 42.958 54.08 42.8644 54.3607C42.7709 54.636 42.6387 54.8728 42.468 55.071C42.2974 55.2636 42.0882 55.4123 41.8404 55.5169C41.5982 55.6215 41.3284 55.6738 41.0311 55.6738ZM41.0311 54.9306C41.3394 54.9306 41.5872 54.837 41.7744 54.6498C41.9615 54.4571 42.0551 54.1708 42.0551 53.7909V53.0642C42.0551 52.6843 41.9615 52.4008 41.7744 52.2136C41.5872 52.0209 41.3394 51.9245 41.0311 51.9245C40.7228 51.9245 40.475 52.0209 40.2879 52.2136C40.1007 52.4008 40.0071 52.6843 40.0071 53.0642V53.7909C40.0071 54.1708 40.1007 54.4571 40.2879 54.6498C40.475 54.837 40.7228 54.9306 41.0311 54.9306ZM45.6925 55.6738C45.3952 55.6738 45.1227 55.6215 44.875 55.5169C44.6327 55.4123 44.4263 55.2636 44.2556 55.071C44.0849 54.8728 43.9528 54.636 43.8592 54.3607C43.7656 54.08 43.7188 53.7689 43.7188 53.4275C43.7188 53.0862 43.7656 52.7779 43.8592 52.5026C43.9528 52.2218 44.0849 51.9851 44.2556 51.7924C44.4263 51.5942 44.6327 51.4428 44.875 51.3382C45.1227 51.2336 45.3952 51.1813 45.6925 51.1813C45.9898 51.1813 46.2596 51.2336 46.5018 51.3382C46.7496 51.4428 46.9588 51.5942 47.1295 51.7924C47.3001 51.9851 47.4323 52.2218 47.5259 52.5026C47.6195 52.7779 47.6663 53.0862 47.6663 53.4275C47.6663 53.7689 47.6195 54.08 47.5259 54.3607C47.4323 54.636 47.3001 54.8728 47.1295 55.071C46.9588 55.2636 46.7496 55.4123 46.5018 55.5169C46.2596 55.6215 45.9898 55.6738 45.6925 55.6738ZM45.6925 54.9306C46.0008 54.9306 46.2486 54.837 46.4358 54.6498C46.623 54.4571 46.7166 54.1708 46.7166 53.7909V53.0642C46.7166 52.6843 46.623 52.4008 46.4358 52.2136C46.2486 52.0209 46.0008 51.9245 45.6925 51.9245C45.3842 51.9245 45.1365 52.0209 44.9493 52.2136C44.7621 52.4008 44.6685 52.6843 44.6685 53.0642V53.7909C44.6685 54.1708 44.7621 54.4571 44.9493 54.6498C45.1365 54.837 45.3842 54.9306 45.6925 54.9306ZM51.3697 54.8645H51.3284C51.2348 55.1177 51.0807 55.3159 50.866 55.4591C50.6568 55.6022 50.409 55.6738 50.1227 55.6738C49.5777 55.6738 49.1565 55.4784 48.8592 55.0875C48.5619 54.6911 48.4133 54.1378 48.4133 53.4275C48.4133 52.7173 48.5619 52.1668 48.8592 51.7759C49.1565 51.3795 49.5777 51.1813 50.1227 51.1813C50.409 51.1813 50.6568 51.2529 50.866 51.396C51.0807 51.5336 51.2348 51.7318 51.3284 51.9906H51.3697V49.4636H52.2699V55.5747H51.3697V54.8645ZM50.3952 54.8975C50.6705 54.8975 50.9018 54.8315 51.0889 54.6993C51.2761 54.5617 51.3697 54.3828 51.3697 54.1625V52.6926C51.3697 52.4723 51.2761 52.2962 51.0889 52.164C50.9018 52.0264 50.6705 51.9576 50.3952 51.9576C50.0814 51.9576 49.8309 52.0594 49.6437 52.2631C49.4566 52.4613 49.363 52.7256 49.363 53.0559V53.7992C49.363 54.1295 49.4566 54.3965 49.6437 54.6002C49.8309 54.7984 50.0814 54.8975 50.3952 54.8975ZM58.6546 55.5747C58.4178 55.5747 58.2362 55.5086 58.1095 55.3765C57.9829 55.2389 57.9058 55.0654 57.8783 54.8562H57.837C57.7544 55.126 57.603 55.3297 57.3828 55.4673C57.1626 55.605 56.8956 55.6738 56.5817 55.6738C56.1358 55.6738 55.7917 55.5582 55.5495 55.327C55.3127 55.0957 55.1944 54.7847 55.1944 54.3938C55.1944 53.9643 55.3485 53.6423 55.6568 53.4275C55.9706 53.2128 56.4276 53.1055 57.0277 53.1055H57.804V52.7421C57.804 52.4778 57.7324 52.2741 57.5893 52.131C57.4461 51.9879 57.2231 51.9163 56.9203 51.9163C56.6671 51.9163 56.4606 51.9713 56.301 52.0814C56.1413 52.1916 56.0064 52.3319 55.8963 52.5026L55.3595 52.0154C55.5027 51.7731 55.7036 51.5749 55.9624 51.4208C56.2211 51.2611 56.5597 51.1813 56.9781 51.1813C57.5342 51.1813 57.9609 51.3107 58.2582 51.5694C58.5555 51.8282 58.7041 52.1998 58.7041 52.6843V54.8397H59.1583V55.5747H58.6546ZM56.8378 54.9884C57.1185 54.9884 57.3498 54.9278 57.5315 54.8067C57.7131 54.6801 57.804 54.5121 57.804 54.3029V53.6836H57.0442C56.4221 53.6836 56.111 53.8762 56.111 54.2616V54.4103C56.111 54.603 56.1743 54.7489 56.301 54.848C56.4331 54.9416 56.612 54.9884 56.8378 54.9884ZM60.9572 55.5747C60.6489 55.5747 60.4177 55.4976 60.2635 55.3435C60.1149 55.1838 60.0406 54.9636 60.0406 54.6828V49.4636H60.9407V54.8397H61.5353V55.5747H60.9572ZM63.5443 55.5747C63.2305 55.5747 62.9938 55.4949 62.8341 55.3352C62.6745 55.1701 62.5946 54.9388 62.5946 54.6415V52.0154H61.9257V51.2804H62.2891C62.4377 51.2804 62.5396 51.2474 62.5946 51.1813C62.6552 51.1152 62.6855 51.0079 62.6855 50.8592V50.1077H63.4948V51.2804H64.3949V52.0154H63.4948V54.8397H64.3289V55.5747H63.5443ZM68.5122 55.5747C68.1984 55.5747 67.9617 55.4949 67.802 55.3352C67.6423 55.1701 67.5625 54.9388 67.5625 54.6415V52.0154H66.8936V51.2804H67.257C67.4056 51.2804 67.5075 51.2474 67.5625 51.1813C67.6231 51.1152 67.6534 51.0079 67.6534 50.8592V50.1077H68.4627V51.2804H69.3628V52.0154H68.4627V54.8397H69.2968V55.5747H68.5122ZM71.9917 55.6738C71.6834 55.6738 71.4081 55.6215 71.1658 55.5169C70.9236 55.4123 70.7171 55.2636 70.5465 55.071C70.3758 54.8728 70.2437 54.636 70.1501 54.3607C70.062 54.08 70.0179 53.7689 70.0179 53.4275C70.0179 53.0862 70.062 52.7779 70.1501 52.5026C70.2437 52.2218 70.3758 51.9851 70.5465 51.7924C70.7171 51.5942 70.9236 51.4428 71.1658 51.3382C71.4081 51.2336 71.6834 51.1813 71.9917 51.1813C72.3055 51.1813 72.5808 51.2363 72.8175 51.3465C73.0597 51.4566 73.2607 51.6107 73.4204 51.8089C73.58 52.0016 73.6984 52.2273 73.7755 52.4861C73.8581 52.7449 73.8993 53.0229 73.8993 53.3202V53.6588H70.9511V53.7992C70.9511 54.1295 71.0475 54.402 71.2402 54.6167C71.4384 54.826 71.7192 54.9306 72.0825 54.9306C72.3468 54.9306 72.5698 54.8728 72.7514 54.7571C72.9331 54.6415 73.0873 54.4846 73.2139 54.2864L73.7424 54.8067C73.5828 55.071 73.3515 55.2829 73.0487 55.4426C72.7459 55.5967 72.3936 55.6738 71.9917 55.6738ZM71.9917 51.8832C71.8375 51.8832 71.6944 51.9108 71.5622 51.9658C71.4356 52.0209 71.3255 52.098 71.2319 52.1971C71.1438 52.2962 71.075 52.4145 71.0255 52.5522C70.9759 52.6898 70.9511 52.8412 70.9511 53.0064V53.0642H72.9496V52.9816C72.9496 52.6513 72.8643 52.387 72.6936 52.1888C72.523 51.9851 72.289 51.8832 71.9917 51.8832ZM74.3039 55.5747L75.8152 53.4028L74.3452 51.2804H75.3858L76.352 52.7751H76.3768L77.3678 51.2804H78.3257L76.8558 53.3945L78.3505 55.5747H77.31L76.319 54.0139H76.2942L75.2619 55.5747H74.3039ZM80.3513 55.5747C80.0375 55.5747 79.8007 55.4949 79.6411 55.3352C79.4814 55.1701 79.4016 54.9388 79.4016 54.6415V52.0154H78.7326V51.2804H79.096C79.2447 51.2804 79.3465 51.2474 79.4016 51.1813C79.4621 51.1152 79.4924 51.0079 79.4924 50.8592V50.1077H80.3017V51.2804H81.2019V52.0154H80.3017V54.8397H81.1358V55.5747H80.3513ZM82.7316 54.4268C82.9353 54.4268 83.0867 54.4791 83.1858 54.5837C83.2849 54.6883 83.3345 54.8232 83.3345 54.9884V55.1205C83.3345 55.3903 83.2601 55.6711 83.1115 55.9628C82.9683 56.2601 82.7729 56.5106 82.5251 56.7144H81.8562C82.0324 56.5382 82.1783 56.3675 82.2939 56.2023C82.4095 56.0372 82.4976 55.8527 82.5582 55.649C82.415 55.6215 82.3077 55.5609 82.2361 55.4673C82.1645 55.3682 82.1287 55.2526 82.1287 55.1205V54.9884C82.1287 54.8232 82.1783 54.6883 82.2774 54.5837C82.3765 54.4791 82.5279 54.4268 82.7316 54.4268ZM88.2099 55.6738C87.9126 55.6738 87.6401 55.6215 87.3923 55.5169C87.1501 55.4123 86.9436 55.2636 86.7729 55.071C86.6023 54.8728 86.4701 54.636 86.3765 54.3607C86.2829 54.08 86.2361 53.7689 86.2361 53.4275C86.2361 53.0862 86.2829 52.7779 86.3765 52.5026C86.4701 52.2218 86.6023 51.9851 86.7729 51.7924C86.9436 51.5942 87.1501 51.4428 87.3923 51.3382C87.6401 51.2336 87.9126 51.1813 88.2099 51.1813C88.5072 51.1813 88.777 51.2336 89.0192 51.3382C89.2669 51.4428 89.4762 51.5942 89.6468 51.7924C89.8175 51.9851 89.9496 52.2218 90.0432 52.5026C90.1368 52.7779 90.1836 53.0862 90.1836 53.4275C90.1836 53.7689 90.1368 54.08 90.0432 54.3607C89.9496 54.636 89.8175 54.8728 89.6468 55.071C89.4762 55.2636 89.2669 55.4123 89.0192 55.5169C88.777 55.6215 88.5072 55.6738 88.2099 55.6738ZM88.2099 54.9306C88.5182 54.9306 88.7659 54.837 88.9531 54.6498C89.1403 54.4571 89.2339 54.1708 89.2339 53.7909V53.0642C89.2339 52.6843 89.1403 52.4008 88.9531 52.2136C88.7659 52.0209 88.5182 51.9245 88.2099 51.9245C87.9016 51.9245 87.6538 52.0209 87.4666 52.2136C87.2794 52.4008 87.1859 52.6843 87.1859 53.0642V53.7909C87.1859 54.1708 87.2794 54.4571 87.4666 54.6498C87.6538 54.837 87.9016 54.9306 88.2099 54.9306ZM91.1866 55.5747V51.2804H92.0868V52.1062H92.1281C92.1886 51.886 92.3152 51.6933 92.5079 51.5281C92.7006 51.363 92.9677 51.2804 93.309 51.2804H93.5485V52.1475H93.1934C92.8355 52.1475 92.5602 52.2053 92.3676 52.3209C92.1804 52.4366 92.0868 52.6072 92.0868 52.833V55.5747H91.1866ZM95.8702 51.2804H96.7456L97.1833 53.0807L97.5714 54.7076H97.5962L98.0422 53.0807L98.5624 51.2804H99.3718L99.9003 53.0807L100.354 54.7076H100.379L100.759 53.0807L101.205 51.2804H102.039L100.883 55.5747H99.8673L99.3057 53.6175L98.9588 52.4118H98.9423L98.6037 53.6175L98.0339 55.5747H97.0429L95.8702 51.2804ZM102.897 49.4636H103.797V51.9906H103.838C103.932 51.7594 104.072 51.5667 104.259 51.4125C104.452 51.2584 104.713 51.1813 105.044 51.1813C105.484 51.1813 105.826 51.3272 106.068 51.619C106.316 51.9053 106.439 52.3154 106.439 52.8495V55.5747H105.539V52.9568C105.539 52.2907 105.27 51.9576 104.73 51.9576C104.614 51.9576 104.499 51.9741 104.383 52.0071C104.273 52.0346 104.174 52.0787 104.086 52.1393C103.998 52.1998 103.926 52.2769 103.871 52.3705C103.822 52.4641 103.797 52.5714 103.797 52.6926V55.5747H102.897V49.4636ZM109.372 55.6738C109.063 55.6738 108.788 55.6215 108.546 55.5169C108.304 55.4123 108.097 55.2636 107.927 55.071C107.756 54.8728 107.624 54.636 107.53 54.3607C107.442 54.08 107.398 53.7689 107.398 53.4275C107.398 53.0862 107.442 52.7779 107.53 52.5026C107.624 52.2218 107.756 51.9851 107.927 51.7924C108.097 51.5942 108.304 51.4428 108.546 51.3382C108.788 51.2336 109.063 51.1813 109.372 51.1813C109.686 51.1813 109.961 51.2363 110.198 51.3465C110.44 51.4566 110.641 51.6107 110.8 51.8089C110.96 52.0016 111.079 52.2273 111.156 52.4861C111.238 52.7449 111.279 53.0229 111.279 53.3202V53.6588H108.331V53.7992C108.331 54.1295 108.428 54.402 108.62 54.6167C108.818 54.826 109.099 54.9306 109.463 54.9306C109.727 54.9306 109.95 54.8728 110.132 54.7571C110.313 54.6415 110.467 54.4846 110.594 54.2864L111.123 54.8067C110.963 55.071 110.732 55.2829 110.429 55.4426C110.126 55.5967 109.774 55.6738 109.372 55.6738ZM109.372 51.8832C109.218 51.8832 109.074 51.9108 108.942 51.9658C108.816 52.0209 108.706 52.098 108.612 52.1971C108.524 52.2962 108.455 52.4145 108.406 52.5522C108.356 52.6898 108.331 52.8412 108.331 53.0064V53.0642H110.33V52.9816C110.33 52.6513 110.244 52.387 110.074 52.1888C109.903 51.9851 109.669 51.8832 109.372 51.8832ZM112.276 55.5747V51.2804H113.176V52.1062H113.217C113.278 51.886 113.405 51.6933 113.597 51.5281C113.79 51.363 114.057 51.2804 114.398 51.2804H114.638V52.1475H114.283C113.925 52.1475 113.65 52.2053 113.457 52.3209C113.27 52.4366 113.176 52.6072 113.176 52.833V55.5747H112.276ZM117.082 55.6738C116.773 55.6738 116.498 55.6215 116.256 55.5169C116.014 55.4123 115.807 55.2636 115.636 55.071C115.466 54.8728 115.334 54.636 115.24 54.3607C115.152 54.08 115.108 53.7689 115.108 53.4275C115.108 53.0862 115.152 52.7779 115.24 52.5026C115.334 52.2218 115.466 51.9851 115.636 51.7924C115.807 51.5942 116.014 51.4428 116.256 51.3382C116.498 51.2336 116.773 51.1813 117.082 51.1813C117.396 51.1813 117.671 51.2363 117.908 51.3465C118.15 51.4566 118.351 51.6107 118.51 51.8089C118.67 52.0016 118.788 52.2273 118.865 52.4861C118.948 52.7449 118.989 53.0229 118.989 53.3202V53.6588H116.041V53.7992C116.041 54.1295 116.137 54.402 116.33 54.6167C116.528 54.826 116.809 54.9306 117.173 54.9306C117.437 54.9306 117.66 54.8728 117.841 54.7571C118.023 54.6415 118.177 54.4846 118.304 54.2864L118.832 54.8067C118.673 55.071 118.442 55.2829 118.139 55.4426C117.836 55.5967 117.484 55.6738 117.082 55.6738ZM117.082 51.8832C116.928 51.8832 116.784 51.9108 116.652 51.9658C116.526 52.0209 116.416 52.098 116.322 52.1971C116.234 52.2962 116.165 52.4145 116.115 52.5522C116.066 52.6898 116.041 52.8412 116.041 53.0064V53.0642H118.04V52.9816C118.04 52.6513 117.954 52.387 117.784 52.1888C117.613 51.9851 117.379 51.8832 117.082 51.8832ZM123.127 55.5747C122.813 55.5747 122.576 55.4949 122.416 55.3352C122.257 55.1701 122.177 54.9388 122.177 54.6415V52.0154H121.508V51.2804H121.871C122.02 51.2804 122.122 51.2474 122.177 51.1813C122.238 51.1152 122.268 51.0079 122.268 50.8592V50.1077H123.077V51.2804H123.977V52.0154H123.077V54.8397H123.911V55.5747H123.127ZM126.606 55.6738C126.309 55.6738 126.036 55.6215 125.789 55.5169C125.546 55.4123 125.34 55.2636 125.169 55.071C124.999 54.8728 124.866 54.636 124.773 54.3607C124.679 54.08 124.632 53.7689 124.632 53.4275C124.632 53.0862 124.679 52.7779 124.773 52.5026C124.866 52.2218 124.999 51.9851 125.169 51.7924C125.34 51.5942 125.546 51.4428 125.789 51.3382C126.036 51.2336 126.309 51.1813 126.606 51.1813C126.903 51.1813 127.173 51.2336 127.415 51.3382C127.663 51.4428 127.872 51.5942 128.043 51.7924C128.214 51.9851 128.346 52.2218 128.439 52.5026C128.533 52.7779 128.58 53.0862 128.58 53.4275C128.58 53.7689 128.533 54.08 128.439 54.3607C128.346 54.636 128.214 54.8728 128.043 55.071C127.872 55.2636 127.663 55.4123 127.415 55.5169C127.173 55.6215 126.903 55.6738 126.606 55.6738ZM126.606 54.9306C126.914 54.9306 127.162 54.837 127.349 54.6498C127.537 54.4571 127.63 54.1708 127.63 53.7909V53.0642C127.63 52.6843 127.537 52.4008 127.349 52.2136C127.162 52.0209 126.914 51.9245 126.606 51.9245C126.298 51.9245 126.05 52.0209 125.863 52.2136C125.676 52.4008 125.582 52.6843 125.582 53.0642V53.7909C125.582 54.1708 125.676 54.4571 125.863 54.6498C126.05 54.837 126.298 54.9306 126.606 54.9306ZM131.758 52.0154H131.105V51.2804H131.758V50.5702C131.758 50.2233 131.848 49.9536 132.03 49.7609C132.212 49.5627 132.484 49.4636 132.848 49.4636H133.558V50.1986H132.658V51.2804H135.209V55.5747H134.309V52.0154H132.658V55.5747H131.758V52.0154ZM134.764 50.5124C134.576 50.5124 134.439 50.4683 134.351 50.3802C134.268 50.2921 134.227 50.1793 134.227 50.0416V49.9013C134.227 49.7636 134.268 49.6508 134.351 49.5627C134.439 49.4746 134.576 49.4305 134.764 49.4305C134.951 49.4305 135.086 49.4746 135.168 49.5627C135.251 49.6508 135.292 49.7636 135.292 49.9013V50.0416C135.292 50.1793 135.251 50.2921 135.168 50.3802C135.086 50.4683 134.951 50.5124 134.764 50.5124ZM136.494 55.5747V51.2804H137.395V51.9906H137.436C137.529 51.7594 137.67 51.5667 137.857 51.4125C138.05 51.2584 138.311 51.1813 138.642 51.1813C139.082 51.1813 139.423 51.3272 139.666 51.619C139.913 51.9053 140.037 52.3154 140.037 52.8495V55.5747H139.137V52.9651C139.137 52.2934 138.867 51.9576 138.328 51.9576C138.212 51.9576 138.096 51.9741 137.981 52.0071C137.871 52.0346 137.772 52.0787 137.684 52.1393C137.595 52.1998 137.524 52.2769 137.469 52.3705C137.419 52.4641 137.395 52.5742 137.395 52.7008V55.5747H136.494ZM143.985 54.8645H143.944C143.85 55.1177 143.696 55.3159 143.482 55.4591C143.272 55.6022 143.025 55.6738 142.738 55.6738C142.193 55.6738 141.772 55.4784 141.475 55.0875C141.177 54.6911 141.029 54.1378 141.029 53.4275C141.029 52.7173 141.177 52.1668 141.475 51.7759C141.772 51.3795 142.193 51.1813 142.738 51.1813C143.025 51.1813 143.272 51.2529 143.482 51.396C143.696 51.5336 143.85 51.7318 143.944 51.9906H143.985V49.4636H144.885V55.5747H143.985V54.8645ZM143.011 54.8975C143.286 54.8975 143.517 54.8315 143.705 54.6993C143.892 54.5617 143.985 54.3828 143.985 54.1625V52.6926C143.985 52.4723 143.892 52.2962 143.705 52.164C143.517 52.0264 143.286 51.9576 143.011 51.9576C142.697 51.9576 142.447 52.0594 142.259 52.2631C142.072 52.4613 141.979 52.7256 141.979 53.0559V53.7992C141.979 54.1295 142.072 54.3965 142.259 54.6002C142.447 54.7984 142.697 54.8975 143.011 54.8975ZM14.68 68.5747C14.3662 68.5747 14.1295 68.4949 13.9698 68.3352C13.8101 68.1701 13.7303 67.9388 13.7303 67.6415V65.0154H13.0614V64.2804H13.4248C13.5734 64.2804 13.6753 64.2474 13.7303 64.1813C13.7909 64.1152 13.8212 64.0079 13.8212 63.8592V63.1077H14.6305V64.2804H15.5306V65.0154H14.6305V67.8397H15.4646V68.5747H14.68ZM16.507 62.4636H17.4072V64.9906H17.4485C17.5421 64.7594 17.6825 64.5667 17.8697 64.4125C18.0624 64.2584 18.3239 64.1813 18.6542 64.1813C19.0946 64.1813 19.436 64.3272 19.6782 64.619C19.926 64.9053 20.0499 65.3154 20.0499 65.8495V68.5747H19.1497V65.9568C19.1497 65.2907 18.8799 64.9576 18.3404 64.9576C18.2248 64.9576 18.1092 64.9741 17.9935 65.0071C17.8834 65.0346 17.7843 65.0787 17.6962 65.1393C17.6082 65.1998 17.5366 65.2769 17.4815 65.3705C17.432 65.4641 17.4072 65.5714 17.4072 65.6926V68.5747H16.507V62.4636ZM22.9822 68.6738C22.6739 68.6738 22.3986 68.6215 22.1564 68.5169C21.9141 68.4123 21.7077 68.2636 21.537 68.071C21.3663 67.8728 21.2342 67.636 21.1406 67.3607C21.0525 67.08 21.0085 66.7689 21.0085 66.4275C21.0085 66.0862 21.0525 65.7779 21.1406 65.5026C21.2342 65.2218 21.3663 64.9851 21.537 64.7924C21.7077 64.5942 21.9141 64.4428 22.1564 64.3382C22.3986 64.2336 22.6739 64.1813 22.9822 64.1813C23.296 64.1813 23.5713 64.2363 23.808 64.3465C24.0503 64.4566 24.2512 64.6107 24.4109 64.8089C24.5705 65.0016 24.6889 65.2273 24.766 65.4861C24.8486 65.7449 24.8899 66.0229 24.8899 66.3202V66.6588H21.9417V66.7992C21.9417 67.1295 22.038 67.402 22.2307 67.6167C22.4289 67.826 22.7097 67.9306 23.073 67.9306C23.3373 67.9306 23.5603 67.8728 23.742 67.7571C23.9236 67.6415 24.0778 67.4846 24.2044 67.2864L24.733 67.8067C24.5733 68.071 24.3421 68.2829 24.0393 68.4426C23.7365 68.5967 23.3841 68.6738 22.9822 68.6738ZM22.9822 64.8832C22.828 64.8832 22.6849 64.9108 22.5528 64.9658C22.4261 65.0209 22.316 65.098 22.2224 65.1971C22.1343 65.2962 22.0655 65.4145 22.016 65.5522C21.9664 65.6898 21.9417 65.8412 21.9417 66.0064V66.0642H23.9402V65.9816C23.9402 65.6513 23.8548 65.387 23.6842 65.1888C23.5135 64.9851 23.2795 64.8832 22.9822 64.8832ZM27.838 62.4636H28.7382V64.9906H28.7795C28.8731 64.7318 29.0245 64.5336 29.2337 64.396C29.4484 64.2529 29.6989 64.1813 29.9852 64.1813C30.5302 64.1813 30.9514 64.3795 31.2487 64.7759C31.546 65.1668 31.6946 65.7173 31.6946 66.4275C31.6946 67.1378 31.546 67.6911 31.2487 68.0875C30.9514 68.4784 30.5302 68.6738 29.9852 68.6738C29.6989 68.6738 29.4484 68.6022 29.2337 68.4591C29.0245 68.3159 28.8731 68.1177 28.7795 67.8645H28.7382V68.5747H27.838V62.4636ZM29.7127 67.8975C30.0265 67.8975 30.277 67.7984 30.4642 67.6002C30.6513 67.3965 30.7449 67.1295 30.7449 66.7992V66.0559C30.7449 65.7256 30.6513 65.4613 30.4642 65.2631C30.277 65.0594 30.0265 64.9576 29.7127 64.9576C29.4374 64.9576 29.2061 65.0264 29.019 65.164C28.8318 65.2962 28.7382 65.4723 28.7382 65.6926V67.1625C28.7382 67.3828 28.8318 67.5617 29.019 67.6993C29.2061 67.8315 29.4374 67.8975 29.7127 67.8975ZM35.3266 67.8645H35.2936C35.255 67.9691 35.2027 68.071 35.1367 68.1701C35.0761 68.2691 34.9963 68.3572 34.8972 68.4343C34.8036 68.5059 34.688 68.5637 34.5503 68.6077C34.4182 68.6518 34.264 68.6738 34.0879 68.6738C33.6419 68.6738 33.2951 68.5307 33.0473 68.2444C32.8051 67.9581 32.684 67.5479 32.684 67.0139V64.2804H33.5841V66.8983C33.5841 67.5644 33.8594 67.8975 34.4099 67.8975C34.5256 67.8975 34.6384 67.8838 34.7485 67.8562C34.8586 67.8232 34.955 67.7764 35.0376 67.7158C35.1257 67.6553 35.1945 67.5782 35.244 67.4846C35.2991 67.391 35.3266 67.2809 35.3266 67.1543V64.2804H36.2268V68.5747H35.3266V67.8645ZM38.7049 68.5747C38.3911 68.5747 38.1544 68.4949 37.9947 68.3352C37.835 68.1701 37.7552 67.9388 37.7552 67.6415V65.0154H37.0863V64.2804H37.4496C37.5983 64.2804 37.7001 64.2474 37.7552 64.1813C37.8158 64.1152 37.846 64.0079 37.846 63.8592V63.1077H38.6554V64.2804H39.5555V65.0154H38.6554V67.8397H39.4894V68.5747H38.7049ZM41.6647 68.5747C41.3509 68.5747 41.1141 68.4949 40.9545 68.3352C40.7948 68.1701 40.715 67.9388 40.715 67.6415V65.0154H40.046V64.2804H40.4094C40.5581 64.2804 40.6599 64.2474 40.715 64.1813C40.7755 64.1152 40.8058 64.0079 40.8058 63.8592V63.1077H41.6151V64.2804H42.5153V65.0154H41.6151V67.8397H42.4492V68.5747H41.6647ZM45.1441 68.6738C44.8468 68.6738 44.5743 68.6215 44.3266 68.5169C44.0843 68.4123 43.8779 68.2636 43.7072 68.071C43.5365 67.8728 43.4044 67.636 43.3108 67.3607C43.2172 67.08 43.1704 66.7689 43.1704 66.4275C43.1704 66.0862 43.2172 65.7779 43.3108 65.5026C43.4044 65.2218 43.5365 64.9851 43.7072 64.7924C43.8779 64.5942 44.0843 64.4428 44.3266 64.3382C44.5743 64.2336 44.8468 64.1813 45.1441 64.1813C45.4414 64.1813 45.7112 64.2336 45.9534 64.3382C46.2012 64.4428 46.4104 64.5942 46.5811 64.7924C46.7517 64.9851 46.8839 65.2218 46.9775 65.5026C47.0711 65.7779 47.1179 66.0862 47.1179 66.4275C47.1179 66.7689 47.0711 67.08 46.9775 67.3607C46.8839 67.636 46.7517 67.8728 46.5811 68.071C46.4104 68.2636 46.2012 68.4123 45.9534 68.5169C45.7112 68.6215 45.4414 68.6738 45.1441 68.6738ZM45.1441 67.9306C45.4524 67.9306 45.7002 67.837 45.8874 67.6498C46.0746 67.4571 46.1682 67.1708 46.1682 66.7909V66.0642C46.1682 65.6843 46.0746 65.4008 45.8874 65.2136C45.7002 65.0209 45.4524 64.9245 45.1441 64.9245C44.8358 64.9245 44.5881 65.0209 44.4009 65.2136C44.2137 65.4008 44.1201 65.6843 44.1201 66.0642V66.7909C44.1201 67.1708 44.2137 67.4571 44.4009 67.6498C44.5881 67.837 44.8358 67.9306 45.1441 67.9306ZM48.1209 68.5747V64.2804H49.021V64.9906H49.0623C49.1559 64.7594 49.2963 64.5667 49.4835 64.4125C49.6762 64.2584 49.9377 64.1813 50.268 64.1813C50.7085 64.1813 51.0498 64.3272 51.292 64.619C51.5398 64.9053 51.6637 65.3154 51.6637 65.8495V68.5747H50.7635V65.9651C50.7635 65.2934 50.4937 64.9576 49.9542 64.9576C49.8386 64.9576 49.723 64.9741 49.6074 65.0071C49.4972 65.0346 49.3981 65.0787 49.3101 65.1393C49.222 65.1998 49.1504 65.2769 49.0953 65.3705C49.0458 65.4641 49.021 65.5742 49.021 65.7008V68.5747H48.1209ZM53.4646 68.6738C53.2609 68.6738 53.1095 68.6215 53.0104 68.5169C52.9113 68.4068 52.8618 68.2719 52.8618 68.1122V67.9884C52.8618 67.8287 52.9113 67.6966 53.0104 67.592C53.1095 67.4819 53.2609 67.4268 53.4646 67.4268C53.6683 67.4268 53.8197 67.4819 53.9188 67.592C54.0179 67.6966 54.0675 67.8287 54.0675 67.9884V68.1122C54.0675 68.2719 54.0179 68.4068 53.9188 68.5169C53.8197 68.6215 53.6683 68.6738 53.4646 68.6738Z" fill="#121212"/>
</g>
<defs>
<clipPath id="clip0_447_2418">
<rect width="162.413" height="92.6765" fill="white"/>
</clipPath>
</defs>
</svg>
