<svg width="146" height="186" viewBox="0 0 146 186" fill="none" xmlns="http://www.w3.org/2000/svg">
<path d="M86.1346 89.3439H95.504V65.1675C95.504 52.7029 85.3817 42.5806 72.917 42.5806C60.4524 42.5806 50.3301 52.7029 50.3301 65.1675V89.0093H61.7072" stroke="#121212" stroke-width="2.50966" stroke-miterlimit="10"/>
<path d="M58.0257 61.4868C60.4517 65.5859 61.7066 70.2706 61.7066 75.039V117.034H55.5997C53.592 117.034 51.8352 118.289 51.166 120.129L50.4131 122.304H66.7259V115.444H70.4904V94.1124" stroke="#121212" stroke-width="2.50966" stroke-miterlimit="10"/>
<path d="M89.2297 61.3193C86.8037 65.4184 85.5488 70.1031 85.5488 74.8715V89.0929" stroke="#121212" stroke-width="2.50966" stroke-miterlimit="10"/>
<path d="M62.042 94.5308H84.6289" stroke="#121212" stroke-width="2.50966" stroke-miterlimit="10"/>
<path d="M55.7676 89.0928V90.9332L57.0224 94.6977H60.4523" stroke="#121212" stroke-width="2.50966" stroke-miterlimit="10"/>
<path d="M91.1535 89.0928V90.9332L89.9823 94.6977H86.4688" stroke="#121212" stroke-width="2.50966" stroke-miterlimit="10"/>
<path d="M85.5482 85.2446V115.361H81.7838V122.22H71.7451L72.8326 118.372C73.2509 116.95 74.5894 115.946 76.0952 115.946V94.614" stroke="#121212" stroke-width="2.50966" stroke-miterlimit="10"/>
<path d="M58.0254 23.8418V27.6063C58.0254 35.8882 64.7178 42.4969 72.9997 42.6643C81.4489 42.8316 88.1413 35.9718 88.1413 27.6063V23.8418C88.1413 15.5599 81.7835 18.3206 73.5016 18.1532C65.0524 17.9859 58.0254 15.3926 58.0254 23.8418Z" stroke="#121212" stroke-width="2.50966" stroke-miterlimit="10"/>
<path d="M68.0635 33.8804C68.8164 35.9718 70.6568 37.4776 72.9991 37.4776C75.3415 37.4776 77.3492 35.9718 78.1021 33.8804" stroke="#121212" stroke-width="2.50966" stroke-miterlimit="10"/>
<path d="M73 42.5806C86.1674 42.5806 96.8417 33.3295 96.8417 21.9177C96.8417 10.506 86.1674 1.25488 73 1.25488C59.8325 1.25488 49.1582 10.506 49.1582 21.9177C49.1582 33.3295 59.8325 42.5806 73 42.5806Z" stroke="#121212" stroke-width="2.50966" stroke-miterlimit="10"/>
<path d="M81.7851 43.9189V53.2883H81.1159L74.2561 46.4286H73.0013L65.4723 53.2883H64.8867V43.9189" stroke="#121212" stroke-width="2.50966" stroke-miterlimit="10"/>
<path d="M76.2638 94.1122V78.385L64.8867 54.5432V52.6191" stroke="#121212" stroke-width="2.50966" stroke-miterlimit="10"/>
<path d="M81.7832 52.0337V54.5434L73.585 72.111V73.3658" stroke="#121212" stroke-width="2.50966" stroke-miterlimit="10"/>
<path d="M68.5654 50.7788L71.7443 55.1289V57.053L69.9039 64.5819" stroke="#121212" stroke-width="2.50966" stroke-miterlimit="10"/>
<path d="M78.605 50.7788L75.5098 55.1289V57.053L77.4338 64.5819" stroke="#121212" stroke-width="2.50966" stroke-miterlimit="10"/>
<path d="M72.415 79.0542V81.5639" stroke="#121212" stroke-width="2.50966" stroke-miterlimit="10"/>
<path d="M25.2697 154.235H25.1916C25.0484 154.899 24.658 155.452 24.0203 155.894C23.3956 156.324 22.5626 156.538 21.5215 156.538C20.7146 156.538 19.9663 156.389 19.2765 156.089C18.5867 155.777 17.988 155.328 17.4805 154.742C16.9859 154.144 16.5955 153.408 16.3092 152.536C16.0359 151.652 15.8992 150.636 15.8992 149.491C15.8992 148.359 16.0424 147.357 16.3287 146.485C16.615 145.6 17.0185 144.858 17.539 144.259C18.0596 143.661 18.6843 143.212 19.4131 142.912C20.142 142.6 20.9554 142.444 21.8534 142.444C23.0767 142.444 24.1114 142.717 24.9573 143.264C25.8033 143.797 26.4605 144.546 26.929 145.509L25.133 146.563C24.8727 145.925 24.4693 145.411 23.9227 145.021C23.3761 144.617 22.6863 144.415 21.8534 144.415C20.7732 144.415 19.9012 144.76 19.2374 145.45C18.5867 146.14 18.2614 147.116 18.2614 148.378V150.604C18.2614 151.866 18.5867 152.842 19.2374 153.532C19.9012 154.222 20.7732 154.567 21.8534 154.567C22.2828 154.567 22.6928 154.515 23.0832 154.411C23.4737 154.293 23.812 154.131 24.0984 153.923C24.3977 153.701 24.632 153.434 24.8011 153.122C24.9833 152.797 25.0745 152.419 25.0745 151.99V150.936H22.2633V149.042H27.2023V156.304H25.2697V154.235ZM34.095 156.538C33.3662 156.538 32.7155 156.415 32.1429 156.168C31.5702 155.92 31.0822 155.569 30.6787 155.113C30.2753 154.645 29.9629 154.085 29.7417 153.434C29.5334 152.771 29.4293 152.035 29.4293 151.229C29.4293 150.422 29.5334 149.693 29.7417 149.042C29.9629 148.378 30.2753 147.819 30.6787 147.363C31.0822 146.895 31.5702 146.537 32.1429 146.29C32.7155 146.042 33.3662 145.919 34.095 145.919C34.8369 145.919 35.4876 146.049 36.0472 146.309C36.6198 146.569 37.0949 146.934 37.4723 147.402C37.8497 147.858 38.1295 148.391 38.3117 149.003C38.507 149.615 38.6046 150.272 38.6046 150.975V151.775H31.6353V152.107C31.6353 152.888 31.863 153.532 32.3186 154.04C32.7871 154.534 33.4508 154.782 34.3098 154.782C34.9345 154.782 35.4616 154.645 35.891 154.372C36.3205 154.098 36.6849 153.727 36.9843 153.259L38.2336 154.489C37.8562 155.113 37.3096 155.614 36.5938 155.992C35.878 156.356 35.0451 156.538 34.095 156.538ZM34.095 147.578C33.7306 147.578 33.3922 147.643 33.0799 147.773C32.7806 147.903 32.5203 148.086 32.299 148.32C32.0908 148.554 31.9281 148.834 31.811 149.159C31.6939 149.485 31.6353 149.842 31.6353 150.233V150.37H36.3596V150.174C36.3596 149.393 36.1578 148.769 35.7544 148.3C35.3509 147.819 34.7978 147.578 34.095 147.578ZM40.9601 156.304V146.153H43.088V147.832H43.1856C43.4069 147.285 43.7387 146.83 44.1812 146.465C44.6367 146.101 45.2549 145.919 46.0358 145.919C47.077 145.919 47.8839 146.264 48.4565 146.953C49.0421 147.63 49.335 148.6 49.335 149.862V156.304H47.2071V150.135C47.2071 148.548 46.5694 147.754 45.294 147.754C45.0207 147.754 44.7474 147.793 44.4741 147.871C44.2138 147.936 43.9795 148.04 43.7713 148.183C43.563 148.326 43.3938 148.509 43.2637 148.73C43.1466 148.951 43.088 149.211 43.088 149.511V156.304H40.9601ZM56.2667 156.538C55.5379 156.538 54.8872 156.415 54.3145 156.168C53.7419 155.92 53.2539 155.569 52.8504 155.113C52.447 154.645 52.1346 154.085 51.9134 153.434C51.7051 152.771 51.601 152.035 51.601 151.229C51.601 150.422 51.7051 149.693 51.9134 149.042C52.1346 148.378 52.447 147.819 52.8504 147.363C53.2539 146.895 53.7419 146.537 54.3145 146.29C54.8872 146.042 55.5379 145.919 56.2667 145.919C57.0086 145.919 57.6593 146.049 58.2189 146.309C58.7915 146.569 59.2666 146.934 59.644 147.402C60.0214 147.858 60.3012 148.391 60.4834 149.003C60.6786 149.615 60.7763 150.272 60.7763 150.975V151.775H53.807V152.107C53.807 152.888 54.0347 153.532 54.4902 154.04C54.9588 154.534 55.6225 154.782 56.4815 154.782C57.1062 154.782 57.6332 154.645 58.0627 154.372C58.4922 154.098 58.8566 153.727 59.1559 153.259L60.4053 154.489C60.0279 155.113 59.4813 155.614 58.7655 155.992C58.0497 156.356 57.2168 156.538 56.2667 156.538ZM56.2667 147.578C55.9023 147.578 55.5639 147.643 55.2516 147.773C54.9523 147.903 54.692 148.086 54.4707 148.32C54.2625 148.554 54.0998 148.834 53.9827 149.159C53.8655 149.485 53.807 149.842 53.807 150.233V150.37H58.5312V150.174C58.5312 149.393 58.3295 148.769 57.9261 148.3C57.5226 147.819 56.9695 147.578 56.2667 147.578ZM63.1318 156.304V146.153H65.2597V148.105H65.3573C65.5005 147.584 65.7998 147.129 66.2553 146.739C66.7108 146.348 67.342 146.153 68.1489 146.153H68.715V148.203H67.8756C67.0297 148.203 66.3789 148.339 65.9234 148.613C65.4809 148.886 65.2597 149.289 65.2597 149.823V156.304H63.1318ZM77.8903 156.304C77.3307 156.304 76.9012 156.148 76.6018 155.836C76.3025 155.51 76.1203 155.1 76.0552 154.606H75.9576C75.7624 155.244 75.4045 155.725 74.8839 156.05C74.3633 156.376 73.7321 156.538 72.9903 156.538C71.9361 156.538 71.1227 156.265 70.5501 155.719C69.9905 155.172 69.7107 154.437 69.7107 153.513C69.7107 152.497 70.0751 151.736 70.8039 151.229C71.5457 150.721 72.6259 150.467 74.0445 150.467H75.8795V149.608C75.8795 148.984 75.7103 148.502 75.372 148.164C75.0336 147.825 74.5065 147.656 73.7907 147.656C73.192 147.656 72.704 147.786 72.3266 148.046C71.9492 148.307 71.6303 148.639 71.37 149.042L70.1011 147.89C70.4395 147.318 70.9145 146.849 71.5262 146.485C72.1379 146.107 72.9383 145.919 73.9274 145.919C75.2418 145.919 76.2504 146.224 76.9532 146.836C77.656 147.448 78.0074 148.326 78.0074 149.472V154.567H79.0811V156.304H77.8903ZM73.5955 154.918C74.2592 154.918 74.8058 154.775 75.2353 154.489C75.6648 154.189 75.8795 153.792 75.8795 153.298V151.834H74.0835C72.6129 151.834 71.8776 152.289 71.8776 153.2V153.552C71.8776 154.007 72.0272 154.352 72.3266 154.586C72.6389 154.808 73.0619 154.918 73.5955 154.918ZM83.3335 156.304C82.6047 156.304 82.0581 156.122 81.6937 155.758C81.3423 155.38 81.1666 154.86 81.1666 154.196V141.858H83.2945V154.567H84.7V156.304H83.3335ZM93.5919 142.678V151.072C93.5919 152.231 93.8131 153.103 94.2556 153.688C94.6981 154.274 95.453 154.567 96.5201 154.567C97.5873 154.567 98.3422 154.274 98.7847 153.688C99.2272 153.103 99.4484 152.231 99.4484 151.072V142.678H101.615V150.721C101.615 151.723 101.524 152.589 101.342 153.317C101.16 154.046 100.867 154.651 100.464 155.133C100.06 155.601 99.533 155.953 98.8823 156.187C98.2446 156.421 97.4572 156.538 96.5201 156.538C95.5831 156.538 94.7892 156.421 94.1385 156.187C93.5008 155.953 92.9802 155.601 92.5767 155.133C92.1733 154.651 91.8805 154.046 91.6983 153.317C91.5161 152.589 91.425 151.723 91.425 150.721V142.678H93.5919ZM107.951 156.538C106.988 156.538 106.181 156.369 105.53 156.031C104.88 155.693 104.313 155.224 103.832 154.625L105.198 153.376C105.576 153.831 105.992 154.189 106.448 154.45C106.916 154.697 107.456 154.821 108.068 154.821C108.693 154.821 109.155 154.703 109.454 154.469C109.767 154.222 109.923 153.884 109.923 153.454C109.923 153.129 109.812 152.855 109.591 152.634C109.383 152.4 109.012 152.25 108.478 152.185L107.541 152.068C106.5 151.938 105.68 151.638 105.081 151.17C104.496 150.688 104.203 149.979 104.203 149.042C104.203 148.548 104.294 148.112 104.476 147.734C104.658 147.344 104.912 147.018 105.238 146.758C105.576 146.485 105.973 146.277 106.428 146.133C106.897 145.99 107.411 145.919 107.971 145.919C108.882 145.919 109.623 146.062 110.196 146.348C110.782 146.634 111.302 147.031 111.758 147.539L110.45 148.788C110.19 148.476 109.845 148.209 109.415 147.988C108.999 147.754 108.517 147.637 107.971 147.637C107.385 147.637 106.949 147.754 106.663 147.988C106.389 148.222 106.253 148.528 106.253 148.905C106.253 149.296 106.376 149.589 106.624 149.784C106.871 149.979 107.268 150.122 107.814 150.213L108.751 150.331C109.871 150.5 110.684 150.832 111.192 151.326C111.712 151.808 111.973 152.458 111.973 153.278C111.973 153.773 111.875 154.222 111.68 154.625C111.498 155.016 111.231 155.354 110.879 155.64C110.528 155.927 110.105 156.148 109.61 156.304C109.116 156.46 108.563 156.538 107.951 156.538ZM118.359 156.538C117.63 156.538 116.979 156.415 116.407 156.168C115.834 155.92 115.346 155.569 114.943 155.113C114.539 154.645 114.227 154.085 114.006 153.434C113.797 152.771 113.693 152.035 113.693 151.229C113.693 150.422 113.797 149.693 114.006 149.042C114.227 148.378 114.539 147.819 114.943 147.363C115.346 146.895 115.834 146.537 116.407 146.29C116.979 146.042 117.63 145.919 118.359 145.919C119.101 145.919 119.751 146.049 120.311 146.309C120.884 146.569 121.359 146.934 121.736 147.402C122.114 147.858 122.393 148.391 122.576 149.003C122.771 149.615 122.868 150.272 122.868 150.975V151.775H115.899V152.107C115.899 152.888 116.127 153.532 116.582 154.04C117.051 154.534 117.715 154.782 118.574 154.782C119.198 154.782 119.725 154.645 120.155 154.372C120.584 154.098 120.949 153.727 121.248 153.259L122.498 154.489C122.12 155.113 121.573 155.614 120.858 155.992C120.142 156.356 119.309 156.538 118.359 156.538ZM118.359 147.578C117.994 147.578 117.656 147.643 117.344 147.773C117.044 147.903 116.784 148.086 116.563 148.32C116.355 148.554 116.192 148.834 116.075 149.159C115.958 149.485 115.899 149.842 115.899 150.233V150.37H120.623V150.174C120.623 149.393 120.422 148.769 120.018 148.3C119.615 147.819 119.062 147.578 118.359 147.578ZM125.224 156.304V146.153H127.352V148.105H127.449C127.593 147.584 127.892 147.129 128.347 146.739C128.803 146.348 129.434 146.153 130.241 146.153H130.807V148.203H129.968C129.122 148.203 128.471 148.339 128.016 148.613C127.573 148.886 127.352 149.289 127.352 149.823V156.304H125.224Z" fill="#303030"/>
</svg>
