<svg width="163" height="93" viewBox="0 0 163 93" fill="none" xmlns="http://www.w3.org/2000/svg">
<g clip-path="url(#clip0_447_2368)">
<mask id="path-1-inside-1_447_2368" fill="white">
<path fill-rule="evenodd" clip-rule="evenodd" d="M80.2314 0.0410036C80.5722 -0.625583 81.5256 -0.625711 81.8662 0.0410036L88.0986 12.2432H151.861C157.689 12.2433 162.413 16.9681 162.413 22.7959V81.9795C162.413 87.8072 157.689 92.532 151.861 92.5322H10.5527C4.72487 92.5322 0 87.8073 0 81.9795V22.7959C0 16.968 4.72487 12.2432 10.5527 12.2432H73.999L80.2314 0.0410036Z"/>
</mask>
<path fill-rule="evenodd" clip-rule="evenodd" d="M80.2314 0.0410036C80.5722 -0.625583 81.5256 -0.625711 81.8662 0.0410036L88.0986 12.2432H151.861C157.689 12.2433 162.413 16.9681 162.413 22.7959V81.9795C162.413 87.8072 157.689 92.532 151.861 92.5322H10.5527C4.72487 92.5322 0 87.8073 0 81.9795V22.7959C0 16.968 4.72487 12.2432 10.5527 12.2432H73.999L80.2314 0.0410036Z" fill="white"/>
<path d="M80.2314 0.0410036L79.251 -0.460204L79.2508 -0.459853L80.2314 0.0410036ZM81.8662 0.0410036L82.8468 -0.459853L82.8467 -0.459991L81.8662 0.0410036ZM88.0986 12.2432L87.118 12.744L87.4246 13.3443H88.0986V12.2432ZM151.861 12.2432L151.861 11.142H151.861V12.2432ZM151.861 92.5322V93.6333H151.861L151.861 92.5322ZM73.999 12.2432V13.3443H74.673L74.9796 12.744L73.999 12.2432ZM80.2314 0.0410036L81.2119 0.542211C81.1439 0.675135 80.954 0.675789 80.8857 0.541999L81.8662 0.0410036L82.8467 -0.459991C82.0971 -1.92721 80.0005 -1.9263 79.251 -0.460204L80.2314 0.0410036ZM81.8662 0.0410036L80.8856 0.54186L87.118 12.744L88.0986 12.2432L89.0792 11.7423L82.8468 -0.459853L81.8662 0.0410036ZM88.0986 12.2432V13.3443H151.861V12.2432V11.142H88.0986V12.2432ZM151.861 12.2432L151.861 13.3443C157.081 13.3444 161.312 17.5762 161.312 22.7959H162.413H163.514C163.514 16.3601 158.297 11.1422 151.861 11.142L151.861 12.2432ZM162.413 22.7959H161.312V81.9795H162.413H163.514V22.7959H162.413ZM162.413 81.9795H161.312C161.312 87.1992 157.081 91.431 151.861 91.4311L151.861 92.5322L151.861 93.6333C158.297 93.6331 163.514 88.4153 163.514 81.9795H162.413ZM151.861 92.5322V91.4311H10.5527V92.5322V93.6333H151.861V92.5322ZM10.5527 92.5322V91.4311C5.333 91.4311 1.10111 87.1992 1.10111 81.9795H0H-1.10111C-1.10111 88.4155 4.11675 93.6333 10.5527 93.6333V92.5322ZM0 81.9795H1.10111V22.7959H0H-1.10111V81.9795H0ZM0 22.7959H1.10111C1.10111 17.5762 5.333 13.3443 10.5527 13.3443V12.2432V11.142C4.11675 11.142 -1.10111 16.3599 -1.10111 22.7959H0ZM10.5527 12.2432V13.3443H73.999V12.2432V11.142H10.5527V12.2432ZM73.999 12.2432L74.9796 12.744L81.212 0.54186L80.2314 0.0410036L79.2508 -0.459853L73.0184 11.7423L73.999 12.2432Z" fill="#121212" mask="url(#path-1-inside-1_447_2368)"/>
<path d="M17.1575 42.5742L16.6372 41.0134H14.4818L13.9781 42.5742H13.0284L14.9938 36.8099H16.1665L18.132 42.5742H17.1575ZM15.5802 37.6688H15.5389L14.7048 40.2123H16.406L15.5802 37.6688ZM20.9104 36.4631H21.8106V38.9901H21.8518C21.9454 38.7314 22.0968 38.5332 22.306 38.3955C22.5208 38.2524 22.7713 38.1808 23.0576 38.1808C23.6026 38.1808 24.0238 38.379 24.3211 38.7754C24.6184 39.1663 24.767 39.7168 24.767 40.4271C24.767 41.1373 24.6184 41.6906 24.3211 42.087C24.0238 42.4779 23.6026 42.6733 23.0576 42.6733C22.7713 42.6733 22.5208 42.6017 22.306 42.4586C22.0968 42.3155 21.9454 42.1173 21.8518 41.864H21.8106V42.5742H20.9104V36.4631ZM22.785 41.897C23.0988 41.897 23.3493 41.7979 23.5365 41.5997C23.7237 41.396 23.8173 41.129 23.8173 40.7987V40.0554C23.8173 39.7251 23.7237 39.4608 23.5365 39.2626C23.3493 39.0589 23.0988 38.9571 22.785 38.9571C22.5098 38.9571 22.2785 39.0259 22.0913 39.1635C21.9041 39.2957 21.8106 39.4718 21.8106 39.6921V41.162C21.8106 41.3823 21.9041 41.5612 22.0913 41.6988C22.2785 41.831 22.5098 41.897 22.785 41.897ZM26.7143 42.5742C26.406 42.5742 26.1748 42.4971 26.0206 42.343C25.872 42.1833 25.7976 41.9631 25.7976 41.6823V36.4631H26.6978V41.8392H27.2924V42.5742H26.7143ZM28.6067 37.5119C28.4196 37.5119 28.2819 37.4678 28.1938 37.3797C28.1112 37.2917 28.07 37.1788 28.07 37.0412V36.9008C28.07 36.7631 28.1112 36.6503 28.1938 36.5622C28.2819 36.4741 28.4196 36.43 28.6067 36.43C28.7939 36.43 28.9288 36.4741 29.0114 36.5622C29.094 36.6503 29.1353 36.7631 29.1353 36.9008V37.0412C29.1353 37.1788 29.094 37.2917 29.0114 37.3797C28.9288 37.4678 28.7939 37.5119 28.6067 37.5119ZM28.1525 38.2799H29.0527V42.5742H28.1525V38.2799ZM30.3381 42.5742V38.2799H31.2382V38.9901H31.2795C31.3731 38.7589 31.5135 38.5662 31.7007 38.412C31.8934 38.2579 32.1549 38.1808 32.4852 38.1808C32.9257 38.1808 33.267 38.3267 33.5093 38.6185C33.757 38.9048 33.8809 39.3149 33.8809 39.849V42.5742H32.9807V39.9646C32.9807 39.2929 32.711 38.9571 32.1714 38.9571C32.0558 38.9571 31.9402 38.9736 31.8246 39.0066C31.7145 39.0342 31.6154 39.0782 31.5273 39.1388C31.4392 39.1993 31.3676 39.2764 31.3126 39.37C31.263 39.4636 31.2382 39.5737 31.2382 39.7003V42.5742H30.3381ZM37.829 41.864H37.7877C37.6941 42.1173 37.54 42.3155 37.3253 42.4586C37.116 42.6017 36.8683 42.6733 36.582 42.6733C36.037 42.6733 35.6158 42.4779 35.3185 42.087C35.0212 41.6906 34.8725 41.1373 34.8725 40.4271C34.8725 39.7168 35.0212 39.1663 35.3185 38.7754C35.6158 38.379 36.037 38.1808 36.582 38.1808C36.8683 38.1808 37.116 38.2524 37.3253 38.3955C37.54 38.5332 37.6941 38.7314 37.7877 38.9901H37.829V36.4631H38.7292V42.5742H37.829V41.864ZM36.8545 41.897C37.1298 41.897 37.361 41.831 37.5482 41.6988C37.7354 41.5612 37.829 41.3823 37.829 41.162V39.6921C37.829 39.4718 37.7354 39.2957 37.5482 39.1635C37.361 39.0259 37.1298 38.9571 36.8545 38.9571C36.5407 38.9571 36.2902 39.0589 36.103 39.2626C35.9158 39.4608 35.8222 39.7251 35.8222 40.0554V40.7987C35.8222 41.129 35.9158 41.396 36.103 41.5997C36.2902 41.7979 36.5407 41.897 36.8545 41.897ZM44.5688 41.864H44.5358C44.4972 41.9686 44.4449 42.0705 44.3789 42.1696C44.3183 42.2687 44.2385 42.3568 44.1394 42.4338C44.0458 42.5054 43.9302 42.5632 43.7925 42.6073C43.6604 42.6513 43.5063 42.6733 43.3301 42.6733C42.8841 42.6733 42.5373 42.5302 42.2895 42.2439C42.0473 41.9576 41.9262 41.5474 41.9262 41.0134V38.2799H42.8263V40.8978C42.8263 41.564 43.1016 41.897 43.6521 41.897C43.7678 41.897 43.8806 41.8833 43.9907 41.8557C44.1008 41.8227 44.1972 41.7759 44.2798 41.7154C44.3679 41.6548 44.4367 41.5777 44.4862 41.4841C44.5413 41.3905 44.5688 41.2804 44.5688 41.1538V38.2799H45.469V42.5742H44.5688V41.864ZM48.1205 42.6733C47.7131 42.6733 47.3718 42.6017 47.0965 42.4586C46.8212 42.3155 46.5817 42.1173 46.378 41.864L46.9561 41.3355C47.1158 41.5282 47.292 41.6796 47.4846 41.7897C47.6828 41.8943 47.9113 41.9466 48.1701 41.9466C48.4344 41.9466 48.6298 41.897 48.7564 41.7979C48.8886 41.6933 48.9546 41.5502 48.9546 41.3685C48.9546 41.2309 48.9078 41.1153 48.8142 41.0217C48.7261 40.9226 48.5692 40.8592 48.3435 40.8317L47.9471 40.7822C47.5067 40.7271 47.1598 40.6005 46.9066 40.4023C46.6588 40.1986 46.5349 39.8985 46.5349 39.5021C46.5349 39.2929 46.5735 39.1085 46.6506 38.9488C46.7276 38.7837 46.835 38.646 46.9726 38.5359C47.1158 38.4203 47.2837 38.3322 47.4764 38.2716C47.6746 38.2111 47.8921 38.1808 48.1288 38.1808C48.5142 38.1808 48.828 38.2414 49.0702 38.3625C49.318 38.4836 49.5382 38.6515 49.7309 38.8662L49.1776 39.3948C49.0675 39.2626 48.9216 39.1498 48.7399 39.0562C48.5637 38.9571 48.36 38.9075 48.1288 38.9075C47.881 38.9075 47.6966 38.9571 47.5755 39.0562C47.4599 39.1553 47.4021 39.2847 47.4021 39.4443C47.4021 39.6095 47.4544 39.7334 47.559 39.8159C47.6636 39.8985 47.8315 39.9591 48.0627 39.9976L48.4591 40.0472C48.9326 40.1187 49.2767 40.2591 49.4914 40.4684C49.7116 40.6721 49.8217 40.9473 49.8217 41.2942C49.8217 41.5034 49.7805 41.6933 49.6979 41.864C49.6208 42.0292 49.5079 42.1723 49.3593 42.2934C49.2106 42.4146 49.0317 42.5082 48.8225 42.5742C48.6133 42.6403 48.3793 42.6733 48.1205 42.6733ZM52.5234 42.6733C52.2151 42.6733 51.9398 42.621 51.6975 42.5164C51.4553 42.4118 51.2488 42.2632 51.0782 42.0705C50.9075 41.8723 50.7754 41.6355 50.6818 41.3602C50.5937 41.0795 50.5496 40.7684 50.5496 40.4271C50.5496 40.0857 50.5937 39.7774 50.6818 39.5021C50.7754 39.2213 50.9075 38.9846 51.0782 38.7919C51.2488 38.5937 51.4553 38.4423 51.6975 38.3377C51.9398 38.2331 52.2151 38.1808 52.5234 38.1808C52.8372 38.1808 53.1125 38.2359 53.3492 38.346C53.5914 38.4561 53.7924 38.6102 53.9521 38.8084C54.1117 39.0011 54.2301 39.2269 54.3072 39.4856C54.3897 39.7444 54.431 40.0224 54.431 40.3197V40.6583H51.4828V40.7987C51.4828 41.129 51.5792 41.4015 51.7719 41.6163C51.9701 41.8255 52.2508 41.9301 52.6142 41.9301C52.8785 41.9301 53.1015 41.8723 53.2831 41.7566C53.4648 41.641 53.619 41.4841 53.7456 41.2859L54.2741 41.8062C54.1145 42.0705 53.8832 42.2824 53.5804 42.4421C53.2776 42.5962 52.9253 42.6733 52.5234 42.6733ZM52.5234 38.8828C52.3692 38.8828 52.2261 38.9103 52.0939 38.9653C51.9673 39.0204 51.8572 39.0975 51.7636 39.1966C51.6755 39.2957 51.6067 39.414 51.5572 39.5517C51.5076 39.6893 51.4828 39.8407 51.4828 40.0059V40.0637H53.4813V39.9811C53.4813 39.6508 53.396 39.3865 53.2253 39.1883C53.0547 38.9846 52.8207 38.8828 52.5234 38.8828ZM55.4275 42.5742V38.2799H56.3277V39.1057H56.369C56.4295 38.8855 56.5562 38.6928 56.7488 38.5277C56.9415 38.3625 57.2086 38.2799 57.5499 38.2799H57.7894V39.147H57.4343C57.0764 39.147 56.8011 39.2048 56.6085 39.3204C56.4213 39.4361 56.3277 39.6067 56.3277 39.8325V42.5742H55.4275ZM60.1111 38.2799H60.9865L61.4242 40.0802L61.8123 41.7071H61.8371L62.2831 40.0802L62.8033 38.2799H63.6127L64.1412 40.0802L64.5954 41.7071H64.6202L65.0001 40.0802L65.446 38.2799H66.2801L65.1239 42.5742H64.1082L63.5466 40.617L63.1997 39.4113H63.1832L62.8446 40.617L62.2748 42.5742H61.2838L60.1111 38.2799ZM67.1375 36.4631H68.0377V38.9901H68.079C68.1726 38.7589 68.313 38.5662 68.5002 38.412C68.6929 38.2579 68.9544 38.1808 69.2847 38.1808C69.7251 38.1808 70.0665 38.3267 70.3087 38.6185C70.5565 38.9048 70.6803 39.3149 70.6803 39.849V42.5742H69.7802V39.9563C69.7802 39.2902 69.5104 38.9571 68.9709 38.9571C68.8553 38.9571 68.7396 38.9736 68.624 39.0066C68.5139 39.0342 68.4148 39.0782 68.3267 39.1388C68.2386 39.1993 68.1671 39.2764 68.112 39.37C68.0625 39.4636 68.0377 39.5709 68.0377 39.6921V42.5742H67.1375V36.4631ZM73.6127 42.6733C73.3154 42.6733 73.0429 42.621 72.7951 42.5164C72.5529 42.4118 72.3464 42.2632 72.1757 42.0705C72.0051 41.8723 71.8729 41.6355 71.7793 41.3602C71.6858 41.0795 71.639 40.7684 71.639 40.4271C71.639 40.0857 71.6858 39.7774 71.7793 39.5021C71.8729 39.2213 72.0051 38.9846 72.1757 38.7919C72.3464 38.5937 72.5529 38.4423 72.7951 38.3377C73.0429 38.2331 73.3154 38.1808 73.6127 38.1808C73.91 38.1808 74.1798 38.2331 74.422 38.3377C74.6698 38.4423 74.879 38.5937 75.0496 38.7919C75.2203 38.9846 75.3524 39.2213 75.446 39.5021C75.5396 39.7774 75.5864 40.0857 75.5864 40.4271C75.5864 40.7684 75.5396 41.0795 75.446 41.3602C75.3524 41.6355 75.2203 41.8723 75.0496 42.0705C74.879 42.2632 74.6698 42.4118 74.422 42.5164C74.1798 42.621 73.91 42.6733 73.6127 42.6733ZM73.6127 41.9301C73.921 41.9301 74.1687 41.8365 74.3559 41.6493C74.5431 41.4566 74.6367 41.1703 74.6367 40.7904V40.0637C74.6367 39.6838 74.5431 39.4003 74.3559 39.2131C74.1687 39.0204 73.921 38.924 73.6127 38.924C73.3044 38.924 73.0566 39.0204 72.8694 39.2131C72.6823 39.4003 72.5887 39.6838 72.5887 40.0637V40.7904C72.5887 41.1703 72.6823 41.4566 72.8694 41.6493C73.0566 41.8365 73.3044 41.9301 73.6127 41.9301ZM81.1425 41.864H81.1094C81.0709 41.9686 81.0186 42.0705 80.9525 42.1696C80.892 42.2687 80.8121 42.3568 80.713 42.4338C80.6194 42.5054 80.5038 42.5632 80.3662 42.6073C80.234 42.6513 80.0799 42.6733 79.9037 42.6733C79.4578 42.6733 79.1109 42.5302 78.8632 42.2439C78.6209 41.9576 78.4998 41.5474 78.4998 41.0134V38.2799H79.4V40.8978C79.4 41.564 79.6752 41.897 80.2258 41.897C80.3414 41.897 80.4543 41.8833 80.5644 41.8557C80.6745 41.8227 80.7708 41.7759 80.8534 41.7154C80.9415 41.6548 81.0103 41.5777 81.0599 41.4841C81.1149 41.3905 81.1425 41.2804 81.1425 41.1538V38.2799H82.0426V42.5742H81.1425V41.864ZM84.6942 42.6733C84.2868 42.6733 83.9454 42.6017 83.6701 42.4586C83.3949 42.3155 83.1554 42.1173 82.9517 41.864L83.5297 41.3355C83.6894 41.5282 83.8656 41.6796 84.0583 41.7897C84.2565 41.8943 84.485 41.9466 84.7437 41.9466C85.008 41.9466 85.2034 41.897 85.3301 41.7979C85.4622 41.6933 85.5283 41.5502 85.5283 41.3685C85.5283 41.2309 85.4815 41.1153 85.3879 41.0217C85.2998 40.9226 85.1429 40.8592 84.9171 40.8317L84.5207 40.7822C84.0803 40.7271 83.7335 40.6005 83.4802 40.4023C83.2324 40.1986 83.1086 39.8985 83.1086 39.5021C83.1086 39.2929 83.1471 39.1085 83.2242 38.9488C83.3013 38.7837 83.4086 38.646 83.5463 38.5359C83.6894 38.4203 83.8573 38.3322 84.05 38.2716C84.2482 38.2111 84.4657 38.1808 84.7024 38.1808C85.0878 38.1808 85.4016 38.2414 85.6439 38.3625C85.8916 38.4836 86.1118 38.6515 86.3045 38.8662L85.7512 39.3948C85.6411 39.2626 85.4952 39.1498 85.3135 39.0562C85.1374 38.9571 84.9337 38.9075 84.7024 38.9075C84.4547 38.9075 84.2702 38.9571 84.1491 39.0562C84.0335 39.1553 83.9757 39.2847 83.9757 39.4443C83.9757 39.6095 84.028 39.7334 84.1326 39.8159C84.2372 39.8985 84.4051 39.9591 84.6364 39.9976L85.0328 40.0472C85.5062 40.1187 85.8503 40.2591 86.065 40.4684C86.2853 40.6721 86.3954 40.9473 86.3954 41.2942C86.3954 41.5034 86.3541 41.6933 86.2715 41.864C86.1944 42.0292 86.0816 42.1723 85.9329 42.2934C85.7843 42.4146 85.6053 42.5082 85.3961 42.5742C85.1869 42.6403 84.9529 42.6733 84.6942 42.6733ZM89.097 42.6733C88.7887 42.6733 88.5134 42.621 88.2712 42.5164C88.0289 42.4118 87.8225 42.2632 87.6518 42.0705C87.4811 41.8723 87.349 41.6355 87.2554 41.3602C87.1673 41.0795 87.1233 40.7684 87.1233 40.4271C87.1233 40.0857 87.1673 39.7774 87.2554 39.5021C87.349 39.2213 87.4811 38.9846 87.6518 38.7919C87.8225 38.5937 88.0289 38.4423 88.2712 38.3377C88.5134 38.2331 88.7887 38.1808 89.097 38.1808C89.4108 38.1808 89.6861 38.2359 89.9228 38.346C90.1651 38.4561 90.366 38.6102 90.5257 38.8084C90.6854 39.0011 90.8037 39.2269 90.8808 39.4856C90.9634 39.7444 91.0047 40.0224 91.0047 40.3197V40.6583H88.0565V40.7987C88.0565 41.129 88.1528 41.4015 88.3455 41.6163C88.5437 41.8255 88.8245 41.9301 89.1878 41.9301C89.4521 41.9301 89.6751 41.8723 89.8568 41.7566C90.0385 41.641 90.1926 41.4841 90.3192 41.2859L90.8478 41.8062C90.6881 42.0705 90.4569 42.2824 90.1541 42.4421C89.8513 42.5962 89.4989 42.6733 89.097 42.6733ZM89.097 38.8828C88.9429 38.8828 88.7997 38.9103 88.6676 38.9653C88.5409 39.0204 88.4308 39.0975 88.3372 39.1966C88.2492 39.2957 88.1803 39.414 88.1308 39.5517C88.0812 39.6893 88.0565 39.8407 88.0565 40.0059V40.0637H90.055V39.9811C90.055 39.6508 89.9696 39.3865 89.799 39.1883C89.6283 38.9846 89.3943 38.8828 89.097 38.8828ZM93.3638 42.6733C92.9564 42.6733 92.615 42.6017 92.3397 42.4586C92.0645 42.3155 91.825 42.1173 91.6213 41.864L92.1994 41.3355C92.359 41.5282 92.5352 41.6796 92.7279 41.7897C92.9261 41.8943 93.1546 41.9466 93.4133 41.9466C93.6776 41.9466 93.873 41.897 93.9997 41.7979C94.1318 41.6933 94.1979 41.5502 94.1979 41.3685C94.1979 41.2309 94.1511 41.1153 94.0575 41.0217C93.9694 40.9226 93.8125 40.8592 93.5868 40.8317L93.1904 40.7822C92.7499 40.7271 92.4031 40.6005 92.1498 40.4023C91.9021 40.1986 91.7782 39.8985 91.7782 39.5021C91.7782 39.2929 91.8167 39.1085 91.8938 38.9488C91.9709 38.7837 92.0782 38.646 92.2159 38.5359C92.359 38.4203 92.5269 38.3322 92.7196 38.2716C92.9178 38.2111 93.1353 38.1808 93.372 38.1808C93.7574 38.1808 94.0712 38.2414 94.3135 38.3625C94.5612 38.4836 94.7815 38.6515 94.9741 38.8662L94.4208 39.3948C94.3107 39.2626 94.1648 39.1498 93.9832 39.0562C93.807 38.9571 93.6033 38.9075 93.372 38.9075C93.1243 38.9075 92.9399 38.9571 92.8187 39.0562C92.7031 39.1553 92.6453 39.2847 92.6453 39.4443C92.6453 39.6095 92.6976 39.7334 92.8022 39.8159C92.9068 39.8985 93.0747 39.9591 93.306 39.9976L93.7024 40.0472C94.1758 40.1187 94.5199 40.2591 94.7347 40.4684C94.9549 40.6721 95.065 40.9473 95.065 41.2942C95.065 41.5034 95.0237 41.6933 94.9411 41.864C94.864 42.0292 94.7512 42.1723 94.6025 42.2934C94.4539 42.4146 94.2749 42.5082 94.0657 42.5742C93.8565 42.6403 93.6225 42.6733 93.3638 42.6733ZM99.4292 42.5742L97.5381 36.8099H98.5043L99.421 39.659L99.9743 41.6658H100.007L100.569 39.659L101.486 36.8099H102.427L100.511 42.5742H99.4292ZM104.638 42.6733C104.34 42.6733 104.068 42.621 103.82 42.5164C103.578 42.4118 103.372 42.2632 103.201 42.0705C103.03 41.8723 102.898 41.6355 102.804 41.3602C102.711 41.0795 102.664 40.7684 102.664 40.4271C102.664 40.0857 102.711 39.7774 102.804 39.5021C102.898 39.2213 103.03 38.9846 103.201 38.7919C103.372 38.5937 103.578 38.4423 103.82 38.3377C104.068 38.2331 104.34 38.1808 104.638 38.1808C104.935 38.1808 105.205 38.2331 105.447 38.3377C105.695 38.4423 105.904 38.5937 106.075 38.7919C106.245 38.9846 106.378 39.2213 106.471 39.5021C106.565 39.7774 106.612 40.0857 106.612 40.4271C106.612 40.7684 106.565 41.0795 106.471 41.3602C106.378 41.6355 106.245 41.8723 106.075 42.0705C105.904 42.2632 105.695 42.4118 105.447 42.5164C105.205 42.621 104.935 42.6733 104.638 42.6733ZM104.638 41.9301C104.946 41.9301 105.194 41.8365 105.381 41.6493C105.568 41.4566 105.662 41.1703 105.662 40.7904V40.0637C105.662 39.6838 105.568 39.4003 105.381 39.2131C105.194 39.0204 104.946 38.924 104.638 38.924C104.329 38.924 104.082 39.0204 103.895 39.2131C103.707 39.4003 103.614 39.6838 103.614 40.0637V40.7904C103.614 41.1703 103.707 41.4566 103.895 41.6493C104.082 41.8365 104.329 41.9301 104.638 41.9301ZM108.069 37.5119C107.882 37.5119 107.744 37.4678 107.656 37.3797C107.573 37.2917 107.532 37.1788 107.532 37.0412V36.9008C107.532 36.7631 107.573 36.6503 107.656 36.5622C107.744 36.4741 107.882 36.43 108.069 36.43C108.256 36.43 108.391 36.4741 108.473 36.5622C108.556 36.6503 108.597 36.7631 108.597 36.9008V37.0412C108.597 37.1788 108.556 37.2917 108.473 37.3797C108.391 37.4678 108.256 37.5119 108.069 37.5119ZM107.615 38.2799H108.515V42.5742H107.615V38.2799ZM111.46 42.6733C111.152 42.6733 110.876 42.621 110.634 42.5164C110.392 42.4118 110.188 42.2632 110.023 42.0705C109.858 41.8723 109.731 41.6355 109.643 41.3602C109.555 41.0795 109.511 40.7684 109.511 40.4271C109.511 40.0857 109.555 39.7774 109.643 39.5021C109.731 39.2213 109.858 38.9846 110.023 38.7919C110.188 38.5937 110.392 38.4423 110.634 38.3377C110.876 38.2331 111.152 38.1808 111.46 38.1808C111.889 38.1808 112.242 38.2771 112.517 38.4698C112.792 38.6625 112.993 38.9185 113.12 39.2379L112.377 39.5847C112.316 39.3865 112.209 39.2296 112.055 39.114C111.906 38.9929 111.708 38.9323 111.46 38.9323C111.13 38.9323 110.879 39.0369 110.708 39.2461C110.543 39.4498 110.461 39.7168 110.461 40.0472V40.8152C110.461 41.1455 110.543 41.4153 110.708 41.6245C110.879 41.8282 111.13 41.9301 111.46 41.9301C111.724 41.9301 111.933 41.8668 112.088 41.7401C112.247 41.608 112.374 41.4346 112.467 41.2199L113.153 41.5832C113.01 41.9356 112.795 42.2053 112.509 42.3925C112.222 42.5797 111.873 42.6733 111.46 42.6733ZM115.646 42.6733C115.338 42.6733 115.063 42.621 114.82 42.5164C114.578 42.4118 114.372 42.2632 114.201 42.0705C114.03 41.8723 113.898 41.6355 113.805 41.3602C113.716 41.0795 113.672 40.7684 113.672 40.4271C113.672 40.0857 113.716 39.7774 113.805 39.5021C113.898 39.2213 114.03 38.9846 114.201 38.7919C114.372 38.5937 114.578 38.4423 114.82 38.3377C115.063 38.2331 115.338 38.1808 115.646 38.1808C115.96 38.1808 116.235 38.2359 116.472 38.346C116.714 38.4561 116.915 38.6102 117.075 38.8084C117.235 39.0011 117.353 39.2269 117.43 39.4856C117.513 39.7444 117.554 40.0224 117.554 40.3197V40.6583H114.606V40.7987C114.606 41.129 114.702 41.4015 114.895 41.6163C115.093 41.8255 115.374 41.9301 115.737 41.9301C116.001 41.9301 116.224 41.8723 116.406 41.7566C116.588 41.641 116.742 41.4841 116.868 41.2859L117.397 41.8062C117.237 42.0705 117.006 42.2824 116.703 42.4421C116.4 42.5962 116.048 42.6733 115.646 42.6733ZM115.646 38.8828C115.492 38.8828 115.349 38.9103 115.217 38.9653C115.09 39.0204 114.98 39.0975 114.886 39.1966C114.798 39.2957 114.729 39.414 114.68 39.5517C114.63 39.6893 114.606 39.8407 114.606 40.0059V40.0637H116.604V39.9811C116.604 39.6508 116.519 39.3865 116.348 39.1883C116.177 38.9846 115.943 38.8828 115.646 38.8828ZM120.846 42.6733C120.472 42.6733 120.13 42.61 119.822 42.4834C119.519 42.3512 119.258 42.1613 119.038 41.9136C118.823 41.6603 118.655 41.3492 118.534 40.9804C118.418 40.606 118.36 40.1766 118.36 39.6921C118.36 39.2076 118.418 38.7809 118.534 38.412C118.655 38.0377 118.823 37.7266 119.038 37.4788C119.258 37.2256 119.519 37.0357 119.822 36.909C120.13 36.7769 120.472 36.7108 120.846 36.7108C121.22 36.7108 121.559 36.7769 121.862 36.909C122.17 37.0357 122.432 37.2256 122.646 37.4788C122.867 37.7266 123.035 38.0377 123.15 38.412C123.271 38.7809 123.332 39.2076 123.332 39.6921C123.332 40.1766 123.271 40.606 123.15 40.9804C123.035 41.3492 122.867 41.6603 122.646 41.9136C122.432 42.1613 122.17 42.3512 121.862 42.4834C121.559 42.61 121.22 42.6733 120.846 42.6733ZM120.846 41.8392C121.066 41.8392 121.267 41.8007 121.449 41.7236C121.636 41.6465 121.793 41.5364 121.92 41.3933C122.052 41.2446 122.154 41.0657 122.225 40.8565C122.297 40.6473 122.333 40.4105 122.333 40.1463V39.2379C122.333 38.9736 122.297 38.7369 122.225 38.5277C122.154 38.3184 122.052 38.1423 121.92 37.9991C121.793 37.8505 121.636 37.7376 121.449 37.6605C121.267 37.5835 121.066 37.5449 120.846 37.5449C120.62 37.5449 120.417 37.5835 120.235 37.6605C120.053 37.7376 119.896 37.8505 119.764 37.9991C119.638 38.1423 119.539 38.3184 119.467 38.5277C119.395 38.7369 119.36 38.9736 119.36 39.2379V40.1463C119.36 40.4105 119.395 40.6473 119.467 40.8565C119.539 41.0657 119.638 41.2446 119.764 41.3933C119.896 41.5364 120.053 41.6465 120.235 41.7236C120.417 41.8007 120.62 41.8392 120.846 41.8392ZM125.363 42.5742L123.901 38.2799H124.793L125.445 40.2371L125.883 41.7401H125.933L126.37 40.2371L127.039 38.2799H127.898L126.42 42.5742H125.363ZM130.276 42.6733C129.967 42.6733 129.692 42.621 129.45 42.5164C129.208 42.4118 129.001 42.2632 128.83 42.0705C128.66 41.8723 128.528 41.6355 128.434 41.3602C128.346 41.0795 128.302 40.7684 128.302 40.4271C128.302 40.0857 128.346 39.7774 128.434 39.5021C128.528 39.2213 128.66 38.9846 128.83 38.7919C129.001 38.5937 129.208 38.4423 129.45 38.3377C129.692 38.2331 129.967 38.1808 130.276 38.1808C130.589 38.1808 130.865 38.2359 131.101 38.346C131.344 38.4561 131.545 38.6102 131.704 38.8084C131.864 39.0011 131.982 39.2269 132.059 39.4856C132.142 39.7444 132.183 40.0224 132.183 40.3197V40.6583H129.235V40.7987C129.235 41.129 129.331 41.4015 129.524 41.6163C129.722 41.8255 130.003 41.9301 130.366 41.9301C130.631 41.9301 130.854 41.8723 131.035 41.7566C131.217 41.641 131.371 41.4841 131.498 41.2859L132.026 41.8062C131.867 42.0705 131.635 42.2824 131.333 42.4421C131.03 42.5962 130.678 42.6733 130.276 42.6733ZM130.276 38.8828C130.121 38.8828 129.978 38.9103 129.846 38.9653C129.72 39.0204 129.609 39.0975 129.516 39.1966C129.428 39.2957 129.359 39.414 129.309 39.5517C129.26 39.6893 129.235 39.8407 129.235 40.0059V40.0637H131.234V39.9811C131.234 39.6508 131.148 39.3865 130.978 39.1883C130.807 38.9846 130.573 38.8828 130.276 38.8828ZM133.18 42.5742V38.2799H134.08V39.1057H134.121C134.182 38.8855 134.308 38.6928 134.501 38.5277C134.694 38.3625 134.961 38.2799 135.302 38.2799H135.542V39.147H135.187C134.829 39.147 134.553 39.2048 134.361 39.3204C134.174 39.4361 134.08 39.6067 134.08 39.8325V42.5742H133.18ZM139.482 42.5742C139.168 42.5742 138.931 42.4944 138.772 42.3347C138.612 42.1696 138.532 41.9383 138.532 41.641V39.0149H137.863V38.2799H138.227C138.375 38.2799 138.477 38.2469 138.532 38.1808C138.593 38.1147 138.623 38.0074 138.623 37.8587V37.1072H139.432V38.2799H140.333V39.0149H139.432V41.8392H140.267V42.5742H139.482ZM142.961 42.6733C142.664 42.6733 142.392 42.621 142.144 42.5164C141.902 42.4118 141.695 42.2632 141.525 42.0705C141.354 41.8723 141.222 41.6355 141.128 41.3602C141.035 41.0795 140.988 40.7684 140.988 40.4271C140.988 40.0857 141.035 39.7774 141.128 39.5021C141.222 39.2213 141.354 38.9846 141.525 38.7919C141.695 38.5937 141.902 38.4423 142.144 38.3377C142.392 38.2331 142.664 38.1808 142.961 38.1808C143.259 38.1808 143.529 38.2331 143.771 38.3377C144.019 38.4423 144.228 38.5937 144.398 38.7919C144.569 38.9846 144.701 39.2213 144.795 39.5021C144.888 39.7774 144.935 40.0857 144.935 40.4271C144.935 40.7684 144.888 41.0795 144.795 41.3602C144.701 41.6355 144.569 41.8723 144.398 42.0705C144.228 42.2632 144.019 42.4118 143.771 42.5164C143.529 42.621 143.259 42.6733 142.961 42.6733ZM142.961 41.9301C143.27 41.9301 143.518 41.8365 143.705 41.6493C143.892 41.4566 143.985 41.1703 143.985 40.7904V40.0637C143.985 39.6838 143.892 39.4003 143.705 39.2131C143.518 39.0204 143.27 38.924 142.961 38.924C142.653 38.924 142.405 39.0204 142.218 39.2131C142.031 39.4003 141.937 39.6838 141.937 40.0637V40.7904C141.937 41.1703 142.031 41.4566 142.218 41.6493C142.405 41.8365 142.653 41.9301 142.961 41.9301ZM13.4908 55.5742V51.2799H14.391V51.9901H14.4323C14.5259 51.7589 14.6663 51.5662 14.8534 51.412C15.0461 51.2579 15.3077 51.1808 15.638 51.1808C16.0784 51.1808 16.4198 51.3267 16.662 51.6185C16.9098 51.9048 17.0336 52.3149 17.0336 52.849V55.5742H16.1335V52.9646C16.1335 52.2929 15.8637 51.9571 15.3242 51.9571C15.2086 51.9571 15.0929 51.9736 14.9773 52.0066C14.8672 52.0342 14.7681 52.0782 14.68 52.1388C14.5919 52.1993 14.5204 52.2764 14.4653 52.37C14.4158 52.4636 14.391 52.5737 14.391 52.7003V55.5742H13.4908ZM21.4277 55.5742C21.191 55.5742 21.0093 55.5082 20.8827 55.376C20.756 55.2384 20.6789 55.065 20.6514 54.8557H20.6101C20.5275 55.1255 20.3761 55.3292 20.1559 55.4669C19.9357 55.6045 19.6687 55.6733 19.3549 55.6733C18.9089 55.6733 18.5648 55.5577 18.3226 55.3265C18.0858 55.0952 17.9675 54.7842 17.9675 54.3933C17.9675 53.9638 18.1216 53.6418 18.4299 53.4271C18.7438 53.2123 19.2007 53.105 19.8008 53.105H20.5771V52.7416C20.5771 52.4774 20.5055 52.2737 20.3624 52.1305C20.2192 51.9874 19.9963 51.9158 19.6935 51.9158C19.4402 51.9158 19.2337 51.9708 19.0741 52.081C18.9144 52.1911 18.7795 52.3315 18.6694 52.5021L18.1326 52.0149C18.2758 51.7726 18.4767 51.5744 18.7355 51.4203C18.9943 51.2606 19.3328 51.1808 19.7513 51.1808C20.3073 51.1808 20.734 51.3102 21.0313 51.5689C21.3286 51.8277 21.4773 52.1993 21.4773 52.6838V54.8392H21.9315V55.5742H21.4277ZM19.6109 54.9879C19.8917 54.9879 20.1229 54.9273 20.3046 54.8062C20.4863 54.6796 20.5771 54.5117 20.5771 54.3024V53.6831H19.8173C19.1952 53.6831 18.8841 53.8758 18.8841 54.2611V54.4098C18.8841 54.6025 18.9475 54.7484 19.0741 54.8475C19.2062 54.9411 19.3851 54.9879 19.6109 54.9879ZM23.6743 55.5742L22.2126 51.2799H23.1045L23.7569 53.2371L24.1946 54.7401H24.2441L24.6818 53.2371L25.3507 51.2799H26.2096L24.7313 55.5742H23.6743ZM27.4212 50.5119C27.234 50.5119 27.0964 50.4678 27.0083 50.3797C26.9257 50.2917 26.8844 50.1788 26.8844 50.0412V49.9008C26.8844 49.7631 26.9257 49.6503 27.0083 49.5622C27.0964 49.4741 27.234 49.43 27.4212 49.43C27.6084 49.43 27.7433 49.4741 27.8259 49.5622C27.9085 49.6503 27.9498 49.7631 27.9498 49.9008V50.0412C27.9498 50.1788 27.9085 50.2917 27.8259 50.3797C27.7433 50.4678 27.6084 50.5119 27.4212 50.5119ZM26.967 51.2799H27.8672V55.5742H26.967V51.2799ZM32.9184 55.9789C32.9184 56.4248 32.7477 56.7607 32.4063 56.9864C32.065 57.2121 31.5089 57.325 30.7382 57.325C30.3858 57.325 30.0858 57.3002 29.838 57.2507C29.5958 57.2066 29.3948 57.1405 29.2352 57.0525C29.081 56.9644 28.9681 56.857 28.8966 56.7304C28.825 56.6038 28.7892 56.4579 28.7892 56.2927C28.7892 56.056 28.8525 55.8715 28.9791 55.7394C29.1113 55.6073 29.293 55.5164 29.5242 55.4669V55.376C29.1994 55.2714 29.037 55.0512 29.037 54.7154C29.037 54.4951 29.1113 54.3272 29.2599 54.2116C29.4086 54.0905 29.5875 54.0051 29.7967 53.9556V53.9226C29.5435 53.8014 29.348 53.6335 29.2104 53.4188C29.0782 53.1986 29.0122 52.9426 29.0122 52.6508C29.0122 52.2103 29.1581 51.8552 29.4499 51.5855C29.7472 51.3157 30.1711 51.1808 30.7216 51.1808C31.0245 51.1808 31.2832 51.2248 31.4979 51.3129V51.1973C31.4979 51.0046 31.542 50.856 31.6301 50.7514C31.7237 50.6413 31.8668 50.5862 32.0595 50.5862H32.7202V51.3129H31.8448V51.4864C32.0375 51.613 32.1861 51.7782 32.2907 51.9819C32.3953 52.1801 32.4476 52.403 32.4476 52.6508C32.4476 53.0857 32.299 53.4381 32.0017 53.7078C31.7044 53.9721 31.2805 54.1042 30.7299 54.1042C30.5207 54.1042 30.3335 54.0822 30.1683 54.0382C30.0582 54.0767 29.9619 54.1318 29.8793 54.2033C29.7967 54.2694 29.7554 54.3575 29.7554 54.4676C29.7554 54.5832 29.8077 54.6658 29.9123 54.7154C30.0169 54.7649 30.1656 54.7897 30.3583 54.7897H31.4153C31.9439 54.7897 32.3265 54.897 32.5632 55.1118C32.8 55.321 32.9184 55.61 32.9184 55.9789ZM32.076 56.078C32.076 55.9293 32.0182 55.811 31.9026 55.7229C31.7925 55.6348 31.5888 55.5907 31.2915 55.5907H29.838C29.6398 55.7064 29.5407 55.8715 29.5407 56.0862C29.5407 56.2624 29.6095 56.4028 29.7472 56.5074C29.8903 56.6175 30.1298 56.6726 30.4656 56.6726H31.0272C31.7264 56.6726 32.076 56.4744 32.076 56.078ZM30.7299 53.4518C30.9942 53.4518 31.1979 53.394 31.341 53.2784C31.4897 53.1573 31.564 52.9729 31.564 52.7251V52.5599C31.564 52.3122 31.4897 52.1305 31.341 52.0149C31.1979 51.8938 30.9942 51.8332 30.7299 51.8332C30.4656 51.8332 30.2592 51.8938 30.1105 52.0149C29.9674 52.1305 29.8958 52.3122 29.8958 52.5599V52.7251C29.8958 52.9729 29.9674 53.1573 30.1105 53.2784C30.2592 53.394 30.4656 53.4518 30.7299 53.4518ZM36.7104 55.5742C36.4737 55.5742 36.292 55.5082 36.1654 55.376C36.0387 55.2384 35.9616 55.065 35.9341 54.8557H35.8928C35.8102 55.1255 35.6588 55.3292 35.4386 55.4669C35.2184 55.6045 34.9514 55.6733 34.6376 55.6733C34.1916 55.6733 33.8475 55.5577 33.6053 55.3265C33.3685 55.0952 33.2502 54.7842 33.2502 54.3933C33.2502 53.9638 33.4043 53.6418 33.7126 53.4271C34.0265 53.2123 34.4834 53.105 35.0835 53.105H35.8598V52.7416C35.8598 52.4774 35.7882 52.2737 35.6451 52.1305C35.5019 51.9874 35.279 51.9158 34.9762 51.9158C34.7229 51.9158 34.5164 51.9708 34.3568 52.081C34.1971 52.1911 34.0622 52.3315 33.9521 52.5021L33.4153 52.0149C33.5585 51.7726 33.7594 51.5744 34.0182 51.4203C34.277 51.2606 34.6155 51.1808 35.034 51.1808C35.59 51.1808 36.0167 51.3102 36.314 51.5689C36.6113 51.8277 36.7599 52.1993 36.7599 52.6838V54.8392H37.2142V55.5742H36.7104ZM34.8936 54.9879C35.1744 54.9879 35.4056 54.9273 35.5873 54.8062C35.769 54.6796 35.8598 54.5117 35.8598 54.3024V53.6831H35.1C34.4779 53.6831 34.1668 53.8758 34.1668 54.2611V54.4098C34.1668 54.6025 34.2302 54.7484 34.3568 54.8475C34.4889 54.9411 34.6678 54.9879 34.8936 54.9879ZM39.2614 55.5742C38.9476 55.5742 38.7108 55.4944 38.5512 55.3347C38.3915 55.1696 38.3117 54.9383 38.3117 54.641V52.0149H37.6427V51.2799H38.0061C38.1548 51.2799 38.2566 51.2469 38.3117 51.1808C38.3722 51.1147 38.4025 51.0074 38.4025 50.8587V50.1072H39.2118V51.2799H40.112V52.0149H39.2118V54.8392H40.0459V55.5742H39.2614ZM42.7408 55.6733C42.4325 55.6733 42.1572 55.621 41.915 55.5164C41.6728 55.4118 41.4663 55.2632 41.2956 55.0705C41.125 54.8723 40.9928 54.6355 40.8992 54.3602C40.8111 54.0795 40.7671 53.7684 40.7671 53.4271C40.7671 53.0857 40.8111 52.7774 40.8992 52.5021C40.9928 52.2213 41.125 51.9846 41.2956 51.7919C41.4663 51.5937 41.6728 51.4423 41.915 51.3377C42.1572 51.2331 42.4325 51.1808 42.7408 51.1808C43.0546 51.1808 43.3299 51.2359 43.5667 51.346C43.8089 51.4561 44.0099 51.6102 44.1695 51.8084C44.3292 52.0011 44.4475 52.2269 44.5246 52.4856C44.6072 52.7444 44.6485 53.0224 44.6485 53.3197V53.6583H41.7003V53.7987C41.7003 54.129 41.7966 54.4015 41.9893 54.6163C42.1875 54.8255 42.4683 54.9301 42.8317 54.9301C43.0959 54.9301 43.3189 54.8723 43.5006 54.7566C43.6823 54.641 43.8364 54.4841 43.9631 54.2859L44.4916 54.8062C44.3319 55.0705 44.1007 55.2824 43.7979 55.4421C43.4951 55.5962 43.1427 55.6733 42.7408 55.6733ZM42.7408 51.8828C42.5867 51.8828 42.4435 51.9103 42.3114 51.9653C42.1848 52.0204 42.0747 52.0975 41.9811 52.1966C41.893 52.2957 41.8242 52.414 41.7746 52.5517C41.7251 52.6893 41.7003 52.8407 41.7003 53.0059V53.0637H43.6988V52.9811C43.6988 52.6508 43.6135 52.3865 43.4428 52.1883C43.2721 51.9846 43.0381 51.8828 42.7408 51.8828ZM47.415 55.5742V54.8145H48.1995V50.5697H47.415V49.8099H49.9255V50.5697H49.1327V54.8145H49.9255V55.5742H47.415ZM51.0322 55.5742V51.2799H51.9324V51.9901H51.9737C52.0673 51.7589 52.2077 51.5662 52.3949 51.412C52.5875 51.2579 52.8491 51.1808 53.1794 51.1808C53.6198 51.1808 53.9612 51.3267 54.2034 51.6185C54.4512 51.9048 54.575 52.3149 54.575 52.849V55.5742H53.6749V52.9646C53.6749 52.2929 53.4051 51.9571 52.8656 51.9571C52.75 51.9571 52.6343 51.9736 52.5187 52.0066C52.4086 52.0342 52.3095 52.0782 52.2214 52.1388C52.1333 52.1993 52.0618 52.2764 52.0067 52.37C51.9572 52.4636 51.9324 52.5737 51.9324 52.7003V55.5742H51.0322ZM57.1853 55.6733C56.7779 55.6733 56.4366 55.6017 56.1613 55.4586C55.886 55.3155 55.6465 55.1173 55.4428 54.864L56.0209 54.3355C56.1806 54.5282 56.3567 54.6796 56.5494 54.7897C56.7476 54.8943 56.9761 54.9466 57.2349 54.9466C57.4991 54.9466 57.6946 54.897 57.8212 54.7979C57.9533 54.6933 58.0194 54.5502 58.0194 54.3685C58.0194 54.2309 57.9726 54.1153 57.879 54.0217C57.7909 53.9226 57.634 53.8592 57.4083 53.8317L57.0119 53.7822C56.5714 53.7271 56.2246 53.6005 55.9713 53.4023C55.7236 53.1986 55.5997 52.8985 55.5997 52.5021C55.5997 52.2929 55.6383 52.1085 55.7153 51.9488C55.7924 51.7837 55.8998 51.646 56.0374 51.5359C56.1806 51.4203 56.3485 51.3322 56.5412 51.2716C56.7394 51.2111 56.9568 51.1808 57.1936 51.1808C57.579 51.1808 57.8928 51.2414 58.135 51.3625C58.3828 51.4836 58.603 51.6515 58.7957 51.8662L58.2424 52.3948C58.1323 52.2626 57.9864 52.1498 57.8047 52.0562C57.6285 51.9571 57.4248 51.9075 57.1936 51.9075C56.9458 51.9075 56.7614 51.9571 56.6403 52.0562C56.5246 52.1553 56.4668 52.2847 56.4668 52.4443C56.4668 52.6095 56.5191 52.7334 56.6237 52.8159C56.7284 52.8985 56.8963 52.9591 57.1275 52.9976L57.5239 53.0472C57.9974 53.1187 58.3415 53.2591 58.5562 53.4684C58.7764 53.6721 58.8865 53.9473 58.8865 54.2942C58.8865 54.5034 58.8452 54.6933 58.7626 54.864C58.6856 55.0292 58.5727 55.1723 58.4241 55.2934C58.2754 55.4146 58.0965 55.5082 57.8873 55.5742C57.6781 55.6403 57.4441 55.6733 57.1853 55.6733ZM61.0362 55.5742C60.7224 55.5742 60.4856 55.4944 60.326 55.3347C60.1663 55.1696 60.0865 54.9383 60.0865 54.641V52.0149H59.4176V51.2799H59.7809C59.9296 51.2799 60.0314 51.2469 60.0865 51.1808C60.1471 51.1147 60.1773 51.0074 60.1773 50.8587V50.1072H60.9866V51.2799H61.8868V52.0149H60.9866V54.8392H61.8207V55.5742H61.0362ZM66.0096 55.5742C65.7729 55.5742 65.5912 55.5082 65.4646 55.376C65.338 55.2384 65.2609 55.065 65.2334 54.8557H65.1921C65.1095 55.1255 64.9581 55.3292 64.7379 55.4669C64.5176 55.6045 64.2506 55.6733 63.9368 55.6733C63.4908 55.6733 63.1468 55.5577 62.9045 55.3265C62.6678 55.0952 62.5494 54.7842 62.5494 54.3933C62.5494 53.9638 62.7036 53.6418 63.0119 53.4271C63.3257 53.2123 63.7826 53.105 64.3827 53.105H65.159V52.7416C65.159 52.4774 65.0875 52.2737 64.9443 52.1305C64.8012 51.9874 64.5782 51.9158 64.2754 51.9158C64.0221 51.9158 63.8157 51.9708 63.656 52.081C63.4964 52.1911 63.3615 52.3315 63.2514 52.5021L62.7146 52.0149C62.8577 51.7726 63.0587 51.5744 63.3174 51.4203C63.5762 51.2606 63.9148 51.1808 64.3332 51.1808C64.8893 51.1808 65.3159 51.3102 65.6132 51.5689C65.9105 51.8277 66.0592 52.1993 66.0592 52.6838V54.8392H66.5134V55.5742H66.0096ZM64.1928 54.9879C64.4736 54.9879 64.7048 54.9273 64.8865 54.8062C65.0682 54.6796 65.159 54.5117 65.159 54.3024V53.6831H64.3993C63.7771 53.6831 63.4661 53.8758 63.4661 54.2611V54.4098C63.4661 54.6025 63.5294 54.7484 63.656 54.8475C63.7881 54.9411 63.9671 54.9879 64.1928 54.9879ZM71.1614 55.9789C71.1614 56.4248 70.9907 56.7607 70.6494 56.9864C70.308 57.2121 69.752 57.325 68.9812 57.325C68.6288 57.325 68.3288 57.3002 68.081 57.2507C67.8388 57.2066 67.6379 57.1405 67.4782 57.0525C67.324 56.9644 67.2112 56.857 67.1396 56.7304C67.068 56.6038 67.0322 56.4579 67.0322 56.2927C67.0322 56.056 67.0956 55.8715 67.2222 55.7394C67.3543 55.6073 67.536 55.5164 67.7672 55.4669V55.376C67.4424 55.2714 67.28 55.0512 67.28 54.7154C67.28 54.4951 67.3543 54.3272 67.503 54.2116C67.6516 54.0905 67.8305 54.0051 68.0398 53.9556V53.9226C67.7865 53.8014 67.5911 53.6335 67.4534 53.4188C67.3213 53.1986 67.2552 52.9426 67.2552 52.6508C67.2552 52.2103 67.4011 51.8552 67.6929 51.5855C67.9902 51.3157 68.4141 51.1808 68.9647 51.1808C69.2675 51.1808 69.5263 51.2248 69.741 51.3129V51.1973C69.741 51.0046 69.785 50.856 69.8731 50.7514C69.9667 50.6413 70.1098 50.5862 70.3025 50.5862H70.9632V51.3129H70.0878V51.4864C70.2805 51.613 70.4292 51.7782 70.5338 51.9819C70.6384 52.1801 70.6907 52.403 70.6907 52.6508C70.6907 53.0857 70.542 53.4381 70.2447 53.7078C69.9474 53.9721 69.5235 54.1042 68.9729 54.1042C68.7637 54.1042 68.5765 54.0822 68.4114 54.0382C68.3013 54.0767 68.2049 54.1318 68.1223 54.2033C68.0398 54.2694 67.9985 54.3575 67.9985 54.4676C67.9985 54.5832 68.0508 54.6658 68.1554 54.7154C68.26 54.7649 68.4086 54.7897 68.6013 54.7897H69.6584C70.1869 54.7897 70.5695 54.897 70.8063 55.1118C71.043 55.321 71.1614 55.61 71.1614 55.9789ZM70.319 56.078C70.319 55.9293 70.2612 55.811 70.1456 55.7229C70.0355 55.6348 69.8318 55.5907 69.5345 55.5907H68.081C67.8828 55.7064 67.7837 55.8715 67.7837 56.0862C67.7837 56.2624 67.8526 56.4028 67.9902 56.5074C68.1334 56.6175 68.3728 56.6726 68.7087 56.6726H69.2702C69.9694 56.6726 70.319 56.4744 70.319 56.078ZM68.9729 53.4518C69.2372 53.4518 69.4409 53.394 69.5841 53.2784C69.7327 53.1573 69.807 52.9729 69.807 52.7251V52.5599C69.807 52.3122 69.7327 52.1305 69.5841 52.0149C69.4409 51.8938 69.2372 51.8332 68.9729 51.8332C68.7087 51.8332 68.5022 51.8938 68.3536 52.0149C68.2104 52.1305 68.1389 52.3122 68.1389 52.5599V52.7251C68.1389 52.9729 68.2104 53.1573 68.3536 53.2784C68.5022 53.394 68.7087 53.4518 68.9729 53.4518ZM71.8312 55.5742V51.2799H72.7314V52.1057H72.7727C72.8332 51.8855 72.9599 51.6928 73.1525 51.5277C73.3452 51.3625 73.6123 51.2799 73.9536 51.2799H74.1931V52.147H73.838C73.4801 52.147 73.2049 52.2048 73.0122 52.3204C72.825 52.4361 72.7314 52.6067 72.7314 52.8325V55.5742H71.8312ZM78.0745 55.5742C77.8378 55.5742 77.6561 55.5082 77.5294 55.376C77.4028 55.2384 77.3257 55.065 77.2982 54.8557H77.2569C77.1743 55.1255 77.0229 55.3292 76.8027 55.4669C76.5825 55.6045 76.3155 55.6733 76.0017 55.6733C75.5557 55.6733 75.2116 55.5577 74.9694 55.3265C74.7326 55.0952 74.6143 54.7842 74.6143 54.3933C74.6143 53.9638 74.7684 53.6418 75.0767 53.4271C75.3905 53.2123 75.8475 53.105 76.4476 53.105H77.2239V52.7416C77.2239 52.4774 77.1523 52.2737 77.0092 52.1305C76.866 51.9874 76.6431 51.9158 76.3403 51.9158C76.087 51.9158 75.8805 51.9708 75.7209 52.081C75.5612 52.1911 75.4263 52.3315 75.3162 52.5021L74.7794 52.0149C74.9226 51.7726 75.1235 51.5744 75.3823 51.4203C75.641 51.2606 75.9796 51.1808 76.3981 51.1808C76.9541 51.1808 77.3808 51.3102 77.6781 51.5689C77.9754 51.8277 78.124 52.1993 78.124 52.6838V54.8392H78.5783V55.5742H78.0745ZM76.2577 54.9879C76.5385 54.9879 76.7697 54.9273 76.9514 54.8062C77.1331 54.6796 77.2239 54.5117 77.2239 54.3024V53.6831H76.4641C75.842 53.6831 75.5309 53.8758 75.5309 54.2611V54.4098C75.5309 54.6025 75.5943 54.7484 75.7209 54.8475C75.853 54.9411 76.0319 54.9879 76.2577 54.9879ZM79.4605 55.5742V51.2799H80.3606V51.9901H80.4019C80.446 51.88 80.4983 51.7754 80.5588 51.6763C80.6249 51.5772 80.702 51.4919 80.7901 51.4203C80.8837 51.3432 80.991 51.2854 81.1121 51.2469C81.2388 51.2028 81.3847 51.1808 81.5498 51.1808C81.8416 51.1808 82.1004 51.2524 82.3261 51.3955C82.5518 51.5387 82.717 51.7589 82.8216 52.0562H82.8464C82.9235 51.8139 83.0721 51.6075 83.2923 51.4368C83.5125 51.2661 83.7961 51.1808 84.1429 51.1808C84.5724 51.1808 84.9054 51.3267 85.1422 51.6185C85.3789 51.9048 85.4973 52.3149 85.4973 52.849V55.5742H84.5971V52.9563C84.5971 52.626 84.5338 52.3783 84.4072 52.2131C84.2806 52.0424 84.0796 51.9571 83.8043 51.9571C83.6887 51.9571 83.5786 51.9736 83.474 52.0066C83.3694 52.0342 83.2758 52.0782 83.1932 52.1388C83.1161 52.1993 83.0528 52.2764 83.0033 52.37C82.9537 52.4636 82.929 52.5709 82.929 52.6921V55.5742H82.0288V52.9563C82.0288 52.2902 81.7673 51.9571 81.2443 51.9571C81.1342 51.9571 81.024 51.9736 80.9139 52.0066C80.8093 52.0342 80.7157 52.0782 80.6331 52.1388C80.5506 52.1993 80.4845 52.2764 80.4349 52.37C80.3854 52.4636 80.3606 52.5709 80.3606 52.6921V55.5742H79.4605ZM87.2962 55.6733C87.0925 55.6733 86.9411 55.621 86.842 55.5164C86.7429 55.4063 86.6934 55.2714 86.6934 55.1118V54.9879C86.6934 54.8282 86.7429 54.6961 86.842 54.5915C86.9411 54.4814 87.0925 54.4263 87.2962 54.4263C87.5 54.4263 87.6514 54.4814 87.7505 54.5915C87.8496 54.6961 87.8991 54.8282 87.8991 54.9879V55.1118C87.8991 55.2714 87.8496 55.4063 87.7505 55.5164C87.6514 55.621 87.5 55.6733 87.2962 55.6733ZM92.0891 55.5742H91.1559V49.8099H93.6417C94.1592 49.8099 94.5666 49.9668 94.8639 50.2806C95.1612 50.589 95.3098 51.0101 95.3098 51.5442C95.3098 51.9571 95.2135 52.3012 95.0208 52.5765C94.8336 52.8462 94.5556 53.0362 94.1867 53.1463L95.4337 55.5742H94.3932L93.237 53.2454H92.0891V55.5742ZM93.5756 52.4608C93.8123 52.4608 93.9968 52.4003 94.1289 52.2792C94.261 52.1525 94.3271 51.9736 94.3271 51.7424V51.346C94.3271 51.1147 94.261 50.9386 94.1289 50.8174C93.9968 50.6908 93.8123 50.6275 93.5756 50.6275H92.0891V52.4608H93.5756ZM98.065 55.6733C97.7567 55.6733 97.4814 55.621 97.2392 55.5164C96.9969 55.4118 96.7905 55.2632 96.6198 55.0705C96.4491 54.8723 96.317 54.6355 96.2234 54.3602C96.1353 54.0795 96.0913 53.7684 96.0913 53.4271C96.0913 53.0857 96.1353 52.7774 96.2234 52.5021C96.317 52.2213 96.4491 51.9846 96.6198 51.7919C96.7905 51.5937 96.9969 51.4423 97.2392 51.3377C97.4814 51.2331 97.7567 51.1808 98.065 51.1808C98.3788 51.1808 98.6541 51.2359 98.8908 51.346C99.1331 51.4561 99.334 51.6102 99.4937 51.8084C99.6534 52.0011 99.7717 52.2269 99.8488 52.4856C99.9314 52.7444 99.9727 53.0224 99.9727 53.3197V53.6583H97.0245V53.7987C97.0245 54.129 97.1208 54.4015 97.3135 54.6163C97.5117 54.8255 97.7925 54.9301 98.1559 54.9301C98.4201 54.9301 98.6431 54.8723 98.8248 54.7566C99.0065 54.641 99.1606 54.4841 99.2872 54.2859L99.8158 54.8062C99.6561 55.0705 99.4249 55.2824 99.1221 55.4421C98.8193 55.5962 98.4669 55.6733 98.065 55.6733ZM98.065 51.8828C97.9109 51.8828 97.7677 51.9103 97.6356 51.9653C97.509 52.0204 97.3988 52.0975 97.3052 52.1966C97.2172 52.2957 97.1483 52.414 97.0988 52.5517C97.0492 52.6893 97.0245 52.8407 97.0245 53.0059V53.0637H99.023V52.9811C99.023 52.6508 98.9376 52.3865 98.767 52.1883C98.5963 51.9846 98.3623 51.8828 98.065 51.8828ZM101.886 55.5742C101.578 55.5742 101.346 55.4971 101.192 55.343C101.043 55.1833 100.969 54.9631 100.969 54.6823V49.4631H101.869V54.8392H102.464V55.5742H101.886ZM103.778 50.5119C103.591 50.5119 103.453 50.4678 103.365 50.3797C103.283 50.2917 103.241 50.1788 103.241 50.0412V49.9008C103.241 49.7631 103.283 49.6503 103.365 49.5622C103.453 49.4741 103.591 49.43 103.778 49.43C103.965 49.43 104.1 49.4741 104.183 49.5622C104.266 49.6503 104.307 49.7631 104.307 49.9008V50.0412C104.307 50.1788 104.266 50.2917 104.183 50.3797C104.1 50.4678 103.965 50.5119 103.778 50.5119ZM103.324 51.2799H104.224V55.5742H103.324V51.2799ZM107.194 55.6733C106.886 55.6733 106.611 55.621 106.368 55.5164C106.126 55.4118 105.92 55.2632 105.749 55.0705C105.578 54.8723 105.446 54.6355 105.353 54.3602C105.265 54.0795 105.221 53.7684 105.221 53.4271C105.221 53.0857 105.265 52.7774 105.353 52.5021C105.446 52.2213 105.578 51.9846 105.749 51.7919C105.92 51.5937 106.126 51.4423 106.368 51.3377C106.611 51.2331 106.886 51.1808 107.194 51.1808C107.508 51.1808 107.783 51.2359 108.02 51.346C108.262 51.4561 108.463 51.6102 108.623 51.8084C108.783 52.0011 108.901 52.2269 108.978 52.4856C109.061 52.7444 109.102 53.0224 109.102 53.3197V53.6583H106.154V53.7987C106.154 54.129 106.25 54.4015 106.443 54.6163C106.641 54.8255 106.922 54.9301 107.285 54.9301C107.549 54.9301 107.772 54.8723 107.954 54.7566C108.136 54.641 108.29 54.4841 108.417 54.2859L108.945 54.8062C108.785 55.0705 108.554 55.2824 108.251 55.4421C107.949 55.5962 107.596 55.6733 107.194 55.6733ZM107.194 51.8828C107.04 51.8828 106.897 51.9103 106.765 51.9653C106.638 52.0204 106.528 52.0975 106.435 52.1966C106.346 52.2957 106.278 52.414 106.228 52.5517C106.179 52.6893 106.154 52.8407 106.154 53.0059V53.0637H108.152V52.9811C108.152 52.6508 108.067 52.3865 107.896 52.1883C107.726 51.9846 107.492 51.8828 107.194 51.8828ZM111.461 55.6733C111.054 55.6733 110.712 55.6017 110.437 55.4586C110.162 55.3155 109.922 55.1173 109.719 54.864L110.297 54.3355C110.456 54.5282 110.632 54.6796 110.825 54.7897C111.023 54.8943 111.252 54.9466 111.511 54.9466C111.775 54.9466 111.97 54.897 112.097 54.7979C112.229 54.6933 112.295 54.5502 112.295 54.3685C112.295 54.2309 112.248 54.1153 112.155 54.0217C112.067 53.9226 111.91 53.8592 111.684 53.8317L111.288 53.7822C110.847 53.7271 110.5 53.6005 110.247 53.4023C109.999 53.1986 109.875 52.8985 109.875 52.5021C109.875 52.2929 109.914 52.1085 109.991 51.9488C110.068 51.7837 110.176 51.646 110.313 51.5359C110.456 51.4203 110.624 51.3322 110.817 51.2716C111.015 51.2111 111.233 51.1808 111.469 51.1808C111.855 51.1808 112.169 51.2414 112.411 51.3625C112.659 51.4836 112.879 51.6515 113.071 51.8662L112.518 52.3948C112.408 52.2626 112.262 52.1498 112.08 52.0562C111.904 51.9571 111.701 51.9075 111.469 51.9075C111.222 51.9075 111.037 51.9571 110.916 52.0562C110.8 52.1553 110.743 52.2847 110.743 52.4443C110.743 52.6095 110.795 52.7334 110.9 52.8159C111.004 52.8985 111.172 52.9591 111.403 52.9976L111.8 53.0472C112.273 53.1187 112.617 53.2591 112.832 53.4684C113.052 53.6721 113.162 53.9473 113.162 54.2942C113.162 54.5034 113.121 54.6933 113.038 54.864C112.961 55.0292 112.848 55.1723 112.7 55.2934C112.551 55.4146 112.372 55.5082 112.163 55.5742C111.954 55.6403 111.72 55.6733 111.461 55.6733ZM116.131 49.4631H117.031V51.9901H117.072C117.166 51.7589 117.306 51.5662 117.494 51.412C117.686 51.2579 117.948 51.1808 118.278 51.1808C118.718 51.1808 119.06 51.3267 119.302 51.6185C119.55 51.9048 119.674 52.3149 119.674 52.849V55.5742H118.774V52.9563C118.774 52.2902 118.504 51.9571 117.964 51.9571C117.849 51.9571 117.733 51.9736 117.617 52.0066C117.507 52.0342 117.408 52.0782 117.32 52.1388C117.232 52.1993 117.16 52.2764 117.105 52.37C117.056 52.4636 117.031 52.5709 117.031 52.6921V55.5742H116.131V49.4631ZM122.606 55.6733C122.298 55.6733 122.022 55.621 121.78 55.5164C121.538 55.4118 121.332 55.2632 121.161 55.0705C120.99 54.8723 120.858 54.6355 120.764 54.3602C120.676 54.0795 120.632 53.7684 120.632 53.4271C120.632 53.0857 120.676 52.7774 120.764 52.5021C120.858 52.2213 120.99 51.9846 121.161 51.7919C121.332 51.5937 121.538 51.4423 121.78 51.3377C122.022 51.2331 122.298 51.1808 122.606 51.1808C122.92 51.1808 123.195 51.2359 123.432 51.346C123.674 51.4561 123.875 51.6102 124.035 51.8084C124.194 52.0011 124.313 52.2269 124.39 52.4856C124.472 52.7444 124.514 53.0224 124.514 53.3197V53.6583H121.565V53.7987C121.565 54.129 121.662 54.4015 121.855 54.6163C122.053 54.8255 122.334 54.9301 122.697 54.9301C122.961 54.9301 123.184 54.8723 123.366 54.7566C123.547 54.641 123.702 54.4841 123.828 54.2859L124.357 54.8062C124.197 55.0705 123.966 55.2824 123.663 55.4421C123.36 55.5962 123.008 55.6733 122.606 55.6733ZM122.606 51.8828C122.452 51.8828 122.309 51.9103 122.177 51.9653C122.05 52.0204 121.94 52.0975 121.846 52.1966C121.758 52.2957 121.689 52.414 121.64 52.5517C121.59 52.6893 121.565 52.8407 121.565 53.0059V53.0637H123.564V52.9811C123.564 52.6508 123.479 52.3865 123.308 52.1883C123.137 51.9846 122.903 51.8828 122.606 51.8828ZM128.657 55.5742C128.42 55.5742 128.238 55.5082 128.112 55.376C127.985 55.2384 127.908 55.065 127.88 54.8557H127.839C127.756 55.1255 127.605 55.3292 127.385 55.4669C127.165 55.6045 126.898 55.6733 126.584 55.6733C126.138 55.6733 125.794 55.5577 125.551 55.3265C125.315 55.0952 125.196 54.7842 125.196 54.3933C125.196 53.9638 125.351 53.6418 125.659 53.4271C125.973 53.2123 126.43 53.105 127.03 53.105H127.806V52.7416C127.806 52.4774 127.734 52.2737 127.591 52.1305C127.448 51.9874 127.225 51.9158 126.922 51.9158C126.669 51.9158 126.463 51.9708 126.303 52.081C126.143 52.1911 126.008 52.3315 125.898 52.5021L125.362 52.0149C125.505 51.7726 125.706 51.5744 125.964 51.4203C126.223 51.2606 126.562 51.1808 126.98 51.1808C127.536 51.1808 127.963 51.3102 128.26 51.5689C128.557 51.8277 128.706 52.1993 128.706 52.6838V54.8392H129.16V55.5742H128.657ZM126.84 54.9879C127.121 54.9879 127.352 54.9273 127.533 54.8062C127.715 54.6796 127.806 54.5117 127.806 54.3024V53.6831H127.046C126.424 53.6831 126.113 53.8758 126.113 54.2611V54.4098C126.113 54.6025 126.176 54.7484 126.303 54.8475C126.435 54.9411 126.614 54.9879 126.84 54.9879ZM130.903 55.5742L129.441 51.2799H130.333L130.986 53.2371L131.423 54.7401H131.473L131.911 53.2371L132.58 51.2799H133.438L131.96 55.5742H130.903ZM134.65 50.5119C134.463 50.5119 134.325 50.4678 134.237 50.3797C134.155 50.2917 134.113 50.1788 134.113 50.0412V49.9008C134.113 49.7631 134.155 49.6503 134.237 49.5622C134.325 49.4741 134.463 49.43 134.65 49.43C134.837 49.43 134.972 49.4741 135.055 49.5622C135.137 49.6503 135.179 49.7631 135.179 49.9008V50.0412C135.179 50.1788 135.137 50.2917 135.055 50.3797C134.972 50.4678 134.837 50.5119 134.65 50.5119ZM134.196 51.2799H135.096V55.5742H134.196V51.2799ZM137.298 55.5742C136.99 55.5742 136.759 55.4971 136.604 55.343C136.456 55.1833 136.381 54.9631 136.381 54.6823V49.4631H137.282V54.8392H137.876V55.5742H137.298ZM141.306 51.2799H142.173L140.365 56.4248C140.315 56.568 140.257 56.6891 140.191 56.7882C140.131 56.8928 140.056 56.9754 139.968 57.0359C139.886 57.102 139.784 57.1488 139.663 57.1763C139.542 57.2094 139.399 57.2259 139.233 57.2259H138.713V56.4909H139.44L139.688 55.7642L138.127 51.2799H139.027L139.886 53.8069L140.134 54.7401H140.175L140.447 53.8069L141.306 51.2799ZM15.1755 68.6733C14.8782 68.6733 14.6057 68.621 14.3579 68.5164C14.1157 68.4118 13.9092 68.2632 13.7386 68.0705C13.5679 67.8723 13.4358 67.6355 13.3422 67.3602C13.2486 67.0795 13.2018 66.7684 13.2018 66.4271C13.2018 66.0857 13.2486 65.7774 13.3422 65.5021C13.4358 65.2213 13.5679 64.9846 13.7386 64.7919C13.9092 64.5937 14.1157 64.4423 14.3579 64.3377C14.6057 64.2331 14.8782 64.1808 15.1755 64.1808C15.4728 64.1808 15.7426 64.2331 15.9848 64.3377C16.2326 64.4423 16.4418 64.5937 16.6125 64.7919C16.7831 64.9846 16.9153 65.2213 17.0089 65.5021C17.1025 65.7774 17.1493 66.0857 17.1493 66.4271C17.1493 66.7684 17.1025 67.0795 17.0089 67.3602C16.9153 67.6355 16.7831 67.8723 16.6125 68.0705C16.4418 68.2632 16.2326 68.4118 15.9848 68.5164C15.7426 68.621 15.4728 68.6733 15.1755 68.6733ZM15.1755 67.9301C15.4838 67.9301 15.7316 67.8365 15.9188 67.6493C16.106 67.4566 16.1996 67.1703 16.1996 66.7904V66.0637C16.1996 65.6838 16.106 65.4003 15.9188 65.2131C15.7316 65.0204 15.4838 64.924 15.1755 64.924C14.8672 64.924 14.6195 65.0204 14.4323 65.2131C14.2451 65.4003 14.1515 65.6838 14.1515 66.0637V66.7904C14.1515 67.1703 14.2451 67.4566 14.4323 67.6493C14.6195 67.8365 14.8672 67.9301 15.1755 67.9301ZM18.1523 68.5742V64.2799H19.0524V64.9901H19.0937C19.1873 64.7589 19.3277 64.5662 19.5149 64.412C19.7076 64.2579 19.9691 64.1808 20.2994 64.1808C20.7399 64.1808 21.0812 64.3267 21.3234 64.6185C21.5712 64.9048 21.6951 65.3149 21.6951 65.849V68.5742H20.7949V65.9646C20.7949 65.2929 20.5251 64.9571 19.9856 64.9571C19.87 64.9571 19.7544 64.9736 19.6387 65.0066C19.5286 65.0342 19.4295 65.0782 19.3414 65.1388C19.2534 65.1993 19.1818 65.2764 19.1267 65.37C19.0772 65.4636 19.0524 65.5737 19.0524 65.7003V68.5742H18.1523ZM24.465 64.2799H25.3403L25.778 66.0802L26.1662 67.7071H26.1909L26.6369 66.0802L27.1572 64.2799H27.9665L28.495 66.0802L28.9492 67.7071H28.974L29.3539 66.0802L29.7998 64.2799H30.6339L29.4777 68.5742H28.462L27.9004 66.617L27.5536 65.4113H27.537L27.1984 66.617L26.6286 68.5742H25.6376L24.465 64.2799ZM33.1196 68.6733C32.8113 68.6733 32.536 68.621 32.2938 68.5164C32.0515 68.4118 31.8451 68.2632 31.6744 68.0705C31.5037 67.8723 31.3716 67.6355 31.278 67.3602C31.1899 67.0795 31.1459 66.7684 31.1459 66.4271C31.1459 66.0857 31.1899 65.7774 31.278 65.5021C31.3716 65.2213 31.5037 64.9846 31.6744 64.7919C31.8451 64.5937 32.0515 64.4423 32.2938 64.3377C32.536 64.2331 32.8113 64.1808 33.1196 64.1808C33.4334 64.1808 33.7087 64.2359 33.9454 64.346C34.1877 64.4561 34.3886 64.6102 34.5483 64.8084C34.7079 65.0011 34.8263 65.2269 34.9034 65.4856C34.986 65.7444 35.0273 66.0224 35.0273 66.3197V66.6583H32.079V66.7987C32.079 67.129 32.1754 67.4015 32.3681 67.6163C32.5663 67.8255 32.8471 67.9301 33.2104 67.9301C33.4747 67.9301 33.6977 67.8723 33.8794 67.7566C34.061 67.641 34.2152 67.4841 34.3418 67.2859L34.8703 67.8062C34.7107 68.0705 34.4795 68.2824 34.1766 68.4421C33.8738 68.5962 33.5215 68.6733 33.1196 68.6733ZM33.1196 64.8828C32.9654 64.8828 32.8223 64.9103 32.6902 64.9653C32.5635 65.0204 32.4534 65.0975 32.3598 65.1966C32.2717 65.2957 32.2029 65.414 32.1534 65.5517C32.1038 65.6893 32.079 65.8407 32.079 66.0059V66.0637H34.0775V65.9811C34.0775 65.6508 33.9922 65.3865 33.8215 65.1883C33.6509 64.9846 33.4169 64.8828 33.1196 64.8828ZM36.9404 68.5742C36.6321 68.5742 36.4009 68.4971 36.2467 68.343C36.0981 68.1833 36.0237 67.9631 36.0237 67.6823V62.4631H36.9239V67.8392H37.5185V68.5742H36.9404ZM39.2469 68.5742C38.9386 68.5742 38.7074 68.4971 38.5532 68.343C38.4046 68.1833 38.3303 67.9631 38.3303 67.6823V62.4631H39.2304V67.8392H39.825V68.5742H39.2469ZM40.4724 66.5179V65.6012H42.7599V66.5179H40.4724ZM43.4574 64.2799H44.3328L44.7705 66.0802L45.1586 67.7071H45.1834L45.6294 66.0802L46.1496 64.2799H46.959L47.4875 66.0802L47.9417 67.7071H47.9665L48.3463 66.0802L48.7923 64.2799H49.6264L48.4702 68.5742H47.4545L46.8929 66.617L46.546 65.4113H46.5295L46.1909 66.617L45.6211 68.5742H44.6301L43.4574 64.2799ZM50.4838 68.5742V64.2799H51.384V65.1057H51.4253C51.4858 64.8855 51.6125 64.6928 51.8052 64.5277C51.9978 64.3625 52.2649 64.2799 52.6062 64.2799H52.8457V65.147H52.4906C52.1327 65.147 51.8575 65.2048 51.6648 65.3204C51.4776 65.4361 51.384 65.6067 51.384 65.8325V68.5742H50.4838ZM54.0994 63.5119C53.9122 63.5119 53.7746 63.4678 53.6865 63.3797C53.6039 63.2917 53.5626 63.1788 53.5626 63.0412V62.9008C53.5626 62.7631 53.6039 62.6503 53.6865 62.5622C53.7746 62.4741 53.9122 62.43 54.0994 62.43C54.2866 62.43 54.4215 62.4741 54.5041 62.5622C54.5867 62.6503 54.628 62.7631 54.628 62.9008V63.0412C54.628 63.1788 54.5867 63.2917 54.5041 63.3797C54.4215 63.4678 54.2866 63.5119 54.0994 63.5119ZM53.6452 64.2799H54.5454V68.5742H53.6452V64.2799ZM57.02 68.5742C56.7061 68.5742 56.4694 68.4944 56.3097 68.3347C56.1501 68.1696 56.0702 67.9383 56.0702 67.641V65.0149H55.4013V64.2799H55.7647C55.9133 64.2799 56.0152 64.2469 56.0702 64.1808C56.1308 64.1147 56.1611 64.0074 56.1611 63.8587V63.1072H56.9704V64.2799H57.8706V65.0149H56.9704V67.8392H57.8045V68.5742H57.02ZM59.9797 68.5742C59.6659 68.5742 59.4292 68.4944 59.2695 68.3347C59.1098 68.1696 59.03 67.9383 59.03 67.641V65.0149H58.3611V64.2799H58.7245C58.8731 64.2799 58.975 64.2469 59.03 64.1808C59.0906 64.1147 59.1209 64.0074 59.1209 63.8587V63.1072H59.9302V64.2799H60.8303V65.0149H59.9302V67.8392H60.7643V68.5742H59.9797ZM63.4592 68.6733C63.1509 68.6733 62.8756 68.621 62.6333 68.5164C62.3911 68.4118 62.1846 68.2632 62.014 68.0705C61.8433 67.8723 61.7112 67.6355 61.6176 67.3602C61.5295 67.0795 61.4854 66.7684 61.4854 66.4271C61.4854 66.0857 61.5295 65.7774 61.6176 65.5021C61.7112 65.2213 61.8433 64.9846 62.014 64.7919C62.1846 64.5937 62.3911 64.4423 62.6333 64.3377C62.8756 64.2331 63.1509 64.1808 63.4592 64.1808C63.773 64.1808 64.0483 64.2359 64.285 64.346C64.5272 64.4561 64.7282 64.6102 64.8879 64.8084C65.0475 65.0011 65.1659 65.2269 65.243 65.4856C65.3255 65.7444 65.3668 66.0224 65.3668 66.3197V66.6583H62.4186V66.7987C62.4186 67.129 62.515 67.4015 62.7077 67.6163C62.9059 67.8255 63.1866 67.9301 63.55 67.9301C63.8143 67.9301 64.0373 67.8723 64.2189 67.7566C64.4006 67.641 64.5548 67.4841 64.6814 67.2859L65.2099 67.8062C65.0503 68.0705 64.819 68.2824 64.5162 68.4421C64.2134 68.5962 63.8611 68.6733 63.4592 68.6733ZM63.4592 64.8828C63.305 64.8828 63.1619 64.9103 63.0297 64.9653C62.9031 65.0204 62.793 65.0975 62.6994 65.1966C62.6113 65.2957 62.5425 65.414 62.4929 65.5517C62.4434 65.6893 62.4186 65.8407 62.4186 66.0059V66.0637H64.4171V65.9811C64.4171 65.6508 64.3318 65.3865 64.1611 65.1883C63.9905 64.9846 63.7565 64.8828 63.4592 64.8828ZM66.3633 68.5742V64.2799H67.2635V64.9901H67.3048C67.3984 64.7589 67.5387 64.5662 67.7259 64.412C67.9186 64.2579 68.1801 64.1808 68.5105 64.1808C68.9509 64.1808 69.2923 64.3267 69.5345 64.6185C69.7823 64.9048 69.9061 65.3149 69.9061 65.849V68.5742H69.006V65.9646C69.006 65.2929 68.7362 64.9571 68.1967 64.9571C68.081 64.9571 67.9654 64.9736 67.8498 65.0066C67.7397 65.0342 67.6406 65.0782 67.5525 65.1388C67.4644 65.1993 67.3929 65.2764 67.3378 65.37C67.2882 65.4636 67.2635 65.5737 67.2635 65.7003V68.5742H66.3633ZM76.2519 68.5742C76.0151 68.5742 75.8334 68.5082 75.7068 68.376C75.5802 68.2384 75.5031 68.065 75.4756 67.8557H75.4343C75.3517 68.1255 75.2003 68.3292 74.9801 68.4669C74.7599 68.6045 74.4928 68.6733 74.179 68.6733C73.7331 68.6733 73.389 68.5577 73.1467 68.3265C72.91 68.0952 72.7916 67.7842 72.7916 67.3933C72.7916 66.9638 72.9458 66.6418 73.2541 66.4271C73.5679 66.2123 74.0249 66.105 74.625 66.105H75.4013V65.7416C75.4013 65.4774 75.3297 65.2737 75.1865 65.1305C75.0434 64.9874 74.8204 64.9158 74.5176 64.9158C74.2644 64.9158 74.0579 64.9708 73.8982 65.081C73.7386 65.1911 73.6037 65.3315 73.4936 65.5021L72.9568 65.0149C73.0999 64.7726 73.3009 64.5744 73.5597 64.4203C73.8184 64.2606 74.157 64.1808 74.5754 64.1808C75.1315 64.1808 75.5582 64.3102 75.8555 64.5689C76.1528 64.8277 76.3014 65.1993 76.3014 65.6838V67.8392H76.7556V68.5742H76.2519ZM74.435 67.9879C74.7158 67.9879 74.947 67.9273 75.1287 67.8062C75.3104 67.6796 75.4013 67.5117 75.4013 67.3024V66.6831H74.6415C74.0194 66.6831 73.7083 66.8758 73.7083 67.2611V67.4098C73.7083 67.6025 73.7716 67.7484 73.8982 67.8475C74.0304 67.9411 74.2093 67.9879 74.435 67.9879ZM78.5545 68.5742C78.2462 68.5742 78.015 68.4971 77.8608 68.343C77.7122 68.1833 77.6378 67.9631 77.6378 67.6823V62.4631H78.538V67.8392H79.1326V68.5742H78.5545ZM81.1416 68.5742C80.8278 68.5742 80.5911 68.4944 80.4314 68.3347C80.2717 68.1696 80.1919 67.9383 80.1919 67.641V65.0149H79.523V64.2799H79.8864C80.035 64.2799 80.1369 64.2469 80.1919 64.1808C80.2525 64.1147 80.2828 64.0074 80.2828 63.8587V63.1072H81.0921V64.2799H81.9922V65.0149H81.0921V67.8392H81.9262V68.5742H81.1416ZM86.1095 68.5742C85.7957 68.5742 85.559 68.4944 85.3993 68.3347C85.2396 68.1696 85.1598 67.9383 85.1598 67.641V65.0149H84.4909V64.2799H84.8542C85.0029 64.2799 85.1047 64.2469 85.1598 64.1808C85.2204 64.1147 85.2506 64.0074 85.2506 63.8587V63.1072H86.06V64.2799H86.9601V65.0149H86.06V67.8392H86.894V68.5742H86.1095ZM89.589 68.6733C89.2806 68.6733 89.0054 68.621 88.7631 68.5164C88.5209 68.4118 88.3144 68.2632 88.1438 68.0705C87.9731 67.8723 87.841 67.6355 87.7474 67.3602C87.6593 67.0795 87.6152 66.7684 87.6152 66.4271C87.6152 66.0857 87.6593 65.7774 87.7474 65.5021C87.841 65.2213 87.9731 64.9846 88.1438 64.7919C88.3144 64.5937 88.5209 64.4423 88.7631 64.3377C89.0054 64.2331 89.2806 64.1808 89.589 64.1808C89.9028 64.1808 90.1781 64.2359 90.4148 64.346C90.657 64.4561 90.858 64.6102 91.0176 64.8084C91.1773 65.0011 91.2957 65.2269 91.3728 65.4856C91.4553 65.7444 91.4966 66.0224 91.4966 66.3197V66.6583H88.5484V66.7987C88.5484 67.129 88.6448 67.4015 88.8375 67.6163C89.0357 67.8255 89.3164 67.9301 89.6798 67.9301C89.9441 67.9301 90.167 67.8723 90.3487 67.7566C90.5304 67.641 90.6846 67.4841 90.8112 67.2859L91.3397 67.8062C91.1801 68.0705 90.9488 68.2824 90.646 68.4421C90.3432 68.5962 89.9909 68.6733 89.589 68.6733ZM89.589 64.8828C89.4348 64.8828 89.2917 64.9103 89.1595 64.9653C89.0329 65.0204 88.9228 65.0975 88.8292 65.1966C88.7411 65.2957 88.6723 65.414 88.6227 65.5517C88.5732 65.6893 88.5484 65.8407 88.5484 66.0059V66.0637H90.5469V65.9811C90.5469 65.6508 90.4616 65.3865 90.2909 65.1883C90.1202 64.9846 89.8863 64.8828 89.589 64.8828ZM91.9012 68.5742L93.4125 66.4023L91.9425 64.2799H92.9831L93.9493 65.7747H93.9741L94.9651 64.2799H95.923L94.453 66.394L95.9478 68.5742H94.9072L93.9162 67.0134H93.8915L92.8592 68.5742H91.9012ZM97.9486 68.5742C97.6347 68.5742 97.398 68.4944 97.2383 68.3347C97.0787 68.1696 96.9988 67.9383 96.9988 67.641V65.0149H96.3299V64.2799H96.6933C96.8419 64.2799 96.9438 64.2469 96.9988 64.1808C97.0594 64.1147 97.0897 64.0074 97.0897 63.8587V63.1072H97.899V64.2799H98.7992V65.0149H97.899V67.8392H98.7331V68.5742H97.9486ZM100.329 68.6733C100.125 68.6733 99.9738 68.621 99.8747 68.5164C99.7756 68.4063 99.726 68.2714 99.726 68.1118V67.9879C99.726 67.8282 99.7756 67.6961 99.8747 67.5915C99.9738 67.4814 100.125 67.4263 100.329 67.4263C100.533 67.4263 100.684 67.4814 100.783 67.5915C100.882 67.6961 100.932 67.8282 100.932 67.9879V68.1118C100.932 68.2714 100.882 68.4063 100.783 68.5164C100.684 68.621 100.533 68.6733 100.329 68.6733Z" fill="#121212"/>
</g>
<defs>
<clipPath id="clip0_447_2368">
<rect width="162.413" height="92.6765" fill="white"/>
</clipPath>
</defs>
</svg>
