<svg width="146" height="186" viewBox="0 0 146 186" fill="none" xmlns="http://www.w3.org/2000/svg">
<path d="M51.084 104.855L63.8198 123.06H70.4612V120.404C70.4612 118.763 69.1329 117.435 67.4921 117.435H64.8355L57.7254 102.589" stroke="#121212" stroke-width="2.34401" stroke-miterlimit="10"/>
<path d="M80.3835 107.043L76.3987 117.123C75.6173 119.076 75.8518 121.342 77.0238 123.139H84.2902V120.482C84.2902 118.842 82.9619 117.513 81.3211 117.513L85.0715 107.356" stroke="#121212" stroke-width="2.34401" stroke-miterlimit="10"/>
<path d="M43.5832 96.7297V102.59L38.739 116.966C38.192 119.076 38.5826 121.264 39.8328 123.139H47.1774V120.482C47.1774 118.842 45.8492 117.513 44.2084 117.513H43.6614L48.3494 107.356L58.3506 102.043L69.8362 106.028C71.2426 106.418 72.7271 106.653 74.1336 106.653H84.6816L98.355 123.139H104.996V120.482C104.996 118.842 103.668 117.513 102.027 117.513H99.3708L92.3388 104.074L98.1988 94.4638L105.231 94.542C107.575 94.542 109.763 93.2137 110.778 91.0259L112.81 86.5723L111.872 84.4627H105.7L105.075 82.9782C103.59 79.6965 100.387 77.5869 96.7924 77.5869H91.7918L85.9317 86.2598H48.4275C43.5051 89.307 38.1139 93.995 36.395 99.4644L33.1914 109.7H34.3634L36.8638 106.496C39.1296 103.605 40.8486 100.324 42.0206 96.8079H43.5832V96.7297Z" stroke="#121212" stroke-width="2.34401" stroke-miterlimit="10"/>
<path d="M95.2295 77.5088V86.4942C98.5111 86.6504 101.246 83.9157 101.168 80.556L101.09 77.9776" stroke="#121212" stroke-width="2.34401" stroke-miterlimit="10"/>
<path d="M66.0068 38.6763C66.71 40.6296 68.5853 42.036 70.7731 42.036C72.9608 42.036 74.836 40.6296 75.5392 38.6763" stroke="#121212" stroke-width="2.34401" stroke-miterlimit="10"/>
<path d="M91.6346 77.9779V58.6007C91.6346 46.8025 81.946 36.8795 70.1478 37.1139C58.6622 37.3483 49.4424 46.7244 49.4424 58.2101L49.2861 71.1803C49.2861 74.9307 50.6144 78.603 53.1928 81.3377L57.0995 85.635H58.2715L62.3344 79.775" stroke="#121212" stroke-width="2.34401" stroke-miterlimit="10"/>
<path d="M55.3027 22.8153C59.8345 22.8153 63.5068 19.143 63.5068 14.6112C63.5068 12.6579 65.0695 11.0952 67.0228 11.0952C67.0228 13.6736 69.1324 15.7832 71.7108 15.7832H78.0397C81.712 15.7832 84.6029 18.7523 84.6029 22.3465C84.6029 28.9097 80.3056 34.8479 73.9767 36.4105C64.7569 38.6764 56.3966 31.41 56.4747 22.7371" stroke="#121212" stroke-width="2.34401" stroke-miterlimit="10"/>
<path d="M84.6036 42.1924C84.6036 42.1924 74.6025 56.8815 57.1005 58.6005H49.4434" stroke="#121212" stroke-width="2.34401" stroke-miterlimit="10"/>
<path d="M68.1953 24.2998H72.8833" stroke="#121212" stroke-width="2.34401" stroke-miterlimit="10"/>
<path d="M61.1636 24.2998H56.4756" stroke="#121212" stroke-width="2.34401" stroke-miterlimit="10"/>
<path d="M84.6031 24.2998H79.915" stroke="#121212" stroke-width="2.34401" stroke-miterlimit="10"/>
<path d="M64.6782 27.0343C66.9221 27.0343 68.7411 25.705 68.7411 24.0653C68.7411 22.4255 66.9221 21.0962 64.6782 21.0962C62.4342 21.0962 60.6152 22.4255 60.6152 24.0653C60.6152 25.705 62.4342 27.0343 64.6782 27.0343Z" stroke="#121212" stroke-width="2.34401" stroke-miterlimit="10"/>
<path d="M75.8521 27.0343C78.096 27.0343 79.915 25.705 79.915 24.0653C79.915 22.4255 78.096 21.0962 75.8521 21.0962C73.6082 21.0962 71.7891 22.4255 71.7891 24.0653C71.7891 25.705 73.6082 27.0343 75.8521 27.0343Z" stroke="#121212" stroke-width="2.34401" stroke-miterlimit="10"/>
<path d="M78.7432 79.6963L85.2283 85.5563L92.2604 104.308L84.0563 106.652" stroke="#121212" stroke-width="2.34401" stroke-miterlimit="10"/>
<path d="M73.5078 85.0094C73.5078 83.2904 74.6798 81.8059 76.3987 81.4152L78.8209 80.8683V79.1493L85.8529 73.2893V66.8823" stroke="#121212" stroke-width="2.34401" stroke-miterlimit="10"/>
<path d="M67.6479 85.0097C67.6479 83.2908 66.4759 81.8063 64.7569 81.4156L62.3348 80.8686V79.1497L55.3027 73.2897V67.9766" stroke="#121212" stroke-width="2.34401" stroke-miterlimit="10"/>
<path d="M74.0557 52.1934C74.0557 55.7875 76.9466 58.6003 80.4626 58.6003H92.1827" stroke="#121212" stroke-width="2.34401" stroke-miterlimit="10"/>
<path d="M74.0557 52.7402V72.0393" stroke="#121212" stroke-width="2.34401" stroke-miterlimit="10"/>
<path d="M69.3672 67.9766V72.0395" stroke="#121212" stroke-width="2.34401" stroke-miterlimit="10"/>
<path d="M64.1318 67.9766V72.0395" stroke="#121212" stroke-width="2.34401" stroke-miterlimit="10"/>
<path d="M59.4434 67.9766V72.0395" stroke="#121212" stroke-width="2.34401" stroke-miterlimit="10"/>
<path d="M49.4434 67.3516H74.0555" stroke="#121212" stroke-width="2.34401" stroke-miterlimit="10"/>
<path d="M84.6819 23.4399C87.2604 23.4399 89.37 25.5496 89.37 28.128C89.37 30.7064 87.2604 32.816 84.6819 32.816C83.6662 32.816 82.6505 32.5035 81.8691 31.8784" stroke="#121212" stroke-width="2.34401" stroke-miterlimit="10"/>
<path d="M56.4756 22.268V15.236C56.4756 7.50072 62.8044 1.17188 70.5397 1.17188C78.2749 1.17188 84.6038 7.50072 84.6038 15.236V22.268" stroke="#121212" stroke-width="2.34401" stroke-miterlimit="10"/>
<path d="M67.6475 86.1035V105.481" stroke="#121212" stroke-width="2.34401" stroke-miterlimit="10"/>
<path d="M86.3994 86.7285L98.1195 94.3856" stroke="#121212" stroke-width="2.34401" stroke-miterlimit="10"/>
<path d="M85.2283 86.7286L63.5071 97.8236H61.1631V86.1035" stroke="#121212" stroke-width="2.34401" stroke-miterlimit="10"/>
<path d="M79.915 94.9326V98.4486H83.4311" stroke="#121212" stroke-width="2.34401" stroke-miterlimit="10"/>
<path d="M79.9154 101.965V98.4487H76.3994" stroke="#121212" stroke-width="2.34401" stroke-miterlimit="10"/>
<path d="M25.3121 156.139V142.512H31.1686C32.431 142.512 33.4071 142.883 34.0969 143.625C34.7866 144.367 35.1315 145.363 35.1315 146.612C35.1315 147.861 34.7866 148.857 34.0969 149.599C33.4071 150.341 32.431 150.712 31.1686 150.712H27.518V156.139H25.3121ZM27.518 148.779H31.0319C31.5916 148.779 32.0276 148.636 32.3399 148.349C32.6522 148.05 32.8084 147.627 32.8084 147.081V146.144C32.8084 145.597 32.6522 145.18 32.3399 144.894C32.0276 144.595 31.5916 144.445 31.0319 144.445H27.518V148.779ZM40.9963 156.373C40.2675 156.373 39.6167 156.249 39.0441 156.002C38.4715 155.755 37.9834 155.403 37.58 154.948C37.1765 154.479 36.8642 153.92 36.6429 153.269C36.4347 152.605 36.3306 151.87 36.3306 151.063C36.3306 150.256 36.4347 149.527 36.6429 148.877C36.8642 148.213 37.1765 147.653 37.58 147.198C37.9834 146.729 38.4715 146.371 39.0441 146.124C39.6167 145.877 40.2675 145.753 40.9963 145.753C41.7381 145.753 42.3888 145.883 42.9485 146.144C43.5211 146.404 43.9961 146.768 44.3735 147.237C44.751 147.692 45.0308 148.226 45.213 148.838C45.4082 149.449 45.5058 150.106 45.5058 150.809V151.61H38.5365V151.941C38.5365 152.722 38.7643 153.367 39.2198 153.874C39.6883 154.369 40.3521 154.616 41.211 154.616C41.8357 154.616 42.3628 154.479 42.7923 154.206C43.2218 153.933 43.5862 153.562 43.8855 153.093L45.1349 154.323C44.7575 154.948 44.2109 155.449 43.4951 155.826C42.7793 156.191 41.9463 156.373 40.9963 156.373ZM40.9963 147.412C40.6319 147.412 40.2935 147.478 39.9811 147.608C39.6818 147.738 39.4215 147.92 39.2003 148.154C38.992 148.389 38.8294 148.668 38.7122 148.994C38.5951 149.319 38.5365 149.677 38.5365 150.067V150.204H43.2608V150.009C43.2608 149.228 43.0591 148.603 42.6556 148.135C42.2522 147.653 41.6991 147.412 40.9963 147.412ZM47.8614 156.139V145.987H49.9893V147.94H50.0869C50.23 147.419 50.5294 146.963 50.9849 146.573C51.4404 146.183 52.0716 145.987 52.8785 145.987H53.4446V148.037H52.6052C51.7592 148.037 51.1085 148.174 50.653 148.447C50.2105 148.72 49.9893 149.124 49.9893 149.657V156.139H47.8614ZM55.3346 156.139V145.987H57.4624V147.666H57.56C57.6642 147.406 57.7878 147.159 57.931 146.924C58.0871 146.69 58.2693 146.488 58.4776 146.319C58.6988 146.137 58.9526 146 59.2389 145.909C59.5382 145.805 59.8831 145.753 60.2736 145.753C60.9633 145.753 61.575 145.922 62.1086 146.261C62.6422 146.599 63.0326 147.12 63.2799 147.822H63.3385C63.5207 147.25 63.8721 146.762 64.3927 146.358C64.9132 145.955 65.5835 145.753 66.4034 145.753C67.4185 145.753 68.2059 146.098 68.7655 146.788C69.3252 147.465 69.605 148.434 69.605 149.696V156.139H67.4771V149.95C67.4771 149.169 67.3274 148.584 67.0281 148.193C66.7288 147.79 66.2537 147.588 65.603 147.588C65.3297 147.588 65.0694 147.627 64.8221 147.705C64.5749 147.77 64.3536 147.874 64.1584 148.018C63.9762 148.161 63.8265 148.343 63.7094 148.564C63.5923 148.785 63.5337 149.039 63.5337 149.326V156.139H61.4058V149.95C61.4058 148.376 60.7876 147.588 59.5513 147.588C59.291 147.588 59.0307 147.627 58.7704 147.705C58.5231 147.77 58.3019 147.874 58.1066 148.018C57.9114 148.161 57.7553 148.343 57.6381 148.564C57.521 148.785 57.4624 149.039 57.4624 149.326V156.139H55.3346ZM79.9873 156.139C79.4277 156.139 78.9982 155.982 78.6989 155.67C78.3996 155.345 78.2174 154.935 78.1523 154.44H78.0547C77.8595 155.078 77.5016 155.56 76.981 155.885C76.4604 156.21 75.8292 156.373 75.0874 156.373C74.0332 156.373 73.2198 156.1 72.6472 155.553C72.0875 155.006 71.8077 154.271 71.8077 153.347C71.8077 152.332 72.1721 151.571 72.9009 151.063C73.6428 150.555 74.723 150.302 76.1416 150.302H77.9766V149.443C77.9766 148.818 77.8074 148.336 77.469 147.998C77.1307 147.66 76.6036 147.491 75.8878 147.491C75.2891 147.491 74.8011 147.621 74.4236 147.881C74.0462 148.141 73.7274 148.473 73.4671 148.877L72.1982 147.725C72.5365 147.152 73.0116 146.684 73.6233 146.319C74.2349 145.942 75.0353 145.753 76.0244 145.753C77.3389 145.753 78.3475 146.059 79.0503 146.671C79.7531 147.282 80.1045 148.161 80.1045 149.306V154.401H81.1782V156.139H79.9873ZM75.6926 154.753C76.3563 154.753 76.9029 154.609 77.3324 154.323C77.7619 154.024 77.9766 153.627 77.9766 153.132V151.668H76.1806C74.71 151.668 73.9746 152.124 73.9746 153.035V153.386C73.9746 153.842 74.1243 154.186 74.4236 154.421C74.736 154.642 75.159 154.753 75.6926 154.753ZM83.2636 156.139V145.987H85.3915V147.666H85.4891C85.7104 147.12 86.0422 146.664 86.4847 146.3C86.9402 145.935 87.5584 145.753 88.3393 145.753C89.3805 145.753 90.1874 146.098 90.76 146.788C91.3457 147.465 91.6385 148.434 91.6385 149.696V156.139H89.5106V149.97C89.5106 148.382 88.8729 147.588 87.5975 147.588C87.3242 147.588 87.0509 147.627 86.7776 147.705C86.5173 147.77 86.283 147.874 86.0748 148.018C85.8665 148.161 85.6974 148.343 85.5672 148.564C85.4501 148.785 85.3915 149.046 85.3915 149.345V156.139H83.2636ZM98.5702 156.373C97.8414 156.373 97.1907 156.249 96.6181 156.002C96.0454 155.755 95.5574 155.403 95.1539 154.948C94.7505 154.479 94.4381 153.92 94.2169 153.269C94.0086 152.605 93.9045 151.87 93.9045 151.063C93.9045 150.256 94.0086 149.527 94.2169 148.877C94.4381 148.213 94.7505 147.653 95.1539 147.198C95.5574 146.729 96.0454 146.371 96.6181 146.124C97.1907 145.877 97.8414 145.753 98.5702 145.753C99.3121 145.753 99.9628 145.883 100.522 146.144C101.095 146.404 101.57 146.768 101.947 147.237C102.325 147.692 102.605 148.226 102.787 148.838C102.982 149.449 103.08 150.106 103.08 150.809V151.61H96.1105V151.941C96.1105 152.722 96.3382 153.367 96.7938 153.874C97.2623 154.369 97.926 154.616 98.785 154.616C99.4097 154.616 99.9368 154.479 100.366 154.206C100.796 153.933 101.16 153.562 101.459 153.093L102.709 154.323C102.331 154.948 101.785 155.449 101.069 155.826C100.353 156.191 99.5203 156.373 98.5702 156.373ZM98.5702 147.412C98.2058 147.412 97.8674 147.478 97.5551 147.608C97.2558 147.738 96.9955 147.92 96.7742 148.154C96.566 148.389 96.4033 148.668 96.2862 148.994C96.1691 149.319 96.1105 149.677 96.1105 150.067V150.204H100.835V150.009C100.835 149.228 100.633 148.603 100.23 148.135C99.8261 147.653 99.273 147.412 98.5702 147.412ZM105.435 156.139V145.987H107.563V147.666H107.661C107.882 147.12 108.214 146.664 108.656 146.3C109.112 145.935 109.73 145.753 110.511 145.753C111.552 145.753 112.359 146.098 112.932 146.788C113.517 147.465 113.81 148.434 113.81 149.696V156.139H111.682V149.97C111.682 148.382 111.045 147.588 109.769 147.588C109.496 147.588 109.223 147.627 108.949 147.705C108.689 147.77 108.455 147.874 108.246 148.018C108.038 148.161 107.869 148.343 107.739 148.564C107.622 148.785 107.563 149.046 107.563 149.345V156.139H105.435ZM119.571 156.139C118.829 156.139 118.269 155.95 117.892 155.573C117.514 155.182 117.326 154.635 117.326 153.933V147.725H115.744V145.987H116.603C116.955 145.987 117.195 145.909 117.326 145.753C117.469 145.597 117.54 145.343 117.54 144.992V143.215H119.453V145.987H121.581V147.725H119.453V154.401H121.425V156.139H119.571Z" fill="#303030"/>
<path d="M58.8682 170.12H62.9482C63.7141 170.12 64.3127 170.336 64.744 170.767C65.1841 171.199 65.4042 171.775 65.4042 172.497C65.4042 172.84 65.3558 173.135 65.259 173.382C65.1621 173.62 65.0389 173.818 64.8892 173.976C64.7396 174.126 64.5679 174.24 64.3743 174.319C64.1806 174.39 63.9914 174.434 63.8065 174.451V174.531C63.9914 174.539 64.1938 174.583 64.4139 174.663C64.6428 174.742 64.854 174.87 65.0477 175.046C65.2413 175.213 65.4042 175.433 65.5362 175.706C65.6683 175.97 65.7343 176.296 65.7343 176.683C65.7343 177.053 65.6727 177.4 65.5494 177.726C65.435 178.052 65.2722 178.333 65.0609 178.571C64.8496 178.809 64.5987 178.998 64.3083 179.139C64.0178 179.271 63.7009 179.337 63.3576 179.337H58.8682V170.12ZM60.3602 178.056H62.9218C63.3091 178.056 63.6128 177.955 63.8329 177.752C64.053 177.55 64.163 177.259 64.163 176.881V176.432C64.163 176.053 64.053 175.763 63.8329 175.561C63.6128 175.358 63.3091 175.257 62.9218 175.257H60.3602V178.056ZM60.3602 174.016H62.6709C63.0407 174.016 63.3267 173.923 63.5292 173.738C63.7317 173.545 63.8329 173.272 63.8329 172.92V172.497C63.8329 172.145 63.7317 171.877 63.5292 171.692C63.3267 171.498 63.0407 171.401 62.6709 171.401H60.3602V174.016ZM68.9321 179.337C68.4391 179.337 68.0694 179.214 67.8229 178.967C67.5852 178.712 67.4664 178.36 67.4664 177.911V169.566H68.9057V178.162H69.8564V179.337H68.9321ZM71.9579 171.243C71.6586 171.243 71.4385 171.172 71.2977 171.032C71.1656 170.891 71.0996 170.71 71.0996 170.49V170.266C71.0996 170.046 71.1656 169.865 71.2977 169.724C71.4385 169.583 71.6586 169.513 71.9579 169.513C72.2572 169.513 72.4728 169.583 72.6049 169.724C72.7369 169.865 72.8029 170.046 72.8029 170.266V170.49C72.8029 170.71 72.7369 170.891 72.6049 171.032C72.4728 171.172 72.2572 171.243 71.9579 171.243ZM71.2316 172.471H72.6709V179.337H71.2316V172.471ZM74.7261 179.337V172.471H76.1653V173.606H76.2314C76.381 173.237 76.6055 172.929 76.9048 172.682C77.2129 172.436 77.631 172.312 78.1592 172.312C78.8634 172.312 79.4091 172.546 79.7965 173.012C80.1926 173.47 80.3907 174.126 80.3907 174.98V179.337H78.9514V175.164C78.9514 174.09 78.5201 173.554 77.6574 173.554C77.4725 173.554 77.2877 173.58 77.1028 173.633C76.9268 173.677 76.7683 173.747 76.6275 173.844C76.4866 173.941 76.3722 174.064 76.2842 174.214C76.205 174.363 76.1653 174.539 76.1653 174.742V179.337H74.7261ZM86.7032 178.201H86.6372C86.4876 178.606 86.2411 178.923 85.8978 179.152C85.5633 179.381 85.1672 179.495 84.7094 179.495C83.838 179.495 83.1645 179.183 82.6892 178.558C82.2139 177.924 81.9762 177.039 81.9762 175.904C81.9762 174.768 82.2139 173.888 82.6892 173.263C83.1645 172.629 83.838 172.312 84.7094 172.312C85.1672 172.312 85.5633 172.427 85.8978 172.656C86.2411 172.876 86.4876 173.193 86.6372 173.606H86.7032V169.566H88.1425V179.337H86.7032V178.201ZM85.1452 178.254C85.5853 178.254 85.955 178.149 86.2543 177.937C86.5536 177.717 86.7032 177.431 86.7032 177.079V174.729C86.7032 174.377 86.5536 174.095 86.2543 173.884C85.955 173.664 85.5853 173.554 85.1452 173.554C84.6434 173.554 84.2429 173.716 83.9436 174.042C83.6443 174.359 83.4947 174.781 83.4947 175.31V176.498C83.4947 177.026 83.6443 177.453 83.9436 177.779C84.2429 178.096 84.6434 178.254 85.1452 178.254Z" fill="#7F7F7F"/>
</svg>
