<svg width="163" height="93" viewBox="0 0 163 93" fill="none" xmlns="http://www.w3.org/2000/svg">
<g clip-path="url(#clip0_447_2409)">
<mask id="path-1-inside-1_447_2409" fill="white">
<path fill-rule="evenodd" clip-rule="evenodd" d="M80.2314 0.0410036C80.5722 -0.625585 81.5256 -0.625709 81.8662 0.0410036L88.0986 12.2432H151.861C157.689 12.2434 162.413 16.9682 162.413 22.7959V81.9795C162.413 87.8072 157.689 92.532 151.861 92.5322H10.5518C4.72412 92.532 0 87.8072 0 81.9795V22.7959C0 16.9682 4.72411 12.2434 10.5518 12.2432H73.999L80.2314 0.0410036Z"/>
</mask>
<path fill-rule="evenodd" clip-rule="evenodd" d="M80.2314 0.0410036C80.5722 -0.625585 81.5256 -0.625709 81.8662 0.0410036L88.0986 12.2432H151.861C157.689 12.2434 162.413 16.9682 162.413 22.7959V81.9795C162.413 87.8072 157.689 92.532 151.861 92.5322H10.5518C4.72412 92.532 0 87.8072 0 81.9795V22.7959C0 16.9682 4.72411 12.2434 10.5518 12.2432H73.999L80.2314 0.0410036Z" fill="white"/>
<path d="M80.2314 0.0410036L79.251 -0.4602L79.2508 -0.459853L80.2314 0.0410036ZM81.8662 0.0410036L82.8468 -0.459853L82.8467 -0.459995L81.8662 0.0410036ZM88.0986 12.2432L87.118 12.744L87.4246 13.3443H88.0986V12.2432ZM151.861 12.2432L151.861 11.142H151.861V12.2432ZM151.861 92.5322V93.6333H151.861L151.861 92.5322ZM10.5518 92.5322L10.5517 93.6333H10.5518V92.5322ZM10.5518 12.2432V11.142H10.5517L10.5518 12.2432ZM73.999 12.2432V13.3443H74.673L74.9796 12.744L73.999 12.2432ZM80.2314 0.0410036L81.2119 0.542208C81.1439 0.675146 80.954 0.675778 80.8857 0.542002L81.8662 0.0410036L82.8467 -0.459995C82.0971 -1.9272 80.0005 -1.92632 79.251 -0.4602L80.2314 0.0410036ZM81.8662 0.0410036L80.8856 0.54186L87.118 12.744L88.0986 12.2432L89.0792 11.7423L82.8468 -0.459853L81.8662 0.0410036ZM88.0986 12.2432V13.3443H151.861V12.2432V11.142H88.0986V12.2432ZM151.861 12.2432L151.861 13.3443C157.081 13.3444 161.312 17.5762 161.312 22.7959H162.413H163.514C163.514 16.3601 158.297 11.1423 151.861 11.142L151.861 12.2432ZM162.413 22.7959H161.312V81.9795H162.413H163.514V22.7959H162.413ZM162.413 81.9795H161.312C161.312 87.1992 157.081 91.4309 151.861 91.4311L151.861 92.5322L151.861 93.6333C158.297 93.6331 163.514 88.4152 163.514 81.9795H162.413ZM151.861 92.5322V91.4311H10.5518V92.5322V93.6333H151.861V92.5322ZM10.5518 92.5322L10.5518 91.4311C5.33234 91.4309 1.10111 87.1991 1.10111 81.9795H0H-1.10111C-1.10111 88.4152 4.1159 93.633 10.5517 93.6333L10.5518 92.5322ZM0 81.9795H1.10111V22.7959H0H-1.10111V81.9795H0ZM0 22.7959H1.10111C1.10111 17.5762 5.33233 13.3445 10.5518 13.3443L10.5518 12.2432L10.5517 11.142C4.11589 11.1423 -1.10111 16.3601 -1.10111 22.7959H0ZM10.5518 12.2432V13.3443H73.999V12.2432V11.142H10.5518V12.2432ZM73.999 12.2432L74.9796 12.744L81.212 0.54186L80.2314 0.0410036L79.2508 -0.459853L73.0184 11.7423L73.999 12.2432Z" fill="#121212" mask="url(#path-1-inside-1_447_2409)"/>
<path d="M15.7228 33.1819H13.1131V35.6924H12.1799V29.9281H13.1131V32.356H15.7228V29.9281H16.6559V35.6924H15.7228V33.1819ZM21.1556 35.6924C20.9189 35.6924 20.7372 35.6263 20.6106 35.4942C20.4839 35.3565 20.4069 35.1831 20.3793 34.9739H20.338C20.2555 35.2437 20.1041 35.4474 19.8838 35.585C19.6636 35.7227 19.3966 35.7915 19.0828 35.7915C18.6368 35.7915 18.2927 35.6759 18.0505 35.4446C17.8138 35.2134 17.6954 34.9023 17.6954 34.5114C17.6954 34.082 17.8495 33.7599 18.1579 33.5452C18.4717 33.3305 18.9286 33.2232 19.5287 33.2232H20.305V32.8598C20.305 32.5955 20.2334 32.3918 20.0903 32.2487C19.9472 32.1055 19.7242 32.034 19.4214 32.034C19.1681 32.034 18.9617 32.089 18.802 32.1991C18.6423 32.3092 18.5075 32.4496 18.3973 32.6203L17.8606 32.1331C18.0037 31.8908 18.2047 31.6926 18.4634 31.5385C18.7222 31.3788 19.0608 31.299 19.4792 31.299C20.0352 31.299 20.4619 31.4283 20.7592 31.6871C21.0565 31.9459 21.2052 32.3175 21.2052 32.802V34.9574H21.6594V35.6924H21.1556ZM19.3388 35.106C19.6196 35.106 19.8508 35.0455 20.0325 34.9244C20.2142 34.7977 20.305 34.6298 20.305 34.4206V33.8012H19.5452C18.9231 33.8012 18.6121 33.9939 18.6121 34.3793V34.528C18.6121 34.7207 18.6754 34.8666 18.802 34.9657C18.9341 35.0592 19.1131 35.106 19.3388 35.106ZM23.9042 35.7915C23.4968 35.7915 23.1555 35.7199 22.8802 35.5768C22.6049 35.4336 22.3654 35.2354 22.1617 34.9822L22.7398 34.4536C22.8995 34.6463 23.0756 34.7977 23.2683 34.9078C23.4665 35.0124 23.695 35.0648 23.9538 35.0648C24.218 35.0648 24.4135 35.0152 24.5401 34.9161C24.6722 34.8115 24.7383 34.6684 24.7383 34.4867C24.7383 34.349 24.6915 34.2334 24.5979 34.1398C24.5098 34.0407 24.3529 33.9774 24.1272 33.9499L23.7308 33.9003C23.2903 33.8453 22.9435 33.7186 22.6902 33.5204C22.4425 33.3167 22.3186 33.0167 22.3186 32.6203C22.3186 32.4111 22.3572 32.2266 22.4342 32.067C22.5113 31.9018 22.6187 31.7642 22.7563 31.6541C22.8995 31.5385 23.0674 31.4504 23.2601 31.3898C23.4583 31.3292 23.6757 31.299 23.9125 31.299C24.2979 31.299 24.6117 31.3595 24.8539 31.4806C25.1017 31.6018 25.3219 31.7697 25.5146 31.9844L24.9613 32.5129C24.8512 32.3808 24.7053 32.2679 24.5236 32.1743C24.3474 32.0752 24.1437 32.0257 23.9125 32.0257C23.6647 32.0257 23.4803 32.0752 23.3592 32.1743C23.2435 32.2734 23.1857 32.4028 23.1857 32.5625C23.1857 32.7277 23.238 32.8515 23.3426 32.9341C23.4473 33.0167 23.6152 33.0773 23.8464 33.1158L24.2428 33.1653C24.7163 33.2369 25.0604 33.3773 25.2751 33.5865C25.4953 33.7902 25.6054 34.0655 25.6054 34.4123C25.6054 34.6216 25.5641 34.8115 25.4816 34.9822C25.4045 35.1473 25.2916 35.2905 25.143 35.4116C24.9943 35.5327 24.8154 35.6263 24.6062 35.6924C24.397 35.7584 24.163 35.7915 23.9042 35.7915ZM28.574 31.3981H29.4742V32.1083H29.5155C29.6091 31.8495 29.7605 31.6513 29.9697 31.5137C30.1844 31.3705 30.4349 31.299 30.7212 31.299C31.2662 31.299 31.6874 31.4972 31.9847 31.8936C32.282 32.2845 32.4307 32.835 32.4307 33.5452C32.4307 34.2554 32.282 34.8087 31.9847 35.2051C31.6874 35.596 31.2662 35.7915 30.7212 35.7915C30.4349 35.7915 30.1844 35.7199 29.9697 35.5768C29.7605 35.4336 29.6091 35.2354 29.5155 34.9822H29.4742V37.344H28.574V31.3981ZM30.4487 35.0152C30.7625 35.0152 31.013 34.9161 31.2002 34.7179C31.3874 34.5142 31.4809 34.2472 31.4809 33.9168V33.1736C31.4809 32.8433 31.3874 32.579 31.2002 32.3808C31.013 32.1771 30.7625 32.0752 30.4487 32.0752C30.1734 32.0752 29.9422 32.1441 29.755 32.2817C29.5678 32.4138 29.4742 32.59 29.4742 32.8102V34.2802C29.4742 34.5004 29.5678 34.6794 29.755 34.817C29.9422 34.9491 30.1734 35.0152 30.4487 35.0152ZM35.146 35.7915C34.8487 35.7915 34.5761 35.7392 34.3284 35.6346C34.0861 35.53 33.8797 35.3813 33.709 35.1886C33.5383 34.9904 33.4062 34.7537 33.3126 34.4784C33.219 34.1976 33.1722 33.8866 33.1722 33.5452C33.1722 33.2039 33.219 32.8956 33.3126 32.6203C33.4062 32.3395 33.5383 32.1028 33.709 31.9101C33.8797 31.7119 34.0861 31.5605 34.3284 31.4559C34.5761 31.3513 34.8487 31.299 35.146 31.299C35.4433 31.299 35.713 31.3513 35.9553 31.4559C36.203 31.5605 36.4122 31.7119 36.5829 31.9101C36.7536 32.1028 36.8857 32.3395 36.9793 32.6203C37.0729 32.8956 37.1197 33.2039 37.1197 33.5452C37.1197 33.8866 37.0729 34.1976 36.9793 34.4784C36.8857 34.7537 36.7536 34.9904 36.5829 35.1886C36.4122 35.3813 36.203 35.53 35.9553 35.6346C35.713 35.7392 35.4433 35.7915 35.146 35.7915ZM35.146 35.0482C35.4543 35.0482 35.702 34.9546 35.8892 34.7675C36.0764 34.5748 36.17 34.2885 36.17 33.9086V33.1819C36.17 32.802 36.0764 32.5184 35.8892 32.3313C35.702 32.1386 35.4543 32.0422 35.146 32.0422C34.8376 32.0422 34.5899 32.1386 34.4027 32.3313C34.2155 32.5184 34.1219 32.802 34.1219 33.1819V33.9086C34.1219 34.2885 34.2155 34.5748 34.4027 34.7675C34.5899 34.9546 34.8376 35.0482 35.146 35.0482ZM39.8074 35.7915C39.5101 35.7915 39.2376 35.7392 38.9898 35.6346C38.7476 35.53 38.5411 35.3813 38.3704 35.1886C38.1998 34.9904 38.0676 34.7537 37.974 34.4784C37.8804 34.1976 37.8336 33.8866 37.8336 33.5452C37.8336 33.2039 37.8804 32.8956 37.974 32.6203C38.0676 32.3395 38.1998 32.1028 38.3704 31.9101C38.5411 31.7119 38.7476 31.5605 38.9898 31.4559C39.2376 31.3513 39.5101 31.299 39.8074 31.299C40.1047 31.299 40.3745 31.3513 40.6167 31.4559C40.8644 31.5605 41.0737 31.7119 41.2443 31.9101C41.415 32.1028 41.5471 32.3395 41.6407 32.6203C41.7343 32.8956 41.7811 33.2039 41.7811 33.5452C41.7811 33.8866 41.7343 34.1976 41.6407 34.4784C41.5471 34.7537 41.415 34.9904 41.2443 35.1886C41.0737 35.3813 40.8644 35.53 40.6167 35.6346C40.3745 35.7392 40.1047 35.7915 39.8074 35.7915ZM39.8074 35.0482C40.1157 35.0482 40.3634 34.9546 40.5506 34.7675C40.7378 34.5748 40.8314 34.2885 40.8314 33.9086V33.1819C40.8314 32.802 40.7378 32.5184 40.5506 32.3313C40.3634 32.1386 40.1157 32.0422 39.8074 32.0422C39.4991 32.0422 39.2513 32.1386 39.0641 32.3313C38.8769 32.5184 38.7834 32.802 38.7834 33.1819V33.9086C38.7834 34.2885 38.8769 34.5748 39.0641 34.7675C39.2513 34.9546 39.4991 35.0482 39.8074 35.0482ZM42.7841 35.6924V31.3981H43.6843V32.2239H43.7256C43.7861 32.0037 43.9127 31.811 44.1054 31.6458C44.2981 31.4806 44.5652 31.3981 44.9065 31.3981H45.146V32.2652H44.7909C44.433 32.2652 44.1577 32.323 43.9651 32.4386C43.7779 32.5542 43.6843 32.7249 43.6843 32.9506V35.6924H42.7841ZM48.3514 30.63C48.1642 30.63 48.0265 30.586 47.9385 30.4979C47.8559 30.4098 47.8146 30.297 47.8146 30.1593V30.0189C47.8146 29.8813 47.8559 29.7684 47.9385 29.6803C48.0265 29.5922 48.1642 29.5482 48.3514 29.5482C48.5386 29.5482 48.6734 29.5922 48.756 29.6803C48.8386 29.7684 48.8799 29.8813 48.8799 30.0189V30.1593C48.8799 30.297 48.8386 30.4098 48.756 30.4979C48.6734 30.586 48.5386 30.63 48.3514 30.63ZM47.8972 31.3981H48.7973V35.6924H47.8972V31.3981ZM50.0827 35.6924V31.3981H50.9829V32.1083H51.0242C51.1178 31.877 51.2581 31.6844 51.4453 31.5302C51.638 31.376 51.8995 31.299 52.2299 31.299C52.6703 31.299 53.0117 31.4449 53.2539 31.7367C53.5016 32.0229 53.6255 32.4331 53.6255 32.9671V35.6924H52.7254V33.0828C52.7254 32.4111 52.4556 32.0752 51.9161 32.0752C51.8004 32.0752 51.6848 32.0918 51.5692 32.1248C51.4591 32.1523 51.36 32.1964 51.2719 32.2569C51.1838 32.3175 51.1122 32.3946 51.0572 32.4882C51.0076 32.5818 50.9829 32.6919 50.9829 32.8185V35.6924H50.0827ZM56.0624 35.6924C55.7486 35.6924 55.5118 35.6126 55.3522 35.4529C55.1925 35.2877 55.1127 35.0565 55.1127 34.7592V32.1331H54.4437V31.3981H54.8071C54.9558 31.3981 55.0576 31.365 55.1127 31.299C55.1732 31.2329 55.2035 31.1255 55.2035 30.9769V30.2254H56.0128V31.3981H56.913V32.1331H56.0128V34.9574H56.8469V35.6924H56.0624ZM59.5418 35.7915C59.2335 35.7915 58.9582 35.7392 58.716 35.6346C58.4737 35.53 58.2673 35.3813 58.0966 35.1886C57.9259 34.9904 57.7938 34.7537 57.7002 34.4784C57.6121 34.1976 57.5681 33.8866 57.5681 33.5452C57.5681 33.2039 57.6121 32.8956 57.7002 32.6203C57.7938 32.3395 57.9259 32.1028 58.0966 31.9101C58.2673 31.7119 58.4737 31.5605 58.716 31.4559C58.9582 31.3513 59.2335 31.299 59.5418 31.299C59.8556 31.299 60.1309 31.354 60.3677 31.4641C60.6099 31.5742 60.8108 31.7284 60.9705 31.9266C61.1302 32.1193 61.2485 32.345 61.3256 32.6038C61.4082 32.8625 61.4495 33.1406 61.4495 33.4379V33.7765H58.5013V33.9168C58.5013 34.2472 58.5976 34.5197 58.7903 34.7344C58.9885 34.9436 59.2693 35.0482 59.6327 35.0482C59.8969 35.0482 60.1199 34.9904 60.3016 34.8748C60.4833 34.7592 60.6374 34.6023 60.7641 34.4041L61.2926 34.9244C61.1329 35.1886 60.9017 35.4006 60.5989 35.5602C60.2961 35.7144 59.9437 35.7915 59.5418 35.7915ZM59.5418 32.0009C59.3877 32.0009 59.2445 32.0284 59.1124 32.0835C58.9858 32.1386 58.8757 32.2156 58.7821 32.3147C58.694 32.4138 58.6252 32.5322 58.5756 32.6698C58.5261 32.8075 58.5013 32.9589 58.5013 33.1241V33.1819H60.4998V33.0993C60.4998 32.7689 60.4145 32.5047 60.2438 32.3065C60.0731 32.1028 59.8391 32.0009 59.5418 32.0009ZM62.446 35.6924V31.3981H63.3461V32.2239H63.3874C63.448 32.0037 63.5746 31.811 63.7673 31.6458C63.96 31.4806 64.227 31.3981 64.5684 31.3981H64.8078V32.2652H64.4527C64.0949 32.2652 63.8196 32.323 63.6269 32.4386C63.4397 32.5542 63.3461 32.7249 63.3461 32.9506V35.6924H62.446ZM65.6074 35.6924V31.3981H66.5075V32.1083H66.5488C66.6424 31.877 66.7828 31.6844 66.97 31.5302C67.1627 31.376 67.4242 31.299 67.7545 31.299C68.195 31.299 68.5363 31.4449 68.7785 31.7367C69.0263 32.0229 69.1502 32.4331 69.1502 32.9671V35.6924H68.25V33.0828C68.25 32.4111 67.9802 32.0752 67.4407 32.0752C67.3251 32.0752 67.2095 32.0918 67.0938 32.1248C66.9837 32.1523 66.8846 32.1964 66.7965 32.2569C66.7085 32.3175 66.6369 32.3946 66.5818 32.4882C66.5323 32.5818 66.5075 32.6919 66.5075 32.8185V35.6924H65.6074ZM72.0825 35.7915C71.7742 35.7915 71.4989 35.7392 71.2567 35.6346C71.0144 35.53 70.808 35.3813 70.6373 35.1886C70.4666 34.9904 70.3345 34.7537 70.2409 34.4784C70.1528 34.1976 70.1088 33.8866 70.1088 33.5452C70.1088 33.2039 70.1528 32.8956 70.2409 32.6203C70.3345 32.3395 70.4666 32.1028 70.6373 31.9101C70.808 31.7119 71.0144 31.5605 71.2567 31.4559C71.4989 31.3513 71.7742 31.299 72.0825 31.299C72.3963 31.299 72.6716 31.354 72.9083 31.4641C73.1506 31.5742 73.3515 31.7284 73.5112 31.9266C73.6709 32.1193 73.7892 32.345 73.8663 32.6038C73.9489 32.8625 73.9902 33.1406 73.9902 33.4379V33.7765H71.042V33.9168C71.042 34.2472 71.1383 34.5197 71.331 34.7344C71.5292 34.9436 71.81 35.0482 72.1733 35.0482C72.4376 35.0482 72.6606 34.9904 72.8423 34.8748C73.024 34.7592 73.1781 34.6023 73.3047 34.4041L73.8333 34.9244C73.6736 35.1886 73.4424 35.4006 73.1396 35.5602C72.8368 35.7144 72.4844 35.7915 72.0825 35.7915ZM72.0825 32.0009C71.9284 32.0009 71.7852 32.0284 71.6531 32.0835C71.5264 32.1386 71.4163 32.2156 71.3227 32.3147C71.2347 32.4138 71.1658 32.5322 71.1163 32.6698C71.0667 32.8075 71.042 32.9589 71.042 33.1241V33.1819H73.0405V33.0993C73.0405 32.7689 72.9551 32.5047 72.7845 32.3065C72.6138 32.1028 72.3798 32.0009 72.0825 32.0009ZM76.1758 35.6924C75.862 35.6924 75.6253 35.6126 75.4656 35.4529C75.306 35.2877 75.2261 35.0565 75.2261 34.7592V32.1331H74.5572V31.3981H74.9206C75.0692 31.3981 75.1711 31.365 75.2261 31.299C75.2867 31.2329 75.317 31.1255 75.317 30.9769V30.2254H76.1263V31.3981H77.0265V32.1331H76.1263V34.9574H76.9604V35.6924H76.1758ZM81.6145 35.7915C81.3062 35.7915 81.0309 35.7392 80.7886 35.6346C80.5464 35.53 80.3427 35.3813 80.1775 35.1886C80.0124 34.9904 79.8857 34.7537 79.7976 34.4784C79.7095 34.1976 79.6655 33.8866 79.6655 33.5452C79.6655 33.2039 79.7095 32.8956 79.7976 32.6203C79.8857 32.3395 80.0124 32.1028 80.1775 31.9101C80.3427 31.7119 80.5464 31.5605 80.7886 31.4559C81.0309 31.3513 81.3062 31.299 81.6145 31.299C82.0439 31.299 82.3962 31.3953 82.6715 31.588C82.9468 31.7807 83.1478 32.0367 83.2744 32.356L82.5311 32.7029C82.4706 32.5047 82.3632 32.3478 82.2091 32.2322C82.0604 32.111 81.8622 32.0505 81.6145 32.0505C81.2841 32.0505 81.0336 32.1551 80.863 32.3643C80.6978 32.568 80.6152 32.835 80.6152 33.1653V33.9334C80.6152 34.2637 80.6978 34.5335 80.863 34.7427C81.0336 34.9464 81.2841 35.0482 81.6145 35.0482C81.8787 35.0482 82.0879 34.9849 82.2421 34.8583C82.4018 34.7262 82.5284 34.5527 82.622 34.338L83.3074 34.7014C83.1643 35.0537 82.9496 35.3235 82.6633 35.5107C82.377 35.6979 82.0274 35.7915 81.6145 35.7915ZM85.8006 35.7915C85.5033 35.7915 85.2308 35.7392 84.9831 35.6346C84.7408 35.53 84.5344 35.3813 84.3637 35.1886C84.193 34.9904 84.0609 34.7537 83.9673 34.4784C83.8737 34.1976 83.8269 33.8866 83.8269 33.5452C83.8269 33.2039 83.8737 32.8956 83.9673 32.6203C84.0609 32.3395 84.193 32.1028 84.3637 31.9101C84.5344 31.7119 84.7408 31.5605 84.9831 31.4559C85.2308 31.3513 85.5033 31.299 85.8006 31.299C86.0979 31.299 86.3677 31.3513 86.61 31.4559C86.8577 31.5605 87.0669 31.7119 87.2376 31.9101C87.4083 32.1028 87.5404 32.3395 87.634 32.6203C87.7276 32.8956 87.7744 33.2039 87.7744 33.5452C87.7744 33.8866 87.7276 34.1976 87.634 34.4784C87.5404 34.7537 87.4083 34.9904 87.2376 35.1886C87.0669 35.3813 86.8577 35.53 86.61 35.6346C86.3677 35.7392 86.0979 35.7915 85.8006 35.7915ZM85.8006 35.0482C86.109 35.0482 86.3567 34.9546 86.5439 34.7675C86.7311 34.5748 86.8247 34.2885 86.8247 33.9086V33.1819C86.8247 32.802 86.7311 32.5184 86.5439 32.3313C86.3567 32.1386 86.109 32.0422 85.8006 32.0422C85.4923 32.0422 85.2446 32.1386 85.0574 32.3313C84.8702 32.5184 84.7766 32.802 84.7766 33.1819V33.9086C84.7766 34.2885 84.8702 34.5748 85.0574 34.7675C85.2446 34.9546 85.4923 35.0482 85.8006 35.0482ZM88.7774 35.6924V31.3981H89.6775V32.1083H89.7188C89.8124 31.877 89.9528 31.6844 90.14 31.5302C90.3327 31.376 90.5942 31.299 90.9245 31.299C91.365 31.299 91.7063 31.4449 91.9486 31.7367C92.1963 32.0229 92.3202 32.4331 92.3202 32.9671V35.6924H91.42V33.0828C91.42 32.4111 91.1503 32.0752 90.6107 32.0752C90.4951 32.0752 90.3795 32.0918 90.2639 32.1248C90.1538 32.1523 90.0547 32.1964 89.9666 32.2569C89.8785 32.3175 89.8069 32.3946 89.7519 32.4882C89.7023 32.5818 89.6775 32.6919 89.6775 32.8185V35.6924H88.7774ZM93.5678 35.6924V31.3981H94.468V32.1083H94.5093C94.6029 31.877 94.7433 31.6844 94.9305 31.5302C95.1232 31.376 95.3847 31.299 95.715 31.299C96.1554 31.299 96.4968 31.4449 96.739 31.7367C96.9868 32.0229 97.1107 32.4331 97.1107 32.9671V35.6924H96.2105V33.0828C96.2105 32.4111 95.9407 32.0752 95.4012 32.0752C95.2856 32.0752 95.1699 32.0918 95.0543 32.1248C94.9442 32.1523 94.8451 32.1964 94.757 32.2569C94.6689 32.3175 94.5974 32.3946 94.5423 32.4882C94.4928 32.5818 94.468 32.6919 94.468 32.8185V35.6924H93.5678ZM100.043 35.7915C99.7347 35.7915 99.4594 35.7392 99.2172 35.6346C98.9749 35.53 98.7685 35.3813 98.5978 35.1886C98.4271 34.9904 98.295 34.7537 98.2014 34.4784C98.1133 34.1976 98.0693 33.8866 98.0693 33.5452C98.0693 33.2039 98.1133 32.8956 98.2014 32.6203C98.295 32.3395 98.4271 32.1028 98.5978 31.9101C98.7685 31.7119 98.9749 31.5605 99.2172 31.4559C99.4594 31.3513 99.7347 31.299 100.043 31.299C100.357 31.299 100.632 31.354 100.869 31.4641C101.111 31.5742 101.312 31.7284 101.472 31.9266C101.631 32.1193 101.75 32.345 101.827 32.6038C101.909 32.8625 101.951 33.1406 101.951 33.4379V33.7765H99.0024V33.9168C99.0024 34.2472 99.0988 34.5197 99.2915 34.7344C99.4897 34.9436 99.7705 35.0482 100.134 35.0482C100.398 35.0482 100.621 34.9904 100.803 34.8748C100.984 34.7592 101.139 34.6023 101.265 34.4041L101.794 34.9244C101.634 35.1886 101.403 35.4006 101.1 35.5602C100.797 35.7144 100.445 35.7915 100.043 35.7915ZM100.043 32.0009C99.8888 32.0009 99.7457 32.0284 99.6136 32.0835C99.4869 32.1386 99.3768 32.2156 99.2832 32.3147C99.1951 32.4138 99.1263 32.5322 99.0768 32.6698C99.0272 32.8075 99.0024 32.9589 99.0024 33.1241V33.1819H101.001V33.0993C101.001 32.7689 100.916 32.5047 100.745 32.3065C100.574 32.1028 100.34 32.0009 100.043 32.0009ZM104.607 35.7915C104.299 35.7915 104.023 35.7392 103.781 35.6346C103.539 35.53 103.335 35.3813 103.17 35.1886C103.005 34.9904 102.878 34.7537 102.79 34.4784C102.702 34.1976 102.658 33.8866 102.658 33.5452C102.658 33.2039 102.702 32.8956 102.79 32.6203C102.878 32.3395 103.005 32.1028 103.17 31.9101C103.335 31.7119 103.539 31.5605 103.781 31.4559C104.023 31.3513 104.299 31.299 104.607 31.299C105.036 31.299 105.389 31.3953 105.664 31.588C105.939 31.7807 106.14 32.0367 106.267 32.356L105.524 32.7029C105.463 32.5047 105.356 32.3478 105.202 32.2322C105.053 32.111 104.855 32.0505 104.607 32.0505C104.277 32.0505 104.026 32.1551 103.856 32.3643C103.69 32.568 103.608 32.835 103.608 33.1653V33.9334C103.608 34.2637 103.69 34.5335 103.856 34.7427C104.026 34.9464 104.277 35.0482 104.607 35.0482C104.871 35.0482 105.081 34.9849 105.235 34.8583C105.394 34.7262 105.521 34.5527 105.615 34.338L106.3 34.7014C106.157 35.0537 105.942 35.3235 105.656 35.5107C105.37 35.6979 105.02 35.7915 104.607 35.7915ZM108.346 35.6924C108.032 35.6924 107.796 35.6126 107.636 35.4529C107.476 35.2877 107.396 35.0565 107.396 34.7592V32.1331H106.728V31.3981H107.091C107.24 31.3981 107.341 31.365 107.396 31.299C107.457 31.2329 107.487 31.1255 107.487 30.9769V30.2254H108.297V31.3981H109.197V32.1331H108.297V34.9574H109.131V35.6924H108.346ZM110.627 30.63C110.44 30.63 110.303 30.586 110.214 30.4979C110.132 30.4098 110.091 30.297 110.091 30.1593V30.0189C110.091 29.8813 110.132 29.7684 110.214 29.6803C110.303 29.5922 110.44 29.5482 110.627 29.5482C110.815 29.5482 110.949 29.5922 111.032 29.6803C111.115 29.7684 111.156 29.8813 111.156 30.0189V30.1593C111.156 30.297 111.115 30.4098 111.032 30.4979C110.949 30.586 110.815 30.63 110.627 30.63ZM110.173 31.3981H111.073V35.6924H110.173V31.3981ZM114.043 35.7915C113.746 35.7915 113.474 35.7392 113.226 35.6346C112.984 35.53 112.777 35.3813 112.606 35.1886C112.436 34.9904 112.304 34.7537 112.21 34.4784C112.116 34.1976 112.07 33.8866 112.07 33.5452C112.07 33.2039 112.116 32.8956 112.21 32.6203C112.304 32.3395 112.436 32.1028 112.606 31.9101C112.777 31.7119 112.984 31.5605 113.226 31.4559C113.474 31.3513 113.746 31.299 114.043 31.299C114.341 31.299 114.61 31.3513 114.853 31.4559C115.1 31.5605 115.31 31.7119 115.48 31.9101C115.651 32.1028 115.783 32.3395 115.877 32.6203C115.97 32.8956 116.017 33.2039 116.017 33.5452C116.017 33.8866 115.97 34.1976 115.877 34.4784C115.783 34.7537 115.651 34.9904 115.48 35.1886C115.31 35.3813 115.1 35.53 114.853 35.6346C114.61 35.7392 114.341 35.7915 114.043 35.7915ZM114.043 35.0482C114.352 35.0482 114.599 34.9546 114.787 34.7675C114.974 34.5748 115.067 34.2885 115.067 33.9086V33.1819C115.067 32.802 114.974 32.5184 114.787 32.3313C114.599 32.1386 114.352 32.0422 114.043 32.0422C113.735 32.0422 113.487 32.1386 113.3 32.3313C113.113 32.5184 113.019 32.802 113.019 33.1819V33.9086C113.019 34.2885 113.113 34.5748 113.3 34.7675C113.487 34.9546 113.735 35.0482 114.043 35.0482ZM117.02 35.6924V31.3981H117.92V32.1083H117.962C118.055 31.877 118.196 31.6844 118.383 31.5302C118.575 31.376 118.837 31.299 119.167 31.299C119.608 31.299 119.949 31.4449 120.191 31.7367C120.439 32.0229 120.563 32.4331 120.563 32.9671V35.6924H119.663V33.0828C119.663 32.4111 119.393 32.0752 118.853 32.0752C118.738 32.0752 118.622 32.0918 118.507 32.1248C118.397 32.1523 118.297 32.1964 118.209 32.2569C118.121 32.3175 118.05 32.3946 117.995 32.4882C117.945 32.5818 117.92 32.6919 117.92 32.8185V35.6924H117.02ZM122.446 34.5445C122.65 34.5445 122.802 34.5968 122.901 34.7014C123 34.806 123.049 34.9409 123.049 35.106V35.2382C123.049 35.5079 122.975 35.7887 122.826 36.0805C122.683 36.3778 122.488 36.6283 122.24 36.832H121.571C121.747 36.6559 121.893 36.4852 122.009 36.32C122.124 36.1548 122.212 35.9704 122.273 35.7667C122.13 35.7392 122.023 35.6786 121.951 35.585C121.879 35.4859 121.844 35.3703 121.844 35.2382V35.106C121.844 34.9409 121.893 34.806 121.992 34.7014C122.091 34.5968 122.243 34.5445 122.446 34.5445ZM122.446 32.546C122.243 32.546 122.091 32.4937 121.992 32.3891C121.893 32.279 121.844 32.1441 121.844 31.9844V31.8605C121.844 31.7009 121.893 31.5687 121.992 31.4641C122.091 31.354 122.243 31.299 122.446 31.299C122.65 31.299 122.802 31.354 122.901 31.4641C123 31.5687 123.049 31.7009 123.049 31.8605V31.9844C123.049 32.1441 123 32.279 122.901 32.3891C122.802 32.4937 122.65 32.546 122.446 32.546ZM126.773 30.63C126.586 30.63 126.448 30.586 126.36 30.4979C126.277 30.4098 126.236 30.297 126.236 30.1593V30.0189C126.236 29.8813 126.277 29.7684 126.36 29.6803C126.448 29.5922 126.586 29.5482 126.773 29.5482C126.96 29.5482 127.095 29.5922 127.178 29.6803C127.26 29.7684 127.302 29.8813 127.302 30.0189V30.1593C127.302 30.297 127.26 30.4098 127.178 30.4979C127.095 30.586 126.96 30.63 126.773 30.63ZM126.319 31.3981H127.219V35.6924H126.319V31.3981ZM128.504 35.6924V31.3981H129.404V32.1083H129.446C129.49 31.9982 129.542 31.8936 129.603 31.7945C129.669 31.6954 129.746 31.61 129.834 31.5385C129.928 31.4614 130.035 31.4036 130.156 31.365C130.283 31.321 130.429 31.299 130.594 31.299C130.885 31.299 131.144 31.3705 131.37 31.5137C131.596 31.6568 131.761 31.877 131.865 32.1743H131.89C131.967 31.9321 132.116 31.7256 132.336 31.555C132.556 31.3843 132.84 31.299 133.187 31.299C133.616 31.299 133.949 31.4449 134.186 31.7367C134.423 32.0229 134.541 32.4331 134.541 32.9671V35.6924H133.641V33.0745C133.641 32.7442 133.578 32.4964 133.451 32.3313C133.324 32.1606 133.123 32.0752 132.848 32.0752C132.733 32.0752 132.622 32.0918 132.518 32.1248C132.413 32.1523 132.32 32.1964 132.237 32.2569C132.16 32.3175 132.097 32.3946 132.047 32.4882C131.998 32.5818 131.973 32.6891 131.973 32.8102V35.6924H131.073V33.0745C131.073 32.4083 130.811 32.0752 130.288 32.0752C130.178 32.0752 130.068 32.0918 129.958 32.1248C129.853 32.1523 129.76 32.1964 129.677 32.2569C129.594 32.3175 129.528 32.3946 129.479 32.4882C129.429 32.5818 129.404 32.6891 129.404 32.8102V35.6924H128.504ZM138.933 35.6924C138.696 35.6924 138.515 35.6263 138.388 35.4942C138.262 35.3565 138.184 35.1831 138.157 34.9739H138.116C138.033 35.2437 137.882 35.4474 137.661 35.585C137.441 35.7227 137.174 35.7915 136.86 35.7915C136.414 35.7915 136.07 35.6759 135.828 35.4446C135.591 35.2134 135.473 34.9023 135.473 34.5114C135.473 34.082 135.627 33.7599 135.935 33.5452C136.249 33.3305 136.706 33.2232 137.306 33.2232H138.083V32.8598C138.083 32.5955 138.011 32.3918 137.868 32.2487C137.725 32.1055 137.502 32.034 137.199 32.034C136.946 32.034 136.739 32.089 136.58 32.1991C136.42 32.3092 136.285 32.4496 136.175 32.6203L135.638 32.1331C135.781 31.8908 135.982 31.6926 136.241 31.5385C136.5 31.3788 136.838 31.299 137.257 31.299C137.813 31.299 138.24 31.4283 138.537 31.6871C138.834 31.9459 138.983 32.3175 138.983 32.802V34.9574H139.437V35.6924H138.933ZM137.116 35.106C137.397 35.106 137.628 35.0455 137.81 34.9244C137.992 34.7977 138.083 34.6298 138.083 34.4206V33.8012H137.323C136.701 33.8012 136.39 33.9939 136.39 34.3793V34.528C136.39 34.7207 136.453 34.8666 136.58 34.9657C136.712 35.0592 136.891 35.106 137.116 35.106ZM144.085 36.097C144.085 36.543 143.914 36.8788 143.573 37.1046C143.232 37.3303 142.676 37.4431 141.905 37.4431C141.552 37.4431 141.252 37.4184 141.005 37.3688C140.762 37.3248 140.561 37.2587 140.402 37.1706C140.248 37.0825 140.135 36.9752 140.063 36.8485C139.992 36.7219 139.956 36.576 139.956 36.4109C139.956 36.1741 140.019 35.9897 140.146 35.8575C140.278 35.7254 140.46 35.6346 140.691 35.585V35.4942C140.366 35.3896 140.204 35.1694 140.204 34.8335C140.204 34.6133 140.278 34.4454 140.427 34.3298C140.575 34.2086 140.754 34.1233 140.963 34.0738V34.0407C140.71 33.9196 140.515 33.7517 140.377 33.537C140.245 33.3167 140.179 33.0607 140.179 32.7689C140.179 32.3285 140.325 31.9734 140.616 31.7036C140.914 31.4339 141.338 31.299 141.888 31.299C142.191 31.299 142.45 31.343 142.665 31.4311V31.3155C142.665 31.1228 142.709 30.9741 142.797 30.8695C142.89 30.7594 143.033 30.7044 143.226 30.7044H143.887V31.4311H143.011V31.6045C143.204 31.7312 143.353 31.8963 143.457 32.1C143.562 32.2982 143.614 32.5212 143.614 32.7689C143.614 33.2039 143.466 33.5562 143.168 33.826C142.871 34.0903 142.447 34.2224 141.897 34.2224C141.687 34.2224 141.5 34.2004 141.335 34.1563C141.225 34.1949 141.128 34.2499 141.046 34.3215C140.963 34.3876 140.922 34.4757 140.922 34.5858C140.922 34.7014 140.974 34.784 141.079 34.8335C141.184 34.8831 141.332 34.9078 141.525 34.9078H142.582C143.11 34.9078 143.493 35.0152 143.73 35.2299C143.967 35.4391 144.085 35.7282 144.085 36.097ZM143.243 36.1961C143.243 36.0475 143.185 35.9291 143.069 35.841C142.959 35.7529 142.755 35.7089 142.458 35.7089H141.005C140.806 35.8245 140.707 35.9897 140.707 36.2044C140.707 36.3806 140.776 36.521 140.914 36.6256C141.057 36.7357 141.296 36.7907 141.632 36.7907H142.194C142.893 36.7907 143.243 36.5925 143.243 36.1961ZM141.897 33.57C142.161 33.57 142.364 33.5122 142.508 33.3966C142.656 33.2755 142.731 33.091 142.731 32.8433V32.6781C142.731 32.4304 142.656 32.2487 142.508 32.1331C142.364 32.0119 142.161 31.9514 141.897 31.9514C141.632 31.9514 141.426 32.0119 141.277 32.1331C141.134 32.2487 141.062 32.4304 141.062 32.6781V32.8433C141.062 33.091 141.134 33.2755 141.277 33.3966C141.426 33.5122 141.632 33.57 141.897 33.57ZM146.391 35.7915C146.083 35.7915 145.808 35.7392 145.565 35.6346C145.323 35.53 145.117 35.3813 144.946 35.1886C144.775 34.9904 144.643 34.7537 144.549 34.4784C144.461 34.1976 144.417 33.8866 144.417 33.5452C144.417 33.2039 144.461 32.8956 144.549 32.6203C144.643 32.3395 144.775 32.1028 144.946 31.9101C145.117 31.7119 145.323 31.5605 145.565 31.4559C145.808 31.3513 146.083 31.299 146.391 31.299C146.705 31.299 146.98 31.354 147.217 31.4641C147.459 31.5742 147.66 31.7284 147.82 31.9266C147.979 32.1193 148.098 32.345 148.175 32.6038C148.257 32.8625 148.299 33.1406 148.299 33.4379V33.7765H145.351V33.9168C145.351 34.2472 145.447 34.5197 145.64 34.7344C145.838 34.9436 146.119 35.0482 146.482 35.0482C146.746 35.0482 146.969 34.9904 147.151 34.8748C147.333 34.7592 147.487 34.6023 147.613 34.4041L148.142 34.9244C147.982 35.1886 147.751 35.4006 147.448 35.5602C147.145 35.7144 146.793 35.7915 146.391 35.7915ZM146.391 32.0009C146.237 32.0009 146.094 32.0284 145.962 32.0835C145.835 32.1386 145.725 32.2156 145.631 32.3147C145.543 32.4138 145.474 32.5322 145.425 32.6698C145.375 32.8075 145.351 32.9589 145.351 33.1241V33.1819H147.349V33.0993C147.349 32.7689 147.264 32.5047 147.093 32.3065C146.922 32.1028 146.688 32.0009 146.391 32.0009ZM13.0305 48.6924C12.7222 48.6924 12.491 48.6153 12.3368 48.4612C12.1882 48.3015 12.1139 48.0813 12.1139 47.8005V42.5812H13.014V47.9574H13.6086V48.6924H13.0305ZM16.1535 48.7915C15.8562 48.7915 15.5837 48.7392 15.3359 48.6346C15.0937 48.53 14.8872 48.3813 14.7165 48.1886C14.5459 47.9904 14.4137 47.7537 14.3201 47.4784C14.2265 47.1976 14.1797 46.8866 14.1797 46.5452C14.1797 46.2039 14.2265 45.8956 14.3201 45.6203C14.4137 45.3395 14.5459 45.1028 14.7165 44.9101C14.8872 44.7119 15.0937 44.5605 15.3359 44.4559C15.5837 44.3513 15.8562 44.299 16.1535 44.299C16.4508 44.299 16.7205 44.3513 16.9628 44.4559C17.2105 44.5605 17.4197 44.7119 17.5904 44.9101C17.7611 45.1028 17.8932 45.3395 17.9868 45.6203C18.0804 45.8956 18.1272 46.2039 18.1272 46.5452C18.1272 46.8866 18.0804 47.1976 17.9868 47.4784C17.8932 47.7537 17.7611 47.9904 17.5904 48.1886C17.4197 48.3813 17.2105 48.53 16.9628 48.6346C16.7205 48.7392 16.4508 48.7915 16.1535 48.7915ZM16.1535 48.0482C16.4618 48.0482 16.7095 47.9546 16.8967 47.7675C17.0839 47.5748 17.1775 47.2885 17.1775 46.9086V46.1819C17.1775 45.802 17.0839 45.5184 16.8967 45.3313C16.7095 45.1386 16.4618 45.0422 16.1535 45.0422C15.8452 45.0422 15.5974 45.1386 15.4102 45.3313C15.223 45.5184 15.1294 45.802 15.1294 46.1819V46.9086C15.1294 47.2885 15.223 47.5748 15.4102 47.7675C15.5974 47.9546 15.8452 48.0482 16.1535 48.0482ZM22.2766 48.6924C22.0399 48.6924 21.8582 48.6263 21.7316 48.4942C21.6049 48.3565 21.5279 48.1831 21.5003 47.9739H21.459C21.3765 48.2437 21.2251 48.4474 21.0048 48.585C20.7846 48.7227 20.5176 48.7915 20.2038 48.7915C19.7578 48.7915 19.4137 48.6759 19.1715 48.4446C18.9348 48.2134 18.8164 47.9023 18.8164 47.5114C18.8164 47.082 18.9705 46.7599 19.2789 46.5452C19.5927 46.3305 20.0496 46.2232 20.6497 46.2232H21.426V45.8598C21.426 45.5955 21.3544 45.3918 21.2113 45.2487C21.0682 45.1055 20.8452 45.034 20.5424 45.034C20.2891 45.034 20.0827 45.089 19.923 45.1991C19.7633 45.3092 19.6285 45.4496 19.5183 45.6203L18.9816 45.1331C19.1247 44.8908 19.3257 44.6926 19.5844 44.5385C19.8432 44.3788 20.1818 44.299 20.6002 44.299C21.1562 44.299 21.5829 44.4283 21.8802 44.6871C22.1775 44.9459 22.3262 45.3175 22.3262 45.802V47.9574H22.7804V48.6924H22.2766ZM20.4598 48.106C20.7406 48.106 20.9718 48.0455 21.1535 47.9244C21.3352 47.7977 21.426 47.6298 21.426 47.4206V46.8012H20.6662C20.0441 46.8012 19.7331 46.9939 19.7331 47.3793V47.528C19.7331 47.7207 19.7964 47.8666 19.923 47.9657C20.0551 48.0592 20.2341 48.106 20.4598 48.106ZM26.3631 47.9822H26.3218C26.2282 48.2354 26.074 48.4336 25.8593 48.5768C25.6501 48.7199 25.4023 48.7915 25.1161 48.7915C24.571 48.7915 24.1498 48.596 23.8525 48.2051C23.5552 47.8087 23.4066 47.2554 23.4066 46.5452C23.4066 45.835 23.5552 45.2845 23.8525 44.8936C24.1498 44.4972 24.571 44.299 25.1161 44.299C25.4023 44.299 25.6501 44.3705 25.8593 44.5137C26.074 44.6513 26.2282 44.8495 26.3218 45.1083H26.3631V42.5812H27.2632V48.6924H26.3631V47.9822ZM25.3886 48.0152C25.6639 48.0152 25.8951 47.9491 26.0823 47.817C26.2695 47.6794 26.3631 47.5004 26.3631 47.2802V45.8102C26.3631 45.59 26.2695 45.4138 26.0823 45.2817C25.8951 45.1441 25.6639 45.0752 25.3886 45.0752C25.0748 45.0752 24.8243 45.1771 24.6371 45.3808C24.4499 45.579 24.3563 45.8433 24.3563 46.1736V46.9168C24.3563 47.2472 24.4499 47.5142 24.6371 47.7179C24.8243 47.9161 25.0748 48.0152 25.3886 48.0152ZM29.004 43.63C28.8168 43.63 28.6792 43.586 28.5911 43.4979C28.5085 43.4098 28.4672 43.297 28.4672 43.1593V43.0189C28.4672 42.8813 28.5085 42.7684 28.5911 42.6803C28.6792 42.5922 28.8168 42.5482 29.004 42.5482C29.1912 42.5482 29.3261 42.5922 29.4087 42.6803C29.4913 42.7684 29.5326 42.8813 29.5326 43.0189V43.1593C29.5326 43.297 29.4913 43.4098 29.4087 43.4979C29.3261 43.586 29.1912 43.63 29.004 43.63ZM28.5498 44.3981H29.45V48.6924H28.5498V44.3981ZM30.7354 48.6924V44.3981H31.6355V45.1083H31.6768C31.7704 44.877 31.9108 44.6844 32.098 44.5302C32.2907 44.376 32.5522 44.299 32.8825 44.299C33.323 44.299 33.6643 44.4449 33.9066 44.7367C34.1543 45.0229 34.2782 45.4331 34.2782 45.9671V48.6924H33.378V46.0828C33.378 45.4111 33.1083 45.0752 32.5687 45.0752C32.4531 45.0752 32.3375 45.0918 32.2219 45.1248C32.1118 45.1523 32.0127 45.1964 31.9246 45.2569C31.8365 45.3175 31.7649 45.3946 31.7099 45.4882C31.6603 45.5818 31.6355 45.6919 31.6355 45.8185V48.6924H30.7354ZM39.2916 49.097C39.2916 49.543 39.121 49.8788 38.7796 50.1046C38.4383 50.3303 37.8822 50.4431 37.1114 50.4431C36.7591 50.4431 36.459 50.4184 36.2113 50.3688C35.969 50.3248 35.7681 50.2587 35.6084 50.1706C35.4543 50.0825 35.3414 49.9752 35.2698 49.8485C35.1983 49.7219 35.1625 49.576 35.1625 49.4109C35.1625 49.1741 35.2258 48.9897 35.3524 48.8575C35.4845 48.7254 35.6662 48.6346 35.8975 48.585V48.4942C35.5726 48.3896 35.4102 48.1694 35.4102 47.8335C35.4102 47.6133 35.4845 47.4454 35.6332 47.3298C35.7818 47.2086 35.9608 47.1233 36.17 47.0738V47.0407C35.9167 46.9196 35.7213 46.7517 35.5836 46.537C35.4515 46.3167 35.3854 46.0607 35.3854 45.7689C35.3854 45.3285 35.5313 44.9734 35.8231 44.7036C36.1204 44.4339 36.5444 44.299 37.0949 44.299C37.3977 44.299 37.6565 44.343 37.8712 44.4311V44.3155C37.8712 44.1228 37.9152 43.9741 38.0033 43.8695C38.0969 43.7594 38.2401 43.7044 38.4328 43.7044H39.0934V44.4311H38.218V44.6045C38.4107 44.7312 38.5594 44.8963 38.664 45.1C38.7686 45.2982 38.8209 45.5212 38.8209 45.7689C38.8209 46.2039 38.6723 46.5562 38.375 46.826C38.0777 47.0903 37.6537 47.2224 37.1032 47.2224C36.894 47.2224 36.7068 47.2004 36.5416 47.1563C36.4315 47.1949 36.3352 47.2499 36.2526 47.3215C36.17 47.3876 36.1287 47.4757 36.1287 47.5858C36.1287 47.7014 36.181 47.784 36.2856 47.8335C36.3902 47.8831 36.5389 47.9078 36.7316 47.9078H37.7886C38.3171 47.9078 38.6998 48.0152 38.9365 48.2299C39.1733 48.4391 39.2916 48.7282 39.2916 49.097ZM38.4493 49.1961C38.4493 49.0475 38.3915 48.9291 38.2759 48.841C38.1657 48.7529 37.962 48.7089 37.6647 48.7089H36.2113C36.0131 48.8245 35.914 48.9897 35.914 49.2044C35.914 49.3806 35.9828 49.521 36.1204 49.6256C36.2636 49.7357 36.5031 49.7907 36.8389 49.7907H37.4005C38.0997 49.7907 38.4493 49.5925 38.4493 49.1961ZM37.1032 46.57C37.3674 46.57 37.5711 46.5122 37.7143 46.3966C37.8629 46.2755 37.9373 46.091 37.9373 45.8433V45.6781C37.9373 45.4304 37.8629 45.2487 37.7143 45.1331C37.5711 45.0119 37.3674 44.9514 37.1032 44.9514C36.8389 44.9514 36.6325 45.0119 36.4838 45.1331C36.3407 45.2487 36.2691 45.4304 36.2691 45.6781V45.8433C36.2691 46.091 36.3407 46.2755 36.4838 46.3966C36.6325 46.5122 36.8389 46.57 37.1032 46.57ZM42.3673 43.63C42.1801 43.63 42.0425 43.586 41.9544 43.4979C41.8718 43.4098 41.8305 43.297 41.8305 43.1593V43.0189C41.8305 42.8813 41.8718 42.7684 41.9544 42.6803C42.0425 42.5922 42.1801 42.5482 42.3673 42.5482C42.5545 42.5482 42.6894 42.5922 42.772 42.6803C42.8546 42.7684 42.8959 42.8813 42.8959 43.0189V43.1593C42.8959 43.297 42.8546 43.4098 42.772 43.4979C42.6894 43.586 42.5545 43.63 42.3673 43.63ZM41.9131 44.3981H42.8133V48.6924H41.9131V44.3981ZM45.4613 48.7915C45.0539 48.7915 44.7125 48.7199 44.4373 48.5768C44.162 48.4336 43.9225 48.2354 43.7188 47.9822L44.2969 47.4536C44.4565 47.6463 44.6327 47.7977 44.8254 47.9078C45.0236 48.0124 45.2521 48.0648 45.5108 48.0648C45.7751 48.0648 45.9705 48.0152 46.0972 47.9161C46.2293 47.8115 46.2954 47.6684 46.2954 47.4867C46.2954 47.349 46.2486 47.2334 46.155 47.1398C46.0669 47.0407 45.91 46.9774 45.6843 46.9499L45.2879 46.9003C44.8474 46.8453 44.5006 46.7186 44.2473 46.5204C43.9996 46.3167 43.8757 46.0167 43.8757 45.6203C43.8757 45.4111 43.9142 45.2266 43.9913 45.067C44.0684 44.9018 44.1757 44.7642 44.3134 44.6541C44.4565 44.5385 44.6244 44.4504 44.8171 44.3898C45.0153 44.3292 45.2328 44.299 45.4695 44.299C45.8549 44.299 46.1687 44.3595 46.411 44.4806C46.6587 44.6018 46.879 44.7697 47.0717 44.9844L46.5183 45.5129C46.4082 45.3808 46.2623 45.2679 46.0807 45.1743C45.9045 45.0752 45.7008 45.0257 45.4695 45.0257C45.2218 45.0257 45.0374 45.0752 44.9162 45.1743C44.8006 45.2734 44.7428 45.4028 44.7428 45.5625C44.7428 45.7277 44.7951 45.8515 44.8997 45.9341C45.0043 46.0167 45.1722 46.0773 45.4035 46.1158L45.7999 46.1653C46.2734 46.2369 46.6174 46.3773 46.8322 46.5865C47.0524 46.7902 47.1625 47.0655 47.1625 47.4123C47.1625 47.6216 47.1212 47.8115 47.0386 47.9822C46.9615 48.1473 46.8487 48.2905 46.7 48.4116C46.5514 48.5327 46.3725 48.6263 46.1632 48.6924C45.954 48.7584 45.72 48.7915 45.4613 48.7915ZM51.4937 48.7915C51.0863 48.7915 50.745 48.7199 50.4697 48.5768C50.1944 48.4336 49.9549 48.2354 49.7512 47.9822L50.3293 47.4536C50.489 47.6463 50.6651 47.7977 50.8578 47.9078C51.056 48.0124 51.2845 48.0648 51.5433 48.0648C51.8075 48.0648 52.003 48.0152 52.1296 47.9161C52.2617 47.8115 52.3278 47.6684 52.3278 47.4867C52.3278 47.349 52.281 47.2334 52.1874 47.1398C52.0993 47.0407 51.9424 46.9774 51.7167 46.9499L51.3203 46.9003C50.8799 46.8453 50.533 46.7186 50.2797 46.5204C50.032 46.3167 49.9081 46.0167 49.9081 45.6203C49.9081 45.4111 49.9467 45.2266 50.0237 45.067C50.1008 44.9018 50.2082 44.7642 50.3458 44.6541C50.489 44.5385 50.6569 44.4504 50.8496 44.3898C51.0478 44.3292 51.2652 44.299 51.502 44.299C51.8874 44.299 52.2012 44.3595 52.4434 44.4806C52.6912 44.6018 52.9114 44.7697 53.1041 44.9844L52.5508 45.5129C52.4407 45.3808 52.2948 45.2679 52.1131 45.1743C51.9369 45.0752 51.7332 45.0257 51.502 45.0257C51.2542 45.0257 51.0698 45.0752 50.9487 45.1743C50.8331 45.2734 50.7752 45.4028 50.7752 45.5625C50.7752 45.7277 50.8275 45.8515 50.9322 45.9341C51.0368 46.0167 51.2047 46.0773 51.4359 46.1158L51.8323 46.1653C52.3058 46.2369 52.6499 46.3773 52.8646 46.5865C53.0848 46.7902 53.1949 47.0655 53.1949 47.4123C53.1949 47.6216 53.1536 47.8115 53.0711 47.9822C52.994 48.1473 52.8811 48.2905 52.7325 48.4116C52.5838 48.5327 52.4049 48.6263 52.1957 48.6924C51.9865 48.7584 51.7525 48.7915 51.4937 48.7915ZM55.1285 48.6924C54.8202 48.6924 54.589 48.6153 54.4348 48.4612C54.2862 48.3015 54.2119 48.0813 54.2119 47.8005V42.5812H55.112V47.9574H55.7066V48.6924H55.1285ZM58.2515 48.7915C57.9542 48.7915 57.6816 48.7392 57.4339 48.6346C57.1916 48.53 56.9852 48.3813 56.8145 48.1886C56.6438 47.9904 56.5117 47.7537 56.4181 47.4784C56.3245 47.1976 56.2777 46.8866 56.2777 46.5452C56.2777 46.2039 56.3245 45.8956 56.4181 45.6203C56.5117 45.3395 56.6438 45.1028 56.8145 44.9101C56.9852 44.7119 57.1916 44.5605 57.4339 44.4559C57.6816 44.3513 57.9542 44.299 58.2515 44.299C58.5488 44.299 58.8185 44.3513 59.0608 44.4559C59.3085 44.5605 59.5177 44.7119 59.6884 44.9101C59.8591 45.1028 59.9912 45.3395 60.0848 45.6203C60.1784 45.8956 60.2252 46.2039 60.2252 46.5452C60.2252 46.8866 60.1784 47.1976 60.0848 47.4784C59.9912 47.7537 59.8591 47.9904 59.6884 48.1886C59.5177 48.3813 59.3085 48.53 59.0608 48.6346C58.8185 48.7392 58.5488 48.7915 58.2515 48.7915ZM58.2515 48.0482C58.5598 48.0482 58.8075 47.9546 58.9947 47.7675C59.1819 47.5748 59.2755 47.2885 59.2755 46.9086V46.1819C59.2755 45.802 59.1819 45.5184 58.9947 45.3313C58.8075 45.1386 58.5598 45.0422 58.2515 45.0422C57.9432 45.0422 57.6954 45.1386 57.5082 45.3313C57.321 45.5184 57.2274 45.802 57.2274 46.1819V46.9086C57.2274 47.2885 57.321 47.5748 57.5082 47.7675C57.6954 47.9546 57.9432 48.0482 58.2515 48.0482ZM60.7423 44.3981H61.6177L62.0554 46.1984L62.4435 47.8253H62.4683L62.9142 46.1984L63.4345 44.3981H64.2438L64.7724 46.1984L65.2266 47.8253H65.2513L65.6312 46.1984L66.0772 44.3981H66.9113L65.7551 48.6924H64.7393L64.1778 46.7352L63.8309 45.5295H63.8144L63.4758 46.7352L62.906 48.6924H61.915L60.7423 44.3981ZM68.0397 47.5445C68.2434 47.5445 68.3948 47.5968 68.4939 47.7014C68.593 47.806 68.6426 47.9409 68.6426 48.106V48.2382C68.6426 48.5079 68.5683 48.7887 68.4196 49.0805C68.2765 49.3778 68.081 49.6283 67.8333 49.832H67.1644C67.3405 49.6559 67.4864 49.4852 67.6021 49.32C67.7177 49.1548 67.8058 48.9704 67.8663 48.7667C67.7232 48.7392 67.6158 48.6786 67.5442 48.585C67.4727 48.4859 67.4369 48.3703 67.4369 48.2382V48.106C67.4369 47.9409 67.4864 47.806 67.5855 47.7014C67.6846 47.5968 67.836 47.5445 68.0397 47.5445ZM73.196 48.7915C72.7885 48.7915 72.4472 48.7199 72.1719 48.5768C71.8967 48.4336 71.6572 48.2354 71.4535 47.9822L72.0315 47.4536C72.1912 47.6463 72.3674 47.7977 72.5601 47.9078C72.7583 48.0124 72.9867 48.0648 73.2455 48.0648C73.5098 48.0648 73.7052 48.0152 73.8318 47.9161C73.964 47.8115 74.03 47.6684 74.03 47.4867C74.03 47.349 73.9832 47.2334 73.8897 47.1398C73.8016 47.0407 73.6447 46.9774 73.4189 46.9499L73.0225 46.9003C72.5821 46.8453 72.2352 46.7186 71.982 46.5204C71.7342 46.3167 71.6104 46.0167 71.6104 45.6203C71.6104 45.4111 71.6489 45.2266 71.726 45.067C71.8031 44.9018 71.9104 44.7642 72.0481 44.6541C72.1912 44.5385 72.3591 44.4504 72.5518 44.3898C72.75 44.3292 72.9675 44.299 73.2042 44.299C73.5896 44.299 73.9034 44.3595 74.1457 44.4806C74.3934 44.6018 74.6136 44.7697 74.8063 44.9844L74.253 45.5129C74.1429 45.3808 73.997 45.2679 73.8153 45.1743C73.6392 45.0752 73.4354 45.0257 73.2042 45.0257C72.9565 45.0257 72.772 45.0752 72.6509 45.1743C72.5353 45.2734 72.4775 45.4028 72.4775 45.5625C72.4775 45.7277 72.5298 45.8515 72.6344 45.9341C72.739 46.0167 72.9069 46.0773 73.1381 46.1158L73.5345 46.1653C74.008 46.2369 74.3521 46.3773 74.5668 46.5865C74.7871 46.7902 74.8972 47.0655 74.8972 47.4123C74.8972 47.6216 74.8559 47.8115 74.7733 47.9822C74.6962 48.1473 74.5834 48.2905 74.4347 48.4116C74.2861 48.5327 74.1071 48.6263 73.8979 48.6924C73.6887 48.7584 73.4547 48.7915 73.196 48.7915ZM77.5988 48.7915C77.3015 48.7915 77.029 48.7392 76.7812 48.6346C76.539 48.53 76.3325 48.3813 76.1618 48.1886C75.9912 47.9904 75.859 47.7537 75.7654 47.4784C75.6719 47.1976 75.6251 46.8866 75.6251 46.5452C75.6251 46.2039 75.6719 45.8956 75.7654 45.6203C75.859 45.3395 75.9912 45.1028 76.1618 44.9101C76.3325 44.7119 76.539 44.5605 76.7812 44.4559C77.029 44.3513 77.3015 44.299 77.5988 44.299C77.8961 44.299 78.1659 44.3513 78.4081 44.4559C78.6559 44.5605 78.8651 44.7119 79.0357 44.9101C79.2064 45.1028 79.3385 45.3395 79.4321 45.6203C79.5257 45.8956 79.5725 46.2039 79.5725 46.5452C79.5725 46.8866 79.5257 47.1976 79.4321 47.4784C79.3385 47.7537 79.2064 47.9904 79.0357 48.1886C78.8651 48.3813 78.6559 48.53 78.4081 48.6346C78.1659 48.7392 77.8961 48.7915 77.5988 48.7915ZM77.5988 48.0482C77.9071 48.0482 78.1549 47.9546 78.342 47.7675C78.5292 47.5748 78.6228 47.2885 78.6228 46.9086V46.1819C78.6228 45.802 78.5292 45.5184 78.342 45.3313C78.1549 45.1386 77.9071 45.0422 77.5988 45.0422C77.2905 45.0422 77.0427 45.1386 76.8555 45.3313C76.6684 45.5184 76.5748 45.802 76.5748 46.1819V46.9086C76.5748 47.2885 76.6684 47.5748 76.8555 47.7675C77.0427 47.9546 77.2905 48.0482 77.5988 48.0482ZM82.5272 48.6924V44.3981H83.4274V45.2239H83.4686C83.5292 45.0037 83.6558 44.811 83.8485 44.6458C84.0412 44.4806 84.3082 44.3981 84.6496 44.3981H84.8891V45.2652H84.534C84.1761 45.2652 83.9008 45.323 83.7081 45.4386C83.5209 45.5542 83.4274 45.7249 83.4274 45.9506V48.6924H82.5272ZM87.3329 48.7915C87.0246 48.7915 86.7494 48.7392 86.5071 48.6346C86.2649 48.53 86.0584 48.3813 85.8877 48.1886C85.7171 47.9904 85.5849 47.7537 85.4913 47.4784C85.4033 47.1976 85.3592 46.8866 85.3592 46.5452C85.3592 46.2039 85.4033 45.8956 85.4913 45.6203C85.5849 45.3395 85.7171 45.1028 85.8877 44.9101C86.0584 44.7119 86.2649 44.5605 86.5071 44.4559C86.7494 44.3513 87.0246 44.299 87.3329 44.299C87.6468 44.299 87.922 44.354 88.1588 44.4641C88.401 44.5742 88.602 44.7284 88.7616 44.9266C88.9213 45.1193 89.0397 45.345 89.1167 45.6038C89.1993 45.8625 89.2406 46.1406 89.2406 46.4379V46.7765H86.2924V46.9168C86.2924 47.2472 86.3887 47.5197 86.5814 47.7344C86.7796 47.9436 87.0604 48.0482 87.4238 48.0482C87.6881 48.0482 87.911 47.9904 88.0927 47.8748C88.2744 47.7592 88.4285 47.6023 88.5552 47.4041L89.0837 47.9244C88.924 48.1886 88.6928 48.4006 88.39 48.5602C88.0872 48.7144 87.7349 48.7915 87.3329 48.7915ZM87.3329 45.0009C87.1788 45.0009 87.0356 45.0284 86.9035 45.0835C86.7769 45.1386 86.6668 45.2156 86.5732 45.3147C86.4851 45.4138 86.4163 45.5322 86.3667 45.6698C86.3172 45.8075 86.2924 45.9589 86.2924 46.1241V46.1819H88.2909V46.0993C88.2909 45.7689 88.2056 45.5047 88.0349 45.3065C87.8642 45.1028 87.6302 45.0009 87.3329 45.0009ZM91.1538 48.6924C90.8455 48.6924 90.6142 48.6153 90.4601 48.4612C90.3114 48.3015 90.2371 48.0813 90.2371 47.8005V42.5812H91.1373V47.9574H91.7318V48.6924H91.1538ZM93.0462 43.63C92.859 43.63 92.7214 43.586 92.6333 43.4979C92.5507 43.4098 92.5094 43.297 92.5094 43.1593V43.0189C92.5094 42.8813 92.5507 42.7684 92.6333 42.6803C92.7214 42.5922 92.859 42.5482 93.0462 42.5482C93.2334 42.5482 93.3683 42.5922 93.4509 42.6803C93.5334 42.7684 93.5747 42.8813 93.5747 43.0189V43.1593C93.5747 43.297 93.5334 43.4098 93.4509 43.4979C93.3683 43.586 93.2334 43.63 93.0462 43.63ZM92.592 44.3981H93.4922V48.6924H92.592V44.3981ZM96.4622 48.7915C96.1539 48.7915 95.8787 48.7392 95.6364 48.6346C95.3942 48.53 95.1877 48.3813 95.017 48.1886C94.8464 47.9904 94.7142 47.7537 94.6206 47.4784C94.5326 47.1976 94.4885 46.8866 94.4885 46.5452C94.4885 46.2039 94.5326 45.8956 94.6206 45.6203C94.7142 45.3395 94.8464 45.1028 95.017 44.9101C95.1877 44.7119 95.3942 44.5605 95.6364 44.4559C95.8787 44.3513 96.1539 44.299 96.4622 44.299C96.7761 44.299 97.0513 44.354 97.2881 44.4641C97.5303 44.5742 97.7313 44.7284 97.8909 44.9266C98.0506 45.1193 98.169 45.345 98.246 45.6038C98.3286 45.8625 98.3699 46.1406 98.3699 46.4379V46.7765H95.4217V46.9168C95.4217 47.2472 95.518 47.5197 95.7107 47.7344C95.9089 47.9436 96.1897 48.0482 96.5531 48.0482C96.8173 48.0482 97.0403 47.9904 97.222 47.8748C97.4037 47.7592 97.5578 47.6023 97.6845 47.4041L98.213 47.9244C98.0533 48.1886 97.8221 48.4006 97.5193 48.5602C97.2165 48.7144 96.8641 48.7915 96.4622 48.7915ZM96.4622 45.0009C96.3081 45.0009 96.1649 45.0284 96.0328 45.0835C95.9062 45.1386 95.7961 45.2156 95.7025 45.3147C95.6144 45.4138 95.5456 45.5322 95.496 45.6698C95.4465 45.8075 95.4217 45.9589 95.4217 46.1241V46.1819H97.4202V46.0993C97.4202 45.7689 97.3349 45.5047 97.1642 45.3065C96.9935 45.1028 96.7595 45.0009 96.4622 45.0009ZM100.729 48.7915C100.322 48.7915 99.9803 48.7199 99.705 48.5768C99.4297 48.4336 99.1902 48.2354 98.9865 47.9822L99.5646 47.4536C99.7243 47.6463 99.9004 47.7977 100.093 47.9078C100.291 48.0124 100.52 48.0648 100.779 48.0648C101.043 48.0648 101.238 48.0152 101.365 47.9161C101.497 47.8115 101.563 47.6684 101.563 47.4867C101.563 47.349 101.516 47.2334 101.423 47.1398C101.335 47.0407 101.178 46.9774 100.952 46.9499L100.556 46.9003C100.115 46.8453 99.7683 46.7186 99.515 46.5204C99.2673 46.3167 99.1434 46.0167 99.1434 45.6203C99.1434 45.4111 99.182 45.2266 99.259 45.067C99.3361 44.9018 99.4435 44.7642 99.5811 44.6541C99.7243 44.5385 99.8922 44.4504 100.085 44.3898C100.283 44.3292 100.501 44.299 100.737 44.299C101.123 44.299 101.436 44.3595 101.679 44.4806C101.926 44.6018 102.147 44.7697 102.339 44.9844L101.786 45.5129C101.676 45.3808 101.53 45.2679 101.348 45.1743C101.172 45.0752 100.969 45.0257 100.737 45.0257C100.49 45.0257 100.305 45.0752 100.184 45.1743C100.068 45.2734 100.011 45.4028 100.011 45.5625C100.011 45.7277 100.063 45.8515 100.167 45.9341C100.272 46.0167 100.44 46.0773 100.671 46.1158L101.068 46.1653C101.541 46.2369 101.885 46.3773 102.1 46.5865C102.32 46.7902 102.43 47.0655 102.43 47.4123C102.43 47.6216 102.389 47.8115 102.306 47.9822C102.229 48.1473 102.116 48.2905 101.968 48.4116C101.819 48.5327 101.64 48.6263 101.431 48.6924C101.222 48.7584 100.988 48.7915 100.729 48.7915ZM107.084 48.7915C106.786 48.7915 106.514 48.7392 106.266 48.6346C106.024 48.53 105.817 48.3813 105.647 48.1886C105.476 47.9904 105.344 47.7537 105.25 47.4784C105.157 47.1976 105.11 46.8866 105.11 46.5452C105.11 46.2039 105.157 45.8956 105.25 45.6203C105.344 45.3395 105.476 45.1028 105.647 44.9101C105.817 44.7119 106.024 44.5605 106.266 44.4559C106.514 44.3513 106.786 44.299 107.084 44.299C107.381 44.299 107.651 44.3513 107.893 44.4559C108.141 44.5605 108.35 44.7119 108.52 44.9101C108.691 45.1028 108.823 45.3395 108.917 45.6203C109.01 45.8956 109.057 46.2039 109.057 46.5452C109.057 46.8866 109.01 47.1976 108.917 47.4784C108.823 47.7537 108.691 47.9904 108.52 48.1886C108.35 48.3813 108.141 48.53 107.893 48.6346C107.651 48.7392 107.381 48.7915 107.084 48.7915ZM107.084 48.0482C107.392 48.0482 107.64 47.9546 107.827 47.7675C108.014 47.5748 108.108 47.2885 108.108 46.9086V46.1819C108.108 45.802 108.014 45.5184 107.827 45.3313C107.64 45.1386 107.392 45.0422 107.084 45.0422C106.775 45.0422 106.527 45.1386 106.34 45.3313C106.153 45.5184 106.059 45.802 106.059 46.1819V46.9086C106.059 47.2885 106.153 47.5748 106.34 47.7675C106.527 47.9546 106.775 48.0482 107.084 48.0482ZM110.06 48.6924V44.3981H110.96V45.1083H111.002C111.095 44.877 111.236 44.6844 111.423 44.5302C111.616 44.376 111.877 44.299 112.207 44.299C112.648 44.299 112.989 44.4449 113.231 44.7367C113.479 45.0229 113.603 45.4331 113.603 45.9671V48.6924H112.703V46.0828C112.703 45.4111 112.433 45.0752 111.894 45.0752C111.778 45.0752 111.662 45.0918 111.547 45.1248C111.437 45.1523 111.338 45.1964 111.249 45.2569C111.161 45.3175 111.09 45.3946 111.035 45.4882C110.985 45.5818 110.96 45.6919 110.96 45.8185V48.6924H110.06ZM119.949 48.6924C119.712 48.6924 119.53 48.6263 119.404 48.4942C119.277 48.3565 119.2 48.1831 119.173 47.9739H119.131C119.049 48.2437 118.897 48.4474 118.677 48.585C118.457 48.7227 118.19 48.7915 117.876 48.7915C117.43 48.7915 117.086 48.6759 116.844 48.4446C116.607 48.2134 116.489 47.9023 116.489 47.5114C116.489 47.082 116.643 46.7599 116.951 46.5452C117.265 46.3305 117.722 46.2232 118.322 46.2232H119.098V45.8598C119.098 45.5955 119.027 45.3918 118.883 45.2487C118.74 45.1055 118.517 45.034 118.215 45.034C117.961 45.034 117.755 45.089 117.595 45.1991C117.436 45.3092 117.301 45.4496 117.191 45.6203L116.654 45.1331C116.797 44.8908 116.998 44.6926 117.257 44.5385C117.515 44.3788 117.854 44.299 118.272 44.299C118.828 44.299 119.255 44.4283 119.552 44.6871C119.85 44.9459 119.998 45.3175 119.998 45.802V47.9574H120.453V48.6924H119.949ZM118.132 48.106C118.413 48.106 118.644 48.0455 118.826 47.9244C119.007 47.7977 119.098 47.6298 119.098 47.4206V46.8012H118.338C117.716 46.8012 117.405 46.9939 117.405 47.3793V47.528C117.405 47.7207 117.469 47.8666 117.595 47.9657C117.727 48.0592 117.906 48.106 118.132 48.106ZM122.251 48.6924C121.943 48.6924 121.712 48.6153 121.558 48.4612C121.409 48.3015 121.335 48.0813 121.335 47.8005V42.5812H122.235V47.9574H122.83V48.6924H122.251ZM124.839 48.6924C124.525 48.6924 124.288 48.6126 124.128 48.4529C123.969 48.2877 123.889 48.0565 123.889 47.7592V45.1331H123.22V44.3981H123.583C123.732 44.3981 123.834 44.365 123.889 44.299C123.949 44.2329 123.98 44.1255 123.98 43.9769V43.2254H124.789V44.3981H125.689V45.1331H124.789V47.9574H125.623V48.6924H124.839ZM129.806 48.6924C129.493 48.6924 129.256 48.6126 129.096 48.4529C128.937 48.2877 128.857 48.0565 128.857 47.7592V45.1331H128.188V44.3981H128.551C128.7 44.3981 128.802 44.365 128.857 44.299C128.917 44.2329 128.948 44.1255 128.948 43.9769V43.2254H129.757V44.3981H130.657V45.1331H129.757V47.9574H130.591V48.6924H129.806ZM133.286 48.7915C132.978 48.7915 132.702 48.7392 132.46 48.6346C132.218 48.53 132.011 48.3813 131.841 48.1886C131.67 47.9904 131.538 47.7537 131.444 47.4784C131.356 47.1976 131.312 46.8866 131.312 46.5452C131.312 46.2039 131.356 45.8956 131.444 45.6203C131.538 45.3395 131.67 45.1028 131.841 44.9101C132.011 44.7119 132.218 44.5605 132.46 44.4559C132.702 44.3513 132.978 44.299 133.286 44.299C133.6 44.299 133.875 44.354 134.112 44.4641C134.354 44.5742 134.555 44.7284 134.715 44.9266C134.874 45.1193 134.993 45.345 135.07 45.6038C135.152 45.8625 135.194 46.1406 135.194 46.4379V46.7765H132.245V46.9168C132.245 47.2472 132.342 47.5197 132.534 47.7344C132.733 47.9436 133.013 48.0482 133.377 48.0482C133.641 48.0482 133.864 47.9904 134.046 47.8748C134.227 47.7592 134.381 47.6023 134.508 47.4041L135.037 47.9244C134.877 48.1886 134.646 48.4006 134.343 48.5602C134.04 48.7144 133.688 48.7915 133.286 48.7915ZM133.286 45.0009C133.132 45.0009 132.989 45.0284 132.856 45.0835C132.73 45.1386 132.62 45.2156 132.526 45.3147C132.438 45.4138 132.369 45.5322 132.32 45.6698C132.27 45.8075 132.245 45.9589 132.245 46.1241V46.1819H134.244V46.0993C134.244 45.7689 134.159 45.5047 133.988 45.3065C133.817 45.1028 133.583 45.0009 133.286 45.0009ZM135.598 48.6924L137.109 46.5204L135.639 44.3981H136.68L137.646 45.8928H137.671L138.662 44.3981H139.62L138.15 46.5122L139.645 48.6924H138.604L137.613 47.1316H137.588L136.556 48.6924H135.598ZM141.645 48.6924C141.332 48.6924 141.095 48.6126 140.935 48.4529C140.776 48.2877 140.696 48.0565 140.696 47.7592V45.1331H140.027V44.3981H140.39C140.539 44.3981 140.641 44.365 140.696 44.299C140.756 44.2329 140.787 44.1255 140.787 43.9769V43.2254H141.596V44.3981H142.496V45.1331H141.596V47.9574H142.43V48.6924H141.645ZM13.3031 61.6924C12.9893 61.6924 12.7525 61.6126 12.5929 61.4529C12.4332 61.2877 12.3534 61.0565 12.3534 60.7592V58.1331H11.6844V57.3981H12.0478C12.1965 57.3981 12.2983 57.365 12.3534 57.299C12.4139 57.2329 12.4442 57.1255 12.4442 56.9769V56.2254H13.2535V57.3981H14.1537V58.1331H13.2535V60.9574H14.0876V61.6924H13.3031ZM16.7825 61.7915C16.4852 61.7915 16.2127 61.7392 15.965 61.6346C15.7227 61.53 15.5163 61.3813 15.3456 61.1886C15.1749 60.9904 15.0428 60.7537 14.9492 60.4784C14.8556 60.1976 14.8088 59.8866 14.8088 59.5452C14.8088 59.2039 14.8556 58.8956 14.9492 58.6203C15.0428 58.3395 15.1749 58.1028 15.3456 57.9101C15.5163 57.7119 15.7227 57.5605 15.965 57.4559C16.2127 57.3513 16.4852 57.299 16.7825 57.299C17.0798 57.299 17.3496 57.3513 17.5918 57.4559C17.8396 57.5605 18.0488 57.7119 18.2195 57.9101C18.3901 58.1028 18.5223 58.3395 18.6159 58.6203C18.7095 58.8956 18.7563 59.2039 18.7563 59.5452C18.7563 59.8866 18.7095 60.1976 18.6159 60.4784C18.5223 60.7537 18.3901 60.9904 18.2195 61.1886C18.0488 61.3813 17.8396 61.53 17.5918 61.6346C17.3496 61.7392 17.0798 61.7915 16.7825 61.7915ZM16.7825 61.0482C17.0908 61.0482 17.3386 60.9546 17.5258 60.7675C17.713 60.5748 17.8066 60.2885 17.8066 59.9086V59.1819C17.8066 58.802 17.713 58.5184 17.5258 58.3313C17.3386 58.1386 17.0908 58.0422 16.7825 58.0422C16.4742 58.0422 16.2265 58.1386 16.0393 58.3313C15.8521 58.5184 15.7585 58.802 15.7585 59.1819V59.9086C15.7585 60.2885 15.8521 60.5748 16.0393 60.7675C16.2265 60.9546 16.4742 61.0482 16.7825 61.0482ZM24.3123 60.9822H24.2793C24.2407 61.0868 24.1884 61.1886 24.1223 61.2877C24.0618 61.3868 23.982 61.4749 23.8829 61.552C23.7893 61.6236 23.6736 61.6814 23.536 61.7254C23.4039 61.7695 23.2497 61.7915 23.0735 61.7915C22.6276 61.7915 22.2807 61.6483 22.033 61.3621C21.7908 61.0758 21.6696 60.6656 21.6696 60.1316V57.3981H22.5698V60.0159C22.5698 60.6821 22.8451 61.0152 23.3956 61.0152C23.5112 61.0152 23.6241 61.0014 23.7342 60.9739C23.8443 60.9409 23.9407 60.8941 24.0232 60.8335C24.1113 60.773 24.1802 60.6959 24.2297 60.6023C24.2848 60.5087 24.3123 60.3986 24.3123 60.272V57.3981H25.2124V61.6924H24.3123V60.9822ZM26.5014 61.6924V57.3981H27.4015V58.1083H27.4428C27.5364 57.877 27.6768 57.6844 27.864 57.5302C28.0567 57.376 28.3182 57.299 28.6485 57.299C29.089 57.299 29.4303 57.4449 29.6726 57.7367C29.9203 58.0229 30.0442 58.4331 30.0442 58.9671V61.6924H29.144V59.0828C29.144 58.4111 28.8743 58.0752 28.3347 58.0752C28.2191 58.0752 28.1035 58.0918 27.9879 58.1248C27.8778 58.1523 27.7787 58.1964 27.6906 58.2569C27.6025 58.3175 27.5309 58.3946 27.4759 58.4882C27.4263 58.5818 27.4015 58.6919 27.4015 58.8185V61.6924H26.5014ZM33.9923 60.9822H33.951C33.8574 61.2354 33.7033 61.4336 33.4886 61.5768C33.2793 61.7199 33.0316 61.7915 32.7453 61.7915C32.2003 61.7915 31.7791 61.596 31.4818 61.2051C31.1845 60.8087 31.0358 60.2554 31.0358 59.5452C31.0358 58.835 31.1845 58.2845 31.4818 57.8936C31.7791 57.4972 32.2003 57.299 32.7453 57.299C33.0316 57.299 33.2793 57.3705 33.4886 57.5137C33.7033 57.6513 33.8574 57.8495 33.951 58.1083H33.9923V55.5812H34.8925V61.6924H33.9923V60.9822ZM33.0178 61.0152C33.2931 61.0152 33.5243 60.9491 33.7115 60.817C33.8987 60.6794 33.9923 60.5004 33.9923 60.2802V58.8102C33.9923 58.59 33.8987 58.4138 33.7115 58.2817C33.5243 58.1441 33.2931 58.0752 33.0178 58.0752C32.704 58.0752 32.4535 58.1771 32.2663 58.3808C32.0791 58.579 31.9855 58.8433 31.9855 59.1736V59.9168C31.9855 60.2472 32.0791 60.5142 32.2663 60.7179C32.4535 60.9161 32.704 61.0152 33.0178 61.0152ZM37.8638 61.7915C37.5555 61.7915 37.2802 61.7392 37.0379 61.6346C36.7957 61.53 36.5892 61.3813 36.4186 61.1886C36.2479 60.9904 36.1158 60.7537 36.0222 60.4784C35.9341 60.1976 35.89 59.8866 35.89 59.5452C35.89 59.2039 35.9341 58.8956 36.0222 58.6203C36.1158 58.3395 36.2479 58.1028 36.4186 57.9101C36.5892 57.7119 36.7957 57.5605 37.0379 57.4559C37.2802 57.3513 37.5555 57.299 37.8638 57.299C38.1776 57.299 38.4529 57.354 38.6896 57.4641C38.9319 57.5742 39.1328 57.7284 39.2925 57.9266C39.4521 58.1193 39.5705 58.345 39.6476 58.6038C39.7302 58.8625 39.7714 59.1406 39.7714 59.4379V59.7765H36.8232V59.9168C36.8232 60.2472 36.9196 60.5197 37.1123 60.7344C37.3105 60.9436 37.5913 61.0482 37.9546 61.0482C38.2189 61.0482 38.4419 60.9904 38.6235 60.8748C38.8052 60.7592 38.9594 60.6023 39.086 60.4041L39.6145 60.9244C39.4549 61.1886 39.2236 61.4006 38.9208 61.5602C38.618 61.7144 38.2657 61.7915 37.8638 61.7915ZM37.8638 58.0009C37.7096 58.0009 37.5665 58.0284 37.4343 58.0835C37.3077 58.1386 37.1976 58.2156 37.104 58.3147C37.0159 58.4138 36.9471 58.5322 36.8976 58.6698C36.848 58.8075 36.8232 58.9589 36.8232 59.1241V59.1819H38.8217V59.0993C38.8217 58.7689 38.7364 58.5047 38.5657 58.3065C38.3951 58.1028 38.1611 58.0009 37.8638 58.0009ZM40.7679 61.6924V57.3981H41.6681V58.2239H41.7094C41.7699 58.0037 41.8966 57.811 42.0893 57.6458C42.2819 57.4806 42.549 57.3981 42.8903 57.3981H43.1298V58.2652H42.7747C42.4168 58.2652 42.1416 58.323 41.9489 58.4386C41.7617 58.5542 41.6681 58.7249 41.6681 58.9506V61.6924H40.7679ZM45.2919 61.7915C44.8845 61.7915 44.5432 61.7199 44.2679 61.5768C43.9926 61.4336 43.7531 61.2354 43.5494 60.9822L44.1275 60.4536C44.2872 60.6463 44.4633 60.7977 44.656 60.9078C44.8542 61.0124 45.0827 61.0648 45.3415 61.0648C45.6057 61.0648 45.8012 61.0152 45.9278 60.9161C46.0599 60.8115 46.126 60.6684 46.126 60.4867C46.126 60.349 46.0792 60.2334 45.9856 60.1398C45.8975 60.0407 45.7406 59.9774 45.5149 59.9499L45.1185 59.9003C44.6781 59.8453 44.3312 59.7186 44.078 59.5204C43.8302 59.3167 43.7063 59.0167 43.7063 58.6203C43.7063 58.4111 43.7449 58.2266 43.8219 58.067C43.899 57.9018 44.0064 57.7642 44.144 57.6541C44.2872 57.5385 44.4551 57.4504 44.6478 57.3898C44.846 57.3292 45.0634 57.299 45.3002 57.299C45.6856 57.299 45.9994 57.3595 46.2416 57.4806C46.4894 57.6018 46.7096 57.7697 46.9023 57.9844L46.349 58.5129C46.2389 58.3808 46.093 58.2679 45.9113 58.1743C45.7351 58.0752 45.5314 58.0257 45.3002 58.0257C45.0524 58.0257 44.868 58.0752 44.7469 58.1743C44.6313 58.2734 44.5735 58.4028 44.5735 58.5625C44.5735 58.7277 44.6258 58.8515 44.7304 58.9341C44.835 59.0167 45.0029 59.0773 45.2341 59.1158L45.6305 59.1653C46.104 59.2369 46.4481 59.3773 46.6628 59.5865C46.883 59.7902 46.9931 60.0655 46.9931 60.4123C46.9931 60.6216 46.9518 60.8115 46.8693 60.9822C46.7922 61.1473 46.6793 61.2905 46.5307 61.4116C46.382 61.5327 46.2031 61.6263 45.9939 61.6924C45.7847 61.7584 45.5507 61.7915 45.2919 61.7915ZM49.1428 61.6924C48.829 61.6924 48.5923 61.6126 48.4326 61.4529C48.2729 61.2877 48.1931 61.0565 48.1931 60.7592V58.1331H47.5242V57.3981H47.8876C48.0362 57.3981 48.1381 57.365 48.1931 57.299C48.2537 57.2329 48.284 57.1255 48.284 56.9769V56.2254H49.0933V57.3981H49.9934V58.1331H49.0933V60.9574H49.9274V61.6924H49.1428ZM54.1162 61.6924C53.8795 61.6924 53.6978 61.6263 53.5712 61.4942C53.4446 61.3565 53.3675 61.1831 53.34 60.9739H53.2987C53.2161 61.2437 53.0647 61.4474 52.8445 61.585C52.6242 61.7227 52.3572 61.7915 52.0434 61.7915C51.5975 61.7915 51.2534 61.6759 51.0111 61.4446C50.7744 61.2134 50.656 60.9023 50.656 60.5114C50.656 60.082 50.8102 59.7599 51.1185 59.5452C51.4323 59.3305 51.8893 59.2232 52.4894 59.2232H53.2656V58.8598C53.2656 58.5955 53.1941 58.3918 53.0509 58.2487C52.9078 58.1055 52.6848 58.034 52.382 58.034C52.1287 58.034 51.9223 58.089 51.7626 58.1991C51.603 58.3092 51.4681 58.4496 51.358 58.6203L50.8212 58.1331C50.9643 57.8908 51.1653 57.6926 51.424 57.5385C51.6828 57.3788 52.0214 57.299 52.4398 57.299C52.9959 57.299 53.4225 57.4283 53.7198 57.6871C54.0171 57.9459 54.1658 58.3175 54.1658 58.802V60.9574H54.62V61.6924H54.1162ZM52.2994 61.106C52.5802 61.106 52.8114 61.0455 52.9931 60.9244C53.1748 60.7977 53.2656 60.6298 53.2656 60.4206V59.8012H52.5059C51.8838 59.8012 51.5727 59.9939 51.5727 60.3793V60.528C51.5727 60.7207 51.636 60.8666 51.7626 60.9657C51.8948 61.0592 52.0737 61.106 52.2994 61.106ZM55.5022 61.6924V57.3981H56.4024V58.1083H56.4437C56.5373 57.877 56.6777 57.6844 56.8648 57.5302C57.0575 57.376 57.319 57.299 57.6494 57.299C58.0898 57.299 58.4312 57.4449 58.6734 57.7367C58.9212 58.0229 59.045 58.4331 59.045 58.9671V61.6924H58.1449V59.0828C58.1449 58.4111 57.8751 58.0752 57.3356 58.0752C57.2199 58.0752 57.1043 58.0918 56.9887 58.1248C56.8786 58.1523 56.7795 58.1964 56.6914 58.2569C56.6033 58.3175 56.5318 58.3946 56.4767 58.4882C56.4272 58.5818 56.4024 58.6919 56.4024 58.8185V61.6924H55.5022ZM62.9931 60.9822H62.9519C62.8583 61.2354 62.7041 61.4336 62.4894 61.5768C62.2802 61.7199 62.0324 61.7915 61.7461 61.7915C61.2011 61.7915 60.7799 61.596 60.4826 61.2051C60.1853 60.8087 60.0367 60.2554 60.0367 59.5452C60.0367 58.835 60.1853 58.2845 60.4826 57.8936C60.7799 57.4972 61.2011 57.299 61.7461 57.299C62.0324 57.299 62.2802 57.3705 62.4894 57.5137C62.7041 57.6513 62.8583 57.8495 62.9519 58.1083H62.9931V55.5812H63.8933V61.6924H62.9931V60.9822ZM62.0187 61.0152C62.2939 61.0152 62.5252 60.9491 62.7124 60.817C62.8996 60.6794 62.9931 60.5004 62.9931 60.2802V58.8102C62.9931 58.59 62.8996 58.4138 62.7124 58.2817C62.5252 58.1441 62.2939 58.0752 62.0187 58.0752C61.7049 58.0752 61.4543 58.1771 61.2672 58.3808C61.08 58.579 60.9864 58.8433 60.9864 59.1736V59.9168C60.9864 60.2472 61.08 60.5142 61.2672 60.7179C61.4543 60.9161 61.7049 61.0152 62.0187 61.0152ZM67.1316 57.3981H68.0317V58.1083H68.073C68.1666 57.8495 68.318 57.6513 68.5272 57.5137C68.742 57.3705 68.9925 57.299 69.2787 57.299C69.8238 57.299 70.245 57.4972 70.5423 57.8936C70.8396 58.2845 70.9882 58.835 70.9882 59.5452C70.9882 60.2554 70.8396 60.8087 70.5423 61.2051C70.245 61.596 69.8238 61.7915 69.2787 61.7915C68.9925 61.7915 68.742 61.7199 68.5272 61.5768C68.318 61.4336 68.1666 61.2354 68.073 60.9822H68.0317V63.344H67.1316V57.3981ZM69.0062 61.0152C69.32 61.0152 69.5705 60.9161 69.7577 60.7179C69.9449 60.5142 70.0385 60.2472 70.0385 59.9168V59.1736C70.0385 58.8433 69.9449 58.579 69.7577 58.3808C69.5705 58.1771 69.32 58.0752 69.0062 58.0752C68.7309 58.0752 68.4997 58.1441 68.3125 58.2817C68.1253 58.4138 68.0317 58.59 68.0317 58.8102V60.2802C68.0317 60.5004 68.1253 60.6794 68.3125 60.817C68.4997 60.9491 68.7309 61.0152 69.0062 61.0152ZM72.0188 55.5812H72.919V58.1083H72.9603C73.0539 57.877 73.1943 57.6844 73.3814 57.5302C73.5741 57.376 73.8357 57.299 74.166 57.299C74.6064 57.299 74.9478 57.4449 75.19 57.7367C75.4378 58.0229 75.5616 58.4331 75.5616 58.9671V61.6924H74.6615V59.0745C74.6615 58.4083 74.3917 58.0752 73.8522 58.0752C73.7366 58.0752 73.6209 58.0918 73.5053 58.1248C73.3952 58.1523 73.2961 58.1964 73.208 58.2569C73.1199 58.3175 73.0484 58.3946 72.9933 58.4882C72.9438 58.5818 72.919 58.6891 72.919 58.8102V61.6924H72.0188V55.5812ZM78.494 61.7915C78.1967 61.7915 77.9242 61.7392 77.6764 61.6346C77.4342 61.53 77.2277 61.3813 77.057 61.1886C76.8864 60.9904 76.7542 60.7537 76.6606 60.4784C76.567 60.1976 76.5202 59.8866 76.5202 59.5452C76.5202 59.2039 76.567 58.8956 76.6606 58.6203C76.7542 58.3395 76.8864 58.1028 77.057 57.9101C77.2277 57.7119 77.4342 57.5605 77.6764 57.4559C77.9242 57.3513 78.1967 57.299 78.494 57.299C78.7913 57.299 79.061 57.3513 79.3033 57.4559C79.551 57.5605 79.7603 57.7119 79.9309 57.9101C80.1016 58.1028 80.2337 58.3395 80.3273 58.6203C80.4209 58.8956 80.4677 59.2039 80.4677 59.5452C80.4677 59.8866 80.4209 60.1976 80.3273 60.4784C80.2337 60.7537 80.1016 60.9904 79.9309 61.1886C79.7603 61.3813 79.551 61.53 79.3033 61.6346C79.061 61.7392 78.7913 61.7915 78.494 61.7915ZM78.494 61.0482C78.8023 61.0482 79.05 60.9546 79.2372 60.7675C79.4244 60.5748 79.518 60.2885 79.518 59.9086V59.1819C79.518 58.802 79.4244 58.5184 79.2372 58.3313C79.05 58.1386 78.8023 58.0422 78.494 58.0422C78.1857 58.0422 77.9379 58.1386 77.7507 58.3313C77.5635 58.5184 77.47 58.802 77.47 59.1819V59.9086C77.47 60.2885 77.5635 60.5748 77.7507 60.7675C77.9379 60.9546 78.1857 61.0482 78.494 61.0482ZM82.6357 61.6924C82.3219 61.6924 82.0852 61.6126 81.9255 61.4529C81.7658 61.2877 81.686 61.0565 81.686 60.7592V58.1331H81.0171V57.3981H81.3804C81.5291 57.3981 81.631 57.365 81.686 57.299C81.7466 57.2329 81.7768 57.1255 81.7768 56.9769V56.2254H82.5862V57.3981H83.4863V58.1331H82.5862V60.9574H83.4203V61.6924H82.6357ZM86.1152 61.7915C85.8179 61.7915 85.5453 61.7392 85.2976 61.6346C85.0553 61.53 84.8489 61.3813 84.6782 61.1886C84.5075 60.9904 84.3754 60.7537 84.2818 60.4784C84.1882 60.1976 84.1414 59.8866 84.1414 59.5452C84.1414 59.2039 84.1882 58.8956 84.2818 58.6203C84.3754 58.3395 84.5075 58.1028 84.6782 57.9101C84.8489 57.7119 85.0553 57.5605 85.2976 57.4559C85.5453 57.3513 85.8179 57.299 86.1152 57.299C86.4125 57.299 86.6822 57.3513 86.9245 57.4559C87.1722 57.5605 87.3814 57.7119 87.5521 57.9101C87.7228 58.1028 87.8549 58.3395 87.9485 58.6203C88.0421 58.8956 88.0889 59.2039 88.0889 59.5452C88.0889 59.8866 88.0421 60.1976 87.9485 60.4784C87.8549 60.7537 87.7228 60.9904 87.5521 61.1886C87.3814 61.3813 87.1722 61.53 86.9245 61.6346C86.6822 61.7392 86.4125 61.7915 86.1152 61.7915ZM86.1152 61.0482C86.4235 61.0482 86.6712 60.9546 86.8584 60.7675C87.0456 60.5748 87.1392 60.2885 87.1392 59.9086V59.1819C87.1392 58.802 87.0456 58.5184 86.8584 58.3313C86.6712 58.1386 86.4235 58.0422 86.1152 58.0422C85.8069 58.0422 85.5591 58.1386 85.3719 58.3313C85.1847 58.5184 85.0911 58.802 85.0911 59.1819V59.9086C85.0911 60.2885 85.1847 60.5748 85.3719 60.7675C85.5591 60.9546 85.8069 61.0482 86.1152 61.0482ZM92.7035 61.7915C92.3952 61.7915 92.1199 61.7392 91.8777 61.6346C91.6354 61.53 91.4317 61.3813 91.2665 61.1886C91.1014 60.9904 90.9748 60.7537 90.8867 60.4784C90.7986 60.1976 90.7545 59.8866 90.7545 59.5452C90.7545 59.2039 90.7986 58.8956 90.8867 58.6203C90.9748 58.3395 91.1014 58.1028 91.2665 57.9101C91.4317 57.7119 91.6354 57.5605 91.8777 57.4559C92.1199 57.3513 92.3952 57.299 92.7035 57.299C93.1329 57.299 93.4853 57.3953 93.7606 57.588C94.0358 57.7807 94.2368 58.0367 94.3634 58.356L93.6202 58.7029C93.5596 58.5047 93.4522 58.3478 93.2981 58.2322C93.1494 58.111 92.9512 58.0505 92.7035 58.0505C92.3732 58.0505 92.1227 58.1551 91.952 58.3643C91.7868 58.568 91.7042 58.835 91.7042 59.1653V59.9334C91.7042 60.2637 91.7868 60.5335 91.952 60.7427C92.1227 60.9464 92.3732 61.0482 92.7035 61.0482C92.9678 61.0482 93.177 60.9849 93.3311 60.8583C93.4908 60.7262 93.6174 60.5527 93.711 60.338L94.3964 60.7014C94.2533 61.0537 94.0386 61.3235 93.7523 61.5107C93.466 61.6979 93.1164 61.7915 92.7035 61.7915ZM96.8897 61.7915C96.5924 61.7915 96.3198 61.7392 96.0721 61.6346C95.8299 61.53 95.6234 61.3813 95.4527 61.1886C95.2821 60.9904 95.1499 60.7537 95.0563 60.4784C94.9627 60.1976 94.9159 59.8866 94.9159 59.5452C94.9159 59.2039 94.9627 58.8956 95.0563 58.6203C95.1499 58.3395 95.2821 58.1028 95.4527 57.9101C95.6234 57.7119 95.8299 57.5605 96.0721 57.4559C96.3198 57.3513 96.5924 57.299 96.8897 57.299C97.187 57.299 97.4567 57.3513 97.699 57.4559C97.9467 57.5605 98.1559 57.7119 98.3266 57.9101C98.4973 58.1028 98.6294 58.3395 98.723 58.6203C98.8166 58.8956 98.8634 59.2039 98.8634 59.5452C98.8634 59.8866 98.8166 60.1976 98.723 60.4784C98.6294 60.7537 98.4973 60.9904 98.3266 61.1886C98.1559 61.3813 97.9467 61.53 97.699 61.6346C97.4567 61.7392 97.187 61.7915 96.8897 61.7915ZM96.8897 61.0482C97.198 61.0482 97.4457 60.9546 97.6329 60.7675C97.8201 60.5748 97.9137 60.2885 97.9137 59.9086V59.1819C97.9137 58.802 97.8201 58.5184 97.6329 58.3313C97.4457 58.1386 97.198 58.0422 96.8897 58.0422C96.5814 58.0422 96.3336 58.1386 96.1464 58.3313C95.9592 58.5184 95.8656 58.802 95.8656 59.1819V59.9086C95.8656 60.2885 95.9592 60.5748 96.1464 60.7675C96.3336 60.9546 96.5814 61.0482 96.8897 61.0482ZM99.8664 61.6924V57.3981H100.767V58.1083H100.808C100.901 57.877 101.042 57.6844 101.229 57.5302C101.422 57.376 101.683 57.299 102.014 57.299C102.454 57.299 102.795 57.4449 103.038 57.7367C103.285 58.0229 103.409 58.4331 103.409 58.9671V61.6924H102.509V59.0828C102.509 58.4111 102.239 58.0752 101.7 58.0752C101.584 58.0752 101.469 58.0918 101.353 58.1248C101.243 58.1523 101.144 58.1964 101.056 58.2569C100.968 58.3175 100.896 58.3946 100.841 58.4882C100.791 58.5818 100.767 58.6919 100.767 58.8185V61.6924H99.8664ZM105.846 61.6924C105.532 61.6924 105.296 61.6126 105.136 61.4529C104.976 61.2877 104.896 61.0565 104.896 60.7592V58.1331H104.227V57.3981H104.591C104.739 57.3981 104.841 57.365 104.896 57.299C104.957 57.2329 104.987 57.1255 104.987 56.9769V56.2254H105.797V57.3981H106.697V58.1331H105.797V60.9574H106.631V61.6924H105.846ZM109.326 61.7915C109.017 61.7915 108.742 61.7392 108.5 61.6346C108.257 61.53 108.051 61.3813 107.88 61.1886C107.71 60.9904 107.578 60.7537 107.484 60.4784C107.396 60.1976 107.352 59.8866 107.352 59.5452C107.352 59.2039 107.396 58.8956 107.484 58.6203C107.578 58.3395 107.71 58.1028 107.88 57.9101C108.051 57.7119 108.257 57.5605 108.5 57.4559C108.742 57.3513 109.017 57.299 109.326 57.299C109.639 57.299 109.915 57.354 110.151 57.4641C110.394 57.5742 110.595 57.7284 110.754 57.9266C110.914 58.1193 111.032 58.345 111.109 58.6038C111.192 58.8625 111.233 59.1406 111.233 59.4379V59.7765H108.285V59.9168C108.285 60.2472 108.381 60.5197 108.574 60.7344C108.772 60.9436 109.053 61.0482 109.416 61.0482C109.681 61.0482 109.904 60.9904 110.085 60.8748C110.267 60.7592 110.421 60.6023 110.548 60.4041L111.076 60.9244C110.917 61.1886 110.685 61.4006 110.383 61.5602C110.08 61.7144 109.727 61.7915 109.326 61.7915ZM109.326 58.0009C109.171 58.0009 109.028 58.0284 108.896 58.0835C108.769 58.1386 108.659 58.2156 108.566 58.3147C108.478 58.4138 108.409 58.5322 108.359 58.6698C108.31 58.8075 108.285 58.9589 108.285 59.1241V59.1819H110.283V59.0993C110.283 58.7689 110.198 58.5047 110.027 58.3065C109.857 58.1028 109.623 58.0009 109.326 58.0009ZM112.23 61.6924V57.3981H113.13V58.1083H113.171C113.265 57.877 113.405 57.6844 113.592 57.5302C113.785 57.376 114.046 57.299 114.377 57.299C114.817 57.299 115.159 57.4449 115.401 57.7367C115.649 58.0229 115.772 58.4331 115.772 58.9671V61.6924H114.872V59.0828C114.872 58.4111 114.603 58.0752 114.063 58.0752C113.947 58.0752 113.832 58.0918 113.716 58.1248C113.606 58.1523 113.507 58.1964 113.419 58.2569C113.331 58.3175 113.259 58.3946 113.204 58.4882C113.155 58.5818 113.13 58.6919 113.13 58.8185V61.6924H112.23ZM118.209 61.6924C117.896 61.6924 117.659 61.6126 117.499 61.4529C117.339 61.2877 117.26 61.0565 117.26 60.7592V58.1331H116.591V57.3981H116.954C117.103 57.3981 117.205 57.365 117.26 57.299C117.32 57.2329 117.35 57.1255 117.35 56.9769V56.2254H118.16V57.3981H119.06V58.1331H118.16V60.9574H118.994V61.6924H118.209ZM121.988 55.5812H122.888V58.1083H122.929C123.023 57.8495 123.174 57.6513 123.384 57.5137C123.598 57.3705 123.849 57.299 124.135 57.299C124.68 57.299 125.101 57.4972 125.399 57.8936C125.696 58.2845 125.845 58.835 125.845 59.5452C125.845 60.2554 125.696 60.8087 125.399 61.2051C125.101 61.596 124.68 61.7915 124.135 61.7915C123.849 61.7915 123.598 61.7199 123.384 61.5768C123.174 61.4336 123.023 61.2354 122.929 60.9822H122.888V61.6924H121.988V55.5812ZM123.863 61.0152C124.176 61.0152 124.427 60.9161 124.614 60.7179C124.801 60.5142 124.895 60.2472 124.895 59.9168V59.1736C124.895 58.8433 124.801 58.579 124.614 58.3808C124.427 58.1771 124.176 58.0752 123.863 58.0752C123.587 58.0752 123.356 58.1441 123.169 58.2817C122.982 58.4138 122.888 58.59 122.888 58.8102V60.2802C122.888 60.5004 122.982 60.6794 123.169 60.817C123.356 60.9491 123.587 61.0152 123.863 61.0152ZM128.56 61.7915C128.252 61.7915 127.976 61.7392 127.734 61.6346C127.492 61.53 127.285 61.3813 127.115 61.1886C126.944 60.9904 126.812 60.7537 126.718 60.4784C126.63 60.1976 126.586 59.8866 126.586 59.5452C126.586 59.2039 126.63 58.8956 126.718 58.6203C126.812 58.3395 126.944 58.1028 127.115 57.9101C127.285 57.7119 127.492 57.5605 127.734 57.4559C127.976 57.3513 128.252 57.299 128.56 57.299C128.874 57.299 129.149 57.354 129.386 57.4641C129.628 57.5742 129.829 57.7284 129.989 57.9266C130.148 58.1193 130.267 58.345 130.344 58.6038C130.426 58.8625 130.468 59.1406 130.468 59.4379V59.7765H127.519V59.9168C127.519 60.2472 127.616 60.5197 127.808 60.7344C128.007 60.9436 128.287 61.0482 128.651 61.0482C128.915 61.0482 129.138 60.9904 129.32 60.8748C129.501 60.7592 129.656 60.6023 129.782 60.4041L130.311 60.9244C130.151 61.1886 129.92 61.4006 129.617 61.5602C129.314 61.7144 128.962 61.7915 128.56 61.7915ZM128.56 58.0009C128.406 58.0009 128.263 58.0284 128.131 58.0835C128.004 58.1386 127.894 58.2156 127.8 58.3147C127.712 58.4138 127.643 58.5322 127.594 58.6698C127.544 58.8075 127.519 58.9589 127.519 59.1241V59.1819H129.518V59.0993C129.518 58.7689 129.433 58.5047 129.262 58.3065C129.091 58.1028 128.857 58.0009 128.56 58.0009ZM131.687 58.1331H131.035V57.3981H131.687V56.6879C131.687 56.341 131.778 56.0712 131.96 55.8785C132.141 55.6803 132.414 55.5812 132.777 55.5812H133.487V56.3162H132.587V57.3981H133.487V58.1331H132.587V61.6924H131.687V58.1331ZM135.923 61.7915C135.626 61.7915 135.353 61.7392 135.105 61.6346C134.863 61.53 134.657 61.3813 134.486 61.1886C134.315 60.9904 134.183 60.7537 134.09 60.4784C133.996 60.1976 133.949 59.8866 133.949 59.5452C133.949 59.2039 133.996 58.8956 134.09 58.6203C134.183 58.3395 134.315 58.1028 134.486 57.9101C134.657 57.7119 134.863 57.5605 135.105 57.4559C135.353 57.3513 135.626 57.299 135.923 57.299C136.22 57.299 136.49 57.3513 136.732 57.4559C136.98 57.5605 137.189 57.7119 137.36 57.9101C137.531 58.1028 137.663 58.3395 137.756 58.6203C137.85 58.8956 137.897 59.2039 137.897 59.5452C137.897 59.8866 137.85 60.1976 137.756 60.4784C137.663 60.7537 137.531 60.9904 137.36 61.1886C137.189 61.3813 136.98 61.53 136.732 61.6346C136.49 61.7392 136.22 61.7915 135.923 61.7915ZM135.923 61.0482C136.231 61.0482 136.479 60.9546 136.666 60.7675C136.853 60.5748 136.947 60.2885 136.947 59.9086V59.1819C136.947 58.802 136.853 58.5184 136.666 58.3313C136.479 58.1386 136.231 58.0422 135.923 58.0422C135.615 58.0422 135.367 58.1386 135.18 58.3313C134.993 58.5184 134.899 58.802 134.899 59.1819V59.9086C134.899 60.2885 134.993 60.5748 135.18 60.7675C135.367 60.9546 135.615 61.0482 135.923 61.0482ZM138.9 61.6924V57.3981H139.8V58.2239H139.841C139.902 58.0037 140.028 57.811 140.221 57.6458C140.414 57.4806 140.681 57.3981 141.022 57.3981H141.262V58.2652H140.907C140.549 58.2652 140.273 58.323 140.081 58.4386C139.894 58.5542 139.8 58.7249 139.8 58.9506V61.6924H138.9ZM143.706 61.7915C143.397 61.7915 143.122 61.7392 142.88 61.6346C142.637 61.53 142.431 61.3813 142.26 61.1886C142.09 60.9904 141.958 60.7537 141.864 60.4784C141.776 60.1976 141.732 59.8866 141.732 59.5452C141.732 59.2039 141.776 58.8956 141.864 58.6203C141.958 58.3395 142.09 58.1028 142.26 57.9101C142.431 57.7119 142.637 57.5605 142.88 57.4559C143.122 57.3513 143.397 57.299 143.706 57.299C144.019 57.299 144.295 57.354 144.531 57.4641C144.774 57.5742 144.975 57.7284 145.134 57.9266C145.294 58.1193 145.412 58.345 145.489 58.6038C145.572 58.8625 145.613 59.1406 145.613 59.4379V59.7765H142.665V59.9168C142.665 60.2472 142.761 60.5197 142.954 60.7344C143.152 60.9436 143.433 61.0482 143.796 61.0482C144.061 61.0482 144.284 60.9904 144.465 60.8748C144.647 60.7592 144.801 60.6023 144.928 60.4041L145.456 60.9244C145.297 61.1886 145.065 61.4006 144.763 61.5602C144.46 61.7144 144.107 61.7915 143.706 61.7915ZM143.706 58.0009C143.551 58.0009 143.408 58.0284 143.276 58.0835C143.149 58.1386 143.039 58.2156 142.946 58.3147C142.858 58.4138 142.789 58.5322 142.739 58.6698C142.69 58.8075 142.665 58.9589 142.665 59.1241V59.1819H144.663V59.0993C144.663 58.7689 144.578 58.5047 144.407 58.3065C144.237 58.1028 144.003 58.0009 143.706 58.0009ZM12.5681 69.63C12.3809 69.63 12.2433 69.586 12.1552 69.4979C12.0726 69.4098 12.0313 69.297 12.0313 69.1593V69.0189C12.0313 68.8813 12.0726 68.7684 12.1552 68.6803C12.2433 68.5922 12.3809 68.5482 12.5681 68.5482C12.7553 68.5482 12.8902 68.5922 12.9727 68.6803C13.0553 68.7684 13.0966 68.8813 13.0966 69.0189V69.1593C13.0966 69.297 13.0553 69.4098 12.9727 69.4979C12.8902 69.586 12.7553 69.63 12.5681 69.63ZM12.1139 70.3981H13.014V74.6924H12.1139V70.3981ZM14.2994 74.6924V70.3981H15.1996V71.1083H15.2409C15.2849 70.9982 15.3372 70.8936 15.3978 70.7945C15.4638 70.6954 15.5409 70.61 15.629 70.5385C15.7226 70.4614 15.83 70.4036 15.9511 70.365C16.0777 70.321 16.2236 70.299 16.3888 70.299C16.6806 70.299 16.9393 70.3705 17.1651 70.5137C17.3908 70.6568 17.5559 70.877 17.6606 71.1743H17.6853C17.7624 70.9321 17.9111 70.7256 18.1313 70.555C18.3515 70.3843 18.635 70.299 18.9819 70.299C19.4113 70.299 19.7444 70.4449 19.9811 70.7367C20.2179 71.0229 20.3362 71.4331 20.3362 71.9671V74.6924H19.4361V72.0745C19.4361 71.7442 19.3728 71.4964 19.2461 71.3313C19.1195 71.1606 18.9186 71.0752 18.6433 71.0752C18.5277 71.0752 18.4176 71.0918 18.313 71.1248C18.2084 71.1523 18.1148 71.1964 18.0322 71.2569C17.9551 71.3175 17.8918 71.3946 17.8422 71.4882C17.7927 71.5818 17.7679 71.6891 17.7679 71.8102V74.6924H16.8678V72.0745C16.8678 71.4083 16.6062 71.0752 16.0832 71.0752C15.9731 71.0752 15.863 71.0918 15.7529 71.1248C15.6483 71.1523 15.5547 71.1964 15.4721 71.2569C15.3895 71.3175 15.3235 71.3946 15.2739 71.4882C15.2244 71.5818 15.1996 71.6891 15.1996 71.8102V74.6924H14.2994ZM24.7283 74.6924C24.4916 74.6924 24.3099 74.6263 24.1833 74.4942C24.0566 74.3565 23.9796 74.1831 23.952 73.9739H23.9107C23.8281 74.2437 23.6767 74.4474 23.4565 74.585C23.2363 74.7227 22.9693 74.7915 22.6555 74.7915C22.2095 74.7915 21.8654 74.6759 21.6232 74.4446C21.3864 74.2134 21.2681 73.9023 21.2681 73.5114C21.2681 73.082 21.4222 72.7599 21.7305 72.5452C22.0444 72.3305 22.5013 72.2232 23.1014 72.2232H23.8777V71.8598C23.8777 71.5955 23.8061 71.3918 23.663 71.2487C23.5198 71.1055 23.2969 71.034 22.9941 71.034C22.7408 71.034 22.5343 71.089 22.3747 71.1991C22.215 71.3092 22.0801 71.4496 21.97 71.6203L21.4332 71.1331C21.5764 70.8908 21.7773 70.6926 22.0361 70.5385C22.2949 70.3788 22.6334 70.299 23.0519 70.299C23.6079 70.299 24.0346 70.4283 24.3319 70.6871C24.6292 70.9459 24.7779 71.3175 24.7779 71.802V73.9574H25.2321V74.6924H24.7283ZM22.9115 74.106C23.1923 74.106 23.4235 74.0455 23.6052 73.9244C23.7869 73.7977 23.8777 73.6298 23.8777 73.4206V72.8012H23.1179C22.4958 72.8012 22.1847 72.9939 22.1847 73.3793V73.528C22.1847 73.7207 22.2481 73.8666 22.3747 73.9657C22.5068 74.0592 22.6857 74.106 22.9115 74.106ZM29.8801 75.097C29.8801 75.543 29.7094 75.8788 29.3681 76.1046C29.0267 76.3303 28.4706 76.4431 27.6999 76.4431C27.3475 76.4431 27.0475 76.4184 26.7997 76.3688C26.5575 76.3248 26.3565 76.2587 26.1969 76.1706C26.0427 76.0825 25.9298 75.9752 25.8583 75.8485C25.7867 75.7219 25.7509 75.576 25.7509 75.4109C25.7509 75.1741 25.8142 74.9897 25.9409 74.8575C26.073 74.7254 26.2547 74.6346 26.4859 74.585V74.4942C26.1611 74.3896 25.9987 74.1694 25.9987 73.8335C25.9987 73.6133 26.073 73.4454 26.2216 73.3298C26.3703 73.2086 26.5492 73.1233 26.7584 73.0738V73.0407C26.5052 72.9196 26.3097 72.7517 26.1721 72.537C26.04 72.3167 25.9739 72.0607 25.9739 71.7689C25.9739 71.3285 26.1198 70.9734 26.4116 70.7036C26.7089 70.4339 27.1328 70.299 27.6834 70.299C27.9862 70.299 28.2449 70.343 28.4596 70.4311V70.3155C28.4596 70.1228 28.5037 69.9741 28.5918 69.8695C28.6854 69.7594 28.8285 69.7044 29.0212 69.7044H29.6819V70.4311H28.8065V70.6045C28.9992 70.7312 29.1478 70.8963 29.2524 71.1C29.357 71.2982 29.4093 71.5212 29.4093 71.7689C29.4093 72.2039 29.2607 72.5562 28.9634 72.826C28.6661 73.0903 28.2422 73.2224 27.6916 73.2224C27.4824 73.2224 27.2952 73.2004 27.13 73.1563C27.0199 73.1949 26.9236 73.2499 26.841 73.3215C26.7584 73.3876 26.7171 73.4757 26.7171 73.5858C26.7171 73.7014 26.7694 73.784 26.874 73.8335C26.9786 73.8831 27.1273 73.9078 27.32 73.9078H28.3771C28.9056 73.9078 29.2882 74.0152 29.525 74.2299C29.7617 74.4391 29.8801 74.7282 29.8801 75.097ZM29.0377 75.1961C29.0377 75.0475 28.9799 74.9291 28.8643 74.841C28.7542 74.7529 28.5505 74.7089 28.2532 74.7089H26.7997C26.6015 74.8245 26.5024 74.9897 26.5024 75.2044C26.5024 75.3806 26.5712 75.521 26.7089 75.6256C26.852 75.7357 27.0915 75.7907 27.4273 75.7907H27.9889C28.6881 75.7907 29.0377 75.5925 29.0377 75.1961ZM27.6916 72.57C27.9559 72.57 28.1596 72.5122 28.3027 72.3966C28.4514 72.2755 28.5257 72.091 28.5257 71.8433V71.6781C28.5257 71.4304 28.4514 71.2487 28.3027 71.1331C28.1596 71.0119 27.9559 70.9514 27.6916 70.9514C27.4273 70.9514 27.2209 71.0119 27.0722 71.1331C26.9291 71.2487 26.8575 71.4304 26.8575 71.6781V71.8433C26.8575 72.091 26.9291 72.2755 27.0722 72.3966C27.2209 72.5122 27.4273 72.57 27.6916 72.57ZM32.1862 74.7915C31.8779 74.7915 31.6026 74.7392 31.3604 74.6346C31.1181 74.53 30.9117 74.3813 30.741 74.1886C30.5703 73.9904 30.4382 73.7537 30.3446 73.4784C30.2565 73.1976 30.2125 72.8866 30.2125 72.5452C30.2125 72.2039 30.2565 71.8956 30.3446 71.6203C30.4382 71.3395 30.5703 71.1028 30.741 70.9101C30.9117 70.7119 31.1181 70.5605 31.3604 70.4559C31.6026 70.3513 31.8779 70.299 32.1862 70.299C32.5 70.299 32.7753 70.354 33.012 70.4641C33.2543 70.5742 33.4552 70.7284 33.6149 70.9266C33.7745 71.1193 33.8929 71.345 33.97 71.6038C34.0526 71.8625 34.0939 72.1406 34.0939 72.4379V72.7765H31.1456V72.9168C31.1456 73.2472 31.242 73.5197 31.4347 73.7344C31.6329 73.9436 31.9137 74.0482 32.277 74.0482C32.5413 74.0482 32.7643 73.9904 32.946 73.8748C33.1276 73.7592 33.2818 73.6023 33.4084 73.4041L33.937 73.9244C33.7773 74.1886 33.5461 74.4006 33.2433 74.5602C32.9405 74.7144 32.5881 74.7915 32.1862 74.7915ZM32.1862 71.0009C32.032 71.0009 31.8889 71.0284 31.7568 71.0835C31.6301 71.1386 31.52 71.2156 31.4264 71.3147C31.3383 71.4138 31.2695 71.5322 31.22 71.6698C31.1704 71.8075 31.1456 71.9589 31.1456 72.1241V72.1819H33.1442V72.0993C33.1442 71.7689 33.0588 71.5047 32.8882 71.3065C32.7175 71.1028 32.4835 71.0009 32.1862 71.0009ZM36.453 74.7915C36.0456 74.7915 35.7042 74.7199 35.4289 74.5768C35.1537 74.4336 34.9142 74.2354 34.7105 73.9822L35.2885 73.4536C35.4482 73.6463 35.6244 73.7977 35.8171 73.9078C36.0153 74.0124 36.2438 74.0648 36.5025 74.0648C36.7668 74.0648 36.9622 74.0152 37.0889 73.9161C37.221 73.8115 37.2871 73.6684 37.2871 73.4867C37.2871 73.349 37.2403 73.2334 37.1467 73.1398C37.0586 73.0407 36.9017 72.9774 36.6759 72.9499L36.2795 72.9003C35.8391 72.8453 35.4922 72.7186 35.239 72.5204C34.9912 72.3167 34.8674 72.0167 34.8674 71.6203C34.8674 71.4111 34.9059 71.2266 34.983 71.067C35.0601 70.9018 35.1674 70.7642 35.3051 70.6541C35.4482 70.5385 35.6161 70.4504 35.8088 70.3898C36.007 70.3292 36.2245 70.299 36.4612 70.299C36.8466 70.299 37.1604 70.3595 37.4027 70.4806C37.6504 70.6018 37.8706 70.7697 38.0633 70.9844L37.51 71.5129C37.3999 71.3808 37.254 71.2679 37.0723 71.1743C36.8962 71.0752 36.6925 71.0257 36.4612 71.0257C36.2135 71.0257 36.029 71.0752 35.9079 71.1743C35.7923 71.2734 35.7345 71.4028 35.7345 71.5625C35.7345 71.7277 35.7868 71.8515 35.8914 71.9341C35.996 72.0167 36.1639 72.0773 36.3952 72.1158L36.7916 72.1653C37.265 72.2369 37.6091 72.3773 37.8238 72.5865C38.0441 72.7902 38.1542 73.0655 38.1542 73.4123C38.1542 73.6216 38.1129 73.8115 38.0303 73.9822C37.9532 74.1473 37.8404 74.2905 37.6917 74.4116C37.5431 74.5327 37.3641 74.6263 37.1549 74.6924C36.9457 74.7584 36.7117 74.7915 36.453 74.7915ZM41.3457 71.1331H40.6933V70.3981H41.3457V69.6879C41.3457 69.341 41.4366 69.0712 41.6183 68.8785C41.8 68.6803 42.0725 68.5812 42.4358 68.5812H43.1461V69.3162H42.2459V70.3981H43.1461V71.1331H42.2459V74.6924H41.3457V71.1331ZM46.5307 73.9822H46.4976C46.4591 74.0868 46.4068 74.1886 46.3407 74.2877C46.2802 74.3868 46.2003 74.4749 46.1012 74.552C46.0076 74.6236 45.892 74.6814 45.7544 74.7254C45.6223 74.7695 45.4681 74.7915 45.2919 74.7915C44.846 74.7915 44.4991 74.6483 44.2514 74.3621C44.0091 74.0758 43.888 73.6656 43.888 73.1316V70.3981H44.7882V73.0159C44.7882 73.6821 45.0634 74.0152 45.614 74.0152C45.7296 74.0152 45.8425 74.0014 45.9526 73.9739C46.0627 73.9409 46.159 73.8941 46.2416 73.8335C46.3297 73.773 46.3985 73.6959 46.4481 73.6023C46.5031 73.5087 46.5307 73.3986 46.5307 73.272V70.3981H47.4308V74.6924H46.5307V73.9822ZM49.6364 74.6924C49.3281 74.6924 49.0969 74.6153 48.9427 74.4612C48.7941 74.3015 48.7198 74.0813 48.7198 73.8005V68.5812H49.6199V73.9574H50.2145V74.6924H49.6364ZM51.943 74.6924C51.6346 74.6924 51.4034 74.6153 51.2493 74.4612C51.1006 74.3015 51.0263 74.0813 51.0263 73.8005V68.5812H51.9264V73.9574H52.521V74.6924H51.943ZM55.9511 70.3981H56.8182L55.0096 75.543C54.9601 75.6861 54.9023 75.8073 54.8362 75.9064C54.7756 76.011 54.7013 76.0935 54.6132 76.1541C54.5306 76.2202 54.4288 76.267 54.3077 76.2945C54.1865 76.3275 54.0434 76.344 53.8782 76.344H53.358V75.6091H54.0847L54.3324 74.8823L52.7716 70.3981H53.6718L54.5306 72.9251L54.7784 73.8583H54.8197L55.0922 72.9251L55.9511 70.3981ZM60.4271 74.6924C60.1188 74.6924 59.8875 74.6153 59.7334 74.4612C59.5847 74.3015 59.5104 74.0813 59.5104 73.8005V68.5812H60.4106V73.9574H61.0052V74.6924H60.4271ZM63.55 74.7915C63.2527 74.7915 62.9802 74.7392 62.7324 74.6346C62.4902 74.53 62.2837 74.3813 62.1131 74.1886C61.9424 73.9904 61.8103 73.7537 61.7167 73.4784C61.6231 73.1976 61.5763 72.8866 61.5763 72.5452C61.5763 72.2039 61.6231 71.8956 61.7167 71.6203C61.8103 71.3395 61.9424 71.1028 62.1131 70.9101C62.2837 70.7119 62.4902 70.5605 62.7324 70.4559C62.9802 70.3513 63.2527 70.299 63.55 70.299C63.8473 70.299 64.1171 70.3513 64.3593 70.4559C64.6071 70.5605 64.8163 70.7119 64.9869 70.9101C65.1576 71.1028 65.2898 71.3395 65.3833 71.6203C65.4769 71.8956 65.5237 72.2039 65.5237 72.5452C65.5237 72.8866 65.4769 73.1976 65.3833 73.4784C65.2898 73.7537 65.1576 73.9904 64.9869 74.1886C64.8163 74.3813 64.6071 74.53 64.3593 74.6346C64.1171 74.7392 63.8473 74.7915 63.55 74.7915ZM63.55 74.0482C63.8583 74.0482 64.1061 73.9546 64.2932 73.7675C64.4804 73.5748 64.574 73.2885 64.574 72.9086V72.1819C64.574 71.802 64.4804 71.5184 64.2932 71.3313C64.1061 71.1386 63.8583 71.0422 63.55 71.0422C63.2417 71.0422 62.9939 71.1386 62.8068 71.3313C62.6196 71.5184 62.526 71.802 62.526 72.1819V72.9086C62.526 73.2885 62.6196 73.5748 62.8068 73.7675C62.9939 73.9546 63.2417 74.0482 63.55 74.0482ZM69.6731 74.6924C69.4364 74.6924 69.2547 74.6263 69.1281 74.4942C69.0015 74.3565 68.9244 74.1831 68.8969 73.9739H68.8556C68.773 74.2437 68.6216 74.4474 68.4014 74.585C68.1811 74.7227 67.9141 74.7915 67.6003 74.7915C67.1544 74.7915 66.8103 74.6759 66.568 74.4446C66.3313 74.2134 66.2129 73.9023 66.2129 73.5114C66.2129 73.082 66.3671 72.7599 66.6754 72.5452C66.9892 72.3305 67.4462 72.2232 68.0463 72.2232H68.8225V71.8598C68.8225 71.5955 68.751 71.3918 68.6078 71.2487C68.4647 71.1055 68.2417 71.034 67.9389 71.034C67.6857 71.034 67.4792 71.089 67.3195 71.1991C67.1599 71.3092 67.025 71.4496 66.9149 71.6203L66.3781 71.1331C66.5212 70.8908 66.7222 70.6926 66.9809 70.5385C67.2397 70.3788 67.5783 70.299 67.9967 70.299C68.5528 70.299 68.9795 70.4283 69.2767 70.6871C69.574 70.9459 69.7227 71.3175 69.7227 71.802V73.9574H70.1769V74.6924H69.6731ZM67.8563 74.106C68.1371 74.106 68.3683 74.0455 68.55 73.9244C68.7317 73.7977 68.8225 73.6298 68.8225 73.4206V72.8012H68.0628C67.4407 72.8012 67.1296 72.9939 67.1296 73.3793V73.528C67.1296 73.7207 67.1929 73.8666 67.3195 73.9657C67.4517 74.0592 67.6306 74.106 67.8563 74.106ZM73.7596 73.9822H73.7183C73.6247 74.2354 73.4705 74.4336 73.2558 74.5768C73.0466 74.7199 72.7989 74.7915 72.5126 74.7915C71.9675 74.7915 71.5464 74.596 71.2491 74.2051C70.9518 73.8087 70.8031 73.2554 70.8031 72.5452C70.8031 71.835 70.9518 71.2845 71.2491 70.8936C71.5464 70.4972 71.9675 70.299 72.5126 70.299C72.7989 70.299 73.0466 70.3705 73.2558 70.5137C73.4705 70.6513 73.6247 70.8495 73.7183 71.1083H73.7596V68.5812H74.6597V74.6924H73.7596V73.9822ZM72.7851 74.0152C73.0604 74.0152 73.2916 73.9491 73.4788 73.817C73.666 73.6794 73.7596 73.5004 73.7596 73.2802V71.8102C73.7596 71.59 73.666 71.4138 73.4788 71.2817C73.2916 71.1441 73.0604 71.0752 72.7851 71.0752C72.4713 71.0752 72.2208 71.1771 72.0336 71.3808C71.8464 71.579 71.7528 71.8433 71.7528 72.1736V72.9168C71.7528 73.2472 71.8464 73.5142 72.0336 73.7179C72.2208 73.9161 72.4713 74.0152 72.7851 74.0152ZM76.4997 74.7915C76.296 74.7915 76.1446 74.7392 76.0455 74.6346C75.9464 74.5245 75.8968 74.3896 75.8968 74.2299V74.106C75.8968 73.9464 75.9464 73.8142 76.0455 73.7096C76.1446 73.5995 76.296 73.5445 76.4997 73.5445C76.7034 73.5445 76.8548 73.5995 76.9539 73.7096C77.053 73.8142 77.1025 73.9464 77.1025 74.106V74.2299C77.1025 74.3896 77.053 74.5245 76.9539 74.6346C76.8548 74.7392 76.7034 74.7915 76.4997 74.7915Z" fill="#121212"/>
</g>
<defs>
<clipPath id="clip0_447_2409">
<rect width="162.413" height="92.6765" fill="white"/>
</clipPath>
</defs>
</svg>
