<svg width="146" height="186" viewBox="0 0 146 186" fill="none" xmlns="http://www.w3.org/2000/svg">
<path d="M90.5283 40.5469C98.1308 44.1792 103.875 52.6265 103.875 62.0874V73.5756C103.875 74.5893 103.03 75.4341 102.017 75.4341H83.9395V69.4365H98.4687V62.7632" stroke="#121212" stroke-width="2.53418" stroke-miterlimit="10"/>
<path d="M72.7891 63.4389C74.3096 57.6948 76.337 50.2612 79.7159 43.7568" stroke="#121212" stroke-width="2.53418" stroke-miterlimit="10"/>
<path d="M84.5302 110.237V122.316H81.4048V119.782L76.9277 122.316H69.6631V120.711L72.5352 119.191L78.8706 115.052V110.237H84.5302Z" stroke="#121212" stroke-width="2.53418" stroke-miterlimit="10"/>
<path d="M84.2764 72.562H71.6055C71.0142 72.562 70.4229 72.3086 70.085 71.8017L68.3955 69.4365V67.5781H72.788V66.9023H74.9844L76.6739 69.4365H83.854" stroke="#121212" stroke-width="2.53418" stroke-miterlimit="10"/>
<path d="M59.8643 66.9023L59.9487 69.0986C60.7934 70.2812 62.2295 71.0415 63.6655 71.0415H69.4096" stroke="#121212" stroke-width="2.53418" stroke-miterlimit="10"/>
<path d="M84.5293 101.114V110.237" stroke="#121212" stroke-width="2.53418" stroke-miterlimit="10"/>
<path d="M80.9814 101.114V110.237" stroke="#121212" stroke-width="2.53418" stroke-miterlimit="10"/>
<path d="M97.8775 110.237V122.316H94.6675V119.782L90.275 122.316H82.9258V120.711L85.7979 119.191L92.1333 115.052V110.237H97.8775Z" stroke="#121212" stroke-width="2.53418" stroke-miterlimit="10"/>
<path d="M97.877 87.7671V110.237" stroke="#121212" stroke-width="2.53418" stroke-miterlimit="10"/>
<path d="M94.666 101.114V110.237" stroke="#121212" stroke-width="2.53418" stroke-miterlimit="10"/>
<path d="M97.878 75.4341V97.4814H80.3921V83.6279L77.1822 82.0229C73.7188 80.249 71.5225 76.7012 71.5225 72.8154" stroke="#121212" stroke-width="2.53418" stroke-miterlimit="10"/>
<path d="M71.6904 66.9024H50.7412L42.125 44.6016H64.9326L71.606 63.6924H83.5166C83.77 63.6924 84.0234 63.9458 84.0234 64.1992V66.9024" stroke="#121212" stroke-width="2.53418" stroke-miterlimit="10"/>
<path d="M79.7148 101.452H98.4677" stroke="#121212" stroke-width="2.53418" stroke-miterlimit="10"/>
<path d="M97.4541 27.876C97.4541 36.2388 90.6118 43.081 82.249 43.081C73.8862 43.081 67.0439 36.2388 67.0439 27.876" stroke="#121212" stroke-width="2.53418" stroke-miterlimit="10"/>
<path d="M77.3496 38.0127C77.9409 35.8164 79.8838 34.2114 82.2491 34.2114C84.6143 34.2114 86.5571 35.8164 87.1484 38.0127" stroke="#121212" stroke-width="2.53418" stroke-miterlimit="10"/>
<path d="M73.3799 40.5469H64.5103C63.3276 36.6611 63.2432 30.4101 63.2432 30.4101C63.2432 21.5405 63.2432 27.876 63.2432 27.876C63.2432 21.5405 64.5103 1.26709 82.2495 1.26709C98.8906 1.26709 101.256 21.5405 101.256 26.6089C101.256 29.9033 101.256 35.7319 99.9043 40.5469H91.1191" stroke="#121212" stroke-width="2.53418" stroke-miterlimit="10"/>
<path d="M79.9682 26.609C79.9682 29.1432 77.1807 30.4103 73.0415 30.4103C70.1694 30.4103 68.3955 28.4674 68.3955 25.3419C68.3955 21.3717 73.6328 22.3009 76.5049 22.8078C79.2925 23.3991 79.9682 24.4972 79.9682 26.609Z" stroke="#121212" stroke-width="2.53418" stroke-miterlimit="10"/>
<path d="M84.6152 26.609C84.6152 29.1432 87.4029 30.4103 91.542 30.4103C94.4141 30.4103 96.188 28.4674 96.188 25.3419C96.188 21.3717 90.9508 22.3009 88.0787 22.8078C85.2066 23.3991 84.6152 24.4972 84.6152 26.609Z" stroke="#121212" stroke-width="2.53418" stroke-miterlimit="10"/>
<path d="M78.7871 25.3418C78.7871 25.3418 82.2504 21.5405 85.7138 25.3418" stroke="#121212" stroke-width="2.53418" stroke-miterlimit="10"/>
<path d="M88.5854 22.8076C81.3208 22.4697 77.1816 12.6709 77.1816 12.6709H75.9145C75.9145 12.6709 74.9853 18.6685 69.5791 22.8076" stroke="#121212" stroke-width="2.53418" stroke-miterlimit="10"/>
<path d="M90.6123 41.2227C90.6123 44.686 87.7402 47.5581 84.2769 47.5581H78.4482" stroke="#121212" stroke-width="2.53418" stroke-miterlimit="10"/>
<path d="M1.60321 170.298H5.68328C6.44912 170.298 7.04771 170.513 7.47904 170.945C7.91918 171.376 8.13925 171.953 8.13925 172.674C8.13925 173.018 8.09083 173.313 7.994 173.559C7.89717 173.797 7.77393 173.995 7.62429 174.153C7.47464 174.303 7.30299 174.417 7.10933 174.497C6.91567 174.567 6.72641 174.611 6.54155 174.629V174.708C6.72641 174.717 6.92887 174.761 7.14894 174.84C7.37781 174.919 7.58908 175.047 7.78274 175.223C7.9764 175.39 8.13925 175.61 8.27129 175.883C8.40333 176.147 8.46935 176.473 8.46935 176.86C8.46935 177.23 8.40773 177.578 8.28449 177.903C8.17006 178.229 8.00721 178.511 7.79594 178.748C7.58467 178.986 7.3338 179.175 7.04331 179.316C6.75282 179.448 6.43592 179.514 6.09261 179.514H1.60321V170.298ZM3.09528 178.233H5.65687C6.04419 178.233 6.34789 178.132 6.56796 177.93C6.78803 177.727 6.89806 177.437 6.89806 177.058V176.609C6.89806 176.231 6.78803 175.94 6.56796 175.738C6.34789 175.535 6.04419 175.434 5.65687 175.434H3.09528V178.233ZM3.09528 174.193H5.406C5.77571 174.193 6.0618 174.1 6.26426 173.916C6.46673 173.722 6.56796 173.449 6.56796 173.097V172.674C6.56796 172.322 6.46673 172.054 6.26426 171.869C6.0618 171.675 5.77571 171.578 5.406 171.578H3.09528V174.193ZM15.2322 179.514C14.8537 179.514 14.5632 179.409 14.3608 179.197C14.1583 178.977 14.0351 178.7 13.991 178.365H13.925C13.793 178.797 13.5509 179.122 13.1988 179.343C12.8467 179.563 12.4198 179.673 11.918 179.673C11.205 179.673 10.6548 179.488 10.2675 179.118C9.88896 178.748 9.6997 178.251 9.6997 177.626C9.6997 176.939 9.94618 176.424 10.4391 176.081C10.9409 175.738 11.6715 175.566 12.631 175.566H13.8722V174.985C13.8722 174.563 13.7578 174.237 13.5289 174.008C13.3 173.779 12.9435 173.665 12.4594 173.665C12.0544 173.665 11.7243 173.753 11.4691 173.929C11.2138 174.105 10.9981 174.329 10.8221 174.602L9.96379 173.823C10.1927 173.436 10.514 173.119 10.9277 172.872C11.3414 172.617 11.8828 172.49 12.5518 172.49C13.4409 172.49 14.1231 172.696 14.5984 173.11C15.0738 173.524 15.3115 174.118 15.3115 174.893V178.339H16.0377V179.514H15.2322ZM12.3273 178.577C12.7763 178.577 13.146 178.48 13.4365 178.286C13.727 178.084 13.8722 177.815 13.8722 177.481V176.49H12.6574C11.6627 176.49 11.1654 176.799 11.1654 177.415V177.652C11.1654 177.96 11.2666 178.194 11.4691 178.352C11.6803 178.502 11.9664 178.577 12.3273 178.577ZM21.766 178.379H21.7C21.5503 178.784 21.3038 179.1 20.9605 179.329C20.626 179.558 20.2299 179.673 19.7722 179.673C18.9007 179.673 18.2273 179.36 17.7519 178.735C17.2766 178.101 17.0389 177.217 17.0389 176.081C17.0389 174.946 17.2766 174.065 17.7519 173.44C18.2273 172.806 18.9007 172.49 19.7722 172.49C20.2299 172.49 20.626 172.604 20.9605 172.833C21.3038 173.053 21.5503 173.37 21.7 173.784H21.766V169.743H23.2052V179.514H21.766V178.379ZM20.2079 178.431C20.648 178.431 21.0178 178.326 21.3171 178.115C21.6163 177.894 21.766 177.608 21.766 177.256V174.906C21.766 174.554 21.6163 174.272 21.3171 174.061C21.0178 173.841 20.648 173.731 20.2079 173.731C19.7061 173.731 19.3056 173.894 19.0063 174.219C18.707 174.536 18.5574 174.959 18.5574 175.487V176.675C18.5574 177.203 18.707 177.63 19.0063 177.956C19.3056 178.273 19.7061 178.431 20.2079 178.431ZM29.1091 171.42C28.8098 171.42 28.5898 171.35 28.4489 171.209C28.3169 171.068 28.2509 170.887 28.2509 170.667V170.443C28.2509 170.223 28.3169 170.042 28.4489 169.902C28.5898 169.761 28.8098 169.69 29.1091 169.69C29.4084 169.69 29.6241 169.761 29.7561 169.902C29.8882 170.042 29.9542 170.223 29.9542 170.443V170.667C29.9542 170.887 29.8882 171.068 29.7561 171.209C29.6241 171.35 29.4084 171.42 29.1091 171.42ZM28.3829 172.648H29.8221V179.514H28.3829V172.648ZM31.8773 179.514V172.648H33.3166V173.784H33.3826C33.5323 173.414 33.7567 173.106 34.056 172.859C34.3641 172.613 34.7823 172.49 35.3104 172.49C36.0146 172.49 36.5604 172.723 36.9477 173.189C37.3438 173.647 37.5419 174.303 37.5419 175.157V179.514H36.1027V175.342C36.1027 174.268 35.6713 173.731 34.8087 173.731C34.6238 173.731 34.4389 173.757 34.2541 173.81C34.078 173.854 33.9196 173.924 33.7787 174.021C33.6379 174.118 33.5235 174.241 33.4354 174.391C33.3562 174.541 33.3166 174.717 33.3166 174.919V179.514H31.8773ZM41.4382 179.514C40.9364 179.514 40.5579 179.387 40.3026 179.131C40.0473 178.867 39.9197 178.497 39.9197 178.022V173.823H38.8501V172.648H39.4311C39.6688 172.648 39.8317 172.595 39.9197 172.49C40.0165 172.384 40.0649 172.212 40.0649 171.975V170.773H41.3589V172.648H42.7982V173.823H41.3589V178.339H42.6925V179.514H41.4382ZM47.0014 179.673C46.5085 179.673 46.0683 179.589 45.681 179.422C45.2937 179.254 44.9636 179.017 44.6907 178.709C44.4178 178.392 44.2065 178.013 44.0569 177.573C43.9161 177.124 43.8456 176.627 43.8456 176.081C43.8456 175.535 43.9161 175.042 44.0569 174.602C44.2065 174.153 44.4178 173.775 44.6907 173.467C44.9636 173.15 45.2937 172.908 45.681 172.74C46.0683 172.573 46.5085 172.49 47.0014 172.49C47.5032 172.49 47.9433 172.578 48.3218 172.754C48.7091 172.93 49.0304 173.176 49.2857 173.493C49.541 173.801 49.7303 174.162 49.8535 174.576C49.9855 174.99 50.0516 175.434 50.0516 175.909V176.451H45.3377V176.675C45.3377 177.203 45.4917 177.639 45.7998 177.982C46.1167 178.317 46.5657 178.484 47.1467 178.484C47.5692 178.484 47.9257 178.392 48.2162 178.207C48.5067 178.022 48.7532 177.771 48.9556 177.454L49.8007 178.286C49.5454 178.709 49.1757 179.048 48.6915 179.303C48.2074 179.549 47.644 179.673 47.0014 179.673ZM47.0014 173.612C46.7549 173.612 46.5261 173.656 46.3148 173.744C46.1123 173.832 45.9363 173.955 45.7866 174.114C45.6458 174.272 45.5358 174.461 45.4565 174.681C45.3773 174.902 45.3377 175.144 45.3377 175.408V175.5H48.5331V175.368C48.5331 174.84 48.3966 174.417 48.1238 174.1C47.8509 173.775 47.4768 173.612 47.0014 173.612ZM51.6448 179.514V172.648H53.0841V173.968H53.1501C53.2469 173.616 53.4494 173.308 53.7575 173.044C54.0656 172.78 54.4925 172.648 55.0383 172.648H55.4212V174.034H54.8534C54.2812 174.034 53.8411 174.127 53.533 174.312C53.2337 174.497 53.0841 174.769 53.0841 175.13V179.514H51.6448ZM56.6995 179.514V172.648H58.1388V173.784H58.2048C58.3544 173.414 58.5789 173.106 58.8782 172.859C59.1863 172.613 59.6044 172.49 60.1326 172.49C60.8368 172.49 61.3826 172.723 61.7699 173.189C62.166 173.647 62.3641 174.303 62.3641 175.157V179.514H60.9248V175.342C60.9248 174.268 60.4935 173.731 59.6308 173.731C59.446 173.731 59.2611 173.757 59.0763 173.81C58.9002 173.854 58.7418 173.924 58.6009 174.021C58.4601 174.118 58.3456 174.241 58.2576 174.391C58.1784 174.541 58.1388 174.717 58.1388 174.919V179.514H56.6995ZM67.0526 179.673C66.5596 179.673 66.1195 179.589 65.7322 179.422C65.3448 179.254 65.0147 179.017 64.7419 178.709C64.469 178.392 64.2577 178.013 64.1081 177.573C63.9672 177.124 63.8968 176.627 63.8968 176.081C63.8968 175.535 63.9672 175.042 64.1081 174.602C64.2577 174.153 64.469 173.775 64.7419 173.467C65.0147 173.15 65.3448 172.908 65.7322 172.74C66.1195 172.573 66.5596 172.49 67.0526 172.49C67.5543 172.49 67.9945 172.578 68.373 172.754C68.7603 172.93 69.0816 173.176 69.3369 173.493C69.5922 173.801 69.7814 174.162 69.9047 174.576C70.0367 174.99 70.1027 175.434 70.1027 175.909V176.451H65.3889V176.675C65.3889 177.203 65.5429 177.639 65.851 177.982C66.1679 178.317 66.6168 178.484 67.1978 178.484C67.6204 178.484 67.9769 178.392 68.2674 178.207C68.5578 178.022 68.8043 177.771 69.0068 177.454L69.8518 178.286C69.5966 178.709 69.2269 179.048 68.7427 179.303C68.2586 179.549 67.6952 179.673 67.0526 179.673ZM67.0526 173.612C66.8061 173.612 66.5772 173.656 66.366 173.744C66.1635 173.832 65.9874 173.955 65.8378 174.114C65.697 174.272 65.5869 174.461 65.5077 174.681C65.4285 174.902 65.3889 175.144 65.3889 175.408V175.5H68.5843V175.368C68.5843 174.84 68.4478 174.417 68.1749 174.1C67.902 173.775 67.5279 173.612 67.0526 173.612ZM73.5974 179.514C73.0956 179.514 72.7171 179.387 72.4618 179.131C72.2065 178.867 72.0789 178.497 72.0789 178.022V173.823H71.0094V172.648H71.5904C71.828 172.648 71.9909 172.595 72.0789 172.49C72.1757 172.384 72.2242 172.212 72.2242 171.975V170.773H73.5182V172.648H74.9574V173.823H73.5182V178.339H74.8518V179.514H73.5974ZM82.2931 179.673C81.8002 179.673 81.36 179.589 80.9727 179.422C80.5854 179.254 80.2597 179.017 79.9956 178.709C79.7315 178.392 79.529 178.013 79.3882 177.573C79.2474 177.124 79.1769 176.627 79.1769 176.081C79.1769 175.535 79.2474 175.042 79.3882 174.602C79.529 174.153 79.7315 173.775 79.9956 173.467C80.2597 173.15 80.5854 172.908 80.9727 172.74C81.36 172.573 81.8002 172.49 82.2931 172.49C82.9797 172.49 83.5431 172.644 83.9832 172.952C84.4234 173.26 84.7447 173.669 84.9471 174.18L83.7588 174.734C83.6619 174.417 83.4903 174.166 83.2438 173.982C83.0061 173.788 82.6892 173.691 82.2931 173.691C81.7649 173.691 81.3644 173.858 81.0915 174.193C80.8275 174.519 80.6954 174.946 80.6954 175.474V176.702C80.6954 177.23 80.8275 177.661 81.0915 177.996C81.3644 178.321 81.7649 178.484 82.2931 178.484C82.7156 178.484 83.0501 178.383 83.2966 178.181C83.5519 177.969 83.7544 177.692 83.904 177.349L85 177.93C84.7711 178.493 84.4278 178.924 83.97 179.224C83.5123 179.523 82.9533 179.673 82.2931 179.673ZM88.9864 179.673C88.511 179.673 88.0753 179.589 87.6791 179.422C87.2918 179.254 86.9617 179.017 86.6888 178.709C86.416 178.392 86.2047 178.013 86.055 177.573C85.9054 177.124 85.8306 176.627 85.8306 176.081C85.8306 175.535 85.9054 175.042 86.055 174.602C86.2047 174.153 86.416 173.775 86.6888 173.467C86.9617 173.15 87.2918 172.908 87.6791 172.74C88.0753 172.573 88.511 172.49 88.9864 172.49C89.4617 172.49 89.893 172.573 90.2804 172.74C90.6765 172.908 91.011 173.15 91.2839 173.467C91.5568 173.775 91.768 174.153 91.9177 174.602C92.0673 175.042 92.1421 175.535 92.1421 176.081C92.1421 176.627 92.0673 177.124 91.9177 177.573C91.768 178.013 91.5568 178.392 91.2839 178.709C91.011 179.017 90.6765 179.254 90.2804 179.422C89.893 179.589 89.4617 179.673 88.9864 179.673ZM88.9864 178.484C89.4793 178.484 89.8754 178.335 90.1747 178.035C90.474 177.727 90.6237 177.269 90.6237 176.662V175.5C90.6237 174.893 90.474 174.439 90.1747 174.14C89.8754 173.832 89.4793 173.678 88.9864 173.678C88.4934 173.678 88.0973 173.832 87.798 174.14C87.4987 174.439 87.349 174.893 87.349 175.5V176.662C87.349 177.269 87.4987 177.727 87.798 178.035C88.0973 178.335 88.4934 178.484 88.9864 178.484ZM93.7458 179.514V172.648H95.1851V173.784H95.2511C95.4007 173.414 95.6252 173.106 95.9245 172.859C96.2326 172.613 96.6507 172.49 97.1789 172.49C97.8831 172.49 98.4289 172.723 98.8162 173.189C99.2123 173.647 99.4104 174.303 99.4104 175.157V179.514H97.9711V175.342C97.9711 174.268 97.5398 173.731 96.6771 173.731C96.4923 173.731 96.3074 173.757 96.1226 173.81C95.9465 173.854 95.7881 173.924 95.6472 174.021C95.5064 174.118 95.3919 174.241 95.3039 174.391C95.2247 174.541 95.1851 174.717 95.1851 174.919V179.514H93.7458ZM101.405 179.514V172.648H102.844V173.784H102.911C103.06 173.414 103.285 173.106 103.584 172.859C103.892 172.613 104.31 172.49 104.838 172.49C105.543 172.49 106.088 172.723 106.476 173.189C106.872 173.647 107.07 174.303 107.07 175.157V179.514H105.631V175.342C105.631 174.268 105.199 173.731 104.337 173.731C104.152 173.731 103.967 173.757 103.782 173.81C103.606 173.854 103.447 173.924 103.307 174.021C103.166 174.118 103.051 174.241 102.963 174.391C102.884 174.541 102.844 174.717 102.844 174.919V179.514H101.405ZM111.758 179.673C111.265 179.673 110.825 179.589 110.438 179.422C110.051 179.254 109.72 179.017 109.448 178.709C109.175 178.392 108.963 178.013 108.814 177.573C108.673 177.124 108.603 176.627 108.603 176.081C108.603 175.535 108.673 175.042 108.814 174.602C108.963 174.153 109.175 173.775 109.448 173.467C109.72 173.15 110.051 172.908 110.438 172.74C110.825 172.573 111.265 172.49 111.758 172.49C112.26 172.49 112.7 172.578 113.079 172.754C113.466 172.93 113.787 173.176 114.043 173.493C114.298 173.801 114.487 174.162 114.61 174.576C114.742 174.99 114.808 175.434 114.808 175.909V176.451H110.095V176.675C110.095 177.203 110.249 177.639 110.557 177.982C110.874 178.317 111.323 178.484 111.904 178.484C112.326 178.484 112.683 178.392 112.973 178.207C113.264 178.022 113.51 177.771 113.712 177.454L114.558 178.286C114.302 178.709 113.933 179.048 113.448 179.303C112.964 179.549 112.401 179.673 111.758 179.673ZM111.758 173.612C111.512 173.612 111.283 173.656 111.072 173.744C110.869 173.832 110.693 173.955 110.544 174.114C110.403 174.272 110.293 174.461 110.213 174.681C110.134 174.902 110.095 175.144 110.095 175.408V175.5H113.29V175.368C113.29 174.84 113.154 174.417 112.881 174.1C112.608 173.775 112.234 173.612 111.758 173.612ZM119.056 179.673C118.563 179.673 118.123 179.589 117.735 179.422C117.348 179.254 117.022 179.017 116.758 178.709C116.494 178.392 116.292 178.013 116.151 177.573C116.01 177.124 115.94 176.627 115.94 176.081C115.94 175.535 116.01 175.042 116.151 174.602C116.292 174.153 116.494 173.775 116.758 173.467C117.022 173.15 117.348 172.908 117.735 172.74C118.123 172.573 118.563 172.49 119.056 172.49C119.742 172.49 120.306 172.644 120.746 172.952C121.186 173.26 121.507 173.669 121.71 174.18L120.521 174.734C120.425 174.417 120.253 174.166 120.006 173.982C119.769 173.788 119.452 173.691 119.056 173.691C118.528 173.691 118.127 173.858 117.854 174.193C117.59 174.519 117.458 174.946 117.458 175.474V176.702C117.458 177.23 117.59 177.661 117.854 177.996C118.127 178.321 118.528 178.484 119.056 178.484C119.478 178.484 119.813 178.383 120.059 178.181C120.315 177.969 120.517 177.692 120.667 177.349L121.763 177.93C121.534 178.493 121.19 178.924 120.733 179.224C120.275 179.523 119.716 179.673 119.056 179.673ZM125.034 179.514C124.532 179.514 124.154 179.387 123.899 179.131C123.643 178.867 123.516 178.497 123.516 178.022V173.823H122.446V172.648H123.027C123.265 172.648 123.428 172.595 123.516 172.49C123.612 172.384 123.661 172.212 123.661 171.975V170.773H124.955V172.648H126.394V173.823H124.955V178.339H126.288V179.514H125.034ZM128.682 171.42C128.382 171.42 128.162 171.35 128.021 171.209C127.889 171.068 127.823 170.887 127.823 170.667V170.443C127.823 170.223 127.889 170.042 128.021 169.902C128.162 169.761 128.382 169.69 128.682 169.69C128.981 169.69 129.196 169.761 129.329 169.902C129.461 170.042 129.527 170.223 129.527 170.443V170.667C129.527 170.887 129.461 171.068 129.329 171.209C129.196 171.35 128.981 171.42 128.682 171.42ZM127.955 172.648H129.395V179.514H127.955V172.648ZM134.143 179.673C133.668 179.673 133.232 179.589 132.836 179.422C132.449 179.254 132.119 179.017 131.846 178.709C131.573 178.392 131.362 178.013 131.212 177.573C131.062 177.124 130.988 176.627 130.988 176.081C130.988 175.535 131.062 175.042 131.212 174.602C131.362 174.153 131.573 173.775 131.846 173.467C132.119 173.15 132.449 172.908 132.836 172.74C133.232 172.573 133.668 172.49 134.143 172.49C134.619 172.49 135.05 172.573 135.437 172.74C135.834 172.908 136.168 173.15 136.441 173.467C136.714 173.775 136.925 174.153 137.075 174.602C137.224 175.042 137.299 175.535 137.299 176.081C137.299 176.627 137.224 177.124 137.075 177.573C136.925 178.013 136.714 178.392 136.441 178.709C136.168 179.017 135.834 179.254 135.437 179.422C135.05 179.589 134.619 179.673 134.143 179.673ZM134.143 178.484C134.636 178.484 135.032 178.335 135.332 178.035C135.631 177.727 135.781 177.269 135.781 176.662V175.5C135.781 174.893 135.631 174.439 135.332 174.14C135.032 173.832 134.636 173.678 134.143 173.678C133.65 173.678 133.254 173.832 132.955 174.14C132.656 174.439 132.506 174.893 132.506 175.5V176.662C132.506 177.269 132.656 177.727 132.955 178.035C133.254 178.335 133.65 178.484 134.143 178.484ZM138.903 179.514V172.648H140.342V173.784H140.408C140.558 173.414 140.782 173.106 141.082 172.859C141.39 172.613 141.808 172.49 142.336 172.49C143.04 172.49 143.586 172.723 143.973 173.189C144.369 173.647 144.567 174.303 144.567 175.157V179.514H143.128V175.342C143.128 174.268 142.697 173.731 141.834 173.731C141.649 173.731 141.464 173.757 141.28 173.81C141.104 173.854 140.945 173.924 140.804 174.021C140.663 174.118 140.549 174.241 140.461 174.391C140.382 174.541 140.342 174.717 140.342 174.919V179.514H138.903Z" fill="#7F7F7F"/>
<path d="M30.1427 156.551C28.9974 156.551 28.0213 156.342 27.2144 155.926C26.4205 155.51 25.7373 154.95 25.1646 154.247L26.6873 152.822C27.1689 153.408 27.6959 153.85 28.2686 154.149C28.8542 154.449 29.518 154.598 30.2598 154.598C31.1318 154.598 31.789 154.403 32.2315 154.013C32.674 153.622 32.8952 153.095 32.8952 152.432C32.8952 151.898 32.7391 151.475 32.4267 151.163C32.1144 150.85 31.5612 150.616 30.7674 150.46L29.557 150.245C28.2295 149.998 27.2339 149.562 26.5702 148.937C25.9064 148.312 25.5746 147.454 25.5746 146.36C25.5746 145.762 25.6852 145.222 25.9064 144.74C26.1407 144.245 26.4596 143.835 26.863 143.51C27.2795 143.172 27.7805 142.911 28.3662 142.729C28.9518 142.547 29.6091 142.456 30.3379 142.456C31.366 142.456 32.2575 142.638 33.0124 143.003C33.7672 143.354 34.4114 143.868 34.945 144.545L33.4028 145.911C33.0514 145.456 32.6219 145.091 32.1144 144.818C31.6068 144.545 30.9756 144.408 30.2208 144.408C29.4399 144.408 28.8347 144.564 28.4052 144.877C27.9758 145.189 27.761 145.645 27.761 146.243C27.761 146.816 27.9367 147.245 28.2881 147.532C28.6395 147.805 29.1861 148.013 29.9279 148.156L31.1383 148.41C32.5048 148.67 33.5004 149.113 34.1251 149.738C34.7628 150.362 35.0817 151.221 35.0817 152.314C35.0817 152.952 34.9711 153.531 34.7498 154.052C34.5286 154.572 34.2032 155.021 33.7737 155.399C33.3573 155.763 32.8432 156.05 32.2315 156.258C31.6198 156.453 30.9235 156.551 30.1427 156.551ZM38.6474 144.35C38.205 144.35 37.8796 144.245 37.6714 144.037C37.4761 143.829 37.3785 143.562 37.3785 143.237V142.905C37.3785 142.58 37.4761 142.313 37.6714 142.105C37.8796 141.896 38.205 141.792 38.6474 141.792C39.0899 141.792 39.4088 141.896 39.604 142.105C39.7992 142.313 39.8968 142.58 39.8968 142.905V143.237C39.8968 143.562 39.7992 143.829 39.604 144.037C39.4088 144.245 39.0899 144.35 38.6474 144.35ZM37.5737 146.165H39.7016V156.316H37.5737V146.165ZM45.5513 156.316C44.8095 156.316 44.2498 156.128 43.8724 155.75C43.495 155.36 43.3063 154.813 43.3063 154.11V147.903H41.725V146.165H42.584C42.9354 146.165 43.1761 146.087 43.3063 145.931C43.4494 145.775 43.521 145.521 43.521 145.169V143.393H45.4342V146.165H47.562V147.903H45.4342V154.579H47.4059V156.316H45.5513ZM56.0195 154.638H55.9414C55.8503 154.885 55.7267 155.126 55.5705 155.36C55.4274 155.594 55.2387 155.802 55.0044 155.985C54.7832 156.154 54.5098 156.29 54.1845 156.394C53.8721 156.499 53.5077 156.551 53.0913 156.551C52.0371 156.551 51.2172 156.212 50.6315 155.536C50.0589 154.859 49.7726 153.889 49.7726 152.627V146.165H51.9004V152.353C51.9004 153.928 52.5512 154.716 53.8526 154.716C54.1259 154.716 54.3927 154.683 54.653 154.618C54.9133 154.54 55.1411 154.429 55.3363 154.286C55.5445 154.143 55.7072 153.961 55.8243 153.74C55.9545 153.518 56.0195 153.258 56.0195 152.959V146.165H58.1474V156.316H56.0195V154.638ZM68.6321 156.316C68.0725 156.316 67.643 156.16 67.3437 155.848C67.0443 155.523 66.8621 155.113 66.7971 154.618H66.6995C66.5042 155.256 66.1463 155.737 65.6258 156.063C65.1052 156.388 64.474 156.551 63.7322 156.551C62.678 156.551 61.8646 156.277 61.2919 155.731C60.7323 155.184 60.4525 154.449 60.4525 153.525C60.4525 152.51 60.8169 151.748 61.5457 151.241C62.2875 150.733 63.3677 150.479 64.7863 150.479H66.6214V149.62C66.6214 148.996 66.4522 148.514 66.1138 148.176C65.7754 147.837 65.2483 147.668 64.5325 147.668C63.9339 147.668 63.4458 147.798 63.0684 148.059C62.691 148.319 62.3721 148.651 62.1118 149.054L60.8429 147.903C61.1813 147.33 61.6563 146.861 62.268 146.497C62.8797 146.12 63.6801 145.931 64.6692 145.931C65.9837 145.931 66.9923 146.237 67.6951 146.848C68.3979 147.46 68.7492 148.339 68.7492 149.484V154.579H69.8229V156.316H68.6321ZM64.3373 154.93C65.0011 154.93 65.5477 154.787 65.9772 154.501C66.4066 154.202 66.6214 153.805 66.6214 153.31V151.846H64.8254C63.3547 151.846 62.6194 152.301 62.6194 153.212V153.564C62.6194 154.019 62.7691 154.364 63.0684 154.598C63.3808 154.82 63.8037 154.93 64.3373 154.93ZM74.6624 156.316C73.9205 156.316 73.3609 156.128 72.9835 155.75C72.6061 155.36 72.4174 154.813 72.4174 154.11V147.903H70.8361V146.165H71.695C72.0464 146.165 72.2872 146.087 72.4174 145.931C72.5605 145.775 72.6321 145.521 72.6321 145.169V143.393H74.5452V146.165H76.6731V147.903H74.5452V154.579H76.5169V156.316H74.6624ZM80.0549 144.35C79.6124 144.35 79.2871 144.245 79.0789 144.037C78.8836 143.829 78.786 143.562 78.786 143.237V142.905C78.786 142.58 78.8836 142.313 79.0789 142.105C79.2871 141.896 79.6124 141.792 80.0549 141.792C80.4974 141.792 80.8163 141.896 81.0115 142.105C81.2067 142.313 81.3043 142.58 81.3043 142.905V143.237C81.3043 143.562 81.2067 143.829 81.0115 144.037C80.8163 144.245 80.4974 144.35 80.0549 144.35ZM78.9812 146.165H81.1091V156.316H78.9812V146.165ZM88.1301 156.551C87.4273 156.551 86.7831 156.427 86.1974 156.18C85.6248 155.932 85.1368 155.581 84.7333 155.126C84.3299 154.657 84.0175 154.097 83.7963 153.447C83.575 152.783 83.4644 152.048 83.4644 151.241C83.4644 150.434 83.575 149.705 83.7963 149.054C84.0175 148.391 84.3299 147.831 84.7333 147.375C85.1368 146.907 85.6248 146.549 86.1974 146.302C86.7831 146.054 87.4273 145.931 88.1301 145.931C88.8329 145.931 89.4706 146.054 90.0432 146.302C90.6289 146.549 91.1234 146.907 91.5269 147.375C91.9303 147.831 92.2427 148.391 92.4639 149.054C92.6852 149.705 92.7958 150.434 92.7958 151.241C92.7958 152.048 92.6852 152.783 92.4639 153.447C92.2427 154.097 91.9303 154.657 91.5269 155.126C91.1234 155.581 90.6289 155.932 90.0432 156.18C89.4706 156.427 88.8329 156.551 88.1301 156.551ZM88.1301 154.794C88.8589 154.794 89.4446 154.572 89.887 154.13C90.3295 153.674 90.5508 152.998 90.5508 152.1V150.382C90.5508 149.484 90.3295 148.814 89.887 148.371C89.4446 147.916 88.8589 147.688 88.1301 147.688C87.4013 147.688 86.8156 147.916 86.3731 148.371C85.9306 148.814 85.7094 149.484 85.7094 150.382V152.1C85.7094 152.998 85.9306 153.674 86.3731 154.13C86.8156 154.572 87.4013 154.794 88.1301 154.794ZM95.1668 156.316V146.165H97.2946V147.844H97.3923C97.6135 147.297 97.9454 146.842 98.3879 146.477C98.8434 146.113 99.4616 145.931 100.242 145.931C101.284 145.931 102.09 146.276 102.663 146.965C103.249 147.642 103.542 148.612 103.542 149.874V156.316H101.414V150.148C101.414 148.56 100.776 147.766 99.5006 147.766C99.2273 147.766 98.954 147.805 98.6807 147.883C98.4204 147.948 98.1861 148.052 97.9779 148.195C97.7697 148.339 97.6005 148.521 97.4703 148.742C97.3532 148.963 97.2946 149.223 97.2946 149.523V156.316H95.1668ZM113.929 156.316C113.369 156.316 112.94 156.16 112.64 155.848C112.341 155.523 112.159 155.113 112.094 154.618H111.996C111.801 155.256 111.443 155.737 110.922 156.063C110.402 156.388 109.771 156.551 109.029 156.551C107.975 156.551 107.161 156.277 106.589 155.731C106.029 155.184 105.749 154.449 105.749 153.525C105.749 152.51 106.113 151.748 106.842 151.241C107.584 150.733 108.664 150.479 110.083 150.479H111.918V149.62C111.918 148.996 111.749 148.514 111.41 148.176C111.072 147.837 110.545 147.668 109.829 147.668C109.23 147.668 108.742 147.798 108.365 148.059C107.988 148.319 107.669 148.651 107.408 149.054L106.14 147.903C106.478 147.33 106.953 146.861 107.565 146.497C108.176 146.12 108.977 145.931 109.966 145.931C111.28 145.931 112.289 146.237 112.992 146.848C113.694 147.46 114.046 148.339 114.046 149.484V154.579H115.12V156.316H113.929ZM109.634 154.93C110.298 154.93 110.844 154.787 111.274 154.501C111.703 154.202 111.918 153.805 111.918 153.31V151.846H110.122C108.651 151.846 107.916 152.301 107.916 153.212V153.564C107.916 154.019 108.066 154.364 108.365 154.598C108.677 154.82 109.1 154.93 109.634 154.93ZM119.372 156.316C118.643 156.316 118.097 156.134 117.732 155.77C117.381 155.392 117.205 154.872 117.205 154.208V141.87H119.333V154.579H120.738V156.316H119.372Z" fill="#303030"/>
</svg>
