<svg width="13" height="13" viewBox="0 0 13 13" fill="none" xmlns="http://www.w3.org/2000/svg">
<path d="M6.49056 0.40566C6.49056 0.298072 6.44782 0.194891 6.37174 0.118815C6.29567 0.042739 6.19249 0 6.0849 0C5.97731 0 5.87413 0.042739 5.79805 0.118815C5.72198 0.194891 5.67924 0.298072 5.67924 0.40566V5.10591L3.21661 2.6422C3.17921 2.60344 3.13446 2.57251 3.08498 2.55123C3.0355 2.52994 2.98227 2.51873 2.92841 2.51824C2.87455 2.51774 2.82113 2.52798 2.77126 2.54835C2.7214 2.56873 2.67609 2.59883 2.63799 2.6369C2.59988 2.67497 2.56974 2.72025 2.54932 2.77009C2.5289 2.81994 2.51861 2.87335 2.51905 2.92721C2.51949 2.98107 2.53066 3.03431 2.55189 3.08381C2.57313 3.13331 2.60401 3.17809 2.64274 3.21553L5.10591 5.67924H0.40566C0.298072 5.67924 0.194891 5.72198 0.118815 5.79805C0.042739 5.87413 0 5.97731 0 6.0849C0 6.19249 0.042739 6.29567 0.118815 6.37174C0.194891 6.44782 0.298072 6.49056 0.40566 6.49056H5.10591L2.64274 8.95318C2.56881 9.02966 2.52787 9.13211 2.52874 9.23847C2.52962 9.34483 2.57223 9.4466 2.64741 9.52185C2.72259 9.5971 2.82431 9.63981 2.93068 9.64078C3.03704 9.64176 3.13953 9.60092 3.21607 9.52706L5.67924 7.06443V11.7641C5.67924 11.8717 5.72198 11.9749 5.79805 12.051C5.87413 12.1271 5.97731 12.1698 6.0849 12.1698C6.19249 12.1698 6.29567 12.1271 6.37174 12.051C6.44782 11.9749 6.49056 11.8717 6.49056 11.7641V7.06389L8.95318 9.52706C9.02966 9.60099 9.13211 9.64193 9.23847 9.64105C9.34483 9.64018 9.4466 9.59756 9.52185 9.52239C9.5971 9.44721 9.63981 9.34548 9.64078 9.23912C9.64176 9.13276 9.60092 9.03027 9.52706 8.95372L7.06443 6.49056H11.7641C11.8717 6.49056 11.9749 6.44782 12.051 6.37174C12.1271 6.29567 12.1698 6.19249 12.1698 6.0849C12.1698 5.97731 12.1271 5.87413 12.051 5.79805C11.9749 5.72198 11.8717 5.67924 11.7641 5.67924H7.06389L9.52706 3.21661C9.56582 3.17921 9.59674 3.13446 9.61803 3.08498C9.63931 3.0355 9.65053 2.98227 9.65102 2.92841C9.65151 2.87455 9.64127 2.82113 9.6209 2.77126C9.60053 2.7214 9.57043 2.67609 9.53236 2.63799C9.49428 2.59988 9.44901 2.56974 9.39916 2.54932C9.34932 2.5289 9.29591 2.51861 9.24204 2.51905C9.18818 2.51949 9.13494 2.53066 9.08544 2.55189C9.03594 2.57313 8.99116 2.60401 8.95372 2.64274L6.49056 5.10536V0.40566Z" fill="white"/>
</svg>
