<svg width="146" height="186" viewBox="0 0 146 186" fill="none" xmlns="http://www.w3.org/2000/svg">
<path d="M63.7021 16.9292V19.2732V22.4767C63.7021 29.8213 69.1715 36.1501 76.5161 36.7752C84.8764 37.4784 91.8303 30.9933 91.8303 22.7892V16.9292" stroke="#121212" stroke-width="2.34401" stroke-miterlimit="10"/>
<path d="M63.7021 16.929V15.5226C63.7021 8.17803 69.1715 1.8492 76.5161 1.22413C84.8764 0.520923 91.8303 7.00603 91.8303 15.2101V16.929" stroke="#121212" stroke-width="2.34401" stroke-miterlimit="10"/>
<path d="M64.874 21.0703V22.7893H66.1242C66.4368 25.4458 68.6245 27.4773 71.3592 27.4773C74.0939 27.4773 76.2816 25.4458 76.5941 22.7893H79.0944C79.407 25.4458 81.5947 27.4773 84.3294 27.4773C87.064 27.4773 89.2519 25.4458 89.5644 22.7893H90.8145V21.0703H64.874Z" stroke="#121212" stroke-width="2.34401" stroke-miterlimit="10"/>
<path d="M85.4235 79.0458H64.3274V62.8721C64.3274 60.0593 63.7023 57.2465 62.3741 54.6681L61.9834 53.8086" stroke="#121212" stroke-width="2.34401" stroke-miterlimit="10"/>
<path d="M68.39 39.1973C61.7486 42.7914 56.6699 49.9016 56.6699 57.9494V81.3896H64.874" stroke="#121212" stroke-width="2.34401" stroke-miterlimit="10"/>
<path d="M87.7676 39.3535C94.409 42.9477 98.8625 49.9016 98.8625 57.9494" stroke="#121212" stroke-width="2.34401" stroke-miterlimit="10"/>
<path d="M85.4233 80.2173L47.1377 121.863" stroke="#121212" stroke-width="2.34401" stroke-miterlimit="10"/>
<path d="M63.1553 21.0703L66.6713 19.3514H71.8281C76.3599 19.3514 80.7354 17.4762 83.7826 14.1164L85.4234 12.3193H86.0485L87.2205 15.7572C87.9237 17.7106 89.7989 19.117 91.9086 19.117" stroke="#121212" stroke-width="2.34401" stroke-miterlimit="10"/>
<path d="M76.0479 90.766V111.862H74.8759V116.55H67.8439V115.378L69.5628 113.034V111.315H66.6719V79.0459" stroke="#121212" stroke-width="2.34401" stroke-miterlimit="10"/>
<path d="M87.7675 81.3896V111.315H85.9704V113.034L90.6584 115.378V116.55H80.7355V111.315H79.5635V86.7027" stroke="#121212" stroke-width="2.34401" stroke-miterlimit="10"/>
<path d="M64.3276 79.6709V87.875H61.1242L59.9521 84.3589V81.3899" stroke="#121212" stroke-width="2.34401" stroke-miterlimit="10"/>
<path d="M68.8594 33.3375V39.7444L69.0156 39.8226C75.11 41.6978 81.6733 41.6978 87.7677 39.7444V32.7124" stroke="#121212" stroke-width="2.34401" stroke-miterlimit="10"/>
<path d="M78.3916 42.1663V61.4653H87.7677V39.8223" stroke="#121212" stroke-width="2.34401" stroke-miterlimit="10"/>
<path d="M77.7656 52.7144H87.7668" stroke="#121212" stroke-width="2.34401" stroke-miterlimit="10"/>
<path d="M77.7656 56.7773H87.7668" stroke="#121212" stroke-width="2.34401" stroke-miterlimit="10"/>
<path d="M79.5635 62.0908V65.6068" stroke="#121212" stroke-width="2.34401" stroke-miterlimit="10"/>
<path d="M83.0791 62.0908V65.6068" stroke="#121212" stroke-width="2.34401" stroke-miterlimit="10"/>
<path d="M86.5957 62.0908V65.6068" stroke="#121212" stroke-width="2.34401" stroke-miterlimit="10"/>
<path d="M98.8621 57.9492V72.6384L95.9712 76.7013H92.0645L89.7205 81.3894H83.626V79.6704L88.9391 74.3573L93.002 72.0133" stroke="#121212" stroke-width="2.34401" stroke-miterlimit="10"/>
<path d="M51.8775 179.219C50.6715 179.219 49.7252 178.814 49.0386 178.004C48.352 177.186 48.0087 176.002 48.0087 174.452C48.0087 173.678 48.0967 172.995 48.2727 172.406C48.4488 171.816 48.7041 171.319 49.0386 170.914C49.3731 170.509 49.778 170.205 50.2534 170.003C50.7375 169.791 51.2789 169.686 51.8775 169.686C52.6785 169.686 53.3475 169.862 53.8845 170.214C54.4303 170.566 54.8572 171.085 55.1653 171.772L53.9109 172.458C53.7524 172.018 53.506 171.671 53.1715 171.415C52.8458 171.151 52.4144 171.019 51.8775 171.019C51.1644 171.019 50.6055 171.261 50.2005 171.745C49.7956 172.23 49.5932 172.899 49.5932 173.752V175.152C49.5932 176.006 49.7956 176.675 50.2005 177.159C50.6055 177.643 51.1644 177.885 51.8775 177.885C52.432 177.885 52.881 177.745 53.2243 177.463C53.5764 177.172 53.8361 176.803 54.0033 176.354L55.2049 177.08C54.8968 177.749 54.4655 178.273 53.9109 178.651C53.3563 179.03 52.6785 179.219 51.8775 179.219ZM61.7117 179.061C61.3332 179.061 61.0427 178.955 60.8403 178.744C60.6378 178.524 60.5146 178.246 60.4706 177.912H60.4045C60.2725 178.343 60.0304 178.669 59.6783 178.889C59.3262 179.109 58.8993 179.219 58.3975 179.219C57.6845 179.219 57.1343 179.034 56.747 178.664C56.3685 178.295 56.1792 177.797 56.1792 177.172C56.1792 176.486 56.4257 175.971 56.9186 175.627C57.4204 175.284 58.151 175.113 59.1105 175.113H60.3517V174.532C60.3517 174.109 60.2373 173.783 60.0084 173.554C59.7795 173.326 59.423 173.211 58.9389 173.211C58.5339 173.211 58.2038 173.299 57.9486 173.475C57.6933 173.651 57.4776 173.876 57.3016 174.149L56.4433 173.37C56.6722 172.982 56.9935 172.665 57.4072 172.419C57.8209 172.164 58.3623 172.036 59.0313 172.036C59.9204 172.036 60.6026 172.243 61.0779 172.657C61.5533 173.07 61.791 173.664 61.791 174.439V177.885H62.5172V179.061H61.7117ZM58.8068 178.123C59.2558 178.123 59.6255 178.026 59.916 177.833C60.2065 177.63 60.3517 177.362 60.3517 177.027V176.037H59.1369C58.1422 176.037 57.6449 176.345 57.6449 176.961V177.199C57.6449 177.507 57.7461 177.74 57.9486 177.899C58.1598 178.048 58.4459 178.123 58.8068 178.123ZM65.7905 179.061C65.2887 179.061 64.9102 178.933 64.6549 178.678C64.3996 178.414 64.272 178.044 64.272 177.568V173.37H63.2025V172.194H63.7834C64.0211 172.194 64.184 172.142 64.272 172.036C64.3688 171.93 64.4172 171.759 64.4172 171.521V170.319H65.7112V172.194H67.1505V173.37H65.7112V177.885H67.0449V179.061H65.7905ZM73.7424 179.061C73.3639 179.061 73.0734 178.955 72.871 178.744C72.6685 178.524 72.5453 178.246 72.5012 177.912H72.4352C72.3032 178.343 72.0611 178.669 71.709 178.889C71.3569 179.109 70.93 179.219 70.4282 179.219C69.7152 179.219 69.165 179.034 68.7777 178.664C68.3992 178.295 68.2099 177.797 68.2099 177.172C68.2099 176.486 68.4564 175.971 68.9493 175.627C69.4511 175.284 70.1817 175.113 71.1412 175.113H72.3824V174.532C72.3824 174.109 72.268 173.783 72.0391 173.554C71.8102 173.326 71.4537 173.211 70.9696 173.211C70.5646 173.211 70.2345 173.299 69.9793 173.475C69.724 173.651 69.5083 173.876 69.3323 174.149L68.474 173.37C68.7029 172.982 69.0242 172.665 69.4379 172.419C69.8516 172.164 70.393 172.036 71.062 172.036C71.9511 172.036 72.6333 172.243 73.1086 172.657C73.584 173.07 73.8217 173.664 73.8217 174.439V177.885H74.5479V179.061H73.7424ZM70.8375 178.123C71.2865 178.123 71.6562 178.026 71.9467 177.833C72.2372 177.63 72.3824 177.362 72.3824 177.027V176.037H71.1676C70.1729 176.037 69.6756 176.345 69.6756 176.961V177.199C69.6756 177.507 69.7768 177.74 69.9793 177.899C70.1905 178.048 70.4766 178.123 70.8375 178.123ZM75.9585 179.061V172.194H77.3977V173.515H77.4637C77.5606 173.163 77.763 172.855 78.0711 172.591C78.3792 172.326 78.8061 172.194 79.3519 172.194H79.7348V173.581H79.1671C78.5949 173.581 78.1547 173.673 77.8466 173.858C77.5474 174.043 77.3977 174.316 77.3977 174.677V179.061H75.9585ZM85.9408 179.061C85.5622 179.061 85.2718 178.955 85.0693 178.744C84.8668 178.524 84.7436 178.246 84.6996 177.912H84.6336C84.5015 178.343 84.2594 178.669 83.9073 178.889C83.5552 179.109 83.1283 179.219 82.6265 179.219C81.9135 179.219 81.3633 179.034 80.976 178.664C80.5975 178.295 80.4082 177.797 80.4082 177.172C80.4082 176.486 80.6547 175.971 81.1477 175.627C81.6494 175.284 82.3801 175.113 83.3396 175.113H84.5807V174.532C84.5807 174.109 84.4663 173.783 84.2374 173.554C84.0086 173.326 83.6521 173.211 83.1679 173.211C82.763 173.211 82.4329 173.299 82.1776 173.475C81.9223 173.651 81.7066 173.876 81.5306 174.149L80.6723 173.37C80.9012 172.982 81.2225 172.665 81.6362 172.419C82.05 172.164 82.5913 172.036 83.2603 172.036C84.1494 172.036 84.8316 172.243 85.307 172.657C85.7823 173.07 86.02 173.664 86.02 174.439V177.885H86.7462V179.061H85.9408ZM83.0359 178.123C83.4848 178.123 83.8545 178.026 84.145 177.833C84.4355 177.63 84.5807 177.362 84.5807 177.027V176.037H83.366C82.3713 176.037 81.8739 176.345 81.8739 176.961V177.199C81.8739 177.507 81.9751 177.74 82.1776 177.899C82.3889 178.048 82.6749 178.123 83.0359 178.123ZM90.8108 179.219C90.3179 179.219 89.8777 179.135 89.4904 178.968C89.1031 178.801 88.7774 178.563 88.5133 178.255C88.2492 177.938 88.0468 177.56 87.9059 177.12C87.7651 176.671 87.6946 176.173 87.6946 175.627C87.6946 175.082 87.7651 174.589 87.9059 174.149C88.0468 173.7 88.2492 173.321 88.5133 173.013C88.7774 172.696 89.1031 172.454 89.4904 172.287C89.8777 172.12 90.3179 172.036 90.8108 172.036C91.4974 172.036 92.0608 172.19 92.5009 172.498C92.9411 172.806 93.2624 173.216 93.4648 173.726L92.2765 174.281C92.1796 173.964 92.008 173.713 91.7615 173.528C91.5238 173.334 91.2069 173.238 90.8108 173.238C90.2826 173.238 89.8821 173.405 89.6092 173.739C89.3452 174.065 89.2131 174.492 89.2131 175.02V176.248C89.2131 176.776 89.3452 177.208 89.6092 177.542C89.8821 177.868 90.2826 178.031 90.8108 178.031C91.2333 178.031 91.5678 177.929 91.8143 177.727C92.0696 177.516 92.2721 177.238 92.4217 176.895L93.5177 177.476C93.2888 178.039 92.9455 178.471 92.4877 178.77C92.03 179.069 91.471 179.219 90.8108 179.219ZM96.7892 179.061C96.2874 179.061 95.9089 178.933 95.6536 178.678C95.3983 178.414 95.2707 178.044 95.2707 177.568V173.37H94.2012V172.194H94.7822C95.0198 172.194 95.1827 172.142 95.2707 172.036C95.3675 171.93 95.4159 171.759 95.4159 171.521V170.319H96.71V172.194H98.1492V173.37H96.71V177.885H98.0436V179.061H96.7892Z" fill="#7F7F7F"/>
<path d="M31.5692 144.189V155.863H29.3633V144.189H25.3028V142.237H35.6298V144.189H31.5692ZM40.329 156.097C39.6002 156.097 38.9495 155.973 38.3769 155.726C37.8042 155.479 37.3162 155.127 36.9127 154.672C36.5093 154.203 36.1969 153.644 35.9757 152.993C35.7674 152.329 35.6633 151.594 35.6633 150.787C35.6633 149.98 35.7674 149.251 35.9757 148.601C36.1969 147.937 36.5093 147.377 36.9127 146.922C37.3162 146.453 37.8042 146.095 38.3769 145.848C38.9495 145.601 39.6002 145.477 40.329 145.477C41.0709 145.477 41.7216 145.607 42.2812 145.868C42.8538 146.128 43.3289 146.492 43.7063 146.961C44.0837 147.416 44.3635 147.95 44.5457 148.562C44.7409 149.173 44.8386 149.831 44.8386 150.533V151.334H37.8693V151.666C37.8693 152.446 38.097 153.091 38.5525 153.598C39.0211 154.093 39.6848 154.34 40.5438 154.34C41.1685 154.34 41.6956 154.203 42.125 153.93C42.5545 153.657 42.9189 153.286 43.2183 152.817L44.4676 154.047C44.0902 154.672 43.5436 155.173 42.8278 155.55C42.112 155.915 41.2791 156.097 40.329 156.097ZM40.329 147.137C39.9646 147.137 39.6262 147.202 39.3139 147.332C39.0146 147.462 38.7543 147.644 38.533 147.878C38.3248 148.113 38.1621 148.392 38.045 148.718C37.9279 149.043 37.8693 149.401 37.8693 149.792V149.928H42.5936V149.733C42.5936 148.952 42.3918 148.327 41.9884 147.859C41.5849 147.377 41.0318 147.137 40.329 147.137ZM47.1941 155.863V145.711H49.322V147.39H49.4196C49.5237 147.13 49.6474 146.883 49.7905 146.649C49.9467 146.414 50.1289 146.213 50.3371 146.043C50.5584 145.861 50.8122 145.724 51.0985 145.633C51.3978 145.529 51.7427 145.477 52.1331 145.477C52.8229 145.477 53.4346 145.646 53.9682 145.985C54.5018 146.323 54.8922 146.844 55.1395 147.547H55.1981C55.3803 146.974 55.7317 146.486 56.2522 146.082C56.7728 145.679 57.4431 145.477 58.263 145.477C59.2781 145.477 60.0655 145.822 60.6251 146.512C61.1847 147.189 61.4645 148.158 61.4645 149.421V155.863H59.3367V149.674C59.3367 148.894 59.187 148.308 58.8877 147.917C58.5883 147.514 58.1133 147.312 57.4626 147.312C57.1893 147.312 56.929 147.351 56.6817 147.429C56.4344 147.494 56.2132 147.599 56.018 147.742C55.8358 147.885 55.6861 148.067 55.569 148.288C55.4518 148.51 55.3933 148.763 55.3933 149.05V155.863H53.2654V149.674C53.2654 148.1 52.6472 147.312 51.4108 147.312C51.1505 147.312 50.8903 147.351 50.63 147.429C50.3827 147.494 50.1614 147.599 49.9662 147.742C49.771 147.885 49.6148 148.067 49.4977 148.288C49.3806 148.51 49.322 148.763 49.322 149.05V155.863H47.1941ZM64.4091 145.711H66.537V147.39H66.6346C66.8559 146.779 67.2138 146.31 67.7083 145.985C68.2159 145.646 68.808 145.477 69.4848 145.477C70.7732 145.477 71.7688 145.946 72.4716 146.883C73.1744 147.807 73.5258 149.108 73.5258 150.787C73.5258 152.466 73.1744 153.774 72.4716 154.711C71.7688 155.635 70.7732 156.097 69.4848 156.097C68.808 156.097 68.2159 155.928 67.7083 155.589C67.2138 155.251 66.8559 154.783 66.6346 154.184H66.537V159.767H64.4091V145.711ZM68.8406 154.262C69.5824 154.262 70.1746 154.028 70.617 153.559C71.0595 153.078 71.2808 152.446 71.2808 151.666V149.909C71.2808 149.128 71.0595 148.503 70.617 148.035C70.1746 147.553 69.5824 147.312 68.8406 147.312C68.1898 147.312 67.6432 147.475 67.2007 147.8C66.7582 148.113 66.537 148.529 66.537 149.05V152.525C66.537 153.045 66.7582 153.468 67.2007 153.793C67.6432 154.106 68.1898 154.262 68.8406 154.262ZM79.9445 156.097C79.2417 156.097 78.5975 155.973 78.0118 155.726C77.4392 155.479 76.9512 155.127 76.5477 154.672C76.1443 154.203 75.8319 153.644 75.6107 152.993C75.3894 152.329 75.2788 151.594 75.2788 150.787C75.2788 149.98 75.3894 149.251 75.6107 148.601C75.8319 147.937 76.1443 147.377 76.5477 146.922C76.9512 146.453 77.4392 146.095 78.0118 145.848C78.5975 145.601 79.2417 145.477 79.9445 145.477C80.6473 145.477 81.285 145.601 81.8576 145.848C82.4433 146.095 82.9378 146.453 83.3413 146.922C83.7447 147.377 84.0571 147.937 84.2783 148.601C84.4996 149.251 84.6102 149.98 84.6102 150.787C84.6102 151.594 84.4996 152.329 84.2783 152.993C84.0571 153.644 83.7447 154.203 83.3413 154.672C82.9378 155.127 82.4433 155.479 81.8576 155.726C81.285 155.973 80.6473 156.097 79.9445 156.097ZM79.9445 154.34C80.6733 154.34 81.259 154.119 81.7014 153.676C82.1439 153.221 82.3652 152.544 82.3652 151.646V149.928C82.3652 149.03 82.1439 148.36 81.7014 147.917C81.259 147.462 80.6733 147.234 79.9445 147.234C79.2157 147.234 78.63 147.462 78.1875 147.917C77.745 148.36 77.5238 149.03 77.5238 149.928V151.646C77.5238 152.544 77.745 153.221 78.1875 153.676C78.63 154.119 79.2157 154.34 79.9445 154.34ZM86.9812 155.863V145.711H89.109V147.664H89.2066C89.3498 147.143 89.6491 146.688 90.1046 146.297C90.5602 145.907 91.1914 145.711 91.9983 145.711H92.5644V147.761H91.725C90.879 147.761 90.2283 147.898 89.7728 148.171C89.3303 148.445 89.109 148.848 89.109 149.382V155.863H86.9812ZM101.74 155.863C101.18 155.863 100.751 155.707 100.451 155.394C100.152 155.069 99.9696 154.659 99.9046 154.164H99.807C99.6117 154.802 99.2538 155.284 98.7333 155.609C98.2127 155.934 97.5815 156.097 96.8397 156.097C95.7855 156.097 94.9721 155.824 94.3994 155.277C93.8398 154.731 93.56 153.995 93.56 153.071C93.56 152.056 93.9244 151.295 94.6532 150.787C95.395 150.28 96.4753 150.026 97.8938 150.026H99.7289V149.167C99.7289 148.542 99.5597 148.061 99.2213 147.722C98.8829 147.384 98.3558 147.215 97.64 147.215C97.0414 147.215 96.5533 147.345 96.1759 147.605C95.7985 147.865 95.4796 148.197 95.2193 148.601L93.9504 147.449C94.2888 146.876 94.7638 146.408 95.3755 146.043C95.9872 145.666 96.7876 145.477 97.7767 145.477C99.0912 145.477 100.1 145.783 100.803 146.395C101.505 147.006 101.857 147.885 101.857 149.03V154.125H102.93V155.863H101.74ZM97.4448 154.477C98.1086 154.477 98.6552 154.334 99.0847 154.047C99.5141 153.748 99.7289 153.351 99.7289 152.856V151.392H97.9329C96.4622 151.392 95.7269 151.848 95.7269 152.759V153.11C95.7269 153.566 95.8766 153.911 96.1759 154.145C96.4883 154.366 96.9112 154.477 97.4448 154.477ZM105.016 155.863V145.711H107.144V147.664H107.241C107.385 147.143 107.684 146.688 108.139 146.297C108.595 145.907 109.226 145.711 110.033 145.711H110.599V147.761H109.76C108.914 147.761 108.263 147.898 107.808 148.171C107.365 148.445 107.144 148.848 107.144 149.382V155.863H105.016ZM118.888 145.711H120.938L116.663 157.874C116.546 158.212 116.409 158.498 116.253 158.732C116.11 158.98 115.934 159.175 115.726 159.318C115.53 159.474 115.29 159.585 115.003 159.65C114.717 159.728 114.379 159.767 113.988 159.767H112.758V158.03H114.476L115.062 156.312L111.372 145.711H113.5L115.53 151.685L116.116 153.891H116.214L116.858 151.685L118.888 145.711Z" fill="#303030"/>
</svg>
