<svg width="163" height="93" viewBox="0 0 163 93" fill="none" xmlns="http://www.w3.org/2000/svg">
<g clip-path="url(#clip0_447_2398)">
<mask id="path-1-inside-1_447_2398" fill="white">
<path fill-rule="evenodd" clip-rule="evenodd" d="M80.2314 0.0410036C80.5722 -0.625625 81.5255 -0.62567 81.8662 0.0410036L88.0986 12.2432H151.861C157.689 12.2433 162.413 16.9681 162.413 22.7959V81.9795C162.413 87.8073 157.689 92.5321 151.861 92.5322H10.5527C4.72487 92.5322 0 87.8073 0 81.9795V22.7959C0 16.968 4.72487 12.2432 10.5527 12.2432H73.999L80.2314 0.0410036Z"/>
</mask>
<path fill-rule="evenodd" clip-rule="evenodd" d="M80.2314 0.0410036C80.5722 -0.625625 81.5255 -0.62567 81.8662 0.0410036L88.0986 12.2432H151.861C157.689 12.2433 162.413 16.9681 162.413 22.7959V81.9795C162.413 87.8073 157.689 92.5321 151.861 92.5322H10.5527C4.72487 92.5322 0 87.8073 0 81.9795V22.7959C0 16.968 4.72487 12.2432 10.5527 12.2432H73.999L80.2314 0.0410036Z" fill="white"/>
<path d="M80.2314 0.0410036L79.251 -0.460135L79.2508 -0.459853L80.2314 0.0410036ZM81.8662 0.0410036L82.8468 -0.459853L82.8467 -0.46006L81.8662 0.0410036ZM88.0986 12.2432L87.118 12.744L87.4246 13.3443H88.0986V12.2432ZM151.861 12.2432L151.861 11.142H151.861V12.2432ZM151.861 92.5322V93.6333H151.861L151.861 92.5322ZM73.999 12.2432V13.3443H74.673L74.9796 12.744L73.999 12.2432ZM80.2314 0.0410036L81.2119 0.542142C81.1438 0.675346 80.9539 0.675578 80.8857 0.542067L81.8662 0.0410036L82.8467 -0.46006C82.0971 -1.92692 80.0005 -1.9266 79.251 -0.460135L80.2314 0.0410036ZM81.8662 0.0410036L80.8856 0.54186L87.118 12.744L88.0986 12.2432L89.0792 11.7423L82.8468 -0.459853L81.8662 0.0410036ZM88.0986 12.2432V13.3443H151.861V12.2432V11.142H88.0986V12.2432ZM151.861 12.2432L151.861 13.3443C157.081 13.3444 161.312 17.5761 161.312 22.7959H162.413H163.514C163.514 16.3601 158.297 11.1422 151.861 11.142L151.861 12.2432ZM162.413 22.7959H161.312V81.9795H162.413H163.514V22.7959H162.413ZM162.413 81.9795H161.312C161.312 87.1992 157.081 91.431 151.861 91.4311L151.861 92.5322L151.861 93.6333C158.297 93.6332 163.514 88.4153 163.514 81.9795H162.413ZM151.861 92.5322V91.4311H10.5527V92.5322V93.6333H151.861V92.5322ZM10.5527 92.5322V91.4311C5.333 91.4311 1.10111 87.1992 1.10111 81.9795H0H-1.10111C-1.10111 88.4155 4.11675 93.6333 10.5527 93.6333V92.5322ZM0 81.9795H1.10111V22.7959H0H-1.10111V81.9795H0ZM0 22.7959H1.10111C1.10111 17.5762 5.333 13.3443 10.5527 13.3443V12.2432V11.142C4.11675 11.142 -1.10111 16.3599 -1.10111 22.7959H0ZM10.5527 12.2432V13.3443H73.999V12.2432V11.142H10.5527V12.2432ZM73.999 12.2432L74.9796 12.744L81.212 0.54186L80.2314 0.0410036L79.2508 -0.459853L73.0184 11.7423L73.999 12.2432Z" fill="#121212" mask="url(#path-1-inside-1_447_2398)"/>
<path d="M17.0997 40.0637H14.4901V42.5742H13.5569V36.8099H14.4901V39.2379H17.0997V36.8099H18.0329V42.5742H17.0997V40.0637ZM22.5326 42.5742C22.2958 42.5742 22.1142 42.5082 21.9875 42.376C21.8609 42.2384 21.7838 42.065 21.7563 41.8557H21.715C21.6324 42.1255 21.481 42.3292 21.2608 42.4669C21.0406 42.6045 20.7736 42.6733 20.4597 42.6733C20.0138 42.6733 19.6697 42.5577 19.4275 42.3265C19.1907 42.0952 19.0723 41.7842 19.0723 41.3933C19.0723 40.9638 19.2265 40.6418 19.5348 40.4271C19.8486 40.2123 20.3056 40.105 20.9057 40.105H21.682V39.7416C21.682 39.4774 21.6104 39.2737 21.4673 39.1305C21.3241 38.9874 21.1011 38.9158 20.7983 38.9158C20.5451 38.9158 20.3386 38.9708 20.179 39.081C20.0193 39.1911 19.8844 39.3315 19.7743 39.5021L19.2375 39.0149C19.3807 38.7726 19.5816 38.5744 19.8404 38.4203C20.0991 38.2606 20.4377 38.1808 20.8561 38.1808C21.4122 38.1808 21.8389 38.3102 22.1362 38.5689C22.4335 38.8277 22.5821 39.1993 22.5821 39.6838V41.8392H23.0363V42.5742H22.5326ZM20.7157 41.9879C20.9965 41.9879 21.2278 41.9273 21.4094 41.8062C21.5911 41.6796 21.682 41.5117 21.682 41.3024V40.6831H20.9222C20.3001 40.6831 19.989 40.8758 19.989 41.2611V41.4098C19.989 41.6025 20.0523 41.7484 20.179 41.8475C20.3111 41.9411 20.49 41.9879 20.7157 41.9879ZM26.619 41.864H26.5777C26.4841 42.1173 26.33 42.3155 26.1153 42.4586C25.906 42.6017 25.6583 42.6733 25.372 42.6733C24.827 42.6733 24.4058 42.4779 24.1085 42.087C23.8112 41.6906 23.6625 41.1373 23.6625 40.4271C23.6625 39.7168 23.8112 39.1663 24.1085 38.7754C24.4058 38.379 24.827 38.1808 25.372 38.1808C25.6583 38.1808 25.906 38.2524 26.1153 38.3955C26.33 38.5332 26.4841 38.7314 26.5777 38.9901H26.619V36.4631H27.5192V42.5742H26.619V41.864ZM25.6445 41.897C25.9198 41.897 26.151 41.831 26.3382 41.6988C26.5254 41.5612 26.619 41.3823 26.619 41.162V39.6921C26.619 39.4718 26.5254 39.2957 26.3382 39.1635C26.151 39.0259 25.9198 38.9571 25.6445 38.9571C25.3307 38.9571 25.0802 39.0589 24.893 39.2626C24.7058 39.4608 24.6122 39.7251 24.6122 40.0554V40.7987C24.6122 41.129 24.7058 41.396 24.893 41.5997C25.0802 41.7979 25.3307 41.897 25.6445 41.897ZM32.4174 42.6733C32.1091 42.6733 31.8338 42.621 31.5915 42.5164C31.3493 42.4118 31.1456 42.2632 30.9804 42.0705C30.8153 41.8723 30.6886 41.6355 30.6005 41.3602C30.5125 41.0795 30.4684 40.7684 30.4684 40.4271C30.4684 40.0857 30.5125 39.7774 30.6005 39.5021C30.6886 39.2213 30.8153 38.9846 30.9804 38.7919C31.1456 38.5937 31.3493 38.4423 31.5915 38.3377C31.8338 38.2331 32.1091 38.1808 32.4174 38.1808C32.8468 38.1808 33.1992 38.2771 33.4744 38.4698C33.7497 38.6625 33.9507 38.9185 34.0773 39.2379L33.334 39.5847C33.2735 39.3865 33.1661 39.2296 33.012 39.114C32.8633 38.9929 32.6651 38.9323 32.4174 38.9323C32.087 38.9323 31.8365 39.0369 31.6659 39.2461C31.5007 39.4498 31.4181 39.7168 31.4181 40.0472V40.8152C31.4181 41.1455 31.5007 41.4153 31.6659 41.6245C31.8365 41.8282 32.087 41.9301 32.4174 41.9301C32.6816 41.9301 32.8908 41.8668 33.045 41.7401C33.2047 41.608 33.3313 41.4346 33.4249 41.2199L34.1103 41.5832C33.9672 41.9356 33.7525 42.2053 33.4662 42.3925C33.1799 42.5797 32.8303 42.6733 32.4174 42.6733ZM38.1137 42.5742C37.8769 42.5742 37.6952 42.5082 37.5686 42.376C37.442 42.2384 37.3649 42.065 37.3374 41.8557H37.2961C37.2135 42.1255 37.0621 42.3292 36.8419 42.4669C36.6217 42.6045 36.3546 42.6733 36.0408 42.6733C35.5949 42.6733 35.2508 42.5577 35.0085 42.3265C34.7718 42.0952 34.6534 41.7842 34.6534 41.3933C34.6534 40.9638 34.8076 40.6418 35.1159 40.4271C35.4297 40.2123 35.8867 40.105 36.4868 40.105H37.2631V39.7416C37.2631 39.4774 37.1915 39.2737 37.0483 39.1305C36.9052 38.9874 36.6822 38.9158 36.3794 38.9158C36.1262 38.9158 35.9197 38.9708 35.76 39.081C35.6004 39.1911 35.4655 39.3315 35.3554 39.5021L34.8186 39.0149C34.9617 38.7726 35.1627 38.5744 35.4215 38.4203C35.6802 38.2606 36.0188 38.1808 36.4372 38.1808C36.9933 38.1808 37.42 38.3102 37.7173 38.5689C38.0146 38.8277 38.1632 39.1993 38.1632 39.6838V41.8392H38.6174V42.5742H38.1137ZM36.2968 41.9879C36.5776 41.9879 36.8089 41.9273 36.9905 41.8062C37.1722 41.6796 37.2631 41.5117 37.2631 41.3024V40.6831H36.5033C35.8812 40.6831 35.5701 40.8758 35.5701 41.2611V41.4098C35.5701 41.6025 35.6334 41.7484 35.76 41.8475C35.8922 41.9411 36.0711 41.9879 36.2968 41.9879ZM40.6646 42.5742C40.3508 42.5742 40.1141 42.4944 39.9544 42.3347C39.7948 42.1696 39.7149 41.9383 39.7149 41.641V39.0149H39.046V38.2799H39.4094C39.558 38.2799 39.6599 38.2469 39.7149 38.1808C39.7755 38.1147 39.8058 38.0074 39.8058 37.8587V37.1072H40.6151V38.2799H41.5152V39.0149H40.6151V41.8392H41.4492V42.5742H40.6646ZM45.6381 42.5742C45.4013 42.5742 45.2197 42.5082 45.093 42.376C44.9664 42.2384 44.8893 42.065 44.8618 41.8557H44.8205C44.7379 42.1255 44.5865 42.3292 44.3663 42.4669C44.1461 42.6045 43.8791 42.6733 43.5652 42.6733C43.1193 42.6733 42.7752 42.5577 42.533 42.3265C42.2962 42.0952 42.1778 41.7842 42.1778 41.3933C42.1778 40.9638 42.332 40.6418 42.6403 40.4271C42.9541 40.2123 43.4111 40.105 44.0112 40.105H44.7875V39.7416C44.7875 39.4774 44.7159 39.2737 44.5728 39.1305C44.4296 38.9874 44.2066 38.9158 43.9038 38.9158C43.6506 38.9158 43.4441 38.9708 43.2845 39.081C43.1248 39.1911 42.9899 39.3315 42.8798 39.5021L42.343 39.0149C42.4862 38.7726 42.6871 38.5744 42.9459 38.4203C43.2046 38.2606 43.5432 38.1808 43.9616 38.1808C44.5177 38.1808 44.9444 38.3102 45.2417 38.5689C45.539 38.8277 45.6876 39.1993 45.6876 39.6838V41.8392H46.1418V42.5742H45.6381ZM43.8212 41.9879C44.102 41.9879 44.3333 41.9273 44.5149 41.8062C44.6966 41.6796 44.7875 41.5117 44.7875 41.3024V40.6831H44.0277C43.4056 40.6831 43.0945 40.8758 43.0945 41.2611V41.4098C43.0945 41.6025 43.1578 41.7484 43.2845 41.8475C43.4166 41.9411 43.5955 41.9879 43.8212 41.9879ZM47.0241 42.5742V38.2799H47.9242V39.1057H47.9655C48.0261 38.8855 48.1527 38.6928 48.3454 38.5277C48.5381 38.3625 48.8051 38.2799 49.1464 38.2799H49.3859V39.147H49.0308C48.673 39.147 48.3977 39.2048 48.205 39.3204C48.0178 39.4361 47.9242 39.6067 47.9242 39.8325V42.5742H47.0241ZM53.2673 42.5742C53.0306 42.5742 52.8489 42.5082 52.7223 42.376C52.5957 42.2384 52.5186 42.065 52.491 41.8557H52.4498C52.3672 42.1255 52.2158 42.3292 51.9956 42.4669C51.7753 42.6045 51.5083 42.6733 51.1945 42.6733C50.7485 42.6733 50.4045 42.5577 50.1622 42.3265C49.9255 42.0952 49.8071 41.7842 49.8071 41.3933C49.8071 40.9638 49.9613 40.6418 50.2696 40.4271C50.5834 40.2123 51.0403 40.105 51.6404 40.105H52.4167V39.7416C52.4167 39.4774 52.3452 39.2737 52.202 39.1305C52.0589 38.9874 51.8359 38.9158 51.5331 38.9158C51.2798 38.9158 51.0734 38.9708 50.9137 39.081C50.7541 39.1911 50.6192 39.3315 50.5091 39.5021L49.9723 39.0149C50.1154 38.7726 50.3164 38.5744 50.5751 38.4203C50.8339 38.2606 51.1725 38.1808 51.5909 38.1808C52.147 38.1808 52.5736 38.3102 52.8709 38.5689C53.1682 38.8277 53.3169 39.1993 53.3169 39.6838V41.8392H53.7711V42.5742H53.2673ZM51.4505 41.9879C51.7313 41.9879 51.9625 41.9273 52.1442 41.8062C52.3259 41.6796 52.4167 41.5117 52.4167 41.3024V40.6831H51.657C51.0348 40.6831 50.7238 40.8758 50.7238 41.2611V41.4098C50.7238 41.6025 50.7871 41.7484 50.9137 41.8475C51.0458 41.9411 51.2248 41.9879 51.4505 41.9879ZM56.3132 42.6733C56.0049 42.6733 55.7296 42.621 55.4874 42.5164C55.2451 42.4118 55.0414 42.2632 54.8763 42.0705C54.7111 41.8723 54.5845 41.6355 54.4964 41.3602C54.4083 41.0795 54.3643 40.7684 54.3643 40.4271C54.3643 40.0857 54.4083 39.7774 54.4964 39.5021C54.5845 39.2213 54.7111 38.9846 54.8763 38.7919C55.0414 38.5937 55.2451 38.4423 55.4874 38.3377C55.7296 38.2331 56.0049 38.1808 56.3132 38.1808C56.7427 38.1808 57.095 38.2771 57.3703 38.4698C57.6456 38.6625 57.8465 38.9185 57.9731 39.2379L57.2299 39.5847C57.1693 39.3865 57.062 39.2296 56.9078 39.114C56.7592 38.9929 56.561 38.9323 56.3132 38.9323C55.9829 38.9323 55.7324 39.0369 55.5617 39.2461C55.3966 39.4498 55.314 39.7168 55.314 40.0472V40.8152C55.314 41.1455 55.3966 41.4153 55.5617 41.6245C55.7324 41.8282 55.9829 41.9301 56.3132 41.9301C56.5775 41.9301 56.7867 41.8668 56.9409 41.7401C57.1005 41.608 57.2271 41.4346 57.3207 41.2199L58.0062 41.5832C57.863 41.9356 57.6483 42.2053 57.362 42.3925C57.0757 42.5797 56.7261 42.6733 56.3132 42.6733ZM60.0523 42.5742C59.7385 42.5742 59.5017 42.4944 59.3421 42.3347C59.1824 42.1696 59.1026 41.9383 59.1026 41.641V39.0149H58.4337V38.2799H58.797C58.9457 38.2799 59.0475 38.2469 59.1026 38.1808C59.1632 38.1147 59.1934 38.0074 59.1934 37.8587V37.1072H60.0027V38.2799H60.9029V39.0149H60.0027V41.8392H60.8368V42.5742H60.0523ZM65.1936 42.6733C64.7862 42.6733 64.4449 42.6017 64.1696 42.4586C63.8943 42.3155 63.6548 42.1173 63.4511 41.864L64.0292 41.3355C64.1888 41.5282 64.365 41.6796 64.5577 41.7897C64.7559 41.8943 64.9844 41.9466 65.2432 41.9466C65.5074 41.9466 65.7029 41.897 65.8295 41.7979C65.9616 41.6933 66.0277 41.5502 66.0277 41.3685C66.0277 41.2309 65.9809 41.1153 65.8873 41.0217C65.7992 40.9226 65.6423 40.8592 65.4166 40.8317L65.0202 40.7822C64.5797 40.7271 64.2329 40.6005 63.9796 40.4023C63.7319 40.1986 63.608 39.8985 63.608 39.5021C63.608 39.2929 63.6466 39.1085 63.7236 38.9488C63.8007 38.7837 63.9081 38.646 64.0457 38.5359C64.1888 38.4203 64.3568 38.3322 64.5495 38.2716C64.7477 38.2111 64.9651 38.1808 65.2019 38.1808C65.5873 38.1808 65.9011 38.2414 66.1433 38.3625C66.3911 38.4836 66.6113 38.6515 66.804 38.8662L66.2507 39.3948C66.1406 39.2626 65.9947 39.1498 65.813 39.0562C65.6368 38.9571 65.4331 38.9075 65.2019 38.9075C64.9541 38.9075 64.7697 38.9571 64.6486 39.0562C64.5329 39.1553 64.4751 39.2847 64.4751 39.4443C64.4751 39.6095 64.5274 39.7334 64.632 39.8159C64.7366 39.8985 64.9046 39.9591 65.1358 39.9976L65.5322 40.0472C66.0057 40.1187 66.3498 40.2591 66.5645 40.4684C66.7847 40.6721 66.8948 40.9473 66.8948 41.2942C66.8948 41.5034 66.8535 41.6933 66.7709 41.864C66.6939 42.0292 66.581 42.1723 66.4324 42.2934C66.2837 42.4146 66.1048 42.5082 65.8956 42.5742C65.6864 42.6403 65.4524 42.6733 65.1936 42.6733ZM70.5131 41.864H70.4801C70.4415 41.9686 70.3892 42.0705 70.3232 42.1696C70.2626 42.2687 70.1828 42.3568 70.0837 42.4338C69.9901 42.5054 69.8745 42.5632 69.7368 42.6073C69.6047 42.6513 69.4505 42.6733 69.2744 42.6733C68.8284 42.6733 68.4816 42.5302 68.2338 42.2439C67.9916 41.9576 67.8705 41.5474 67.8705 41.0134V38.2799H68.7706V40.8978C68.7706 41.564 69.0459 41.897 69.5964 41.897C69.7121 41.897 69.8249 41.8833 69.935 41.8557C70.0451 41.8227 70.1415 41.7759 70.2241 41.7154C70.3122 41.6548 70.381 41.5777 70.4305 41.4841C70.4856 41.3905 70.5131 41.2804 70.5131 41.1538V38.2799H71.4133V42.5742H70.5131V41.864ZM72.7022 42.5742V38.2799H73.6024V39.1057H73.6437C73.7042 38.8855 73.8308 38.6928 74.0235 38.5277C74.2162 38.3625 74.4833 38.2799 74.8246 38.2799H75.0641V39.147H74.709C74.3511 39.147 74.0758 39.2048 73.8831 39.3204C73.696 39.4361 73.6024 39.6067 73.6024 39.8325V42.5742H72.7022ZM79.4761 42.9789C79.4761 43.4248 79.3055 43.7607 78.9641 43.9864C78.6228 44.2121 78.0667 44.325 77.296 44.325C76.9436 44.325 76.6436 44.3002 76.3958 44.2507C76.1536 44.2066 75.9526 44.1405 75.7929 44.0525C75.6388 43.9644 75.5259 43.857 75.4544 43.7304C75.3828 43.6038 75.347 43.4579 75.347 43.2927C75.347 43.056 75.4103 42.8715 75.5369 42.7394C75.6691 42.6073 75.8508 42.5164 76.082 42.4669V42.376C75.7572 42.2714 75.5947 42.0512 75.5947 41.7154C75.5947 41.4951 75.6691 41.3272 75.8177 41.2116C75.9664 41.0905 76.1453 41.0051 76.3545 40.9556V40.9226C76.1013 40.8014 75.9058 40.6335 75.7682 40.4188C75.636 40.1986 75.57 39.9426 75.57 39.6508C75.57 39.2103 75.7159 38.8552 76.0077 38.5855C76.305 38.3157 76.7289 38.1808 77.2794 38.1808C77.5822 38.1808 77.841 38.2248 78.0557 38.3129V38.1973C78.0557 38.0046 78.0998 37.856 78.1879 37.7514C78.2814 37.6413 78.4246 37.5862 78.6173 37.5862H79.278V38.3129H78.4026V38.4864C78.5953 38.613 78.7439 38.7782 78.8485 38.9819C78.9531 39.1801 79.0054 39.403 79.0054 39.6508C79.0054 40.0857 78.8568 40.4381 78.5595 40.7078C78.2622 40.9721 77.8383 41.1042 77.2877 41.1042C77.0785 41.1042 76.8913 41.0822 76.7261 41.0382C76.616 41.0767 76.5197 41.1318 76.4371 41.2033C76.3545 41.2694 76.3132 41.3575 76.3132 41.4676C76.3132 41.5832 76.3655 41.6658 76.4701 41.7154C76.5747 41.7649 76.7234 41.7897 76.9161 41.7897H77.9731C78.5017 41.7897 78.8843 41.897 79.121 42.1118C79.3578 42.321 79.4761 42.61 79.4761 42.9789ZM78.6338 43.078C78.6338 42.9293 78.576 42.811 78.4604 42.7229C78.3503 42.6348 78.1466 42.5907 77.8493 42.5907H76.3958C76.1976 42.7064 76.0985 42.8715 76.0985 43.0862C76.0985 43.2624 76.1673 43.4028 76.305 43.5074C76.4481 43.6175 76.6876 43.6726 77.0234 43.6726H77.585C78.2842 43.6726 78.6338 43.4744 78.6338 43.078ZM77.2877 40.4518C77.552 40.4518 77.7557 40.394 77.8988 40.2784C78.0475 40.1573 78.1218 39.9729 78.1218 39.7251V39.5599C78.1218 39.3122 78.0475 39.1305 77.8988 39.0149C77.7557 38.8938 77.552 38.8332 77.2877 38.8332C77.0234 38.8332 76.817 38.8938 76.6683 39.0149C76.5252 39.1305 76.4536 39.3122 76.4536 39.5599V39.7251C76.4536 39.9729 76.5252 40.1573 76.6683 40.2784C76.817 40.394 77.0234 40.4518 77.2877 40.4518ZM81.7823 42.6733C81.474 42.6733 81.1987 42.621 80.9564 42.5164C80.7142 42.4118 80.5077 42.2632 80.3371 42.0705C80.1664 41.8723 80.0343 41.6355 79.9407 41.3602C79.8526 41.0795 79.8085 40.7684 79.8085 40.4271C79.8085 40.0857 79.8526 39.7774 79.9407 39.5021C80.0343 39.2213 80.1664 38.9846 80.3371 38.7919C80.5077 38.5937 80.7142 38.4423 80.9564 38.3377C81.1987 38.2331 81.474 38.1808 81.7823 38.1808C82.0961 38.1808 82.3714 38.2359 82.6081 38.346C82.8504 38.4561 83.0513 38.6102 83.211 38.8084C83.3706 39.0011 83.489 39.2269 83.5661 39.4856C83.6487 39.7444 83.6899 40.0224 83.6899 40.3197V40.6583H80.7417V40.7987C80.7417 41.129 80.8381 41.4015 81.0308 41.6163C81.229 41.8255 81.5098 41.9301 81.8731 41.9301C82.1374 41.9301 82.3604 41.8723 82.542 41.7566C82.7237 41.641 82.8779 41.4841 83.0045 41.2859L83.533 41.8062C83.3734 42.0705 83.1421 42.2824 82.8393 42.4421C82.5365 42.5962 82.1842 42.6733 81.7823 42.6733ZM81.7823 38.8828C81.6281 38.8828 81.485 38.9103 81.3528 38.9653C81.2262 39.0204 81.1161 39.0975 81.0225 39.1966C80.9344 39.2957 80.8656 39.414 80.8161 39.5517C80.7665 39.6893 80.7417 39.8407 80.7417 40.0059V40.0637H82.7402V39.9811C82.7402 39.6508 82.6549 39.3865 82.4842 39.1883C82.3136 38.9846 82.0796 38.8828 81.7823 38.8828ZM84.6864 42.5742V38.2799H85.5866V39.1057H85.6279C85.6884 38.8855 85.8151 38.6928 86.0078 38.5277C86.2005 38.3625 86.4675 38.2799 86.8088 38.2799H87.0483V39.147H86.6932C86.3353 39.147 86.0601 39.2048 85.8674 39.3204C85.6802 39.4361 85.5866 39.6067 85.5866 39.8325V42.5742H84.6864ZM90.5548 38.2799H91.4219L89.6133 43.4248C89.5638 43.568 89.506 43.6891 89.4399 43.7882C89.3794 43.8928 89.305 43.9754 89.2169 44.0359C89.1344 44.102 89.0325 44.1488 88.9114 44.1763C88.7903 44.2094 88.6471 44.2259 88.482 44.2259H87.9617V43.4909H88.6884L88.9362 42.7642L87.3753 38.2799H88.2755L89.1344 40.8069L89.3821 41.7401H89.4234L89.6959 40.8069L90.5548 38.2799ZM94.1141 42.5742V38.2799H95.0143V39.1057H95.0556C95.1161 38.8855 95.2428 38.6928 95.4354 38.5277C95.6281 38.3625 95.8952 38.2799 96.2365 38.2799H96.476V39.147H96.1209C95.763 39.147 95.4877 39.2048 95.2951 39.3204C95.1079 39.4361 95.0143 39.6067 95.0143 39.8325V42.5742H94.1141ZM98.9199 42.6733C98.6116 42.6733 98.3363 42.621 98.094 42.5164C97.8518 42.4118 97.6453 42.2632 97.4747 42.0705C97.304 41.8723 97.1719 41.6355 97.0783 41.3602C96.9902 41.0795 96.9461 40.7684 96.9461 40.4271C96.9461 40.0857 96.9902 39.7774 97.0783 39.5021C97.1719 39.2213 97.304 38.9846 97.4747 38.7919C97.6453 38.5937 97.8518 38.4423 98.094 38.3377C98.3363 38.2331 98.6116 38.1808 98.9199 38.1808C99.2337 38.1808 99.509 38.2359 99.7457 38.346C99.9879 38.4561 100.189 38.6102 100.349 38.8084C100.508 39.0011 100.627 39.2269 100.704 39.4856C100.786 39.7444 100.828 40.0224 100.828 40.3197V40.6583H97.8793V40.7987C97.8793 41.129 97.9757 41.4015 98.1684 41.6163C98.3666 41.8255 98.6473 41.9301 99.0107 41.9301C99.275 41.9301 99.4979 41.8723 99.6796 41.7566C99.8613 41.641 100.015 41.4841 100.142 41.2859L100.671 41.8062C100.511 42.0705 100.28 42.2824 99.9769 42.4421C99.6741 42.5962 99.3218 42.6733 98.9199 42.6733ZM98.9199 38.8828C98.7657 38.8828 98.6226 38.9103 98.4904 38.9653C98.3638 39.0204 98.2537 39.0975 98.1601 39.1966C98.072 39.2957 98.0032 39.414 97.9536 39.5517C97.9041 39.6893 97.8793 39.8407 97.8793 40.0059V40.0637H99.8778V39.9811C99.8778 39.6508 99.7925 39.3865 99.6218 39.1883C99.4512 38.9846 99.2172 38.8828 98.9199 38.8828ZM103.484 42.6733C103.176 42.6733 102.9 42.621 102.658 42.5164C102.416 42.4118 102.212 42.2632 102.047 42.0705C101.882 41.8723 101.755 41.6355 101.667 41.3602C101.579 41.0795 101.535 40.7684 101.535 40.4271C101.535 40.0857 101.579 39.7774 101.667 39.5021C101.755 39.2213 101.882 38.9846 102.047 38.7919C102.212 38.5937 102.416 38.4423 102.658 38.3377C102.9 38.2331 103.176 38.1808 103.484 38.1808C103.913 38.1808 104.266 38.2771 104.541 38.4698C104.816 38.6625 105.017 38.9185 105.144 39.2379L104.401 39.5847C104.34 39.3865 104.233 39.2296 104.079 39.114C103.93 38.9929 103.732 38.9323 103.484 38.9323C103.154 38.9323 102.903 39.0369 102.732 39.2461C102.567 39.4498 102.485 39.7168 102.485 40.0472V40.8152C102.485 41.1455 102.567 41.4153 102.732 41.6245C102.903 41.8282 103.154 41.9301 103.484 41.9301C103.748 41.9301 103.957 41.8668 104.112 41.7401C104.271 41.608 104.398 41.4346 104.491 41.2199L105.177 41.5832C105.034 41.9356 104.819 42.2053 104.533 42.3925C104.246 42.5797 103.897 42.6733 103.484 42.6733ZM107.67 42.6733C107.362 42.6733 107.087 42.621 106.844 42.5164C106.602 42.4118 106.396 42.2632 106.225 42.0705C106.054 41.8723 105.922 41.6355 105.829 41.3602C105.74 41.0795 105.696 40.7684 105.696 40.4271C105.696 40.0857 105.74 39.7774 105.829 39.5021C105.922 39.2213 106.054 38.9846 106.225 38.7919C106.396 38.5937 106.602 38.4423 106.844 38.3377C107.087 38.2331 107.362 38.1808 107.67 38.1808C107.984 38.1808 108.259 38.2359 108.496 38.346C108.738 38.4561 108.939 38.6102 109.099 38.8084C109.258 39.0011 109.377 39.2269 109.454 39.4856C109.536 39.7444 109.578 40.0224 109.578 40.3197V40.6583H106.63V40.7987C106.63 41.129 106.726 41.4015 106.919 41.6163C107.117 41.8255 107.398 41.9301 107.761 41.9301C108.025 41.9301 108.248 41.8723 108.43 41.7566C108.612 41.641 108.766 41.4841 108.892 41.2859L109.421 41.8062C109.261 42.0705 109.03 42.2824 108.727 42.4421C108.424 42.5962 108.072 42.6733 107.67 42.6733ZM107.67 38.8828C107.516 38.8828 107.373 38.9103 107.241 38.9653C107.114 39.0204 107.004 39.0975 106.91 39.1966C106.822 39.2957 106.753 39.414 106.704 39.5517C106.654 39.6893 106.63 39.8407 106.63 40.0059V40.0637H108.628V39.9811C108.628 39.6508 108.543 39.3865 108.372 39.1883C108.201 38.9846 107.967 38.8828 107.67 38.8828ZM110.574 42.5742V38.2799H111.474V38.9901H111.516C111.609 38.7589 111.75 38.5662 111.937 38.412C112.13 38.2579 112.391 38.1808 112.721 38.1808C113.162 38.1808 113.503 38.3267 113.745 38.6185C113.993 38.9048 114.117 39.3149 114.117 39.849V42.5742H113.217V39.9646C113.217 39.2929 112.947 38.9571 112.408 38.9571C112.292 38.9571 112.176 38.9736 112.061 39.0066C111.951 39.0342 111.852 39.0782 111.763 39.1388C111.675 39.1993 111.604 39.2764 111.549 39.37C111.499 39.4636 111.474 39.5737 111.474 39.7003V42.5742H110.574ZM116.554 42.5742C116.24 42.5742 116.003 42.4944 115.844 42.3347C115.684 42.1696 115.604 41.9383 115.604 41.641V39.0149H114.935V38.2799H115.299C115.447 38.2799 115.549 38.2469 115.604 38.1808C115.665 38.1147 115.695 38.0074 115.695 37.8587V37.1072H116.504V38.2799H117.405V39.0149H116.504V41.8392H117.338V42.5742H116.554ZM119.298 42.5742C118.989 42.5742 118.758 42.4971 118.604 42.343C118.455 42.1833 118.381 41.9631 118.381 41.6823V36.4631H119.281V41.8392H119.876V42.5742H119.298ZM123.306 38.2799H124.173L122.364 43.4248C122.315 43.568 122.257 43.6891 122.191 43.7882C122.13 43.8928 122.056 43.9754 121.968 44.0359C121.885 44.102 121.783 44.1488 121.662 44.1763C121.541 44.2094 121.398 44.2259 121.233 44.2259H120.713V43.4909H121.439L121.687 42.7642L120.126 38.2799H121.026L121.885 40.8069L122.133 41.7401H122.174L122.447 40.8069L123.306 38.2799ZM130.011 42.5742C129.775 42.5742 129.593 42.5082 129.466 42.376C129.34 42.2384 129.263 42.065 129.235 41.8557H129.194C129.111 42.1255 128.96 42.3292 128.74 42.4669C128.519 42.6045 128.252 42.6733 127.939 42.6733C127.493 42.6733 127.149 42.5577 126.906 42.3265C126.67 42.0952 126.551 41.7842 126.551 41.3933C126.551 40.9638 126.705 40.6418 127.014 40.4271C127.328 40.2123 127.784 40.105 128.385 40.105H129.161V39.7416C129.161 39.4774 129.089 39.2737 128.946 39.1305C128.803 38.9874 128.58 38.9158 128.277 38.9158C128.024 38.9158 127.818 38.9708 127.658 39.081C127.498 39.1911 127.363 39.3315 127.253 39.5021L126.716 39.0149C126.86 38.7726 127.061 38.5744 127.319 38.4203C127.578 38.2606 127.917 38.1808 128.335 38.1808C128.891 38.1808 129.318 38.3102 129.615 38.5689C129.912 38.8277 130.061 39.1993 130.061 39.6838V41.8392H130.515V42.5742H130.011ZM128.195 41.9879C128.475 41.9879 128.707 41.9273 128.888 41.8062C129.07 41.6796 129.161 41.5117 129.161 41.3024V40.6831H128.401C127.779 40.6831 127.468 40.8758 127.468 41.2611V41.4098C127.468 41.6025 127.531 41.7484 127.658 41.8475C127.79 41.9411 127.969 41.9879 128.195 41.9879ZM131.397 42.5742V38.2799H132.298V38.9901H132.339C132.432 38.7589 132.573 38.5662 132.76 38.412C132.953 38.2579 133.214 38.1808 133.545 38.1808C133.985 38.1808 134.326 38.3267 134.569 38.6185C134.816 38.9048 134.94 39.3149 134.94 39.849V42.5742H134.04V39.9646C134.04 39.2929 133.77 38.9571 133.231 38.9571C133.115 38.9571 133 38.9736 132.884 39.0066C132.774 39.0342 132.675 39.0782 132.587 39.1388C132.499 39.1993 132.427 39.2764 132.372 39.37C132.322 39.4636 132.298 39.5737 132.298 39.7003V42.5742H131.397ZM138.888 41.864H138.847C138.753 42.1173 138.599 42.3155 138.385 42.4586C138.175 42.6017 137.928 42.6733 137.641 42.6733C137.096 42.6733 136.675 42.4779 136.378 42.087C136.081 41.6906 135.932 41.1373 135.932 40.4271C135.932 39.7168 136.081 39.1663 136.378 38.7754C136.675 38.379 137.096 38.1808 137.641 38.1808C137.928 38.1808 138.175 38.2524 138.385 38.3955C138.599 38.5332 138.753 38.7314 138.847 38.9901H138.888V36.4631H139.789V42.5742H138.888V41.864ZM137.914 41.897C138.189 41.897 138.42 41.831 138.608 41.6988C138.795 41.5612 138.888 41.3823 138.888 41.162V39.6921C138.888 39.4718 138.795 39.2957 138.608 39.1635C138.42 39.0259 138.189 38.9571 137.914 38.9571C137.6 38.9571 137.35 39.0589 137.162 39.2626C136.975 39.4608 136.882 39.7251 136.882 40.0554V40.7987C136.882 41.129 136.975 41.396 137.162 41.5997C137.35 41.7979 137.6 41.897 137.914 41.897ZM14.8534 55.6733C14.446 55.6733 14.1047 55.6017 13.8294 55.4586C13.5541 55.3155 13.3147 55.1173 13.1109 54.864L13.689 54.3355C13.8487 54.5282 14.0249 54.6796 14.2176 54.7897C14.4158 54.8943 14.6442 54.9466 14.903 54.9466C15.1673 54.9466 15.3627 54.897 15.4893 54.7979C15.6215 54.6933 15.6875 54.5502 15.6875 54.3685C15.6875 54.2309 15.6407 54.1153 15.5471 54.0217C15.4591 53.9226 15.3021 53.8592 15.0764 53.8317L14.68 53.7822C14.2396 53.7271 13.8927 53.6005 13.6395 53.4023C13.3917 53.1986 13.2679 52.8985 13.2679 52.5021C13.2679 52.2929 13.3064 52.1085 13.3835 51.9488C13.4605 51.7837 13.5679 51.646 13.7055 51.5359C13.8487 51.4203 14.0166 51.3322 14.2093 51.2716C14.4075 51.2111 14.625 51.1808 14.8617 51.1808C15.2471 51.1808 15.5609 51.2414 15.8032 51.3625C16.0509 51.4836 16.2711 51.6515 16.4638 51.8662L15.9105 52.3948C15.8004 52.2626 15.6545 52.1498 15.4728 52.0562C15.2966 51.9571 15.0929 51.9075 14.8617 51.9075C14.614 51.9075 14.4295 51.9571 14.3084 52.0562C14.1928 52.1553 14.135 52.2847 14.135 52.4443C14.135 52.6095 14.1873 52.7334 14.2919 52.8159C14.3965 52.8985 14.5644 52.9591 14.7956 52.9976L15.192 53.0472C15.6655 53.1187 16.0096 53.2591 16.2243 53.4684C16.4445 53.6721 16.5547 53.9473 16.5547 54.2942C16.5547 54.5034 16.5134 54.6933 16.4308 54.864C16.3537 55.0292 16.2408 55.1723 16.0922 55.2934C15.9435 55.4146 15.7646 55.5082 15.5554 55.5742C15.3462 55.6403 15.1122 55.6733 14.8534 55.6733ZM18.7043 55.5742C18.3905 55.5742 18.1538 55.4944 17.9941 55.3347C17.8345 55.1696 17.7546 54.9383 17.7546 54.641V52.0149H17.0857V51.2799H17.4491C17.5977 51.2799 17.6996 51.2469 17.7546 51.1808C17.8152 51.1147 17.8455 51.0074 17.8455 50.8587V50.1072H18.6548V51.2799H19.5549V52.0149H18.6548V54.8392H19.4889V55.5742H18.7043ZM20.5314 55.5742V51.2799H21.4315V52.1057H21.4728C21.5334 51.8855 21.66 51.6928 21.8527 51.5277C22.0454 51.3625 22.3124 51.2799 22.6537 51.2799H22.8932V52.147H22.5381C22.1803 52.147 21.905 52.2048 21.7123 52.3204C21.5251 52.4361 21.4315 52.6067 21.4315 52.8325V55.5742H20.5314ZM26.2941 54.864H26.2611C26.2225 54.9686 26.1702 55.0705 26.1042 55.1696C26.0436 55.2687 25.9638 55.3568 25.8647 55.4338C25.7711 55.5054 25.6555 55.5632 25.5178 55.6073C25.3857 55.6513 25.2315 55.6733 25.0554 55.6733C24.6094 55.6733 24.2626 55.5302 24.0148 55.2439C23.7726 54.9576 23.6514 54.5474 23.6514 54.0134V51.2799H24.5516V53.8978C24.5516 54.564 24.8269 54.897 25.3774 54.897C25.493 54.897 25.6059 54.8833 25.716 54.8557C25.8261 54.8227 25.9225 54.7759 26.0051 54.7154C26.0931 54.6548 26.162 54.5777 26.2115 54.4841C26.2666 54.3905 26.2941 54.2804 26.2941 54.1538V51.2799H27.1943V55.5742H26.2941V54.864ZM32.249 55.9789C32.249 56.4248 32.0783 56.7607 31.737 56.9864C31.3956 57.2121 30.8396 57.325 30.0688 57.325C29.7164 57.325 29.4164 57.3002 29.1686 57.2507C28.9264 57.2066 28.7254 57.1405 28.5658 57.0525C28.4116 56.9644 28.2988 56.857 28.2272 56.7304C28.1556 56.6038 28.1198 56.4579 28.1198 56.2927C28.1198 56.056 28.1831 55.8715 28.3098 55.7394C28.4419 55.6073 28.6236 55.5164 28.8548 55.4669V55.376C28.53 55.2714 28.3676 55.0512 28.3676 54.7154C28.3676 54.4951 28.4419 54.3272 28.5906 54.2116C28.7392 54.0905 28.9181 54.0051 29.1273 53.9556V53.9226C28.8741 53.8014 28.6786 53.6335 28.541 53.4188C28.4089 53.1986 28.3428 52.9426 28.3428 52.6508C28.3428 52.2103 28.4887 51.8552 28.7805 51.5855C29.0778 51.3157 29.5017 51.1808 30.0523 51.1808C30.3551 51.1808 30.6138 51.2248 30.8286 51.3129V51.1973C30.8286 51.0046 30.8726 50.856 30.9607 50.7514C31.0543 50.6413 31.1974 50.5862 31.3901 50.5862H32.0508V51.3129H31.1754V51.4864C31.3681 51.613 31.5167 51.7782 31.6214 51.9819C31.726 52.1801 31.7783 52.403 31.7783 52.6508C31.7783 53.0857 31.6296 53.4381 31.3323 53.7078C31.035 53.9721 30.6111 54.1042 30.0605 54.1042C29.8513 54.1042 29.6641 54.0822 29.499 54.0382C29.3889 54.0767 29.2925 54.1318 29.2099 54.2033C29.1273 54.2694 29.0861 54.3575 29.0861 54.4676C29.0861 54.5832 29.1384 54.6658 29.243 54.7154C29.3476 54.7649 29.4962 54.7897 29.6889 54.7897H30.746C31.2745 54.7897 31.6571 54.897 31.8939 55.1118C32.1306 55.321 32.249 55.61 32.249 55.9789ZM31.4066 56.078C31.4066 55.9293 31.3488 55.811 31.2332 55.7229C31.1231 55.6348 30.9194 55.5907 30.6221 55.5907H29.1686C28.9704 55.7064 28.8713 55.8715 28.8713 56.0862C28.8713 56.2624 28.9402 56.4028 29.0778 56.5074C29.2209 56.6175 29.4604 56.6726 29.7963 56.6726H30.3578C31.057 56.6726 31.4066 56.4744 31.4066 56.078ZM30.0605 53.4518C30.3248 53.4518 30.5285 53.394 30.6716 53.2784C30.8203 53.1573 30.8946 52.9729 30.8946 52.7251V52.5599C30.8946 52.3122 30.8203 52.1305 30.6716 52.0149C30.5285 51.8938 30.3248 51.8332 30.0605 51.8332C29.7963 51.8332 29.5898 51.8938 29.4412 52.0149C29.298 52.1305 29.2264 52.3122 29.2264 52.5599V52.7251C29.2264 52.9729 29.298 53.1573 29.4412 53.2784C29.5898 53.394 29.7963 53.4518 30.0605 53.4518ZM36.7169 55.9789C36.7169 56.4248 36.5462 56.7607 36.2048 56.9864C35.8635 57.2121 35.3074 57.325 34.5367 57.325C34.1843 57.325 33.8843 57.3002 33.6365 57.2507C33.3943 57.2066 33.1933 57.1405 33.0336 57.0525C32.8795 56.9644 32.7666 56.857 32.6951 56.7304C32.6235 56.6038 32.5877 56.4579 32.5877 56.2927C32.5877 56.056 32.651 55.8715 32.7776 55.7394C32.9098 55.6073 33.0915 55.5164 33.3227 55.4669V55.376C32.9979 55.2714 32.8355 55.0512 32.8355 54.7154C32.8355 54.4951 32.9098 54.3272 33.0584 54.2116C33.2071 54.0905 33.386 54.0051 33.5952 53.9556V53.9226C33.342 53.8014 33.1465 53.6335 33.0089 53.4188C32.8767 53.1986 32.8107 52.9426 32.8107 52.6508C32.8107 52.2103 32.9566 51.8552 33.2484 51.5855C33.5457 51.3157 33.9696 51.1808 34.5201 51.1808C34.8229 51.1808 35.0817 51.2248 35.2964 51.3129V51.1973C35.2964 51.0046 35.3405 50.856 35.4286 50.7514C35.5222 50.6413 35.6653 50.5862 35.858 50.5862H36.5187V51.3129H35.6433V51.4864C35.836 51.613 35.9846 51.7782 36.0892 51.9819C36.1938 52.1801 36.2461 52.403 36.2461 52.6508C36.2461 53.0857 36.0975 53.4381 35.8002 53.7078C35.5029 53.9721 35.079 54.1042 34.5284 54.1042C34.3192 54.1042 34.132 54.0822 33.9668 54.0382C33.8567 54.0767 33.7604 54.1318 33.6778 54.2033C33.5952 54.2694 33.5539 54.3575 33.5539 54.4676C33.5539 54.5832 33.6062 54.6658 33.7108 54.7154C33.8154 54.7649 33.9641 54.7897 34.1568 54.7897H35.2138C35.7424 54.7897 36.125 54.897 36.3617 55.1118C36.5985 55.321 36.7169 55.61 36.7169 55.9789ZM35.8745 56.078C35.8745 55.9293 35.8167 55.811 35.7011 55.7229C35.591 55.6348 35.3873 55.5907 35.09 55.5907H33.6365C33.4383 55.7064 33.3392 55.8715 33.3392 56.0862C33.3392 56.2624 33.408 56.4028 33.5457 56.5074C33.6888 56.6175 33.9283 56.6726 34.2641 56.6726H34.8257C35.5249 56.6726 35.8745 56.4744 35.8745 56.078ZM34.5284 53.4518C34.7927 53.4518 34.9964 53.394 35.1395 53.2784C35.2882 53.1573 35.3625 52.9729 35.3625 52.7251V52.5599C35.3625 52.3122 35.2882 52.1305 35.1395 52.0149C34.9964 51.8938 34.7927 51.8332 34.5284 51.8332C34.2641 51.8332 34.0577 51.8938 33.909 52.0149C33.7659 52.1305 33.6943 52.3122 33.6943 52.5599V52.7251C33.6943 52.9729 33.7659 53.1573 33.909 53.2784C34.0577 53.394 34.2641 53.4518 34.5284 53.4518ZM38.3034 55.5742C37.995 55.5742 37.7638 55.4971 37.6097 55.343C37.461 55.1833 37.3867 54.9631 37.3867 54.6823V49.4631H38.2868V54.8392H38.8814V55.5742H38.3034ZM41.4263 55.6733C41.118 55.6733 40.8427 55.621 40.6004 55.5164C40.3582 55.4118 40.1517 55.2632 39.9811 55.0705C39.8104 54.8723 39.6783 54.6355 39.5847 54.3602C39.4966 54.0795 39.4525 53.7684 39.4525 53.4271C39.4525 53.0857 39.4966 52.7774 39.5847 52.5021C39.6783 52.2213 39.8104 51.9846 39.9811 51.7919C40.1517 51.5937 40.3582 51.4423 40.6004 51.3377C40.8427 51.2331 41.118 51.1808 41.4263 51.1808C41.7401 51.1808 42.0154 51.2359 42.2521 51.346C42.4944 51.4561 42.6953 51.6102 42.855 51.8084C43.0146 52.0011 43.133 52.2269 43.2101 52.4856C43.2927 52.7444 43.3339 53.0224 43.3339 53.3197V53.6583H40.3857V53.7987C40.3857 54.129 40.4821 54.4015 40.6748 54.6163C40.873 54.8255 41.1538 54.9301 41.5171 54.9301C41.7814 54.9301 42.0044 54.8723 42.186 54.7566C42.3677 54.641 42.5219 54.4841 42.6485 54.2859L43.177 54.8062C43.0174 55.0705 42.7861 55.2824 42.4833 55.4421C42.1805 55.5962 41.8282 55.6733 41.4263 55.6733ZM41.4263 51.8828C41.2721 51.8828 41.129 51.9103 40.9968 51.9653C40.8702 52.0204 40.7601 52.0975 40.6665 52.1966C40.5784 52.2957 40.5096 52.414 40.4601 52.5517C40.4105 52.6893 40.3857 52.8407 40.3857 53.0059V53.0637H42.3842V52.9811C42.3842 52.6508 42.2989 52.3865 42.1282 52.1883C41.9576 51.9846 41.7236 51.8828 41.4263 51.8828ZM45.693 55.6733C45.2856 55.6733 44.9443 55.6017 44.669 55.4586C44.3937 55.3155 44.1542 55.1173 43.9505 54.864L44.5286 54.3355C44.6883 54.5282 44.8645 54.6796 45.0572 54.7897C45.2554 54.8943 45.4838 54.9466 45.7426 54.9466C46.0069 54.9466 46.2023 54.897 46.3289 54.7979C46.4611 54.6933 46.5271 54.5502 46.5271 54.3685C46.5271 54.2309 46.4803 54.1153 46.3867 54.0217C46.2987 53.9226 46.1417 53.8592 45.916 53.8317L45.5196 53.7822C45.0792 53.7271 44.7323 53.6005 44.4791 53.4023C44.2313 53.1986 44.1075 52.8985 44.1075 52.5021C44.1075 52.2929 44.146 52.1085 44.2231 51.9488C44.3001 51.7837 44.4075 51.646 44.5451 51.5359C44.6883 51.4203 44.8562 51.3322 45.0489 51.2716C45.2471 51.2111 45.4646 51.1808 45.7013 51.1808C46.0867 51.1808 46.4005 51.2414 46.6428 51.3625C46.8905 51.4836 47.1107 51.6515 47.3034 51.8662L46.7501 52.3948C46.64 52.2626 46.4941 52.1498 46.3124 52.0562C46.1362 51.9571 45.9325 51.9075 45.7013 51.9075C45.4536 51.9075 45.2691 51.9571 45.148 52.0562C45.0324 52.1553 44.9746 52.2847 44.9746 52.4443C44.9746 52.6095 45.0269 52.7334 45.1315 52.8159C45.2361 52.8985 45.404 52.9591 45.6352 52.9976L46.0316 53.0472C46.5051 53.1187 46.8492 53.2591 47.0639 53.4684C47.2841 53.6721 47.3943 53.9473 47.3943 54.2942C47.3943 54.5034 47.353 54.6933 47.2704 54.864C47.1933 55.0292 47.0804 55.1723 46.9318 55.2934C46.7831 55.4146 46.6042 55.5082 46.395 55.5742C46.1858 55.6403 45.9518 55.6733 45.693 55.6733ZM49.9334 51.2799H50.8088L51.2465 53.0802L51.6346 54.7071H51.6594L52.1054 53.0802L52.6256 51.2799H53.4349L53.9635 53.0802L54.4177 54.7071H54.4425L54.8223 53.0802L55.2683 51.2799H56.1024L54.9462 55.5742H53.9304L53.3689 53.617L53.022 52.4113H53.0055L52.6669 53.617L52.0971 55.5742H51.1061L49.9334 51.2799ZM57.414 50.5119C57.2268 50.5119 57.0892 50.4678 57.0011 50.3797C56.9185 50.2917 56.8772 50.1788 56.8772 50.0412V49.9008C56.8772 49.7631 56.9185 49.6503 57.0011 49.5622C57.0892 49.4741 57.2268 49.43 57.414 49.43C57.6012 49.43 57.7361 49.4741 57.8187 49.5622C57.9013 49.6503 57.9426 49.7631 57.9426 49.9008V50.0412C57.9426 50.1788 57.9013 50.2917 57.8187 50.3797C57.7361 50.4678 57.6012 50.5119 57.414 50.5119ZM56.9598 51.2799H57.86V55.5742H56.9598V51.2799ZM60.3346 55.5742C60.0207 55.5742 59.784 55.4944 59.6243 55.3347C59.4647 55.1696 59.3849 54.9383 59.3849 54.641V52.0149H58.7159V51.2799H59.0793C59.228 51.2799 59.3298 51.2469 59.3849 51.1808C59.4454 51.1147 59.4757 51.0074 59.4757 50.8587V50.1072H60.285V51.2799H61.1852V52.0149H60.285V54.8392H61.1191V55.5742H60.3346ZM62.1616 49.4631H63.0617V51.9901H63.103C63.1966 51.7589 63.337 51.5662 63.5242 51.412C63.7169 51.2579 63.9784 51.1808 64.3087 51.1808C64.7492 51.1808 65.0905 51.3267 65.3328 51.6185C65.5805 51.9048 65.7044 52.3149 65.7044 52.849V55.5742H64.8042V52.9563C64.8042 52.2902 64.5345 51.9571 63.9949 51.9571C63.8793 51.9571 63.7637 51.9736 63.6481 52.0066C63.538 52.0342 63.4389 52.0782 63.3508 52.1388C63.2627 52.1993 63.1911 52.2764 63.1361 52.37C63.0865 52.4636 63.0617 52.5709 63.0617 52.6921V55.5742H62.1616V49.4631ZM70.2663 55.6733C69.8589 55.6733 69.5176 55.6017 69.2423 55.4586C68.967 55.3155 68.7275 55.1173 68.5238 54.864L69.1019 54.3355C69.2616 54.5282 69.4378 54.6796 69.6304 54.7897C69.8286 54.8943 70.0571 54.9466 70.3159 54.9466C70.5802 54.9466 70.7756 54.897 70.9022 54.7979C71.0344 54.6933 71.1004 54.5502 71.1004 54.3685C71.1004 54.2309 71.0536 54.1153 70.96 54.0217C70.8719 53.9226 70.715 53.8592 70.4893 53.8317L70.0929 53.7822C69.6525 53.7271 69.3056 53.6005 69.0524 53.4023C68.8046 53.1986 68.6807 52.8985 68.6807 52.5021C68.6807 52.2929 68.7193 52.1085 68.7964 51.9488C68.8734 51.7837 68.9808 51.646 69.1184 51.5359C69.2616 51.4203 69.4295 51.3322 69.6222 51.2716C69.8204 51.2111 70.0379 51.1808 70.2746 51.1808C70.66 51.1808 70.9738 51.2414 71.216 51.3625C71.4638 51.4836 71.684 51.6515 71.8767 51.8662L71.3234 52.3948C71.2133 52.2626 71.0674 52.1498 70.8857 52.0562C70.7095 51.9571 70.5058 51.9075 70.2746 51.9075C70.0268 51.9075 69.8424 51.9571 69.7213 52.0562C69.6057 52.1553 69.5479 52.2847 69.5479 52.4443C69.5479 52.6095 69.6002 52.7334 69.7048 52.8159C69.8094 52.8985 69.9773 52.9591 70.2085 52.9976L70.6049 53.0472C71.0784 53.1187 71.4225 53.2591 71.6372 53.4684C71.8574 53.6721 71.9675 53.9473 71.9675 54.2942C71.9675 54.5034 71.9263 54.6933 71.8437 54.864C71.7666 55.0292 71.6537 55.1723 71.5051 55.2934C71.3564 55.4146 71.1775 55.5082 70.9683 55.5742C70.7591 55.6403 70.5251 55.6733 70.2663 55.6733ZM74.6444 55.6733C74.3361 55.6733 74.0608 55.621 73.8186 55.5164C73.5763 55.4118 73.3726 55.2632 73.2075 55.0705C73.0423 54.8723 72.9157 54.6355 72.8276 54.3602C72.7395 54.0795 72.6954 53.7684 72.6954 53.4271C72.6954 53.0857 72.7395 52.7774 72.8276 52.5021C72.9157 52.2213 73.0423 51.9846 73.2075 51.7919C73.3726 51.5937 73.5763 51.4423 73.8186 51.3377C74.0608 51.2331 74.3361 51.1808 74.6444 51.1808C75.0738 51.1808 75.4262 51.2771 75.7015 51.4698C75.9767 51.6625 76.1777 51.9185 76.3043 52.2379L75.5611 52.5847C75.5005 52.3865 75.3932 52.2296 75.239 52.114C75.0903 51.9929 74.8921 51.9323 74.6444 51.9323C74.3141 51.9323 74.0636 52.0369 73.8929 52.2461C73.7277 52.4498 73.6451 52.7168 73.6451 53.0472V53.8152C73.6451 54.1455 73.7277 54.4153 73.8929 54.6245C74.0636 54.8282 74.3141 54.9301 74.6444 54.9301C74.9087 54.9301 75.1179 54.8668 75.272 54.7401C75.4317 54.608 75.5583 54.4346 75.6519 54.2199L76.3374 54.5832C76.1942 54.9356 75.9795 55.2053 75.6932 55.3925C75.4069 55.5797 75.0573 55.6733 74.6444 55.6733ZM77.1943 55.5742V51.2799H78.0944V52.1057H78.1357C78.1963 51.8855 78.3229 51.6928 78.5156 51.5277C78.7083 51.3625 78.9753 51.2799 79.3167 51.2799H79.5562V52.147H79.201C78.8432 52.147 78.5679 52.2048 78.3752 52.3204C78.188 52.4361 78.0944 52.6067 78.0944 52.8325V55.5742H77.1943ZM82 55.6733C81.6917 55.6733 81.4164 55.621 81.1742 55.5164C80.932 55.4118 80.7255 55.2632 80.5548 55.0705C80.3842 54.8723 80.252 54.6355 80.1584 54.3602C80.0703 54.0795 80.0263 53.7684 80.0263 53.4271C80.0263 53.0857 80.0703 52.7774 80.1584 52.5021C80.252 52.2213 80.3842 51.9846 80.5548 51.7919C80.7255 51.5937 80.932 51.4423 81.1742 51.3377C81.4164 51.2331 81.6917 51.1808 82 51.1808C82.3138 51.1808 82.5891 51.2359 82.8259 51.346C83.0681 51.4561 83.2691 51.6102 83.4287 51.8084C83.5884 52.0011 83.7067 52.2269 83.7838 52.4856C83.8664 52.7444 83.9077 53.0224 83.9077 53.3197V53.6583H80.9595V53.7987C80.9595 54.129 81.0558 54.4015 81.2485 54.6163C81.4467 54.8255 81.7275 54.9301 82.0909 54.9301C82.3551 54.9301 82.5781 54.8723 82.7598 54.7566C82.9415 54.641 83.0956 54.4841 83.2223 54.2859L83.7508 54.8062C83.5911 55.0705 83.3599 55.2824 83.0571 55.4421C82.7543 55.5962 82.4019 55.6733 82 55.6733ZM82 51.8828C81.8459 51.8828 81.7027 51.9103 81.5706 51.9653C81.444 52.0204 81.3339 52.0975 81.2403 52.1966C81.1522 52.2957 81.0834 52.414 81.0338 52.5517C80.9843 52.6893 80.9595 52.8407 80.9595 53.0059V53.0637H82.958V52.9811C82.958 52.6508 82.8727 52.3865 82.702 52.1883C82.5313 51.9846 82.2973 51.8828 82 51.8828ZM86.5889 55.6733C86.2806 55.6733 86.0053 55.621 85.763 55.5164C85.5208 55.4118 85.3143 55.2632 85.1437 55.0705C84.973 54.8723 84.8409 54.6355 84.7473 54.3602C84.6592 54.0795 84.6151 53.7684 84.6151 53.4271C84.6151 53.0857 84.6592 52.7774 84.7473 52.5021C84.8409 52.2213 84.973 51.9846 85.1437 51.7919C85.3143 51.5937 85.5208 51.4423 85.763 51.3377C86.0053 51.2331 86.2806 51.1808 86.5889 51.1808C86.9027 51.1808 87.178 51.2359 87.4147 51.346C87.6569 51.4561 87.8579 51.6102 88.0176 51.8084C88.1772 52.0011 88.2956 52.2269 88.3727 52.4856C88.4552 52.7444 88.4965 53.0224 88.4965 53.3197V53.6583H85.5483V53.7987C85.5483 54.129 85.6447 54.4015 85.8374 54.6163C86.0356 54.8255 86.3163 54.9301 86.6797 54.9301C86.944 54.9301 87.1669 54.8723 87.3486 54.7566C87.5303 54.641 87.6845 54.4841 87.8111 54.2859L88.3396 54.8062C88.18 55.0705 87.9487 55.2824 87.6459 55.4421C87.3431 55.5962 86.9908 55.6733 86.5889 55.6733ZM86.5889 51.8828C86.4347 51.8828 86.2916 51.9103 86.1594 51.9653C86.0328 52.0204 85.9227 52.0975 85.8291 52.1966C85.741 52.2957 85.6722 52.414 85.6226 52.5517C85.5731 52.6893 85.5483 52.8407 85.5483 53.0059V53.0637H87.5468V52.9811C87.5468 52.6508 87.4615 52.3865 87.2908 52.1883C87.1202 51.9846 86.8862 51.8828 86.5889 51.8828ZM89.493 55.5742V51.2799H90.3932V51.9901H90.4345C90.5281 51.7589 90.6684 51.5662 90.8556 51.412C91.0483 51.2579 91.3098 51.1808 91.6402 51.1808C92.0806 51.1808 92.422 51.3267 92.6642 51.6185C92.912 51.9048 93.0358 52.3149 93.0358 52.849V55.5742H92.1357V52.9646C92.1357 52.2929 91.8659 51.9571 91.3264 51.9571C91.2107 51.9571 91.0951 51.9736 90.9795 52.0066C90.8694 52.0342 90.7703 52.0782 90.6822 52.1388C90.5941 52.1993 90.5226 52.2764 90.4675 52.37C90.4179 52.4636 90.3932 52.5737 90.3932 52.7003V55.5742H89.493ZM97.8951 55.6733C97.5868 55.6733 97.3115 55.621 97.0692 55.5164C96.827 55.4118 96.6233 55.2632 96.4581 55.0705C96.293 54.8723 96.1663 54.6355 96.0782 54.3602C95.9902 54.0795 95.9461 53.7684 95.9461 53.4271C95.9461 53.0857 95.9902 52.7774 96.0782 52.5021C96.1663 52.2213 96.293 51.9846 96.4581 51.7919C96.6233 51.5937 96.827 51.4423 97.0692 51.3377C97.3115 51.2331 97.5868 51.1808 97.8951 51.1808C98.3245 51.1808 98.6769 51.2771 98.9521 51.4698C99.2274 51.6625 99.4284 51.9185 99.555 52.2379L98.8117 52.5847C98.7512 52.3865 98.6438 52.2296 98.4897 52.114C98.341 51.9929 98.1428 51.9323 97.8951 51.9323C97.5647 51.9323 97.3142 52.0369 97.1436 52.2461C96.9784 52.4498 96.8958 52.7168 96.8958 53.0472V53.8152C96.8958 54.1455 96.9784 54.4153 97.1436 54.6245C97.3142 54.8282 97.5647 54.9301 97.8951 54.9301C98.1593 54.9301 98.3685 54.8668 98.5227 54.7401C98.6824 54.608 98.809 54.4346 98.9026 54.2199L99.588 54.5832C99.4449 54.9356 99.2302 55.2053 98.9439 55.3925C98.6576 55.5797 98.308 55.6733 97.8951 55.6733ZM101.362 55.5742C101.053 55.5742 100.822 55.4971 100.668 55.343C100.519 55.1833 100.445 54.9631 100.445 54.6823V49.4631H101.345V54.8392H101.94V55.5742H101.362ZM105.946 55.5742C105.71 55.5742 105.528 55.5082 105.401 55.376C105.275 55.2384 105.198 55.065 105.17 54.8557H105.129C105.046 55.1255 104.895 55.3292 104.674 55.4669C104.454 55.6045 104.187 55.6733 103.873 55.6733C103.427 55.6733 103.083 55.5577 102.841 55.3265C102.604 55.0952 102.486 54.7842 102.486 54.3933C102.486 53.9638 102.64 53.6418 102.949 53.4271C103.262 53.2123 103.719 53.105 104.319 53.105H105.096V52.7416C105.096 52.4774 105.024 52.2737 104.881 52.1305C104.738 51.9874 104.515 51.9158 104.212 51.9158C103.959 51.9158 103.752 51.9708 103.593 52.081C103.433 52.1911 103.298 52.3315 103.188 52.5021L102.651 52.0149C102.794 51.7726 102.995 51.5744 103.254 51.4203C103.513 51.2606 103.851 51.1808 104.27 51.1808C104.826 51.1808 105.253 51.3102 105.55 51.5689C105.847 51.8277 105.996 52.1993 105.996 52.6838V54.8392H106.45V55.5742H105.946ZM104.129 54.9879C104.41 54.9879 104.641 54.9273 104.823 54.8062C105.005 54.6796 105.096 54.5117 105.096 54.3024V53.6831H104.336C103.714 53.6831 103.403 53.8758 103.403 54.2611V54.4098C103.403 54.6025 103.466 54.7484 103.593 54.8475C103.725 54.9411 103.904 54.9879 104.129 54.9879ZM107.332 55.5742V51.2799H108.232V52.1057H108.274C108.334 51.8855 108.461 51.6928 108.654 51.5277C108.846 51.3625 109.113 51.2799 109.455 51.2799H109.694V52.147H109.339C108.981 52.147 108.706 52.2048 108.513 52.3204C108.326 52.4361 108.232 52.6067 108.232 52.8325V55.5742H107.332ZM110.948 50.5119C110.761 50.5119 110.623 50.4678 110.535 50.3797C110.452 50.2917 110.411 50.1788 110.411 50.0412V49.9008C110.411 49.7631 110.452 49.6503 110.535 49.5622C110.623 49.4741 110.761 49.43 110.948 49.43C111.135 49.43 111.27 49.4741 111.352 49.5622C111.435 49.6503 111.476 49.7631 111.476 49.9008V50.0412C111.476 50.1788 111.435 50.2917 111.352 50.3797C111.27 50.4678 111.135 50.5119 110.948 50.5119ZM110.494 51.2799H111.394V55.5742H110.494V51.2799ZM113.868 55.5742C113.555 55.5742 113.318 55.4944 113.158 55.3347C112.998 55.1696 112.919 54.9383 112.919 54.641V52.0149H112.25V51.2799H112.613C112.762 51.2799 112.864 51.2469 112.919 51.1808C112.979 51.1147 113.01 51.0074 113.01 50.8587V50.1072H113.819V51.2799H114.719V52.0149H113.819V54.8392H114.653V55.5742H113.868ZM118.33 51.2799H119.197L117.388 56.4248C117.339 56.568 117.281 56.6891 117.215 56.7882C117.154 56.8928 117.08 56.9754 116.992 57.0359C116.909 57.102 116.808 57.1488 116.686 57.1763C116.565 57.2094 116.422 57.2259 116.257 57.2259H115.737V56.4909H116.463L116.711 55.7642L115.15 51.2799H116.05L116.909 53.8069L117.157 54.7401H117.198L117.471 53.8069L118.33 51.2799ZM120.071 54.4263C120.275 54.4263 120.426 54.4786 120.526 54.5832C120.625 54.6878 120.674 54.8227 120.674 54.9879V55.12C120.674 55.3898 120.6 55.6706 120.451 55.9624C120.308 56.2597 120.113 56.5102 119.865 56.7139H119.196C119.372 56.5377 119.518 56.367 119.634 56.2018C119.749 56.0367 119.837 55.8522 119.898 55.6485C119.755 55.621 119.647 55.5605 119.576 55.4669C119.504 55.3678 119.469 55.2521 119.469 55.12V54.9879C119.469 54.8227 119.518 54.6878 119.617 54.5832C119.716 54.4786 119.868 54.4263 120.071 54.4263ZM126.466 54.864H126.433C126.395 54.9686 126.342 55.0705 126.276 55.1696C126.216 55.2687 126.136 55.3568 126.037 55.4338C125.943 55.5054 125.828 55.5632 125.69 55.6073C125.558 55.6513 125.404 55.6733 125.228 55.6733C124.782 55.6733 124.435 55.5302 124.187 55.2439C123.945 54.9576 123.824 54.5474 123.824 54.0134V51.2799H124.724V53.8978C124.724 54.564 124.999 54.897 125.55 54.897C125.665 54.897 125.778 54.8833 125.888 54.8557C125.998 54.8227 126.095 54.7759 126.177 54.7154C126.265 54.6548 126.334 54.5777 126.384 54.4841C126.439 54.3905 126.466 54.2804 126.466 54.1538V51.2799H127.367V55.5742H126.466V54.864ZM130.018 55.6733C129.611 55.6733 129.269 55.6017 128.994 55.4586C128.719 55.3155 128.479 55.1173 128.276 54.864L128.854 54.3355C129.013 54.5282 129.189 54.6796 129.382 54.7897C129.58 54.8943 129.809 54.9466 130.068 54.9466C130.332 54.9466 130.527 54.897 130.654 54.7979C130.786 54.6933 130.852 54.5502 130.852 54.3685C130.852 54.2309 130.805 54.1153 130.712 54.0217C130.624 53.9226 130.467 53.8592 130.241 53.8317L129.845 53.7822C129.404 53.7271 129.057 53.6005 128.804 53.4023C128.556 53.1986 128.432 52.8985 128.432 52.5021C128.432 52.2929 128.471 52.1085 128.548 51.9488C128.625 51.7837 128.733 51.646 128.87 51.5359C129.013 51.4203 129.181 51.3322 129.374 51.2716C129.572 51.2111 129.79 51.1808 130.026 51.1808C130.412 51.1808 130.726 51.2414 130.968 51.3625C131.216 51.4836 131.436 51.6515 131.628 51.8662L131.075 52.3948C130.965 52.2626 130.819 52.1498 130.637 52.0562C130.461 51.9571 130.258 51.9075 130.026 51.9075C129.779 51.9075 129.594 51.9571 129.473 52.0562C129.357 52.1553 129.3 52.2847 129.3 52.4443C129.3 52.6095 129.352 52.7334 129.456 52.8159C129.561 52.8985 129.729 52.9591 129.96 52.9976L130.357 53.0472C130.83 53.1187 131.174 53.2591 131.389 53.4684C131.609 53.6721 131.719 53.9473 131.719 54.2942C131.719 54.5034 131.678 54.6933 131.595 54.864C131.518 55.0292 131.405 55.1723 131.257 55.2934C131.108 55.4146 130.929 55.5082 130.72 55.5742C130.511 55.6403 130.277 55.6733 130.018 55.6733ZM133.19 50.5119C133.003 50.5119 132.866 50.4678 132.777 50.3797C132.695 50.2917 132.654 50.1788 132.654 50.0412V49.9008C132.654 49.7631 132.695 49.6503 132.777 49.5622C132.866 49.4741 133.003 49.43 133.19 49.43C133.378 49.43 133.512 49.4741 133.595 49.5622C133.678 49.6503 133.719 49.7631 133.719 49.9008V50.0412C133.719 50.1788 133.678 50.2917 133.595 50.3797C133.512 50.4678 133.378 50.5119 133.19 50.5119ZM132.736 51.2799H133.636V55.5742H132.736V51.2799ZM134.922 55.5742V51.2799H135.822V51.9901H135.863C135.957 51.7589 136.097 51.5662 136.284 51.412C136.477 51.2579 136.739 51.1808 137.069 51.1808C137.509 51.1808 137.851 51.3267 138.093 51.6185C138.341 51.9048 138.465 52.3149 138.465 52.849V55.5742H137.564V52.9646C137.564 52.2929 137.295 51.9571 136.755 51.9571C136.639 51.9571 136.524 51.9736 136.408 52.0066C136.298 52.0342 136.199 52.0782 136.111 52.1388C136.023 52.1993 135.951 52.2764 135.896 52.37C135.847 52.4636 135.822 52.5737 135.822 52.7003V55.5742H134.922ZM143.478 55.9789C143.478 56.4248 143.307 56.7607 142.966 56.9864C142.625 57.2121 142.069 57.325 141.298 57.325C140.945 57.325 140.645 57.3002 140.398 57.2507C140.155 57.2066 139.954 57.1405 139.795 57.0525C139.641 56.9644 139.528 56.857 139.456 56.7304C139.385 56.6038 139.349 56.4579 139.349 56.2927C139.349 56.056 139.412 55.8715 139.539 55.7394C139.671 55.6073 139.853 55.5164 140.084 55.4669V55.376C139.759 55.2714 139.597 55.0512 139.597 54.7154C139.597 54.4951 139.671 54.3272 139.82 54.2116C139.968 54.0905 140.147 54.0051 140.356 53.9556V53.9226C140.103 53.8014 139.908 53.6335 139.77 53.4188C139.638 53.1986 139.572 52.9426 139.572 52.6508C139.572 52.2103 139.718 51.8552 140.01 51.5855C140.307 51.3157 140.731 51.1808 141.281 51.1808C141.584 51.1808 141.843 51.2248 142.058 51.3129V51.1973C142.058 51.0046 142.102 50.856 142.19 50.7514C142.283 50.6413 142.426 50.5862 142.619 50.5862H143.28V51.3129H142.404V51.4864C142.597 51.613 142.746 51.7782 142.85 51.9819C142.955 52.1801 143.007 52.403 143.007 52.6508C143.007 53.0857 142.859 53.4381 142.561 53.7078C142.264 53.9721 141.84 54.1042 141.29 54.1042C141.08 54.1042 140.893 54.0822 140.728 54.0382C140.618 54.0767 140.522 54.1318 140.439 54.2033C140.356 54.2694 140.315 54.3575 140.315 54.4676C140.315 54.5832 140.367 54.6658 140.472 54.7154C140.577 54.7649 140.725 54.7897 140.918 54.7897H141.975C142.504 54.7897 142.886 54.897 143.123 55.1118C143.36 55.321 143.478 55.61 143.478 55.9789ZM142.636 56.078C142.636 55.9293 142.578 55.811 142.462 55.7229C142.352 55.6348 142.148 55.5907 141.851 55.5907H140.398C140.199 55.7064 140.1 55.8715 140.1 56.0862C140.1 56.2624 140.169 56.4028 140.307 56.5074C140.45 56.6175 140.689 56.6726 141.025 56.6726H141.587C142.286 56.6726 142.636 56.4744 142.636 56.078ZM141.29 53.4518C141.554 53.4518 141.758 53.394 141.901 53.2784C142.049 53.1573 142.124 52.9729 142.124 52.7251V52.5599C142.124 52.3122 142.049 52.1305 141.901 52.0149C141.758 51.8938 141.554 51.8332 141.29 51.8332C141.025 51.8332 140.819 51.8938 140.67 52.0149C140.527 52.1305 140.455 52.3122 140.455 52.5599V52.7251C140.455 52.9729 140.527 53.1573 140.67 53.2784C140.819 53.394 141.025 53.4518 141.29 53.4518ZM14.8534 68.6733C14.446 68.6733 14.1047 68.6017 13.8294 68.4586C13.5541 68.3155 13.3147 68.1173 13.1109 67.864L13.689 67.3355C13.8487 67.5282 14.0249 67.6796 14.2176 67.7897C14.4158 67.8943 14.6442 67.9466 14.903 67.9466C15.1673 67.9466 15.3627 67.897 15.4893 67.7979C15.6215 67.6933 15.6875 67.5502 15.6875 67.3685C15.6875 67.2309 15.6407 67.1153 15.5471 67.0217C15.4591 66.9226 15.3021 66.8592 15.0764 66.8317L14.68 66.7822C14.2396 66.7271 13.8927 66.6005 13.6395 66.4023C13.3917 66.1986 13.2679 65.8985 13.2679 65.5021C13.2679 65.2929 13.3064 65.1085 13.3835 64.9488C13.4605 64.7837 13.5679 64.646 13.7055 64.5359C13.8487 64.4203 14.0166 64.3322 14.2093 64.2716C14.4075 64.2111 14.625 64.1808 14.8617 64.1808C15.2471 64.1808 15.5609 64.2414 15.8032 64.3625C16.0509 64.4836 16.2711 64.6515 16.4638 64.8662L15.9105 65.3948C15.8004 65.2626 15.6545 65.1498 15.4728 65.0562C15.2966 64.9571 15.0929 64.9075 14.8617 64.9075C14.614 64.9075 14.4295 64.9571 14.3084 65.0562C14.1928 65.1553 14.135 65.2847 14.135 65.4443C14.135 65.6095 14.1873 65.7334 14.2919 65.8159C14.3965 65.8985 14.5644 65.9591 14.7956 65.9976L15.192 66.0472C15.6655 66.1187 16.0096 66.2591 16.2243 66.4684C16.4445 66.6721 16.5547 66.9473 16.5547 67.2942C16.5547 67.5034 16.5134 67.6933 16.4308 67.864C16.3537 68.0292 16.2408 68.1723 16.0922 68.2934C15.9435 68.4146 15.7646 68.5082 15.5554 68.5742C15.3462 68.6403 15.1122 68.6733 14.8534 68.6733ZM19.2315 68.6733C18.9232 68.6733 18.6479 68.621 18.4057 68.5164C18.1634 68.4118 17.9597 68.2632 17.7946 68.0705C17.6294 67.8723 17.5028 67.6355 17.4147 67.3602C17.3266 67.0795 17.2825 66.7684 17.2825 66.4271C17.2825 66.0857 17.3266 65.7774 17.4147 65.5021C17.5028 65.2213 17.6294 64.9846 17.7946 64.7919C17.9597 64.5937 18.1634 64.4423 18.4057 64.3377C18.6479 64.2331 18.9232 64.1808 19.2315 64.1808C19.6609 64.1808 20.0133 64.2771 20.2886 64.4698C20.5638 64.6625 20.7648 64.9185 20.8914 65.2379L20.1482 65.5847C20.0876 65.3865 19.9803 65.2296 19.8261 65.114C19.6775 64.9929 19.4793 64.9323 19.2315 64.9323C18.9012 64.9323 18.6507 65.0369 18.48 65.2461C18.3148 65.4498 18.2323 65.7168 18.2323 66.0472V66.8152C18.2323 67.1455 18.3148 67.4153 18.48 67.6245C18.6507 67.8282 18.9012 67.9301 19.2315 67.9301C19.4958 67.9301 19.705 67.8668 19.8591 67.7401C20.0188 67.608 20.1454 67.4346 20.239 67.2199L20.9245 67.5832C20.7813 67.9356 20.5666 68.2053 20.2803 68.3925C19.994 68.5797 19.6444 68.6733 19.2315 68.6733ZM21.7814 68.5742V64.2799H22.6815V65.1057H22.7228C22.7834 64.8855 22.91 64.6928 23.1027 64.5277C23.2954 64.3625 23.5624 64.2799 23.9038 64.2799H24.1433V65.147H23.7882C23.4303 65.147 23.155 65.2048 22.9623 65.3204C22.7751 65.4361 22.6815 65.6067 22.6815 65.8325V68.5742H21.7814ZM26.5871 68.6733C26.2788 68.6733 26.0036 68.621 25.7613 68.5164C25.5191 68.4118 25.3126 68.2632 25.1419 68.0705C24.9713 67.8723 24.8391 67.6355 24.7455 67.3602C24.6575 67.0795 24.6134 66.7684 24.6134 66.4271C24.6134 66.0857 24.6575 65.7774 24.7455 65.5021C24.8391 65.2213 24.9713 64.9846 25.1419 64.7919C25.3126 64.5937 25.5191 64.4423 25.7613 64.3377C26.0036 64.2331 26.2788 64.1808 26.5871 64.1808C26.901 64.1808 27.1762 64.2359 27.413 64.346C27.6552 64.4561 27.8562 64.6102 28.0158 64.8084C28.1755 65.0011 28.2939 65.2269 28.3709 65.4856C28.4535 65.7444 28.4948 66.0224 28.4948 66.3197V66.6583H25.5466V66.7987C25.5466 67.129 25.6429 67.4015 25.8356 67.6163C26.0338 67.8255 26.3146 67.9301 26.678 67.9301C26.9422 67.9301 27.1652 67.8723 27.3469 67.7566C27.5286 67.641 27.6827 67.4841 27.8094 67.2859L28.3379 67.8062C28.1782 68.0705 27.947 68.2824 27.6442 68.4421C27.3414 68.5962 26.989 68.6733 26.5871 68.6733ZM26.5871 64.8828C26.433 64.8828 26.2898 64.9103 26.1577 64.9653C26.0311 65.0204 25.921 65.0975 25.8274 65.1966C25.7393 65.2957 25.6705 65.414 25.6209 65.5517C25.5714 65.6893 25.5466 65.8407 25.5466 66.0059V66.0637H27.5451V65.9811C27.5451 65.6508 27.4598 65.3865 27.2891 65.1883C27.1184 64.9846 26.8844 64.8828 26.5871 64.8828ZM31.176 68.6733C30.8677 68.6733 30.5924 68.621 30.3502 68.5164C30.1079 68.4118 29.9015 68.2632 29.7308 68.0705C29.5601 67.8723 29.428 67.6355 29.3344 67.3602C29.2463 67.0795 29.2022 66.7684 29.2022 66.4271C29.2022 66.0857 29.2463 65.7774 29.3344 65.5021C29.428 65.2213 29.5601 64.9846 29.7308 64.7919C29.9015 64.5937 30.1079 64.4423 30.3502 64.3377C30.5924 64.2331 30.8677 64.1808 31.176 64.1808C31.4898 64.1808 31.7651 64.2359 32.0018 64.346C32.2441 64.4561 32.445 64.6102 32.6047 64.8084C32.7643 65.0011 32.8827 65.2269 32.9598 65.4856C33.0424 65.7444 33.0837 66.0224 33.0837 66.3197V66.6583H30.1354V66.7987C30.1354 67.129 30.2318 67.4015 30.4245 67.6163C30.6227 67.8255 30.9035 67.9301 31.2668 67.9301C31.5311 67.9301 31.7541 67.8723 31.9357 67.7566C32.1174 67.641 32.2716 67.4841 32.3982 67.2859L32.9267 67.8062C32.7671 68.0705 32.5359 68.2824 32.233 68.4421C31.9302 68.5962 31.5779 68.6733 31.176 68.6733ZM31.176 64.8828C31.0218 64.8828 30.8787 64.9103 30.7466 64.9653C30.6199 65.0204 30.5098 65.0975 30.4162 65.1966C30.3281 65.2957 30.2593 65.414 30.2098 65.5517C30.1602 65.6893 30.1354 65.8407 30.1354 66.0059V66.0637H32.1339V65.9811C32.1339 65.6508 32.0486 65.3865 31.8779 65.1883C31.7073 64.9846 31.4733 64.8828 31.176 64.8828ZM34.0801 68.5742V64.2799H34.9803V64.9901H35.0216C35.1152 64.7589 35.2556 64.5662 35.4428 64.412C35.6354 64.2579 35.897 64.1808 36.2273 64.1808C36.6677 64.1808 37.0091 64.3267 37.2513 64.6185C37.4991 64.9048 37.6229 65.3149 37.6229 65.849V68.5742H36.7228V65.9646C36.7228 65.2929 36.453 64.9571 35.9135 64.9571C35.7979 64.9571 35.6822 64.9736 35.5666 65.0066C35.4565 65.0342 35.3574 65.0782 35.2693 65.1388C35.1812 65.1993 35.1097 65.2764 35.0546 65.37C35.0051 65.4636 34.9803 65.5737 34.9803 65.7003V68.5742H34.0801ZM40.4754 68.5742V67.8475L42.7795 65.0149H40.5497V64.2799H43.8448V64.9736L41.5077 67.8392H43.9026V68.5742H40.4754ZM46.4426 68.6733C46.1453 68.6733 45.8727 68.621 45.625 68.5164C45.3827 68.4118 45.1763 68.2632 45.0056 68.0705C44.8349 67.8723 44.7028 67.6355 44.6092 67.3602C44.5156 67.0795 44.4688 66.7684 44.4688 66.4271C44.4688 66.0857 44.5156 65.7774 44.6092 65.5021C44.7028 65.2213 44.8349 64.9846 45.0056 64.7919C45.1763 64.5937 45.3827 64.4423 45.625 64.3377C45.8727 64.2331 46.1453 64.1808 46.4426 64.1808C46.7399 64.1808 47.0096 64.2331 47.2519 64.3377C47.4996 64.4423 47.7088 64.5937 47.8795 64.7919C48.0502 64.9846 48.1823 65.2213 48.2759 65.5021C48.3695 65.7774 48.4163 66.0857 48.4163 66.4271C48.4163 66.7684 48.3695 67.0795 48.2759 67.3602C48.1823 67.6355 48.0502 67.8723 47.8795 68.0705C47.7088 68.2632 47.4996 68.4118 47.2519 68.5164C47.0096 68.621 46.7399 68.6733 46.4426 68.6733ZM46.4426 67.9301C46.7509 67.9301 46.9986 67.8365 47.1858 67.6493C47.373 67.4566 47.4666 67.1703 47.4666 66.7904V66.0637C47.4666 65.6838 47.373 65.4003 47.1858 65.2131C46.9986 65.0204 46.7509 64.924 46.4426 64.924C46.1342 64.924 45.8865 65.0204 45.6993 65.2131C45.5121 65.4003 45.4185 65.6838 45.4185 66.0637V66.7904C45.4185 67.1703 45.5121 67.4566 45.6993 67.6493C45.8865 67.8365 46.1342 67.9301 46.4426 67.9301ZM51.104 68.6733C50.8067 68.6733 50.5342 68.621 50.2864 68.5164C50.0442 68.4118 49.8377 68.2632 49.667 68.0705C49.4964 67.8723 49.3642 67.6355 49.2706 67.3602C49.177 67.0795 49.1302 66.7684 49.1302 66.4271C49.1302 66.0857 49.177 65.7774 49.2706 65.5021C49.3642 65.2213 49.4964 64.9846 49.667 64.7919C49.8377 64.5937 50.0442 64.4423 50.2864 64.3377C50.5342 64.2331 50.8067 64.1808 51.104 64.1808C51.4013 64.1808 51.671 64.2331 51.9133 64.3377C52.161 64.4423 52.3702 64.5937 52.5409 64.7919C52.7116 64.9846 52.8437 65.2213 52.9373 65.5021C53.0309 65.7774 53.0777 66.0857 53.0777 66.4271C53.0777 66.7684 53.0309 67.0795 52.9373 67.3602C52.8437 67.6355 52.7116 67.8723 52.5409 68.0705C52.3702 68.2632 52.161 68.4118 51.9133 68.5164C51.671 68.621 51.4013 68.6733 51.104 68.6733ZM51.104 67.9301C51.4123 67.9301 51.66 67.8365 51.8472 67.6493C52.0344 67.4566 52.128 67.1703 52.128 66.7904V66.0637C52.128 65.6838 52.0344 65.4003 51.8472 65.2131C51.66 65.0204 51.4123 64.924 51.104 64.924C50.7957 64.924 50.5479 65.0204 50.3607 65.2131C50.1735 65.4003 50.0799 65.6838 50.0799 66.0637V66.7904C50.0799 67.1703 50.1735 67.4566 50.3607 67.6493C50.5479 67.8365 50.7957 67.9301 51.104 67.9301ZM54.0807 68.5742V64.2799H54.9809V64.9901H55.0222C55.0662 64.88 55.1185 64.7754 55.1791 64.6763C55.2451 64.5772 55.3222 64.4919 55.4103 64.4203C55.5039 64.3432 55.6112 64.2854 55.7324 64.2469C55.859 64.2028 56.0049 64.1808 56.1701 64.1808C56.4618 64.1808 56.7206 64.2524 56.9463 64.3955C57.1721 64.5387 57.3372 64.7589 57.4418 65.0562H57.4666C57.5437 64.8139 57.6923 64.6075 57.9126 64.4368C58.1328 64.2661 58.4163 64.1808 58.7632 64.1808C59.1926 64.1808 59.5257 64.3267 59.7624 64.6185C59.9992 64.9048 60.1175 65.3149 60.1175 65.849V68.5742H59.2174V65.9563C59.2174 65.626 59.1541 65.3783 59.0274 65.2131C58.9008 65.0424 58.6998 64.9571 58.4246 64.9571C58.309 64.9571 58.1988 64.9736 58.0942 65.0066C57.9896 65.0342 57.896 65.0782 57.8135 65.1388C57.7364 65.1993 57.6731 65.2764 57.6235 65.37C57.574 65.4636 57.5492 65.5709 57.5492 65.6921V68.5742H56.649V65.9563C56.649 65.2902 56.3875 64.9571 55.8645 64.9571C55.7544 64.9571 55.6443 64.9736 55.5342 65.0066C55.4296 65.0342 55.336 65.0782 55.2534 65.1388C55.1708 65.1993 55.1047 65.2764 55.0552 65.37C55.0056 65.4636 54.9809 65.5709 54.9809 65.6921V68.5742H54.0807ZM66.4613 68.5742C66.2245 68.5742 66.0428 68.5082 65.9162 68.376C65.7896 68.2384 65.7125 68.065 65.685 67.8557H65.6437C65.5611 68.1255 65.4097 68.3292 65.1895 68.4669C64.9693 68.6045 64.7022 68.6733 64.3884 68.6733C63.9425 68.6733 63.5984 68.5577 63.3561 68.3265C63.1194 68.0952 63.001 67.7842 63.001 67.3933C63.001 66.9638 63.1552 66.6418 63.4635 66.4271C63.7773 66.2123 64.2343 66.105 64.8344 66.105H65.6107V65.7416C65.6107 65.4774 65.5391 65.2737 65.3959 65.1305C65.2528 64.9874 65.0298 64.9158 64.727 64.9158C64.4738 64.9158 64.2673 64.9708 64.1076 65.081C63.948 65.1911 63.8131 65.3315 63.703 65.5021L63.1662 65.0149C63.3093 64.7726 63.5103 64.5744 63.7691 64.4203C64.0278 64.2606 64.3664 64.1808 64.7848 64.1808C65.3409 64.1808 65.7676 64.3102 66.0649 64.5689C66.3622 64.8277 66.5108 65.1993 66.5108 65.6838V67.8392H66.965V68.5742H66.4613ZM64.6444 67.9879C64.9252 67.9879 65.1564 67.9273 65.3381 67.8062C65.5198 67.6796 65.6107 67.5117 65.6107 67.3024V66.6831H64.8509C64.2288 66.6831 63.9177 66.8758 63.9177 67.2611V67.4098C63.9177 67.6025 63.981 67.7484 64.1076 67.8475C64.2398 67.9411 64.4187 67.9879 64.6444 67.9879ZM67.8472 68.5742V64.2799H68.7474V64.9901H68.7887C68.8823 64.7589 69.0227 64.5662 69.2099 64.412C69.4025 64.2579 69.6641 64.1808 69.9944 64.1808C70.4348 64.1808 70.7762 64.3267 71.0184 64.6185C71.2662 64.9048 71.39 65.3149 71.39 65.849V68.5742H70.4899V65.9646C70.4899 65.2929 70.2201 64.9571 69.6806 64.9571C69.565 64.9571 69.4493 64.9736 69.3337 65.0066C69.2236 65.0342 69.1245 65.0782 69.0364 65.1388C68.9483 65.1993 68.8768 65.2764 68.8217 65.37C68.7722 65.4636 68.7474 65.5737 68.7474 65.7003V68.5742H67.8472ZM75.3382 67.864H75.2969C75.2033 68.1173 75.0491 68.3155 74.8344 68.4586C74.6252 68.6017 74.3774 68.6733 74.0912 68.6733C73.5461 68.6733 73.1249 68.4779 72.8276 68.087C72.5303 67.6906 72.3817 67.1373 72.3817 66.4271C72.3817 65.7168 72.5303 65.1663 72.8276 64.7754C73.1249 64.379 73.5461 64.1808 74.0912 64.1808C74.3774 64.1808 74.6252 64.2524 74.8344 64.3955C75.0491 64.5332 75.2033 64.7314 75.2969 64.9901H75.3382V62.4631H76.2383V68.5742H75.3382V67.864ZM74.3637 67.897C74.639 67.897 74.8702 67.831 75.0574 67.6988C75.2446 67.5612 75.3382 67.3823 75.3382 67.162V65.6921C75.3382 65.4718 75.2446 65.2957 75.0574 65.1635C74.8702 65.0259 74.639 64.9571 74.3637 64.9571C74.0499 64.9571 73.7994 65.0589 73.6122 65.2626C73.425 65.4608 73.3314 65.7251 73.3314 66.0554V66.7987C73.3314 67.129 73.425 67.396 73.6122 67.5997C73.7994 67.7979 74.0499 67.897 74.3637 67.897ZM80.4098 68.5742L78.9481 64.2799H79.84L80.4924 66.2371L80.9301 67.7401H80.9796L81.4173 66.2371L82.0862 64.2799H82.9451L81.4668 68.5742H80.4098ZM85.3227 68.6733C85.0254 68.6733 84.7529 68.621 84.5051 68.5164C84.2629 68.4118 84.0564 68.2632 83.8858 68.0705C83.7151 67.8723 83.583 67.6355 83.4894 67.3602C83.3958 67.0795 83.349 66.7684 83.349 66.4271C83.349 66.0857 83.3958 65.7774 83.4894 65.5021C83.583 65.2213 83.7151 64.9846 83.8858 64.7919C84.0564 64.5937 84.2629 64.4423 84.5051 64.3377C84.7529 64.2331 85.0254 64.1808 85.3227 64.1808C85.62 64.1808 85.8898 64.2331 86.132 64.3377C86.3798 64.4423 86.589 64.5937 86.7597 64.7919C86.9303 64.9846 87.0625 65.2213 87.1561 65.5021C87.2496 65.7774 87.2964 66.0857 87.2964 66.4271C87.2964 66.7684 87.2496 67.0795 87.1561 67.3602C87.0625 67.6355 86.9303 67.8723 86.7597 68.0705C86.589 68.2632 86.3798 68.4118 86.132 68.5164C85.8898 68.621 85.62 68.6733 85.3227 68.6733ZM85.3227 67.9301C85.631 67.9301 85.8788 67.8365 86.066 67.6493C86.2531 67.4566 86.3467 67.1703 86.3467 66.7904V66.0637C86.3467 65.6838 86.2531 65.4003 86.066 65.2131C85.8788 65.0204 85.631 64.924 85.3227 64.924C85.0144 64.924 84.7666 65.0204 84.5795 65.2131C84.3923 65.4003 84.2987 65.6838 84.2987 66.0637V66.7904C84.2987 67.1703 84.3923 67.4566 84.5795 67.6493C84.7666 67.8365 85.0144 67.9301 85.3227 67.9301ZM88.7536 63.5119C88.5665 63.5119 88.4288 63.4678 88.3407 63.3797C88.2581 63.2917 88.2169 63.1788 88.2169 63.0412V62.9008C88.2169 62.7631 88.2581 62.6503 88.3407 62.5622C88.4288 62.4741 88.5665 62.43 88.7536 62.43C88.9408 62.43 89.0757 62.4741 89.1583 62.5622C89.2409 62.6503 89.2822 62.7631 89.2822 62.9008V63.0412C89.2822 63.1788 89.2409 63.2917 89.1583 63.3797C89.0757 63.4678 88.9408 63.5119 88.7536 63.5119ZM88.2994 64.2799H89.1996V68.5742H88.2994V64.2799ZM92.1449 68.6733C91.8366 68.6733 91.5613 68.621 91.3191 68.5164C91.0768 68.4118 90.8731 68.2632 90.708 68.0705C90.5428 67.8723 90.4162 67.6355 90.3281 67.3602C90.24 67.0795 90.1959 66.7684 90.1959 66.4271C90.1959 66.0857 90.24 65.7774 90.3281 65.5021C90.4162 65.2213 90.5428 64.9846 90.708 64.7919C90.8731 64.5937 91.0768 64.4423 91.3191 64.3377C91.5613 64.2331 91.8366 64.1808 92.1449 64.1808C92.5743 64.1808 92.9267 64.2771 93.202 64.4698C93.4772 64.6625 93.6782 64.9185 93.8048 65.2379L93.0616 65.5847C93.001 65.3865 92.8937 65.2296 92.7395 65.114C92.5909 64.9929 92.3927 64.9323 92.1449 64.9323C91.8146 64.9323 91.5641 65.0369 91.3934 65.2461C91.2282 65.4498 91.1456 65.7168 91.1456 66.0472V66.8152C91.1456 67.1455 91.2282 67.4153 91.3934 67.6245C91.5641 67.8282 91.8146 67.9301 92.1449 67.9301C92.4092 67.9301 92.6184 67.8668 92.7725 67.7401C92.9322 67.608 93.0588 67.4346 93.1524 67.2199L93.8379 67.5832C93.6947 67.9356 93.48 68.2053 93.1937 68.3925C92.9074 68.5797 92.5578 68.6733 92.1449 68.6733ZM96.3311 68.6733C96.0228 68.6733 95.7475 68.621 95.5053 68.5164C95.263 68.4118 95.0566 68.2632 94.8859 68.0705C94.7152 67.8723 94.5831 67.6355 94.4895 67.3602C94.4014 67.0795 94.3574 66.7684 94.3574 66.4271C94.3574 66.0857 94.4014 65.7774 94.4895 65.5021C94.5831 65.2213 94.7152 64.9846 94.8859 64.7919C95.0566 64.5937 95.263 64.4423 95.5053 64.3377C95.7475 64.2331 96.0228 64.1808 96.3311 64.1808C96.6449 64.1808 96.9202 64.2359 97.1569 64.346C97.3992 64.4561 97.6001 64.6102 97.7598 64.8084C97.9194 65.0011 98.0378 65.2269 98.1149 65.4856C98.1975 65.7444 98.2388 66.0224 98.2388 66.3197V66.6583H95.2905V66.7987C95.2905 67.129 95.3869 67.4015 95.5796 67.6163C95.7778 67.8255 96.0586 67.9301 96.4219 67.9301C96.6862 67.9301 96.9092 67.8723 97.0908 67.7566C97.2725 67.641 97.4267 67.4841 97.5533 67.2859L98.0818 67.8062C97.9222 68.0705 97.691 68.2824 97.3881 68.4421C97.0853 68.5962 96.733 68.6733 96.3311 68.6733ZM96.3311 64.8828C96.1769 64.8828 96.0338 64.9103 95.9017 64.9653C95.775 65.0204 95.6649 65.0975 95.5713 65.1966C95.4832 65.2957 95.4144 65.414 95.3649 65.5517C95.3153 65.6893 95.2905 65.8407 95.2905 66.0059V66.0637H97.289V65.9811C97.289 65.6508 97.2037 65.3865 97.033 65.1883C96.8624 64.9846 96.6284 64.8828 96.3311 64.8828ZM104.333 68.5742C104.097 68.5742 103.915 68.5082 103.788 68.376C103.662 68.2384 103.585 68.065 103.557 67.8557H103.516C103.433 68.1255 103.282 68.3292 103.062 68.4669C102.841 68.6045 102.574 68.6733 102.26 68.6733C101.815 68.6733 101.47 68.5577 101.228 68.3265C100.991 68.0952 100.873 67.7842 100.873 67.3933C100.873 66.9638 101.027 66.6418 101.336 66.4271C101.649 66.2123 102.106 66.105 102.706 66.105H103.483V65.7416C103.483 65.4774 103.411 65.2737 103.268 65.1305C103.125 64.9874 102.902 64.9158 102.599 64.9158C102.346 64.9158 102.139 64.9708 101.98 65.081C101.82 65.1911 101.685 65.3315 101.575 65.5021L101.038 65.0149C101.181 64.7726 101.382 64.5744 101.641 64.4203C101.9 64.2606 102.238 64.1808 102.657 64.1808C103.213 64.1808 103.64 64.3102 103.937 64.5689C104.234 64.8277 104.383 65.1993 104.383 65.6838V67.8392H104.837V68.5742H104.333ZM102.516 67.9879C102.797 67.9879 103.029 67.9273 103.21 67.8062C103.392 67.6796 103.483 67.5117 103.483 67.3024V66.6831H102.723C102.101 66.6831 101.79 66.8758 101.79 67.2611V67.4098C101.79 67.6025 101.853 67.7484 101.98 67.8475C102.112 67.9411 102.291 67.9879 102.516 67.9879ZM107.082 68.6733C106.674 68.6733 106.333 68.6017 106.058 68.4586C105.783 68.3155 105.543 68.1173 105.339 67.864L105.917 67.3355C106.077 67.5282 106.253 67.6796 106.446 67.7897C106.644 67.8943 106.873 67.9466 107.131 67.9466C107.396 67.9466 107.591 67.897 107.718 67.7979C107.85 67.6933 107.916 67.5502 107.916 67.3685C107.916 67.2309 107.869 67.1153 107.776 67.0217C107.688 66.9226 107.531 66.8592 107.305 66.8317L106.908 66.7822C106.468 66.7271 106.121 66.6005 105.868 66.4023C105.62 66.1986 105.496 65.8985 105.496 65.5021C105.496 65.2929 105.535 65.1085 105.612 64.9488C105.689 64.7837 105.796 64.646 105.934 64.5359C106.077 64.4203 106.245 64.3322 106.438 64.2716C106.636 64.2111 106.853 64.1808 107.09 64.1808C107.476 64.1808 107.789 64.2414 108.032 64.3625C108.279 64.4836 108.5 64.6515 108.692 64.8662L108.139 65.3948C108.029 65.2626 107.883 65.1498 107.701 65.0562C107.525 64.9571 107.321 64.9075 107.09 64.9075C106.842 64.9075 106.658 64.9571 106.537 65.0562C106.421 65.1553 106.363 65.2847 106.363 65.4443C106.363 65.6095 106.416 65.7334 106.52 65.8159C106.625 65.8985 106.793 65.9591 107.024 65.9976L107.42 66.0472C107.894 66.1187 108.238 66.2591 108.453 66.4684C108.673 66.6721 108.783 66.9473 108.783 67.2942C108.783 67.5034 108.742 67.6933 108.659 67.864C108.582 68.0292 108.469 68.1723 108.321 68.2934C108.172 68.4146 107.993 68.5082 107.784 68.5742C107.575 68.6403 107.341 68.6733 107.082 68.6733ZM111.114 68.6733C110.707 68.6733 110.366 68.6017 110.09 68.4586C109.815 68.3155 109.575 68.1173 109.372 67.864L109.95 67.3355C110.11 67.5282 110.286 67.6796 110.478 67.7897C110.677 67.8943 110.905 67.9466 111.164 67.9466C111.428 67.9466 111.624 67.897 111.75 67.7979C111.882 67.6933 111.948 67.5502 111.948 67.3685C111.948 67.2309 111.902 67.1153 111.808 67.0217C111.72 66.9226 111.563 66.8592 111.337 66.8317L110.941 66.7822C110.5 66.7271 110.154 66.6005 109.9 66.4023C109.653 66.1986 109.529 65.8985 109.529 65.5021C109.529 65.2929 109.567 65.1085 109.644 64.9488C109.721 64.7837 109.829 64.646 109.966 64.5359C110.11 64.4203 110.277 64.3322 110.47 64.2716C110.668 64.2111 110.886 64.1808 111.123 64.1808C111.508 64.1808 111.822 64.2414 112.064 64.3625C112.312 64.4836 112.532 64.6515 112.725 64.8662L112.171 65.3948C112.061 65.2626 111.915 65.1498 111.734 65.0562C111.557 64.9571 111.354 64.9075 111.123 64.9075C110.875 64.9075 110.69 64.9571 110.569 65.0562C110.454 65.1553 110.396 65.2847 110.396 65.4443C110.396 65.6095 110.448 65.7334 110.553 65.8159C110.657 65.8985 110.825 65.9591 111.056 65.9976L111.453 66.0472C111.926 66.1187 112.27 66.2591 112.485 66.4684C112.705 66.6721 112.815 66.9473 112.815 67.2942C112.815 67.5034 112.774 67.6933 112.692 67.864C112.615 68.0292 112.502 68.1723 112.353 68.2934C112.204 68.4146 112.025 68.5082 111.816 68.5742C111.607 68.6403 111.373 68.6733 111.114 68.6733ZM114.287 63.5119C114.099 63.5119 113.962 63.4678 113.874 63.3797C113.791 63.2917 113.75 63.1788 113.75 63.0412V62.9008C113.75 62.7631 113.791 62.6503 113.874 62.5622C113.962 62.4741 114.099 62.43 114.287 62.43C114.474 62.43 114.609 62.4741 114.691 62.5622C114.774 62.6503 114.815 62.7631 114.815 62.9008V63.0412C114.815 63.1788 114.774 63.2917 114.691 63.3797C114.609 63.4678 114.474 63.5119 114.287 63.5119ZM113.832 64.2799H114.733V68.5742H113.832V64.2799ZM117.381 68.6733C116.973 68.6733 116.632 68.6017 116.357 68.4586C116.081 68.3155 115.842 68.1173 115.638 67.864L116.216 67.3355C116.376 67.5282 116.552 67.6796 116.745 67.7897C116.943 67.8943 117.171 67.9466 117.43 67.9466C117.694 67.9466 117.89 67.897 118.016 67.7979C118.149 67.6933 118.215 67.5502 118.215 67.3685C118.215 67.2309 118.168 67.1153 118.074 67.0217C117.986 66.9226 117.829 66.8592 117.604 66.8317L117.207 66.7822C116.767 66.7271 116.42 66.6005 116.167 66.4023C115.919 66.1986 115.795 65.8985 115.795 65.5021C115.795 65.2929 115.834 65.1085 115.911 64.9488C115.988 64.7837 116.095 64.646 116.233 64.5359C116.376 64.4203 116.544 64.3322 116.736 64.2716C116.935 64.2111 117.152 64.1808 117.389 64.1808C117.774 64.1808 118.088 64.2414 118.33 64.3625C118.578 64.4836 118.798 64.6515 118.991 64.8662L118.438 65.3948C118.328 65.2626 118.182 65.1498 118 65.0562C117.824 64.9571 117.62 64.9075 117.389 64.9075C117.141 64.9075 116.957 64.9571 116.836 65.0562C116.72 65.1553 116.662 65.2847 116.662 65.4443C116.662 65.6095 116.714 65.7334 116.819 65.8159C116.924 65.8985 117.092 65.9591 117.323 65.9976L117.719 66.0472C118.193 66.1187 118.537 66.2591 118.751 66.4684C118.972 66.6721 119.082 66.9473 119.082 67.2942C119.082 67.5034 119.041 67.6933 118.958 67.864C118.881 68.0292 118.768 68.1723 118.619 68.2934C118.471 68.4146 118.292 68.5082 118.083 68.5742C117.873 68.6403 117.639 68.6733 117.381 68.6733ZM121.231 68.5742C120.918 68.5742 120.681 68.4944 120.521 68.3347C120.362 68.1696 120.282 67.9383 120.282 67.641V65.0149H119.613V64.2799H119.976C120.125 64.2799 120.227 64.2469 120.282 64.1808C120.342 64.1147 120.373 64.0074 120.373 63.8587V63.1072H121.182V64.2799H122.082V65.0149H121.182V67.8392H122.016V68.5742H121.231ZM126.205 68.5742C125.968 68.5742 125.786 68.5082 125.66 68.376C125.533 68.2384 125.456 68.065 125.429 67.8557H125.387C125.305 68.1255 125.153 68.3292 124.933 68.4669C124.713 68.6045 124.446 68.6733 124.132 68.6733C123.686 68.6733 123.342 68.5577 123.1 68.3265C122.863 68.0952 122.745 67.7842 122.745 67.3933C122.745 66.9638 122.899 66.6418 123.207 66.4271C123.521 66.2123 123.978 66.105 124.578 66.105H125.354V65.7416C125.354 65.4774 125.283 65.2737 125.14 65.1305C124.996 64.9874 124.773 64.9158 124.471 64.9158C124.217 64.9158 124.011 64.9708 123.851 65.081C123.692 65.1911 123.557 65.3315 123.447 65.5021L122.91 65.0149C123.053 64.7726 123.254 64.5744 123.513 64.4203C123.771 64.2606 124.11 64.1808 124.528 64.1808C125.085 64.1808 125.511 64.3102 125.809 64.5689C126.106 64.8277 126.254 65.1993 126.254 65.6838V67.8392H126.709V68.5742H126.205ZM124.388 67.9879C124.669 67.9879 124.9 67.9273 125.082 67.8062C125.263 67.6796 125.354 67.5117 125.354 67.3024V66.6831H124.595C123.972 66.6831 123.661 66.8758 123.661 67.2611V67.4098C123.661 67.6025 123.725 67.7484 123.851 67.8475C123.983 67.9411 124.162 67.9879 124.388 67.9879ZM127.591 68.5742V64.2799H128.491V64.9901H128.532C128.626 64.7589 128.766 64.5662 128.954 64.412C129.146 64.2579 129.408 64.1808 129.738 64.1808C130.178 64.1808 130.52 64.3267 130.762 64.6185C131.01 64.9048 131.134 65.3149 131.134 65.849V68.5742H130.234V65.9646C130.234 65.2929 129.964 64.9571 129.424 64.9571C129.309 64.9571 129.193 64.9736 129.077 65.0066C128.967 65.0342 128.868 65.0782 128.78 65.1388C128.692 65.1993 128.62 65.2764 128.565 65.37C128.516 65.4636 128.491 65.5737 128.491 65.7003V68.5742H127.591ZM134.041 68.6733C133.733 68.6733 133.458 68.621 133.215 68.5164C132.973 68.4118 132.769 68.2632 132.604 68.0705C132.439 67.8723 132.313 67.6355 132.224 67.3602C132.136 67.0795 132.092 66.7684 132.092 66.4271C132.092 66.0857 132.136 65.7774 132.224 65.5021C132.313 65.2213 132.439 64.9846 132.604 64.7919C132.769 64.5937 132.973 64.4423 133.215 64.3377C133.458 64.2331 133.733 64.1808 134.041 64.1808C134.471 64.1808 134.823 64.2771 135.098 64.4698C135.374 64.6625 135.575 64.9185 135.701 65.2379L134.958 65.5847C134.897 65.3865 134.79 65.2296 134.636 65.114C134.487 64.9929 134.289 64.9323 134.041 64.9323C133.711 64.9323 133.46 65.0369 133.29 65.2461C133.125 65.4498 133.042 65.7168 133.042 66.0472V66.8152C133.042 67.1455 133.125 67.4153 133.29 67.6245C133.46 67.8282 133.711 67.9301 134.041 67.9301C134.306 67.9301 134.515 67.8668 134.669 67.7401C134.829 67.608 134.955 67.4346 135.049 67.2199L135.734 67.5832C135.591 67.9356 135.376 68.2053 135.09 68.3925C134.804 68.5797 134.454 68.6733 134.041 68.6733ZM138.227 68.6733C137.919 68.6733 137.644 68.621 137.402 68.5164C137.159 68.4118 136.953 68.2632 136.782 68.0705C136.612 67.8723 136.479 67.6355 136.386 67.3602C136.298 67.0795 136.254 66.7684 136.254 66.4271C136.254 66.0857 136.298 65.7774 136.386 65.5021C136.479 65.2213 136.612 64.9846 136.782 64.7919C136.953 64.5937 137.159 64.4423 137.402 64.3377C137.644 64.2331 137.919 64.1808 138.227 64.1808C138.541 64.1808 138.817 64.2359 139.053 64.346C139.296 64.4561 139.496 64.6102 139.656 64.8084C139.816 65.0011 139.934 65.2269 140.011 65.4856C140.094 65.7444 140.135 66.0224 140.135 66.3197V66.6583H137.187V66.7987C137.187 67.129 137.283 67.4015 137.476 67.6163C137.674 67.8255 137.955 67.9301 138.318 67.9301C138.583 67.9301 138.806 67.8723 138.987 67.7566C139.169 67.641 139.323 67.4841 139.45 67.2859L139.978 67.8062C139.819 68.0705 139.587 68.2824 139.285 68.4421C138.982 68.5962 138.629 68.6733 138.227 68.6733ZM138.227 64.8828C138.073 64.8828 137.93 64.9103 137.798 64.9653C137.671 65.0204 137.561 65.0975 137.468 65.1966C137.38 65.2957 137.311 65.414 137.261 65.5517C137.212 65.6893 137.187 65.8407 137.187 66.0059V66.0637H139.185V65.9811C139.185 65.6508 139.1 65.3865 138.929 65.1883C138.759 64.9846 138.525 64.8828 138.227 64.8828ZM141.54 68.6733C141.336 68.6733 141.185 68.621 141.086 68.5164C140.986 68.4063 140.937 68.2714 140.937 68.1118V67.9879C140.937 67.8282 140.986 67.6961 141.086 67.5915C141.185 67.4814 141.336 67.4263 141.54 67.4263C141.743 67.4263 141.895 67.4814 141.994 67.5915C142.093 67.6961 142.143 67.8282 142.143 67.9879V68.1118C142.143 68.2714 142.093 68.4063 141.994 68.5164C141.895 68.621 141.743 68.6733 141.54 68.6733Z" fill="#121212"/>
</g>
<defs>
<clipPath id="clip0_447_2398">
<rect width="162.413" height="92.6765" fill="white"/>
</clipPath>
</defs>
</svg>
