<svg width="36" height="36" viewBox="0 0 36 36" fill="none" xmlns="http://www.w3.org/2000/svg">
<path d="M22.0962 3.49121C21.8745 6.70514 21.649 9.9193 21.4214 13.1328C23.5962 13.1379 25.771 13.1436 27.9458 13.1514L31.561 13.1455L28.5444 15.1445C26.6189 16.4062 24.6924 17.6666 22.7651 18.9258C24.1989 21.3818 25.6313 23.8394 27.061 26.2979L25.6177 27.6064C23.2685 25.866 20.9209 24.1233 18.5747 22.3789C16.6984 25.0459 14.8194 27.7115 12.938 30.375L11.1646 32.9648L11.4624 29.834C11.7568 27.1483 12.0525 24.4626 12.3511 21.7773C9.79444 21.7447 7.23779 21.7112 4.68115 21.6748L4.39893 20.5576C6.90847 19.2491 9.41941 17.9431 11.9312 16.6387C10.7883 13.9312 9.6476 11.2222 8.50928 8.5127L8.1333 7.67969L8.93604 8.12695C10.0798 8.80275 11.2235 9.47859 12.3667 10.1553C13.9233 11.0767 15.48 11.9988 17.0356 12.9219C17.3892 11.1086 17.8268 9.32865 18.3481 7.58203C18.8119 6.02856 19.3425 4.50072 19.939 3L22.0962 3.49121Z" fill="white"/>
</svg>
