<svg width="53" height="51" viewBox="0 0 53 51" fill="none" xmlns="http://www.w3.org/2000/svg">
<mask id="path-1-outside-1_539_47" maskUnits="userSpaceOnUse" x="-0.999268" y="0" width="55" height="51" fill="black">
<rect fill="white" x="-0.999268" width="55" height="51"/>
<path d="M38.3757 4C44.2432 4 49.0007 8.75625 49.0007 14.625C49.0007 19.4091 45.839 23.4525 41.4919 24.7842C41.4973 24.9374 41.5007 25.0927 41.5007 25.25C41.5007 29.6367 39.1092 34.212 36.0828 37.7461C39.3557 37.7296 44.3238 38.1872 48.3943 40.6289C48.9855 40.9839 49.1782 41.7513 48.822 42.3438C48.5883 42.7337 48.1747 42.9502 47.7498 42.9502C47.531 42.9502 47.3084 42.8927 47.1072 42.7715C44.9015 41.448 42.3284 40.7929 39.9841 40.4893C41.7942 41.4906 43.6185 42.8571 45.0007 44.7002C45.4157 45.2527 45.3032 46.0364 44.7507 46.4502C44.5258 46.6189 44.2629 46.7002 44.0017 46.7002C43.6206 46.7 43.2456 46.5276 43.0007 46.2002C40.2403 42.5201 35.1441 41.0269 33.2654 40.585C30.8303 42.6868 28.3315 44 26.5007 44C24.6703 43.9999 22.1716 42.688 19.7371 40.5869C17.8554 41.0329 12.7502 42.5349 10.0007 46.2002C9.75449 46.5276 9.37971 46.7002 8.99976 46.7002C8.73976 46.7002 8.47573 46.6189 8.25073 46.4502C7.6984 46.0364 7.58708 45.2526 8.00073 44.7002C9.38239 42.8578 11.206 41.4915 13.0154 40.4902C10.6716 40.7938 8.09891 41.4488 5.89429 42.7715C5.69311 42.8926 5.47035 42.9502 5.25171 42.9502C4.82688 42.95 4.4131 42.7336 4.17944 42.3438C3.82344 41.7513 4.01603 40.9838 4.60718 40.6289C8.67712 38.1869 13.6455 37.7296 16.9187 37.7461C13.8924 34.212 11.5007 29.6366 11.5007 25.25C11.5007 25.0927 11.5042 24.9374 11.5095 24.7842C7.16206 23.4525 4.00073 19.4091 4.00073 14.625C4.00073 8.75632 8.75708 4.00012 14.6257 4C20.2952 4 24.9252 8.43882 25.2332 14.0312C25.6644 14.0101 26.088 14 26.5007 14C26.9131 14 27.3365 14.0102 27.7673 14.0312C28.0753 8.43885 32.7075 4.00011 38.3757 4Z"/>
</mask>
<path d="M38.3757 4C44.2432 4 49.0007 8.75625 49.0007 14.625C49.0007 19.4091 45.839 23.4525 41.4919 24.7842C41.4973 24.9374 41.5007 25.0927 41.5007 25.25C41.5007 29.6367 39.1092 34.212 36.0828 37.7461C39.3557 37.7296 44.3238 38.1872 48.3943 40.6289C48.9855 40.9839 49.1782 41.7513 48.822 42.3438C48.5883 42.7337 48.1747 42.9502 47.7498 42.9502C47.531 42.9502 47.3084 42.8927 47.1072 42.7715C44.9015 41.448 42.3284 40.7929 39.9841 40.4893C41.7942 41.4906 43.6185 42.8571 45.0007 44.7002C45.4157 45.2527 45.3032 46.0364 44.7507 46.4502C44.5258 46.6189 44.2629 46.7002 44.0017 46.7002C43.6206 46.7 43.2456 46.5276 43.0007 46.2002C40.2403 42.5201 35.1441 41.0269 33.2654 40.585C30.8303 42.6868 28.3315 44 26.5007 44C24.6703 43.9999 22.1716 42.688 19.7371 40.5869C17.8554 41.0329 12.7502 42.5349 10.0007 46.2002C9.75449 46.5276 9.37971 46.7002 8.99976 46.7002C8.73976 46.7002 8.47573 46.6189 8.25073 46.4502C7.6984 46.0364 7.58708 45.2526 8.00073 44.7002C9.38239 42.8578 11.206 41.4915 13.0154 40.4902C10.6716 40.7938 8.09891 41.4488 5.89429 42.7715C5.69311 42.8926 5.47035 42.9502 5.25171 42.9502C4.82688 42.95 4.4131 42.7336 4.17944 42.3438C3.82344 41.7513 4.01603 40.9838 4.60718 40.6289C8.67712 38.1869 13.6455 37.7296 16.9187 37.7461C13.8924 34.212 11.5007 29.6366 11.5007 25.25C11.5007 25.0927 11.5042 24.9374 11.5095 24.7842C7.16206 23.4525 4.00073 19.4091 4.00073 14.625C4.00073 8.75632 8.75708 4.00012 14.6257 4C20.2952 4 24.9252 8.43882 25.2332 14.0312C25.6644 14.0101 26.088 14 26.5007 14C26.9131 14 27.3365 14.0102 27.7673 14.0312C28.0753 8.43885 32.7075 4.00011 38.3757 4Z" fill="black" fill-opacity="0.1"/>
<path d="M38.3757 4V0H38.3757L38.3757 4ZM41.4919 24.7842L40.3203 20.9596L37.388 21.8579L37.4944 24.9229L41.4919 24.7842ZM36.0828 37.7461L33.0445 35.1443L27.3536 41.79L36.1029 41.746L36.0828 37.7461ZM48.3943 40.6289L50.4533 37.1996L50.4519 37.1987L48.3943 40.6289ZM48.822 42.3438L45.3938 40.2829L45.3911 40.2874L48.822 42.3438ZM47.7498 42.9502V46.9502H47.75L47.7498 42.9502ZM47.1072 42.7715L49.1714 39.3453L49.1653 39.3416L47.1072 42.7715ZM39.9841 40.4893L40.4979 36.5224L38.0478 43.9893L39.9841 40.4893ZM45.0007 44.7002L41.8007 47.1001L41.8025 47.1025L45.0007 44.7002ZM44.7507 46.4502L42.3531 43.2485L42.3511 43.2499L44.7507 46.4502ZM44.0017 46.7002L44.0002 50.7002H44.0017V46.7002ZM43.0007 46.2002L46.2037 43.8041L46.2006 43.8L43.0007 46.2002ZM33.2654 40.585L34.1814 36.6913L32.1958 36.2242L30.6517 37.5569L33.2654 40.585ZM26.5007 44L26.5005 48H26.5007V44ZM19.7371 40.5869L22.3505 37.5587L20.8033 36.2234L18.8146 36.6947L19.7371 40.5869ZM10.0007 46.2002L13.1976 48.6043L13.2005 48.6005L10.0007 46.2002ZM8.99976 46.7002V50.7002H8.99994L8.99976 46.7002ZM8.25073 46.4502L10.6507 43.2502L10.6489 43.2488L8.25073 46.4502ZM8.00073 44.7002L4.80064 42.3003L4.79884 42.3027L8.00073 44.7002ZM13.0154 40.4902L14.9521 43.9901L12.5016 36.5234L13.0154 40.4902ZM5.89429 42.7715L3.83641 39.3414L3.83097 39.3447L5.89429 42.7715ZM5.25171 42.9502L5.25015 46.9502H5.25171V42.9502ZM4.17944 42.3438L7.61039 40.2874L7.60806 40.2835L4.17944 42.3438ZM4.60718 40.6289L2.5492 37.1989L2.54813 37.1996L4.60718 40.6289ZM16.9187 37.7461L16.8985 41.746L25.6478 41.7901L19.957 35.1444L16.9187 37.7461ZM11.5095 24.7842L15.5071 24.9229L15.6135 21.8578L12.681 20.9596L11.5095 24.7842ZM14.6257 4V0H14.6257L14.6257 4ZM25.2332 14.0312L21.2392 14.2512L21.4578 18.2209L25.4288 18.0265L25.2332 14.0312ZM26.5007 14V10H26.5007L26.5007 14ZM27.7673 14.0312L27.5719 18.0265L31.5427 18.2207L31.7613 14.2512L27.7673 14.0312ZM38.3757 4V8C42.0344 8 45.0007 10.9657 45.0007 14.625H49.0007H53.0007C53.0007 6.5468 46.4521 0 38.3757 0V4ZM49.0007 14.625H45.0007C45.0007 17.6013 43.0349 20.128 40.3203 20.9596L41.4919 24.7842L42.6636 28.6087C48.6431 26.777 53.0007 21.2169 53.0007 14.625H49.0007ZM41.4919 24.7842L37.4944 24.9229C37.4985 25.0436 37.5007 25.1508 37.5007 25.25H41.5007H45.5007C45.5007 25.0345 45.496 24.8313 45.4895 24.6455L41.4919 24.7842ZM41.5007 25.25H37.5007C37.5007 28.2998 35.7554 31.9787 33.0445 35.1443L36.0828 37.7461L39.121 40.3478C42.463 36.4452 45.5007 30.9735 45.5007 25.25H41.5007ZM36.0828 37.7461L36.1029 41.746C39.1266 41.7309 43.2075 42.1821 46.3367 44.0591L48.3943 40.6289L50.4519 37.1987C45.4401 34.1924 39.5848 33.7284 36.0627 33.7461L36.0828 37.7461ZM48.3943 40.6289L46.3352 44.0582C45.0351 43.2776 44.6093 41.5879 45.3938 40.2829L48.822 42.3438L52.2503 44.4046C53.747 41.9147 52.9359 38.6901 50.4533 37.1996L48.3943 40.6289ZM48.822 42.3438L45.3911 40.2874C45.9102 39.4213 46.8287 38.9502 47.7496 38.9502L47.7498 42.9502L47.75 46.9502C49.5208 46.9501 51.2664 46.0462 52.253 44.4001L48.822 42.3438ZM47.7498 42.9502V38.9502C48.2326 38.9502 48.7278 39.078 49.1714 39.3453L47.1072 42.7715L45.0429 46.1977C45.8891 46.7075 46.8294 46.9502 47.7498 46.9502V42.9502ZM47.1072 42.7715L49.1653 39.3416C46.3166 37.6323 43.1486 36.8657 40.4979 36.5224L39.9841 40.4893L39.4704 44.4561C41.5082 44.72 43.4864 45.2637 45.0491 46.2014L47.1072 42.7715ZM39.9841 40.4893L38.0478 43.9893C39.5295 44.8091 40.855 45.8392 41.8007 47.1001L45.0007 44.7002L48.2008 42.3003C46.3819 39.875 44.0588 38.1722 41.9205 36.9892L39.9841 40.4893ZM45.0007 44.7002L41.8025 47.1025C40.8884 45.8856 41.1367 44.1593 42.3531 43.2485L44.7507 46.4502L47.1484 49.6519C49.4697 47.9136 49.9431 44.6198 48.199 42.2979L45.0007 44.7002ZM44.7507 46.4502L42.3511 43.2499C42.842 42.8818 43.4275 42.7002 44.0017 42.7002V46.7002V50.7002C45.0983 50.7002 46.2095 50.3559 47.1504 49.6504L44.7507 46.4502ZM44.0017 46.7002L44.0032 42.7002C44.823 42.7005 45.6588 43.0758 46.2037 43.8041L43.0007 46.2002L39.7978 48.5963C40.8324 49.9793 42.4182 50.6996 44.0002 50.7002L44.0017 46.7002ZM43.0007 46.2002L46.2006 43.8C44.2899 41.2528 41.7007 39.611 39.5312 38.5712C37.3312 37.5168 35.2896 36.952 34.1814 36.6913L33.2654 40.585L32.3494 44.4787C33.1199 44.6599 34.5658 45.0627 36.0736 45.7854C37.6121 46.5228 38.9512 47.4676 39.8009 48.6004L43.0007 46.2002ZM33.2654 40.585L30.6517 37.5569C29.6207 38.4469 28.651 39.1029 27.838 39.5179C27.4349 39.7236 27.1064 39.8517 26.858 39.9248C26.6041 39.9995 26.4916 40 26.5007 40V44V48C28.2953 48 30.0254 47.3833 31.4749 46.6434C32.9777 45.8764 34.4751 44.8248 35.879 43.613L33.2654 40.585ZM26.5007 44L26.501 40C26.5097 40 26.397 39.9995 26.143 39.9247C25.8945 39.8516 25.566 39.7237 25.1631 39.5182C24.3503 39.1035 23.381 38.4481 22.3505 37.5587L19.7371 40.5869L17.1236 43.6151C18.5277 44.8268 20.025 45.8779 21.5278 46.6445C22.9774 47.384 24.7069 47.9999 26.5005 48L26.5007 44ZM19.7371 40.5869L18.8146 36.6947C17.7069 36.9573 15.6643 37.5251 13.4651 38.5794C11.2979 39.6184 8.70751 41.2583 6.80094 43.7999L10.0007 46.2002L13.2005 48.6005C14.0434 47.4768 15.3804 46.533 16.9235 45.7932C18.4347 45.0687 19.8856 44.6625 20.6595 44.4791L19.7371 40.5869ZM10.0007 46.2002L6.80382 43.7961C7.34279 43.0794 8.17249 42.7002 8.99957 42.7002L8.99976 46.7002L8.99994 50.7002C10.5869 50.7001 12.1662 49.9759 13.1976 48.6043L10.0007 46.2002ZM8.99976 46.7002V42.7002C9.57277 42.7002 10.1578 42.8805 10.6507 43.2502L8.25073 46.4502L5.85073 49.6502C6.79365 50.3574 7.90674 50.7002 8.99976 50.7002V46.7002ZM8.25073 46.4502L10.6489 43.2488C11.87 44.1636 12.1086 45.8876 11.2026 47.0977L8.00073 44.7002L4.79884 42.3027C3.06552 44.6176 3.52682 47.9093 5.85253 49.6515L8.25073 46.4502ZM8.00073 44.7002L11.2008 47.1001C12.146 45.8397 13.4711 44.8097 14.9521 43.9901L13.0154 40.4902L11.0786 36.9904C8.94093 38.1734 6.61874 39.876 4.80064 42.3003L8.00073 44.7002ZM13.0154 40.4902L12.5016 36.5234C9.85147 36.8666 6.68403 37.633 3.83641 39.3414L5.89429 42.7715L7.95216 46.2015C9.5138 45.2646 11.4916 44.721 13.5292 44.4571L13.0154 40.4902ZM5.89429 42.7715L3.83097 39.3447C4.27349 39.0783 4.76794 38.9502 5.25171 38.9502V42.9502V46.9502C6.17277 46.9502 7.11273 46.707 7.9576 46.1983L5.89429 42.7715ZM5.25171 42.9502L5.25327 38.9502C6.17232 38.9506 7.0907 39.4203 7.61038 40.2874L4.17944 42.3438L0.748502 44.4001C1.73551 46.0469 3.48144 46.9495 5.25015 46.9502L5.25171 42.9502ZM4.17944 42.3438L7.60806 40.2835C8.39169 41.5876 7.96698 43.2772 6.66623 44.0582L4.60718 40.6289L2.54813 37.1996C0.0650752 38.6905 -0.744821 41.915 0.750829 44.404L4.17944 42.3438ZM4.60718 40.6289L6.66515 44.0589C9.79345 42.1819 13.8742 41.7308 16.8985 41.746L16.9187 37.7461L16.9389 33.7461C13.4167 33.7284 7.5608 34.192 2.5492 37.1989L4.60718 40.6289ZM16.9187 37.7461L19.957 35.1444C17.2462 31.9787 15.5007 28.2997 15.5007 25.25H11.5007H7.50073C7.50073 30.9734 10.5386 36.4452 13.8804 40.3478L16.9187 37.7461ZM11.5007 25.25H15.5007C15.5007 25.1508 15.5029 25.0436 15.5071 24.9229L11.5095 24.7842L7.51193 24.6455C7.50548 24.8313 7.50073 25.0345 7.50073 25.25H11.5007ZM11.5095 24.7842L12.681 20.9596C9.96631 20.128 8.00073 17.6015 8.00073 14.625H4.00073H0.000732422C0.000732422 21.2168 4.35781 26.777 10.338 28.6088L11.5095 24.7842ZM4.00073 14.625H8.00073C8.00073 10.9655 10.9662 8.00007 14.6258 8L14.6257 4L14.6257 0C6.548 0.000159502 0.000732422 6.5471 0.000732422 14.625H4.00073ZM14.6257 4V8C18.1592 8 21.0473 10.7669 21.2392 14.2512L25.2332 14.0312L29.2271 13.8113C28.803 6.11075 22.4312 0 14.6257 0V4ZM25.2332 14.0312L25.4288 18.0265C25.7949 18.0085 26.1533 18 26.5008 18L26.5007 14L26.5007 10C26.0228 10 25.534 10.0117 25.0375 10.036L25.2332 14.0312ZM26.5007 14V18C26.8475 18 27.2058 18.0086 27.5719 18.0265L27.7673 14.0312L27.9627 10.036C27.4672 10.0118 26.9786 10 26.5007 10V14ZM27.7673 14.0312L31.7613 14.2512C31.9531 10.7677 34.8428 8.00007 38.3758 8L38.3757 4L38.3757 0C30.5723 0.000153542 24.1975 6.10997 23.7734 13.8113L27.7673 14.0312Z" fill="black" fill-opacity="0.1" mask="url(#path-1-outside-1_539_47)"/>
<mask id="path-3-outside-2_539_47" maskUnits="userSpaceOnUse" x="0.000732422" y="1" width="53" height="49" fill="black">
<rect fill="white" x="0.000732422" y="1" width="53" height="49"/>
<path d="M38.3757 4C44.2432 4 49.0007 8.75625 49.0007 14.625C49.0007 19.4091 45.839 23.4525 41.4919 24.7842C41.4973 24.9374 41.5007 25.0927 41.5007 25.25C41.5007 29.6367 39.1092 34.212 36.0828 37.7461C39.3557 37.7296 44.3238 38.1872 48.3943 40.6289C48.9855 40.9839 49.1782 41.7513 48.822 42.3438C48.5883 42.7337 48.1747 42.9502 47.7498 42.9502C47.531 42.9502 47.3084 42.8927 47.1072 42.7715C44.9015 41.448 42.3284 40.7929 39.9841 40.4893C41.7942 41.4906 43.6185 42.8571 45.0007 44.7002C45.4157 45.2527 45.3032 46.0364 44.7507 46.4502C44.5258 46.6189 44.2629 46.7002 44.0017 46.7002C43.6206 46.7 43.2456 46.5276 43.0007 46.2002C40.2403 42.5201 35.1441 41.0269 33.2654 40.585C30.8303 42.6868 28.3315 44 26.5007 44C24.6703 43.9999 22.1716 42.688 19.7371 40.5869C17.8554 41.0329 12.7502 42.5349 10.0007 46.2002C9.75449 46.5276 9.37971 46.7002 8.99976 46.7002C8.73976 46.7002 8.47573 46.6189 8.25073 46.4502C7.6984 46.0364 7.58708 45.2526 8.00073 44.7002C9.38239 42.8578 11.206 41.4915 13.0154 40.4902C10.6716 40.7938 8.09891 41.4488 5.89429 42.7715C5.69311 42.8926 5.47035 42.9502 5.25171 42.9502C4.82688 42.95 4.4131 42.7336 4.17944 42.3438C3.82344 41.7513 4.01603 40.9838 4.60718 40.6289C8.67712 38.1869 13.6455 37.7296 16.9187 37.7461C13.8924 34.212 11.5007 29.6366 11.5007 25.25C11.5007 25.0927 11.5042 24.9374 11.5095 24.7842C7.16206 23.4525 4.00073 19.4091 4.00073 14.625C4.00073 8.75632 8.75708 4.00012 14.6257 4C20.2952 4 24.9252 8.43882 25.2332 14.0312C25.6644 14.0101 26.088 14 26.5007 14C26.9131 14 27.3365 14.0102 27.7673 14.0312C28.0753 8.43885 32.7075 4.00011 38.3757 4Z"/>
</mask>
<path d="M38.3757 4C44.2432 4 49.0007 8.75625 49.0007 14.625C49.0007 19.4091 45.839 23.4525 41.4919 24.7842C41.4973 24.9374 41.5007 25.0927 41.5007 25.25C41.5007 29.6367 39.1092 34.212 36.0828 37.7461C39.3557 37.7296 44.3238 38.1872 48.3943 40.6289C48.9855 40.9839 49.1782 41.7513 48.822 42.3438C48.5883 42.7337 48.1747 42.9502 47.7498 42.9502C47.531 42.9502 47.3084 42.8927 47.1072 42.7715C44.9015 41.448 42.3284 40.7929 39.9841 40.4893C41.7942 41.4906 43.6185 42.8571 45.0007 44.7002C45.4157 45.2527 45.3032 46.0364 44.7507 46.4502C44.5258 46.6189 44.2629 46.7002 44.0017 46.7002C43.6206 46.7 43.2456 46.5276 43.0007 46.2002C40.2403 42.5201 35.1441 41.0269 33.2654 40.585C30.8303 42.6868 28.3315 44 26.5007 44C24.6703 43.9999 22.1716 42.688 19.7371 40.5869C17.8554 41.0329 12.7502 42.5349 10.0007 46.2002C9.75449 46.5276 9.37971 46.7002 8.99976 46.7002C8.73976 46.7002 8.47573 46.6189 8.25073 46.4502C7.6984 46.0364 7.58708 45.2526 8.00073 44.7002C9.38239 42.8578 11.206 41.4915 13.0154 40.4902C10.6716 40.7938 8.09891 41.4488 5.89429 42.7715C5.69311 42.8926 5.47035 42.9502 5.25171 42.9502C4.82688 42.95 4.4131 42.7336 4.17944 42.3438C3.82344 41.7513 4.01603 40.9838 4.60718 40.6289C8.67712 38.1869 13.6455 37.7296 16.9187 37.7461C13.8924 34.212 11.5007 29.6366 11.5007 25.25C11.5007 25.0927 11.5042 24.9374 11.5095 24.7842C7.16206 23.4525 4.00073 19.4091 4.00073 14.625C4.00073 8.75632 8.75708 4.00012 14.6257 4C20.2952 4 24.9252 8.43882 25.2332 14.0312C25.6644 14.0101 26.088 14 26.5007 14C26.9131 14 27.3365 14.0102 27.7673 14.0312C28.0753 8.43885 32.7075 4.00011 38.3757 4Z" fill="white"/>
<path d="M38.3757 4V1H38.3757L38.3757 4ZM41.4919 24.7842L40.6132 21.9158L38.414 22.5895L38.4937 24.8882L41.4919 24.7842ZM36.0828 37.7461L33.8041 35.7948L29.5359 40.779L36.0978 40.7461L36.0828 37.7461ZM48.3943 40.6289L49.9386 38.0569L49.9375 38.0563L48.3943 40.6289ZM48.822 42.3438L46.2508 40.7981L46.2488 40.8015L48.822 42.3438ZM47.7498 42.9502V45.9502H47.7499L47.7498 42.9502ZM47.1072 42.7715L48.6554 40.2018L48.6507 40.1991L47.1072 42.7715ZM39.9841 40.4893L40.3694 37.5141L38.5319 43.1143L39.9841 40.4893ZM45.0007 44.7002L42.6007 46.5001L42.602 46.5019L45.0007 44.7002ZM44.7507 46.4502L42.9525 44.0489L42.951 44.05L44.7507 46.4502ZM44.0017 46.7002L44.0006 49.7002H44.0017V46.7002ZM43.0007 46.2002L45.4029 44.4031L45.4006 44.4L43.0007 46.2002ZM33.2654 40.585L33.9524 37.6647L32.4632 37.3144L31.3051 38.3139L33.2654 40.585ZM26.5007 44L26.5006 47H26.5007V44ZM19.7371 40.5869L21.6971 38.3158L20.5367 37.3143L19.0452 37.6678L19.7371 40.5869ZM10.0007 46.2002L12.3984 48.0033L12.4006 48.0004L10.0007 46.2002ZM8.99976 46.7002V49.7002H8.9999L8.99976 46.7002ZM8.25073 46.4502L10.0507 44.0502L10.0494 44.0492L8.25073 46.4502ZM8.00073 44.7002L5.60066 42.9003L5.59931 42.9021L8.00073 44.7002ZM13.0154 40.4902L14.468 43.1151L12.63 37.5151L13.0154 40.4902ZM5.89429 42.7715L4.35088 40.199L4.3468 40.2014L5.89429 42.7715ZM5.25171 42.9502L5.25054 45.9502H5.25171V42.9502ZM4.17944 42.3438L6.75265 40.8015L6.7509 40.7986L4.17944 42.3438ZM4.60718 40.6289L3.0637 38.0564L3.06289 38.0569L4.60718 40.6289ZM16.9187 37.7461L16.9036 40.7461L23.4655 40.7791L19.1974 35.7948L16.9187 37.7461ZM11.5095 24.7842L14.5077 24.8882L14.5875 22.5894L12.3882 21.9157L11.5095 24.7842ZM14.6257 4V1H14.6257L14.6257 4ZM25.2332 14.0312L22.2377 14.1962L22.4016 17.1735L25.3799 17.0277L25.2332 14.0312ZM26.5007 14V11H26.5007L26.5007 14ZM27.7673 14.0312L27.6208 17.0277L30.5988 17.1733L30.7628 14.1962L27.7673 14.0312ZM38.3757 4V7C42.5866 7 46.0007 10.4133 46.0007 14.625H49.0007H52.0007C52.0007 7.09917 45.8999 1 38.3757 1V4ZM49.0007 14.625H46.0007C46.0007 18.0533 43.7359 20.9591 40.6132 21.9158L41.4919 24.7842L42.3707 27.6526C47.9421 25.9459 52.0007 20.765 52.0007 14.625H49.0007ZM41.4919 24.7842L38.4937 24.8882C38.4982 25.017 38.5007 25.1363 38.5007 25.25H41.5007H44.5007C44.5007 25.0491 44.4963 24.8578 44.4901 24.6801L41.4919 24.7842ZM41.5007 25.25H38.5007C38.5007 28.634 36.5938 32.537 33.8041 35.7948L36.0828 37.7461L38.3614 39.6974C41.6245 35.8869 44.5007 30.6393 44.5007 25.25H41.5007ZM36.0828 37.7461L36.0978 40.7461C39.1839 40.7305 43.4866 41.1834 46.8511 43.2016L48.3943 40.6289L49.9375 38.0563C45.161 35.1911 39.5275 34.7287 36.0677 34.7461L36.0828 37.7461ZM48.3943 40.6289L46.85 43.2009C46.0227 42.7042 45.7515 41.6287 46.2508 40.7981L48.822 42.3438L51.3932 43.8894C52.6048 41.8738 51.9483 39.2636 49.9386 38.0569L48.3943 40.6289ZM48.822 42.3438L46.2488 40.8015C46.5797 40.2494 47.1652 39.9502 47.7496 39.9502L47.7498 42.9502L47.7499 45.9502C49.1843 45.9501 50.5969 45.2181 51.3952 43.886L48.822 42.3438ZM47.7498 42.9502V39.9502C48.0572 39.9502 48.3729 40.0317 48.6554 40.2018L47.1072 42.7715L45.559 45.3411C46.2439 45.7538 47.0048 45.9502 47.7498 45.9502V42.9502ZM47.1072 42.7715L48.6507 40.1991C45.9628 38.5862 42.9436 37.8475 40.3694 37.5141L39.9841 40.4893L39.5988 43.4644C41.7132 43.7382 43.8402 44.3098 45.5636 45.3439L47.1072 42.7715ZM39.9841 40.4893L38.5319 43.1143C40.0957 43.9795 41.5459 45.0937 42.6007 46.5001L45.0007 44.7002L47.4008 42.9003C45.6911 40.6205 43.4927 39.0018 41.4364 37.8642L39.9841 40.4893ZM45.0007 44.7002L42.602 46.5019C42.0202 45.7274 42.1783 44.6286 42.9525 44.0489L44.7507 46.4502L46.549 48.8515C48.4281 47.4443 48.8112 44.778 47.3994 42.8985L45.0007 44.7002ZM44.7507 46.4502L42.951 44.05C43.2629 43.8161 43.6363 43.7002 44.0017 43.7002V46.7002V49.7002C44.8895 49.7002 45.7886 49.4217 46.5505 48.8504L44.7507 46.4502ZM44.0017 46.7002L44.0029 43.7002C44.5224 43.7004 45.0555 43.9387 45.4029 44.4031L43.0007 46.2002L40.5985 47.9973C41.4357 49.1164 42.7188 49.6997 44.0006 49.7002L44.0017 46.7002ZM43.0007 46.2002L45.4006 44.4C43.6226 42.0296 41.1896 40.4749 39.099 39.473C36.9856 38.46 35.0184 37.9155 33.9524 37.6647L33.2654 40.585L32.5784 43.5052C33.3911 43.6964 34.9114 44.1195 36.5058 44.8836C38.1232 45.6588 39.6185 46.6907 40.6008 48.0003L43.0007 46.2002ZM33.2654 40.585L31.3051 38.3139C30.2275 39.2442 29.1919 39.9496 28.2926 40.4086C27.3533 40.888 26.7567 41 26.5007 41V44V47C28.0755 47 29.6437 46.4554 31.0203 45.7527C32.4369 45.0297 33.8683 44.0276 35.2256 42.856L33.2654 40.585ZM26.5007 44L26.5009 41C26.2445 41 25.6477 40.8879 24.7087 40.409C23.8096 39.9503 22.7743 39.2454 21.6971 38.3158L19.7371 40.5869L17.777 42.8581C19.1343 44.0295 20.5657 45.0311 21.9822 45.7537C23.3589 46.456 24.9265 46.9999 26.5006 47L26.5007 44ZM19.7371 40.5869L19.0452 37.6678C17.9792 37.9204 16.0106 38.468 13.8974 39.4811C11.8082 40.4827 9.3745 42.0356 7.60089 44.4L10.0007 46.2002L12.4006 48.0004C13.3765 46.6995 14.8701 45.6687 16.4912 44.8915C18.0884 44.1258 19.6132 43.6994 20.4289 43.5061L19.7371 40.5869ZM10.0007 46.2002L7.60305 44.3971C7.94572 43.9414 8.4743 43.7002 8.99961 43.7002L8.99976 46.7002L8.9999 49.7002C10.2851 49.7001 11.5633 49.1138 12.3984 48.0033L10.0007 46.2002ZM8.99976 46.7002V43.7002C9.36452 43.7002 9.7373 43.8151 10.0507 44.0502L8.25073 46.4502L6.45073 48.8502C7.21417 49.4228 8.11499 49.7002 8.99976 49.7002V46.7002ZM8.25073 46.4502L10.0494 44.0492C10.8271 44.6318 10.9783 45.7289 10.4022 46.4983L8.00073 44.7002L5.59931 42.9021C4.19591 44.7764 4.56971 47.4411 6.45208 48.8512L8.25073 46.4502ZM8.00073 44.7002L10.4008 46.5001C11.4551 45.0942 12.9048 43.9801 14.468 43.1151L13.0154 40.4902L11.5628 37.8653C9.5072 39.0029 7.30966 40.6215 5.60066 42.9003L8.00073 44.7002ZM13.0154 40.4902L12.63 37.5151C10.0565 37.8484 7.03775 38.587 4.35088 40.199L5.89429 42.7715L7.43769 45.344C9.16008 44.3107 11.2866 43.7392 13.4007 43.4654L13.0154 40.4902ZM5.89429 42.7715L4.3468 40.2014C4.6284 40.0319 4.94354 39.9502 5.25171 39.9502V42.9502V45.9502C5.99716 45.9502 6.75783 45.7534 7.44177 45.3416L5.89429 42.7715ZM5.25171 42.9502L5.25288 39.9502C5.83596 39.9504 6.4213 40.2486 6.75265 40.8015L4.17944 42.3438L1.60624 43.886C2.4049 45.2186 3.8178 45.9496 5.25054 45.9502L5.25171 42.9502ZM4.17944 42.3438L6.7509 40.7986C7.24963 41.6285 6.97924 42.7039 6.15146 43.2009L4.60718 40.6289L3.06289 38.0569C1.05281 39.2638 0.397243 41.874 1.60798 43.8889L4.17944 42.3438ZM4.60718 40.6289L6.15066 43.2014C9.51437 41.1832 13.8171 40.7305 16.9036 40.7461L16.9187 37.7461L16.9338 34.7461C13.4739 34.7287 7.83988 35.1907 3.0637 38.0564L4.60718 40.6289ZM16.9187 37.7461L19.1974 35.7948C16.4077 32.537 14.5007 28.6339 14.5007 25.25H11.5007H8.50073C8.50073 30.6392 11.3771 35.8869 14.64 39.6974L16.9187 37.7461ZM11.5007 25.25H14.5007C14.5007 25.1363 14.5032 25.017 14.5077 24.8882L11.5095 24.7842L8.51133 24.6801C8.50516 24.8578 8.50073 25.0491 8.50073 25.25H11.5007ZM11.5095 24.7842L12.3882 21.9157C9.26525 20.9592 7.00073 18.0534 7.00073 14.625H4.00073H1.00073C1.00073 20.7649 5.05888 25.9459 10.6309 27.6526L11.5095 24.7842ZM4.00073 14.625H7.00073C7.00073 10.4132 10.4139 7.00008 14.6258 7L14.6257 4L14.6257 1C7.10027 1.00015 1.00073 7.09941 1.00073 14.625H4.00073ZM14.6257 4V7C18.6932 7 22.0168 10.1849 22.2377 14.1962L25.2332 14.0312L28.2286 13.8663C27.8336 6.69277 21.8972 1 14.6257 1V4ZM25.2332 14.0312L25.3799 17.0277C25.7623 17.0089 26.1369 17 26.5008 17L26.5007 14L26.5007 11C26.0391 11 25.5666 11.0113 25.0864 11.0348L25.2332 14.0312ZM26.5007 14V17C26.8639 17 27.2384 17.009 27.6208 17.0277L27.7673 14.0312L27.9139 11.0348C27.4345 11.0114 26.9622 11 26.5007 11V14ZM27.7673 14.0312L30.7628 14.1962C30.9837 10.1855 34.309 7.00008 38.3758 7L38.3757 4L38.3757 1C31.1061 1.00014 25.167 6.69219 24.7719 13.8663L27.7673 14.0312Z" fill="white" mask="url(#path-3-outside-2_539_47)"/>
<path d="M25.2509 14.7246C25.2509 20.5934 20.4947 25.3496 14.6259 25.3496C8.7572 25.3496 4.00095 20.5934 4.00095 14.7246C4.00095 8.85586 8.7572 4.09961 14.6259 4.09961C20.4947 4.09961 25.2509 8.85586 25.2509 14.7246Z" fill="#99AAB5"/>
<path d="M49.0009 14.7246C49.0009 20.5934 44.2434 25.3496 38.3759 25.3496C32.5084 25.3496 27.7509 20.5934 27.7509 14.7246C27.7509 8.85586 32.5084 4.09961 38.3759 4.09961C44.2434 4.09961 49.0009 8.85586 49.0009 14.7246Z" fill="#99AAB5"/>
<path d="M21.2666 15.3886C21.2666 19.4236 17.9953 22.6936 13.9616 22.6936C9.92782 22.6936 6.65657 19.4236 6.65657 15.3886C6.65657 11.3549 9.92782 8.08361 13.9616 8.08361C17.9953 8.08361 21.2666 11.3549 21.2666 15.3886Z" fill="#F4ABBA"/>
<path d="M46.3447 15.3886C46.3447 19.4236 43.0734 22.6936 39.0397 22.6936C35.0072 22.6936 31.7347 19.4236 31.7347 15.3886C31.7347 11.3549 35.0072 8.08361 39.0397 8.08361C43.0734 8.08361 46.3447 11.3549 46.3447 15.3886Z" fill="#F4ABBA"/>
<path d="M41.5009 25.3496C41.5009 34.3246 31.5009 44.0996 26.5009 44.0996C21.5009 44.0996 11.5009 34.3246 11.5009 25.3496C11.5009 16.3746 20.2509 14.0996 26.5009 14.0996C32.7509 14.0996 41.5009 16.3746 41.5009 25.3496Z" fill="#99AAB5"/>
<path d="M30.1326 39.9101C30.1326 41.9151 27.6172 44.0996 26.5009 44.0996C25.3834 44.0996 22.8688 41.9151 22.8688 39.9101C22.8688 37.9039 25.1038 37.4651 26.5013 37.4651C27.8976 37.4651 30.1326 37.9039 30.1326 39.9101Z" fill="#F4ABBA"/>
<path d="M47.7497 43.0499C47.5309 43.0499 47.3084 42.9924 47.1072 42.8711C41.3222 39.3999 33.0097 40.5249 32.9272 40.5374C32.2272 40.6361 31.6109 40.1586 31.5147 39.4761C31.4172 38.7924 31.8909 38.1599 32.5734 38.0624C32.9497 38.0099 41.8372 36.7949 48.3947 40.7286C48.9859 41.0836 49.1784 41.8511 48.8222 42.4436C48.5884 42.8336 48.1747 43.0499 47.7497 43.0499Z" fill="#66757F"/>
<path d="M44.0022 46.7999C43.6209 46.7999 43.2459 46.6274 43.0009 46.2999C39.5909 41.7536 32.6159 40.5449 32.5459 40.5324C31.8647 40.4199 31.4047 39.7749 31.5184 39.0949C31.6297 38.4136 32.2759 37.9449 32.9559 38.0674C33.2834 38.1224 40.9972 39.4611 45.0009 44.7999C45.4159 45.3524 45.3034 46.1361 44.7509 46.5499C44.5259 46.7186 44.2634 46.7999 44.0022 46.7999Z" fill="#66757F"/>
<path d="M5.2522 43.0499C4.8272 43.0499 4.41345 42.8336 4.1797 42.4436C3.82345 41.8511 4.01595 41.0836 4.6072 40.7286C11.1634 36.7949 20.0509 38.0099 20.4284 38.0624C21.1109 38.1599 21.5847 38.7924 21.4884 39.4761C21.3909 40.1586 20.7609 40.6374 20.0747 40.5374C19.9922 40.5261 11.6784 39.4011 5.8947 42.8711C5.69345 42.9924 5.47095 43.0499 5.2522 43.0499Z" fill="#66757F"/>
<path d="M8.9997 46.7999C8.7397 46.7999 8.47595 46.7186 8.25095 46.5499C7.69845 46.1361 7.5872 45.3524 8.00095 44.7999C12.0047 39.4611 19.7197 38.1224 20.0447 38.0674C20.7309 37.9461 21.3684 38.4124 21.4834 39.0936C21.5972 39.7736 21.1372 40.4186 20.4572 40.5324C20.3872 40.5449 13.3972 41.7724 10.0009 46.2999C9.7547 46.6274 9.3797 46.7999 8.9997 46.7999Z" fill="#66757F"/>
<path d="M19.0009 29.0996C19.0009 29.0996 19.0009 26.5996 21.5009 26.5996C24.0009 26.5996 24.0009 29.0996 24.0009 29.0996V31.5996C24.0009 31.5996 24.0009 34.0996 21.5009 34.0996C19.0009 34.0996 19.0009 31.5996 19.0009 31.5996V29.0996Z" fill="#272B2B"/>
<path d="M29.0009 29.0996C29.0009 29.0996 29.0009 26.5996 31.5009 26.5996C34.0009 26.5996 34.0009 29.0996 34.0009 29.0996V31.5996C34.0009 31.5996 34.0009 34.0996 31.5009 34.0996C29.0009 34.0996 29.0009 31.5996 29.0009 31.5996V29.0996Z" fill="#272B2B"/>
</svg>
