<svg width="50" height="50" viewBox="0 0 50 50" fill="none" xmlns="http://www.w3.org/2000/svg">
<path d="M25 40C27.5 40 27.5 42.5 27.5 42.5V45C27.5 45 27.5 47.5 25 47.5C22.5 47.5 22.5 45 22.5 45V42.5C22.5 42.5 22.5 40 25 40Z" fill="#FFAC33"/>
<path d="M11.6172 36.0986C11.6172 36.0986 13.3849 34.3315 15.1523 36.0986C16.9198 37.8661 15.1523 39.6338 15.1523 39.6338L13.3848 41.4014C13.3685 41.4176 11.6089 43.1607 9.84961 41.4014C8.0906 39.6421 9.83348 37.8824 9.84961 37.8662L11.6172 36.0986Z" fill="#FFAC33"/>
<path d="M34.8486 36.0986C36.6084 34.3389 38.3684 36.0833 38.3838 36.0986L40.1514 37.8662C40.1514 37.8662 41.9189 39.6339 40.1514 41.4014C38.3839 43.1688 36.6162 41.4014 36.6162 41.4014L34.8486 39.6338C34.8334 39.6185 33.089 37.8584 34.8486 36.0986Z" fill="#FFAC33"/>
<path d="M25 12.5C31.9037 12.5 37.5 18.0963 37.5 25C37.5 31.9037 31.9037 37.5 25 37.5C18.0963 37.5 12.5 31.9037 12.5 25C12.5 18.0963 18.0963 12.5 25 12.5Z" fill="#FFAC33"/>
<path d="M7.5 22.5C7.5 22.5 10 22.5 10 25C10 27.5 7.5 27.5 7.5 27.5H5C5 27.5 2.5 27.5 2.5 25C2.5 22.5 5 22.5 5 22.5H7.5Z" fill="#FFAC33"/>
<path d="M45 22.5C45 22.5 47.5 22.5 47.5 25C47.5 27.5 45 27.5 45 27.5H42.5C42.5 27.5 40 27.5 40 25C40 22.5 42.5 22.5 42.5 22.5H45Z" fill="#FFAC33"/>
<path d="M8.59766 9.84766C10.3535 8.09338 12.1085 9.8225 12.1338 9.84766L13.9014 11.6172C13.9201 11.636 15.6594 13.3943 13.9014 15.1523C12.1434 16.91 10.385 15.171 10.3662 15.1523L8.59766 13.3848C8.59766 13.3848 6.83016 11.6164 8.59766 9.84766Z" fill="#FFAC33"/>
<path d="M37.8672 9.84863C37.8672 9.84863 39.6349 8.08146 41.4023 9.84863C43.1698 11.6161 41.4023 13.3838 41.4023 13.3838L39.6348 15.1514C39.6184 15.1676 37.8589 16.9106 36.0996 15.1514C34.3406 13.3921 36.0834 11.6325 36.0996 11.6162L37.8672 9.84863Z" fill="#FFAC33"/>
<path d="M25 2.5C27.5 2.5 27.5 5 27.5 5V7.5C27.5 7.5 27.5 10 25 10C22.5 10 22.5 7.5 22.5 7.5V5C22.5 5 22.5 2.5 25 2.5Z" fill="#FFAC33"/>
<path d="M25 38.75C25.8437 38.75 26.5596 38.9645 27.1387 39.3506C27.7099 39.7314 28.0753 40.2306 28.3057 40.6914C28.5335 41.1472 28.6416 41.5881 28.6943 41.9043C28.7211 42.0652 28.7349 42.2022 28.7422 42.3037C28.7458 42.3546 28.7479 42.3977 28.749 42.4307C28.7496 42.447 28.7498 42.4611 28.75 42.4727V42.499C28.7482 42.4996 28.7023 42.5 27.5 42.5H28.75V45H27.5C28.7023 45 28.7482 45.0004 28.75 45.001V45.0273C28.7498 45.0389 28.7496 45.053 28.749 45.0693C28.7479 45.1023 28.7458 45.1454 28.7422 45.1963C28.7349 45.2978 28.7211 45.4348 28.6943 45.5957C28.6416 45.9119 28.5335 46.3528 28.3057 46.8086C28.0753 47.2694 27.7099 47.7686 27.1387 48.1494C26.5596 48.5355 25.8437 48.75 25 48.75C24.1563 48.75 23.4404 48.5355 22.8613 48.1494C22.2901 47.7686 21.9247 47.2694 21.6943 46.8086C21.4665 46.3528 21.3584 45.9119 21.3057 45.5957C21.2789 45.4348 21.2651 45.2978 21.2578 45.1963C21.2542 45.1454 21.2521 45.1023 21.251 45.0693C21.2504 45.053 21.2502 45.0389 21.25 45.0273V45.001C21.2518 45.0004 21.2977 45 22.5 45H21.25V42.5H22.5C21.2977 42.5 21.2518 42.4996 21.25 42.499V42.4727C21.2502 42.4611 21.2504 42.447 21.251 42.4307C21.2521 42.3977 21.2542 42.3546 21.2578 42.3037C21.2651 42.2022 21.2789 42.0652 21.3057 41.9043C21.3584 41.5881 21.4665 41.1472 21.6943 40.6914C21.9247 40.2306 22.2901 39.7314 22.8613 39.3506C23.4404 38.9645 24.1563 38.75 25 38.75ZM25 38.75C28.1743 38.75 31.0967 37.6737 33.4238 35.8672C33.148 36.2757 32.9679 36.7037 32.8789 37.1426C32.743 37.813 32.8352 38.4225 32.9961 38.9111C33.3057 39.8509 33.9096 40.4621 33.9629 40.5156L35.7324 42.2852L36.6162 41.4014C35.7708 42.2469 35.7346 42.2841 35.7334 42.2861L35.752 42.3047C35.7603 42.3128 35.7702 42.3228 35.7822 42.334C35.8064 42.3566 35.8383 42.3855 35.877 42.4189C35.9539 42.4856 36.0607 42.5722 36.1934 42.667C36.4542 42.8533 36.8427 43.0889 37.3262 43.25C37.8148 43.4128 38.4257 43.5076 39.0986 43.373C39.781 43.2366 40.4386 42.8817 41.0352 42.2852C41.6317 41.6886 41.9866 41.031 42.123 40.3486C42.2576 39.6757 42.1628 39.0648 42 38.5762C41.8388 38.0927 41.6033 37.7042 41.417 37.4434C41.3222 37.3107 41.2356 37.2039 41.1689 37.127C41.1355 37.0883 41.1066 37.0564 41.084 37.0322C41.0728 37.0202 41.0628 37.0103 41.0547 37.002C41.0506 36.9978 41.0471 36.9935 41.0439 36.9902C41.0424 36.9886 41.0404 36.9877 41.0391 36.9863L41.0361 36.9834C41.0357 36.983 41.0353 36.9824 40.3555 37.6621L41.0352 36.9824L39.2656 35.2129L39.125 35.083C38.8867 34.8762 38.3662 34.4784 37.6611 34.2461C37.1725 34.0851 36.5631 33.993 35.8926 34.1289C35.5809 34.1921 35.2753 34.3025 34.9775 34.459C37.315 31.9942 38.75 28.6651 38.75 25M25 38.75C21.8257 38.75 18.9033 37.6737 16.5762 35.8672C16.8541 36.2786 17.0356 36.7094 17.124 37.1514C17.2586 37.8243 17.1638 38.4352 17.001 38.9238C16.8398 39.4073 16.6043 39.7958 16.418 40.0566C16.3232 40.1893 16.2366 40.2961 16.1699 40.373C16.1364 40.4117 16.1076 40.4436 16.085 40.4678C16.0737 40.4798 16.0637 40.4897 16.0557 40.498C16.0516 40.5022 16.0481 40.5065 16.0449 40.5098C16.0434 40.5114 16.0414 40.5123 16.04 40.5137L16.0371 40.5166C16.0367 40.517 16.0363 40.5176 15.1523 39.6338L16.0361 40.5176L14.2666 42.2871C14.2127 42.3407 13.6018 42.9455 12.6621 43.2549C12.1735 43.4157 11.5639 43.5071 10.8936 43.3711C10.2142 43.2332 9.55951 42.8788 8.96582 42.2852C8.3722 41.6914 8.0177 41.0367 7.87988 40.3574C7.74395 39.6871 7.83624 39.0775 7.99707 38.5889C8.30647 37.6494 8.91018 37.0383 8.96387 36.9844L10.7334 35.2148L11.4141 35.8955C10.7682 35.2493 10.7357 35.2159 10.7344 35.2139L10.7529 35.1953C10.7613 35.1872 10.7712 35.1772 10.7832 35.166C10.8074 35.1434 10.8393 35.1145 10.8779 35.0811C10.9548 35.0144 11.0616 34.9278 11.1943 34.833C11.4552 34.6467 11.8437 34.4111 12.3271 34.25C12.8158 34.0872 13.4267 33.9924 14.0996 34.127C14.4133 34.1897 14.7207 34.3008 15.0205 34.458C12.6839 31.9934 11.25 28.6644 11.25 25M25 11.25C21.3358 11.25 18.0066 12.6832 15.542 15.0195C15.6972 14.7235 15.8071 14.4201 15.8701 14.1104C16.0064 13.4405 15.9154 12.8314 15.7549 12.3428C15.4462 11.4033 14.8434 10.7909 14.7881 10.7354L14.7861 10.7334L13.0186 8.96387L13.0146 8.96094L12.8701 8.82812C12.629 8.61964 12.1083 8.22264 11.4033 7.99219C10.9146 7.83247 10.3056 7.74216 9.63672 7.87891C8.95923 8.01745 8.30619 8.37113 7.71387 8.96289V8.96387C7.11742 9.56073 6.7624 10.2189 6.62598 10.9014C6.49141 11.5746 6.58617 12.186 6.74902 12.6748C6.9101 13.1582 7.14577 13.5457 7.33203 13.8066C7.42693 13.9396 7.51339 14.047 7.58008 14.124C7.61342 14.1625 7.6425 14.1937 7.66504 14.2178C7.67635 14.2299 7.68623 14.2406 7.69434 14.249L7.71289 14.2676C7.71535 14.266 7.75712 14.2249 8.59766 13.3848L7.71387 14.2686L9.48242 16.0361L9.48438 16.0391C9.54012 16.0945 10.1524 16.6973 11.0918 17.0059C11.5804 17.1663 12.1895 17.2573 12.8594 17.1211C13.2976 17.0319 13.7239 16.8506 14.1318 16.5752C12.3252 18.9024 11.25 21.8257 11.25 25M25 11.25C28.6659 11.25 31.996 12.6851 34.4609 15.0234C34.3042 14.7254 34.1932 14.4194 34.1299 14.1074C33.994 13.4374 34.0854 12.8283 34.2461 12.3398C34.5554 11.4001 35.1601 10.7884 35.2139 10.7344L36.9834 8.96484L37.6777 9.65918C37.0186 8.99977 36.9857 8.96595 36.9844 8.96387L37.0029 8.94531C37.0113 8.93725 37.0212 8.92724 37.0332 8.91602C37.0574 8.89343 37.0893 8.86454 37.1279 8.83105C37.2048 8.76442 37.3116 8.67779 37.4443 8.58301C37.7052 8.39672 38.0937 8.16112 38.5771 8C39.0658 7.83722 39.6767 7.74239 40.3496 7.87695C41.0319 8.0134 41.6896 8.36841 42.2861 8.96484C42.8827 9.56136 43.2375 10.219 43.374 10.9014C43.5086 11.5743 43.4138 12.1852 43.251 12.6738C43.0898 13.1573 42.8543 13.5458 42.668 13.8066C42.5732 13.9393 42.4866 14.0461 42.4199 14.123C42.3864 14.1617 42.3576 14.1936 42.335 14.2178C42.3237 14.2298 42.3137 14.2397 42.3057 14.248C42.3016 14.2522 42.2981 14.2565 42.2949 14.2598C42.2934 14.2614 42.2914 14.2623 42.29 14.2637L42.2871 14.2666C42.2867 14.267 42.2863 14.2676 41.4023 13.3838L42.2861 14.2676L40.5166 16.0371C40.4627 16.0908 39.8517 16.6955 38.9121 17.0049C38.4235 17.1657 37.8138 17.2571 37.1436 17.1211C36.7036 17.0318 36.2746 16.8503 35.8652 16.5732C37.6731 18.9009 38.75 21.8245 38.75 25M25 11.25C25.8437 11.25 26.5596 11.0355 27.1387 10.6494C27.7099 10.2686 28.0753 9.76938 28.3057 9.30859C28.5335 8.85284 28.6416 8.41185 28.6943 8.0957C28.7211 7.93483 28.7349 7.79778 28.7422 7.69629C28.7458 7.64537 28.7479 7.60234 28.749 7.56934C28.7496 7.55296 28.7498 7.53891 28.75 7.52734V7.50098C28.7482 7.50037 28.7023 7.5 27.5 7.5H28.75V5H27.5C28.7023 5 28.7482 4.99963 28.75 4.99902V4.97266C28.7498 4.96109 28.7496 4.94704 28.749 4.93066C28.7479 4.89766 28.7458 4.85463 28.7422 4.80371C28.7349 4.70222 28.7211 4.56517 28.6943 4.4043C28.6416 4.08815 28.5335 3.64716 28.3057 3.19141C28.0753 2.73062 27.7099 2.23141 27.1387 1.85059C26.5596 1.46455 25.8437 1.25 25 1.25C24.1563 1.25 23.4404 1.46455 22.8613 1.85059C22.2901 2.23141 21.9247 2.73062 21.6943 3.19141C21.4665 3.64716 21.3584 4.08815 21.3057 4.4043C21.2789 4.56517 21.2651 4.70222 21.2578 4.80371C21.2542 4.85463 21.2521 4.89766 21.251 4.93066C21.2504 4.94704 21.2502 4.96109 21.25 4.97266V4.99902C21.2518 4.99963 21.2977 5 22.5 5H21.25V7.5H22.5C21.2977 7.5 21.2518 7.50037 21.25 7.50098V7.52734C21.2502 7.53891 21.2504 7.55296 21.251 7.56934C21.2521 7.60234 21.2542 7.64537 21.2578 7.69629C21.2651 7.79778 21.2789 7.93483 21.3057 8.0957C21.3584 8.41185 21.4665 8.85284 21.6943 9.30859C21.9247 9.76938 22.2901 10.2686 22.8613 10.6494C23.4404 11.0355 24.1563 11.25 25 11.25ZM38.75 25C38.75 25.8437 38.9645 26.5596 39.3506 27.1387C39.7314 27.7099 40.2306 28.0753 40.6914 28.3057C41.1472 28.5335 41.5881 28.6416 41.9043 28.6943C42.0652 28.7211 42.2022 28.7349 42.3037 28.7422C42.3546 28.7458 42.3977 28.7479 42.4307 28.749C42.447 28.7496 42.4611 28.7498 42.4727 28.75H42.499C42.4996 28.7482 42.5 28.7023 42.5 27.5V28.75H45V27.5C45 28.7023 45.0004 28.7482 45.001 28.75H45.0273C45.0389 28.7498 45.053 28.7496 45.0693 28.749C45.1023 28.7479 45.1454 28.7458 45.1963 28.7422C45.2978 28.7349 45.4348 28.7211 45.5957 28.6943C45.9119 28.6416 46.3528 28.5335 46.8086 28.3057C47.2694 28.0753 47.7686 27.7099 48.1494 27.1387C48.5355 26.5596 48.75 25.8437 48.75 25C48.75 24.1563 48.5355 23.4404 48.1494 22.8613C47.7686 22.2901 47.2694 21.9247 46.8086 21.6943C46.3528 21.4665 45.9119 21.3584 45.5957 21.3057C45.4348 21.2789 45.2978 21.2651 45.1963 21.2578C45.1454 21.2542 45.1023 21.2521 45.0693 21.251C45.053 21.2504 45.0389 21.2502 45.0273 21.25H45.001C45.0005 21.2514 45.0002 21.2801 45 21.876V21.25H42.5V21.876C42.4998 21.2801 42.4995 21.2514 42.499 21.25H42.4727C42.4611 21.2502 42.447 21.2504 42.4307 21.251C42.3977 21.2521 42.3546 21.2542 42.3037 21.2578C42.2022 21.2651 42.0652 21.2789 41.9043 21.3057C41.5881 21.3584 41.1472 21.4665 40.6914 21.6943C40.2306 21.9247 39.7314 22.2901 39.3506 22.8613C38.9645 23.4404 38.75 24.1563 38.75 25ZM11.25 25C11.25 24.1563 11.0355 23.4404 10.6494 22.8613C10.2686 22.2901 9.76938 21.9247 9.30859 21.6943C8.85284 21.4665 8.41185 21.3584 8.0957 21.3057C7.93483 21.2789 7.79778 21.2651 7.69629 21.2578C7.64537 21.2542 7.60234 21.2521 7.56934 21.251C7.55296 21.2504 7.53891 21.2502 7.52734 21.25H7.50098C7.5005 21.2514 7.50017 21.2801 7.5 21.876V21.25H5V21.876C4.99983 21.2801 4.9995 21.2514 4.99902 21.25H4.97266C4.96109 21.2502 4.94704 21.2504 4.93066 21.251C4.89766 21.2521 4.85463 21.2542 4.80371 21.2578C4.70222 21.2651 4.56517 21.2789 4.4043 21.3057C4.08815 21.3584 3.64716 21.4665 3.19141 21.6943C2.73062 21.9247 2.23141 22.2901 1.85059 22.8613C1.46455 23.4404 1.25 24.1563 1.25 25C1.25 25.8437 1.46455 26.5596 1.85059 27.1387C2.23141 27.7099 2.73062 28.0753 3.19141 28.3057C3.64716 28.5335 4.08815 28.6416 4.4043 28.6943C4.56517 28.7211 4.70222 28.7349 4.80371 28.7422C4.85463 28.7458 4.89766 28.7479 4.93066 28.749C4.94704 28.7496 4.96109 28.7498 4.97266 28.75H4.99902C4.99963 28.7482 5 28.7023 5 27.5V28.75H7.5V27.5C7.5 28.7023 7.50037 28.7482 7.50098 28.75H7.52734C7.53891 28.7498 7.55296 28.7496 7.56934 28.749C7.60234 28.7479 7.64537 28.7458 7.69629 28.7422C7.79778 28.7349 7.93483 28.7211 8.0957 28.6943C8.41185 28.6416 8.85284 28.5335 9.30859 28.3057C9.76938 28.0753 10.2686 27.7099 10.6494 27.1387C11.0355 26.5596 11.25 25.8437 11.25 25Z" stroke="black" stroke-opacity="0.1" stroke-width="2.5"/>
<path d="M25 39C25.8 39 26.4664 39.2029 27 39.5586C27.5273 39.9101 27.8665 40.3716 28.082 40.8027C28.2956 41.2299 28.3973 41.6454 28.4473 41.9453C28.4726 42.0974 28.4854 42.2264 28.4922 42.3213C28.4956 42.3689 28.498 42.4084 28.499 42.4385C28.4995 42.4535 28.4998 42.4663 28.5 42.4766V42.499C28.4997 42.4995 28.4824 42.5 27.5 42.5H28.5V45H27.5C28.4824 45 28.4997 45.0005 28.5 45.001V45.0234C28.4998 45.0337 28.4995 45.0465 28.499 45.0615C28.498 45.0916 28.4956 45.1311 28.4922 45.1787C28.4854 45.2736 28.4726 45.4026 28.4473 45.5547C28.3973 45.8546 28.2956 46.2701 28.082 46.6973C27.8665 47.1284 27.5273 47.5899 27 47.9414C26.4664 48.2971 25.8 48.5 25 48.5C24.2 48.5 23.5336 48.2971 23 47.9414C22.4727 47.5899 22.1335 47.1284 21.918 46.6973C21.7044 46.2701 21.6027 45.8546 21.5527 45.5547C21.5274 45.4026 21.5146 45.2736 21.5078 45.1787C21.5044 45.1311 21.502 45.0916 21.501 45.0615C21.5005 45.0465 21.5002 45.0337 21.5 45.0234V45.001C21.5003 45.0005 21.5176 45 22.5 45H21.5V42.5H22.5C21.5176 42.5 21.5003 42.4995 21.5 42.499V42.4766C21.5002 42.4663 21.5005 42.4535 21.501 42.4385C21.502 42.4084 21.5044 42.3689 21.5078 42.3213C21.5146 42.2264 21.5274 42.0974 21.5527 41.9453C21.6027 41.6454 21.7044 41.2299 21.918 40.8027C22.1335 40.3716 22.4727 39.9101 23 39.5586C23.5336 39.2029 24.2 39 25 39ZM12.4062 34.4873C12.8634 34.335 13.4296 34.2479 14.0508 34.3721C14.6794 34.4978 15.2938 34.8262 15.8594 35.3916C16.4249 35.9571 16.7531 36.5715 16.8789 37.2002C17.0032 37.8216 16.9161 38.3885 16.7637 38.8457C16.6127 39.2985 16.3914 39.6639 16.2148 39.9111C16.1252 40.0367 16.0428 40.1371 15.9805 40.209C15.9492 40.2451 15.9229 40.2749 15.9023 40.2969C15.8921 40.3078 15.8831 40.3169 15.876 40.3242L15.8623 40.3379L15.8613 40.3398H15.8604C15.86 40.3402 15.8595 40.3409 15.1523 39.6338L15.8594 40.3408L14.0898 42.1104C14.0429 42.1571 13.4659 42.7261 12.584 43.0166C12.1269 43.1671 11.5621 43.2515 10.9434 43.126C10.3174 42.9989 9.7055 42.6713 9.14258 42.1084C8.57973 41.5455 8.252 40.9336 8.125 40.3076C7.99955 39.6889 8.08393 39.124 8.23438 38.667C8.52481 37.7851 9.09377 37.2082 9.14062 37.1611L10.9102 35.3916L11.4619 35.9434L10.9111 35.3906L10.9268 35.375C10.9341 35.3679 10.9431 35.3589 10.9541 35.3486C10.9761 35.3281 11.0059 35.3018 11.042 35.2705C11.1139 35.2082 11.2142 35.1258 11.3398 35.0361C11.5872 34.8595 11.9532 34.6383 12.4062 34.4873ZM35.9424 34.374C36.5613 34.2485 37.1259 34.3328 37.583 34.4834C38.4647 34.7739 39.0417 35.3427 39.0889 35.3896L40.8584 37.1592L40.3223 37.6953C40.8586 37.1592 40.859 37.1598 40.8594 37.1602H40.8604L40.8613 37.1621L40.875 37.1758C40.8821 37.1831 40.8911 37.1922 40.9014 37.2031C40.9219 37.2251 40.9482 37.2549 40.9795 37.291C41.0418 37.3629 41.1242 37.4633 41.2139 37.5889C41.3905 37.8361 41.6117 38.2015 41.7627 38.6543C41.9151 39.1115 42.0022 39.6784 41.8779 40.2998C41.7521 40.9285 41.4239 41.5429 40.8584 42.1084C40.2929 42.6739 39.6784 43.0022 39.0498 43.1279C38.4286 43.2522 37.8624 43.165 37.4053 43.0127C36.9522 42.8617 36.5862 42.6405 36.3389 42.4639C36.2133 42.3742 36.1129 42.2918 36.041 42.2295C36.0049 42.1982 35.9751 42.1719 35.9531 42.1514C35.9422 42.1411 35.9331 42.1321 35.9258 42.125L35.9121 42.1113L35.9102 42.1104V42.1094C35.9098 42.109 35.9092 42.1085 36.6162 41.4014L35.9092 42.1084L34.1396 40.3389C34.0926 40.2916 33.5238 39.7146 33.2334 38.833C33.0828 38.3759 32.9985 37.8113 33.124 37.1924C33.251 36.5663 33.5786 35.9546 34.1416 35.3916C34.7046 34.8286 35.3163 34.501 35.9424 34.374ZM25 11.5C32.456 11.5 38.5 17.544 38.5 25C38.5 32.456 32.456 38.5 25 38.5C17.544 38.5 11.5 32.456 11.5 25C11.5 17.544 17.544 11.5 25 11.5ZM4.99902 21.5C4.99942 21.5002 4.99986 21.5112 5 22.0049V21.5H7.5V22.0049C7.50014 21.5112 7.50058 21.5002 7.50098 21.5H7.52344C7.53369 21.5002 7.54652 21.5005 7.56152 21.501C7.59161 21.502 7.63114 21.5044 7.67871 21.5078C7.77358 21.5146 7.90256 21.5274 8.05469 21.5527C8.35455 21.6027 8.77005 21.7044 9.19727 21.918C9.6284 22.1335 10.0899 22.4727 10.4414 23C10.7971 23.5336 11 24.2 11 25C11 25.8 10.7971 26.4664 10.4414 27C10.0899 27.5273 9.6284 27.8665 9.19727 28.082C8.77005 28.2956 8.35455 28.3973 8.05469 28.4473C7.90256 28.4726 7.77358 28.4854 7.67871 28.4922C7.63114 28.4956 7.59161 28.498 7.56152 28.499C7.54652 28.4995 7.53369 28.4998 7.52344 28.5H7.50098C7.50048 28.4997 7.5 28.4824 7.5 27.5V28.5H5V27.5C5 28.4824 4.99952 28.4997 4.99902 28.5H4.97656C4.96631 28.4998 4.95348 28.4995 4.93848 28.499C4.90839 28.498 4.86886 28.4956 4.82129 28.4922C4.72642 28.4854 4.59744 28.4726 4.44531 28.4473C4.14545 28.3973 3.72995 28.2956 3.30273 28.082C2.8716 27.8665 2.41013 27.5273 2.05859 27C1.70289 26.4664 1.5 25.8 1.5 25C1.5 24.2 1.70289 23.5336 2.05859 23C2.41013 22.4727 2.8716 22.1335 3.30273 21.918C3.72995 21.7044 4.14545 21.6027 4.44531 21.5527C4.59744 21.5274 4.72642 21.5146 4.82129 21.5078C4.86886 21.5044 4.90839 21.502 4.93848 21.501C4.95348 21.5005 4.96631 21.5002 4.97656 21.5H4.99902ZM42.499 21.5C42.4994 21.5002 42.4999 21.5112 42.5 22.0049V21.5H45V22.0049C45.0001 21.5112 45.0006 21.5002 45.001 21.5H45.0234C45.0337 21.5002 45.0465 21.5005 45.0615 21.501C45.0916 21.502 45.1311 21.5044 45.1787 21.5078C45.2736 21.5146 45.4026 21.5274 45.5547 21.5527C45.8546 21.6027 46.2701 21.7044 46.6973 21.918C47.1284 22.1335 47.5899 22.4727 47.9414 23C48.2971 23.5336 48.5 24.2 48.5 25C48.5 25.8 48.2971 26.4664 47.9414 27C47.5899 27.5273 47.1284 27.8665 46.6973 28.082C46.2701 28.2956 45.8546 28.3973 45.5547 28.4473C45.4026 28.4726 45.2736 28.4854 45.1787 28.4922C45.1311 28.4956 45.0916 28.498 45.0615 28.499C45.0465 28.4995 45.0337 28.4998 45.0234 28.5H45.001C45.0005 28.4997 45 28.4824 45 27.5V28.5H42.5V27.5C42.5 28.4824 42.4995 28.4997 42.499 28.5H42.4766C42.4663 28.4998 42.4535 28.4995 42.4385 28.499C42.4084 28.498 42.3689 28.4956 42.3213 28.4922C42.2264 28.4854 42.0974 28.4726 41.9453 28.4473C41.6454 28.3973 41.2299 28.2956 40.8027 28.082C40.3716 27.8665 39.9101 27.5273 39.5586 27C39.2029 26.4664 39 25.8 39 25C39 24.2 39.2029 23.5336 39.5586 23C39.9101 22.4727 40.3716 22.1335 40.8027 21.918C41.2299 21.7044 41.6454 21.6027 41.9453 21.5527C42.0974 21.5274 42.2264 21.5146 42.3213 21.5078C42.3689 21.5044 42.4084 21.502 42.4385 21.501C42.4535 21.5005 42.4663 21.5002 42.4766 21.5H42.499ZM9.6875 8.12402C10.3047 7.99794 10.8682 8.08018 11.3252 8.22949C12.2073 8.51778 12.786 9.08621 12.8379 9.1377L12.8408 9.14062L14.6084 10.9102L14.6104 10.9121C14.6565 10.9585 15.2271 11.5363 15.5176 12.4199C15.6678 12.877 15.7518 13.4421 15.626 14.0605C15.4987 14.686 15.1708 15.2969 14.6084 15.8594C14.046 16.4217 13.4349 16.7487 12.8096 16.876C12.1913 17.0017 11.627 16.9186 11.1699 16.7686C10.2861 16.4782 9.70766 15.9076 9.66113 15.8613L9.65918 15.8594L7.89062 14.0918L8.59766 13.3848L7.88965 14.0908L7.87402 14.0752C7.86691 14.0678 7.8579 14.0588 7.84766 14.0479C7.82709 14.0259 7.80079 13.996 7.76953 13.96C7.70722 13.888 7.62485 13.7877 7.53516 13.6621C7.35852 13.4147 7.13732 13.0488 6.98633 12.5957C6.83396 12.1383 6.74687 11.5717 6.87109 10.9502C6.99683 10.3214 7.32515 9.7065 7.89062 9.14062L8.10352 8.94043C8.60511 8.50013 9.14112 8.23573 9.6875 8.12402ZM38.6562 8.2373C39.1134 8.08501 39.6796 7.99786 40.3008 8.12207C40.9294 8.24783 41.5438 8.57615 42.1094 9.1416C42.6749 9.70713 43.0031 10.3215 43.1289 10.9502C43.2532 11.5716 43.1661 12.1385 43.0137 12.5957C42.8627 13.0485 42.6414 13.4139 42.4648 13.6611C42.3752 13.7867 42.2928 13.8871 42.2305 13.959C42.1992 13.9951 42.1729 14.0249 42.1523 14.0469C42.1421 14.0578 42.1331 14.0669 42.126 14.0742L42.1123 14.0879L42.1113 14.0898H42.1104C42.11 14.0902 42.1095 14.0909 41.4023 13.3838L42.1094 14.0908L40.3398 15.8604C40.2929 15.9071 39.7153 16.4762 38.833 16.7666C38.376 16.917 37.8119 17.0014 37.1934 16.876C36.5674 16.7489 35.9555 16.4213 35.3926 15.8584C34.8297 15.2955 34.502 14.6836 34.375 14.0576C34.2496 13.4391 34.334 12.8749 34.4844 12.418C34.7748 11.5357 35.3438 10.9582 35.3906 10.9111L37.1602 9.1416L37.7061 9.6875L37.1611 9.14062L37.1768 9.125C37.1841 9.11787 37.1931 9.10889 37.2041 9.09863C37.2261 9.07806 37.2559 9.05178 37.292 9.02051C37.3639 8.95819 37.4642 8.87583 37.5898 8.78613C37.8372 8.6095 38.2032 8.38828 38.6562 8.2373ZM25 1.5C25.8 1.5 26.4664 1.70289 27 2.05859C27.5273 2.41013 27.8665 2.8716 28.082 3.30273C28.2956 3.72995 28.3973 4.14545 28.4473 4.44531C28.4726 4.59744 28.4854 4.72642 28.4922 4.82129C28.4956 4.86886 28.498 4.90839 28.499 4.93848C28.4995 4.95348 28.4998 4.96631 28.5 4.97656V4.99902C28.4997 4.99952 28.4824 5 27.5 5H28.5V7.5H27.5C28.4824 7.5 28.4997 7.50048 28.5 7.50098V7.52344C28.4998 7.53369 28.4995 7.54652 28.499 7.56152C28.498 7.59161 28.4956 7.63114 28.4922 7.67871C28.4854 7.77358 28.4726 7.90256 28.4473 8.05469C28.3973 8.35455 28.2956 8.77005 28.082 9.19727C27.8665 9.6284 27.5273 10.0899 27 10.4414C26.4664 10.7971 25.8 11 25 11C24.2 11 23.5336 10.7971 23 10.4414C22.4727 10.0899 22.1335 9.6284 21.918 9.19727C21.7044 8.77005 21.6027 8.35455 21.5527 8.05469C21.5274 7.90256 21.5146 7.77358 21.5078 7.67871C21.5044 7.63114 21.502 7.59161 21.501 7.56152C21.5005 7.54652 21.5002 7.53369 21.5 7.52344V7.50098C21.5003 7.50048 21.5176 7.5 22.5 7.5H21.5V5H22.5C21.5176 5 21.5003 4.99952 21.5 4.99902V4.97656C21.5002 4.96631 21.5005 4.95348 21.501 4.93848C21.502 4.90839 21.5044 4.86886 21.5078 4.82129C21.5146 4.72642 21.5274 4.59744 21.5527 4.44531C21.6027 4.14545 21.7044 3.72995 21.918 3.30273C22.1335 2.8716 22.4727 2.41013 23 2.05859C23.5336 1.70289 24.2 1.5 25 1.5Z" fill="#FFAC33" stroke="white" stroke-width="2"/>
<path d="M25 40C27.5 40 27.5 42.5 27.5 42.5V45C27.5 45 27.5 47.5 25 47.5C22.5 47.5 22.5 45 22.5 45V42.5C22.5 42.5 22.5 40 25 40Z" fill="#FFAC33"/>
<path d="M11.6172 36.0986C11.6172 36.0986 13.3849 34.3315 15.1523 36.0986C16.9198 37.8661 15.1523 39.6338 15.1523 39.6338L13.3848 41.4014C13.3685 41.4176 11.6089 43.1607 9.84961 41.4014C8.0906 39.6421 9.83348 37.8824 9.84961 37.8662L11.6172 36.0986Z" fill="#FFAC33"/>
<path d="M34.8486 36.0986C36.6084 34.3389 38.3684 36.0833 38.3838 36.0986L40.1514 37.8662C40.1514 37.8662 41.9189 39.6339 40.1514 41.4014C38.3839 43.1688 36.6162 41.4014 36.6162 41.4014L34.8486 39.6338C34.8334 39.6185 33.089 37.8584 34.8486 36.0986Z" fill="#FFAC33"/>
<path d="M25 12.5C31.9037 12.5 37.5 18.0963 37.5 25C37.5 31.9037 31.9037 37.5 25 37.5C18.0963 37.5 12.5 31.9037 12.5 25C12.5 18.0963 18.0963 12.5 25 12.5Z" fill="#FFAC33"/>
<path d="M7.5 22.5C7.5 22.5 10 22.5 10 25C10 27.5 7.5 27.5 7.5 27.5H5C5 27.5 2.5 27.5 2.5 25C2.5 22.5 5 22.5 5 22.5H7.5Z" fill="#FFAC33"/>
<path d="M45 22.5C45 22.5 47.5 22.5 47.5 25C47.5 27.5 45 27.5 45 27.5H42.5C42.5 27.5 40 27.5 40 25C40 22.5 42.5 22.5 42.5 22.5H45Z" fill="#FFAC33"/>
<path d="M8.59766 9.84766C10.3535 8.09338 12.1085 9.8225 12.1338 9.84766L13.9014 11.6172C13.9201 11.636 15.6594 13.3943 13.9014 15.1523C12.1434 16.91 10.385 15.171 10.3662 15.1523L8.59766 13.3848C8.59766 13.3848 6.83016 11.6164 8.59766 9.84766Z" fill="#FFAC33"/>
<path d="M37.8672 9.84863C37.8672 9.84863 39.6349 8.08146 41.4023 9.84863C43.1698 11.6161 41.4023 13.3838 41.4023 13.3838L39.6348 15.1514C39.6184 15.1676 37.8589 16.9106 36.0996 15.1514C34.3406 13.3921 36.0834 11.6325 36.0996 11.6162L37.8672 9.84863Z" fill="#FFAC33"/>
<path d="M25 2.5C27.5 2.5 27.5 5 27.5 5V7.5C27.5 7.5 27.5 10 25 10C22.5 10 22.5 7.5 22.5 7.5V5C22.5 5 22.5 2.5 25 2.5Z" fill="#FFAC33"/>
</svg>
